<svg xmlns="http://www.w3.org/2000/svg" version="1.1" xmlns:xlink="http://www.w3.org/1999/xlink" xmlns:svgjs="http://svgjs.dev/svgjs" width="1440" height="560" preserveAspectRatio="none" viewBox="0 0 1440 560">
    <g mask="url(&quot;#SvgjsMask1012&quot;)" fill="none">
        <path d="M-43.61 359.85L-43.61 359.85" stroke="rgba(121, 168, 206, 1)" stroke-width="1.5"></path>
        <path d="M-43.61 359.85L62.61 411.27" stroke="rgba(121, 168, 206, 1)" stroke-width="1.5"></path>
        <path d="M-43.61 359.85L-45.5 514.73" stroke="rgba(121, 168, 206, 1)" stroke-width="1.5"></path>
        <path d="M-43.61 359.85L195.14 392.97" stroke="rgba(121, 168, 206, 1)" stroke-width="1.5"></path>
        <path d="M-43.61 359.85L200.47 536.97" stroke="rgba(121, 168, 206, 1)" stroke-width="1.5"></path>
        <path d="M-43.61 359.85L-54.09 662.31" stroke="rgba(121, 168, 206, 1)" stroke-width="1.5"></path>
        <path d="M-45.5 514.73L-45.5 514.73" stroke="rgba(121, 168, 206, 1)" stroke-width="1.5"></path>
        <path d="M-45.5 514.73L-54.09 662.31" stroke="rgba(121, 168, 206, 1)" stroke-width="1.5"></path>
        <path d="M-45.5 514.73L62.61 411.27" stroke="rgba(121, 168, 206, 1)" stroke-width="1.5"></path>
        <path d="M-54.09 662.31L-54.09 662.31" stroke="rgba(121, 168, 206, 1)" stroke-width="1.5"></path>
        <path d="M-54.09 662.31L99.82 685.85" stroke="rgba(121, 168, 206, 1)" stroke-width="1.5"></path>
        <path d="M-54.09 662.31L62.61 411.27" stroke="rgba(121, 168, 206, 1)" stroke-width="1.5"></path>
        <path d="M62.61 411.27L62.61 411.27" stroke="rgba(121, 168, 206, 1)" stroke-width="1.5"></path>
        <path d="M62.61 411.27L195.14 392.97" stroke="rgba(121, 168, 206, 1)" stroke-width="1.5"></path>
        <path d="M62.61 411.27L200.47 536.97" stroke="rgba(121, 168, 206, 1)" stroke-width="1.5"></path>
        <path d="M62.61 411.27L99.82 685.85" stroke="rgba(121, 168, 206, 1)" stroke-width="1.5"></path>
        <path d="M99.82 685.85L99.82 685.85" stroke="rgba(121, 168, 206, 1)" stroke-width="1.5"></path>
        <path d="M99.82 685.85L247.55 694.41" stroke="rgba(121, 168, 206, 1)" stroke-width="1.5"></path>
        <path d="M99.82 685.85L200.47 536.97" stroke="rgba(121, 168, 206, 1)" stroke-width="1.5"></path>
        <path d="M99.82 685.85L-45.5 514.73" stroke="rgba(121, 168, 206, 1)" stroke-width="1.5"></path>
        <path d="M195.14 392.97L195.14 392.97" stroke="rgba(121, 168, 206, 1)" stroke-width="1.5"></path>
        <path d="M195.14 392.97L200.47 536.97" stroke="rgba(121, 168, 206, 1)" stroke-width="1.5"></path>
        <path d="M200.47 536.97L200.47 536.97" stroke="rgba(121, 168, 206, 1)" stroke-width="1.5"></path>
        <path d="M247.55 694.41L247.55 694.41" stroke="rgba(121, 168, 206, 1)" stroke-width="1.5"></path>
        <path d="M247.55 694.41L200.47 536.97" stroke="rgba(121, 168, 206, 1)" stroke-width="1.5"></path>
        <path d="M247.55 694.41L348.03 535.45" stroke="rgba(121, 168, 206, 1)" stroke-width="1.5"></path>
        <path d="M247.55 694.41L504.84 706.14" stroke="rgba(121, 168, 206, 1)" stroke-width="1.5"></path>
        <path d="M388.91 357.72L388.91 357.72" stroke="rgba(121, 168, 206, 1)" stroke-width="1.5"></path>
        <path d="M388.91 357.72L510.63 367.53" stroke="rgba(121, 168, 206, 1)" stroke-width="1.5"></path>
        <path d="M388.91 357.72L348.03 535.45" stroke="rgba(121, 168, 206, 1)" stroke-width="1.5"></path>
        <path d="M388.91 357.72L195.14 392.97" stroke="rgba(121, 168, 206, 1)" stroke-width="1.5"></path>
        <path d="M388.91 357.72L200.47 536.97" stroke="rgba(121, 168, 206, 1)" stroke-width="1.5"></path>
        <path d="M348.03 535.45L348.03 535.45" stroke="rgba(121, 168, 206, 1)" stroke-width="1.5"></path>
        <path d="M348.03 535.45L200.47 536.97" stroke="rgba(121, 168, 206, 1)" stroke-width="1.5"></path>
        <path d="M510.63 367.53L510.63 367.53" stroke="rgba(121, 168, 206, 1)" stroke-width="1.5"></path>
        <path d="M510.63 367.53L707.99 358.75" stroke="rgba(121, 168, 206, 1)" stroke-width="1.5"></path>
        <path d="M510.63 367.53L561.36 561.36" stroke="rgba(121, 168, 206, 1)" stroke-width="1.5"></path>
        <path d="M510.63 367.53L681.73 212.91" stroke="rgba(121, 168, 206, 1)" stroke-width="1.5"></path>
        <path d="M561.36 561.36L561.36 561.36" stroke="rgba(121, 168, 206, 1)" stroke-width="1.5"></path>
        <path d="M561.36 561.36L686.1 528.09" stroke="rgba(121, 168, 206, 1)" stroke-width="1.5"></path>
        <path d="M561.36 561.36L663.58 654.42" stroke="rgba(121, 168, 206, 1)" stroke-width="1.5"></path>
        <path d="M561.36 561.36L504.84 706.14" stroke="rgba(121, 168, 206, 1)" stroke-width="1.5"></path>
        <path d="M504.84 706.14L504.84 706.14" stroke="rgba(121, 168, 206, 1)" stroke-width="1.5"></path>
        <path d="M504.84 706.14L663.58 654.42" stroke="rgba(121, 168, 206, 1)" stroke-width="1.5"></path>
        <path d="M504.84 706.14L348.03 535.45" stroke="rgba(121, 168, 206, 1)" stroke-width="1.5"></path>
        <path d="M681.73 212.91L681.73 212.91" stroke="rgba(121, 168, 206, 1)" stroke-width="1.5"></path>
        <path d="M681.73 212.91L812.68 255.54" stroke="rgba(121, 168, 206, 1)" stroke-width="1.5"></path>
        <path d="M681.73 212.91L707.99 358.75" stroke="rgba(121, 168, 206, 1)" stroke-width="1.5"></path>
        <path d="M681.73 212.91L820.86 409.11" stroke="rgba(121, 168, 206, 1)" stroke-width="1.5"></path>
        <path d="M681.73 212.91L962.8 205.18" stroke="rgba(121, 168, 206, 1)" stroke-width="1.5"></path>
        <path d="M681.73 212.91L943.1 343.53" stroke="rgba(121, 168, 206, 1)" stroke-width="1.5"></path>
        <path d="M707.99 358.75L707.99 358.75" stroke="rgba(121, 168, 206, 1)" stroke-width="1.5"></path>
        <path d="M707.99 358.75L820.86 409.11" stroke="rgba(121, 168, 206, 1)" stroke-width="1.5"></path>
        <path d="M707.99 358.75L812.68 255.54" stroke="rgba(121, 168, 206, 1)" stroke-width="1.5"></path>
        <path d="M686.1 528.09L686.1 528.09" stroke="rgba(121, 168, 206, 1)" stroke-width="1.5"></path>
        <path d="M686.1 528.09L663.58 654.42" stroke="rgba(121, 168, 206, 1)" stroke-width="1.5"></path>
        <path d="M663.58 654.42L663.58 654.42" stroke="rgba(121, 168, 206, 1)" stroke-width="1.5"></path>
        <path d="M663.58 654.42L823.14 643.45" stroke="rgba(121, 168, 206, 1)" stroke-width="1.5"></path>
        <path d="M812.68 255.54L812.68 255.54" stroke="rgba(121, 168, 206, 1)" stroke-width="1.5"></path>
        <path d="M812.68 255.54L820.86 409.11" stroke="rgba(121, 168, 206, 1)" stroke-width="1.5"></path>
        <path d="M820.86 409.11L820.86 409.11" stroke="rgba(121, 168, 206, 1)" stroke-width="1.5"></path>
        <path d="M820.86 409.11L943.1 343.53" stroke="rgba(121, 168, 206, 1)" stroke-width="1.5"></path>
        <path d="M820.86 409.11L848.76 560.73" stroke="rgba(121, 168, 206, 1)" stroke-width="1.5"></path>
        <path d="M820.86 409.11L686.1 528.09" stroke="rgba(121, 168, 206, 1)" stroke-width="1.5"></path>
        <path d="M848.76 560.73L848.76 560.73" stroke="rgba(121, 168, 206, 1)" stroke-width="1.5"></path>
        <path d="M848.76 560.73L823.14 643.45" stroke="rgba(121, 168, 206, 1)" stroke-width="1.5"></path>
        <path d="M848.76 560.73L960.87 541.03" stroke="rgba(121, 168, 206, 1)" stroke-width="1.5"></path>
        <path d="M823.14 643.45L823.14 643.45" stroke="rgba(121, 168, 206, 1)" stroke-width="1.5"></path>
        <path d="M823.14 643.45L953.64 710.22" stroke="rgba(121, 168, 206, 1)" stroke-width="1.5"></path>
        <path d="M823.14 643.45L960.87 541.03" stroke="rgba(121, 168, 206, 1)" stroke-width="1.5"></path>
        <path d="M823.14 643.45L686.1 528.09" stroke="rgba(121, 168, 206, 1)" stroke-width="1.5"></path>
        <path d="M823.14 643.45L820.86 409.11" stroke="rgba(121, 168, 206, 1)" stroke-width="1.5"></path>
        <path d="M999.85 -49.42L999.85 -49.42" stroke="rgba(121, 168, 206, 1)" stroke-width="1.5"></path>
        <path d="M999.85 -49.42L1153.47 -54.53" stroke="rgba(121, 168, 206, 1)" stroke-width="1.5"></path>
        <path d="M999.85 -49.42L1112.11 63.21" stroke="rgba(121, 168, 206, 1)" stroke-width="1.5"></path>
        <path d="M999.85 -49.42L962.8 205.18" stroke="rgba(121, 168, 206, 1)" stroke-width="1.5"></path>
        <path d="M962.8 205.18L962.8 205.18" stroke="rgba(121, 168, 206, 1)" stroke-width="1.5"></path>
        <path d="M962.8 205.18L943.1 343.53" stroke="rgba(121, 168, 206, 1)" stroke-width="1.5"></path>
        <path d="M962.8 205.18L812.68 255.54" stroke="rgba(121, 168, 206, 1)" stroke-width="1.5"></path>
        <path d="M943.1 343.53L943.1 343.53" stroke="rgba(121, 168, 206, 1)" stroke-width="1.5"></path>
        <path d="M943.1 343.53L1096.29 376.46" stroke="rgba(121, 168, 206, 1)" stroke-width="1.5"></path>
        <path d="M943.1 343.53L812.68 255.54" stroke="rgba(121, 168, 206, 1)" stroke-width="1.5"></path>
        <path d="M960.87 541.03L960.87 541.03" stroke="rgba(121, 168, 206, 1)" stroke-width="1.5"></path>
        <path d="M960.87 541.03L953.64 710.22" stroke="rgba(121, 168, 206, 1)" stroke-width="1.5"></path>
        <path d="M953.64 710.22L953.64 710.22" stroke="rgba(121, 168, 206, 1)" stroke-width="1.5"></path>
        <path d="M953.64 710.22L1099.95 656.1" stroke="rgba(121, 168, 206, 1)" stroke-width="1.5"></path>
        <path d="M1153.47 -54.53L1153.47 -54.53" stroke="rgba(121, 168, 206, 1)" stroke-width="1.5"></path>
        <path d="M1153.47 -54.53L1112.11 63.21" stroke="rgba(121, 168, 206, 1)" stroke-width="1.5"></path>
        <path d="M1153.47 -54.53L1300.7 -79.47" stroke="rgba(121, 168, 206, 1)" stroke-width="1.5"></path>
        <path d="M1153.47 -54.53L1255.47 95.01" stroke="rgba(121, 168, 206, 1)" stroke-width="1.5"></path>
        <path d="M1153.47 -54.53L1415.27 -104.5" stroke="rgba(121, 168, 206, 1)" stroke-width="1.5"></path>
        <path d="M1112.11 63.21L1112.11 63.21" stroke="rgba(121, 168, 206, 1)" stroke-width="1.5"></path>
        <path d="M1112.11 63.21L1255.47 95.01" stroke="rgba(121, 168, 206, 1)" stroke-width="1.5"></path>
        <path d="M1112.11 63.21L1120.47 235.77" stroke="rgba(121, 168, 206, 1)" stroke-width="1.5"></path>
        <path d="M1112.11 63.21L962.8 205.18" stroke="rgba(121, 168, 206, 1)" stroke-width="1.5"></path>
        <path d="M1112.11 63.21L1291.83 216.77" stroke="rgba(121, 168, 206, 1)" stroke-width="1.5"></path>
        <path d="M1120.47 235.77L1120.47 235.77" stroke="rgba(121, 168, 206, 1)" stroke-width="1.5"></path>
        <path d="M1120.47 235.77L1096.29 376.46" stroke="rgba(121, 168, 206, 1)" stroke-width="1.5"></path>
        <path d="M1120.47 235.77L962.8 205.18" stroke="rgba(121, 168, 206, 1)" stroke-width="1.5"></path>
        <path d="M1120.47 235.77L1246.47 352.29" stroke="rgba(121, 168, 206, 1)" stroke-width="1.5"></path>
        <path d="M1120.47 235.77L1291.83 216.77" stroke="rgba(121, 168, 206, 1)" stroke-width="1.5"></path>
        <path d="M1120.47 235.77L1255.47 95.01" stroke="rgba(121, 168, 206, 1)" stroke-width="1.5"></path>
        <path d="M1096.29 376.46L1096.29 376.46" stroke="rgba(121, 168, 206, 1)" stroke-width="1.5"></path>
        <path d="M1096.29 376.46L1246.47 352.29" stroke="rgba(121, 168, 206, 1)" stroke-width="1.5"></path>
        <path d="M1096.29 376.46L1152.91 559.36" stroke="rgba(121, 168, 206, 1)" stroke-width="1.5"></path>
        <path d="M1096.29 376.46L960.87 541.03" stroke="rgba(121, 168, 206, 1)" stroke-width="1.5"></path>
        <path d="M1096.29 376.46L962.8 205.18" stroke="rgba(121, 168, 206, 1)" stroke-width="1.5"></path>
        <path d="M1152.91 559.36L1152.91 559.36" stroke="rgba(121, 168, 206, 1)" stroke-width="1.5"></path>
        <path d="M1152.91 559.36L1099.95 656.1" stroke="rgba(121, 168, 206, 1)" stroke-width="1.5"></path>
        <path d="M1152.91 559.36L1286.36 515.5" stroke="rgba(121, 168, 206, 1)" stroke-width="1.5"></path>
        <path d="M1152.91 559.36L1291.85 671.51" stroke="rgba(121, 168, 206, 1)" stroke-width="1.5"></path>
        <path d="M1152.91 559.36L960.87 541.03" stroke="rgba(121, 168, 206, 1)" stroke-width="1.5"></path>
        <path d="M1152.91 559.36L1246.47 352.29" stroke="rgba(121, 168, 206, 1)" stroke-width="1.5"></path>
        <path d="M1099.95 656.1L1099.95 656.1" stroke="rgba(121, 168, 206, 1)" stroke-width="1.5"></path>
        <path d="M1300.7 -79.47L1300.7 -79.47" stroke="rgba(121, 168, 206, 1)" stroke-width="1.5"></path>
        <path d="M1300.7 -79.47L1415.27 -104.5" stroke="rgba(121, 168, 206, 1)" stroke-width="1.5"></path>
        <path d="M1300.7 -79.47L1255.47 95.01" stroke="rgba(121, 168, 206, 1)" stroke-width="1.5"></path>
        <path d="M1300.7 -79.47L1439.7 44.37" stroke="rgba(121, 168, 206, 1)" stroke-width="1.5"></path>
        <path d="M1300.7 -79.47L1112.11 63.21" stroke="rgba(121, 168, 206, 1)" stroke-width="1.5"></path>
        <path d="M1300.7 -79.47L1582.35 -105.83" stroke="rgba(121, 168, 206, 1)" stroke-width="1.5"></path>
        <path d="M1255.47 95.01L1255.47 95.01" stroke="rgba(121, 168, 206, 1)" stroke-width="1.5"></path>
        <path d="M1255.47 95.01L1291.83 216.77" stroke="rgba(121, 168, 206, 1)" stroke-width="1.5"></path>
        <path d="M1255.47 95.01L1395.08 190.53" stroke="rgba(121, 168, 206, 1)" stroke-width="1.5"></path>
        <path d="M1291.83 216.77L1291.83 216.77" stroke="rgba(121, 168, 206, 1)" stroke-width="1.5"></path>
        <path d="M1291.83 216.77L1395.08 190.53" stroke="rgba(121, 168, 206, 1)" stroke-width="1.5"></path>
        <path d="M1246.47 352.29L1246.47 352.29" stroke="rgba(121, 168, 206, 1)" stroke-width="1.5"></path>
        <path d="M1246.47 352.29L1291.83 216.77" stroke="rgba(121, 168, 206, 1)" stroke-width="1.5"></path>
        <path d="M1286.36 515.5L1286.36 515.5" stroke="rgba(121, 168, 206, 1)" stroke-width="1.5"></path>
        <path d="M1286.36 515.5L1291.85 671.51" stroke="rgba(121, 168, 206, 1)" stroke-width="1.5"></path>
        <path d="M1286.36 515.5L1447.05 546.44" stroke="rgba(121, 168, 206, 1)" stroke-width="1.5"></path>
        <path d="M1286.36 515.5L1246.47 352.29" stroke="rgba(121, 168, 206, 1)" stroke-width="1.5"></path>
        <path d="M1291.85 671.51L1291.85 671.51" stroke="rgba(121, 168, 206, 1)" stroke-width="1.5"></path>
        <path d="M1291.85 671.51L1432.53 691.57" stroke="rgba(121, 168, 206, 1)" stroke-width="1.5"></path>
        <path d="M1291.85 671.51L1099.95 656.1" stroke="rgba(121, 168, 206, 1)" stroke-width="1.5"></path>
        <path d="M1291.85 671.51L1447.05 546.44" stroke="rgba(121, 168, 206, 1)" stroke-width="1.5"></path>
        <path d="M1415.27 -104.5L1415.27 -104.5" stroke="rgba(121, 168, 206, 1)" stroke-width="1.5"></path>
        <path d="M1415.27 -104.5L1439.7 44.37" stroke="rgba(121, 168, 206, 1)" stroke-width="1.5"></path>
        <path d="M1415.27 -104.5L1582.35 -105.83" stroke="rgba(121, 168, 206, 1)" stroke-width="1.5"></path>
        <path d="M1415.27 -104.5L1587.79 55.56" stroke="rgba(121, 168, 206, 1)" stroke-width="1.5"></path>
        <path d="M1415.27 -104.5L1255.47 95.01" stroke="rgba(121, 168, 206, 1)" stroke-width="1.5"></path>
        <path d="M1439.7 44.37L1439.7 44.37" stroke="rgba(121, 168, 206, 1)" stroke-width="1.5"></path>
        <path d="M1439.7 44.37L1587.79 55.56" stroke="rgba(121, 168, 206, 1)" stroke-width="1.5"></path>
        <path d="M1439.7 44.37L1395.08 190.53" stroke="rgba(121, 168, 206, 1)" stroke-width="1.5"></path>
        <path d="M1395.08 190.53L1395.08 190.53" stroke="rgba(121, 168, 206, 1)" stroke-width="1.5"></path>
        <path d="M1429.81 368.37L1429.81 368.37" stroke="rgba(121, 168, 206, 1)" stroke-width="1.5"></path>
        <path d="M1429.81 368.37L1580.54 404.68" stroke="rgba(121, 168, 206, 1)" stroke-width="1.5"></path>
        <path d="M1429.81 368.37L1447.05 546.44" stroke="rgba(121, 168, 206, 1)" stroke-width="1.5"></path>
        <path d="M1429.81 368.37L1395.08 190.53" stroke="rgba(121, 168, 206, 1)" stroke-width="1.5"></path>
        <path d="M1447.05 546.44L1447.05 546.44" stroke="rgba(121, 168, 206, 1)" stroke-width="1.5"></path>
        <path d="M1447.05 546.44L1432.53 691.57" stroke="rgba(121, 168, 206, 1)" stroke-width="1.5"></path>
        <path d="M1447.05 546.44L1603.53 652.2" stroke="rgba(121, 168, 206, 1)" stroke-width="1.5"></path>
        <path d="M1432.53 691.57L1432.53 691.57" stroke="rgba(121, 168, 206, 1)" stroke-width="1.5"></path>
        <path d="M1432.53 691.57L1603.53 652.2" stroke="rgba(121, 168, 206, 1)" stroke-width="1.5"></path>
        <path d="M1582.35 -105.83L1582.35 -105.83" stroke="rgba(121, 168, 206, 1)" stroke-width="1.5"></path>
        <path d="M1582.35 -105.83L1587.79 55.56" stroke="rgba(121, 168, 206, 1)" stroke-width="1.5"></path>
        <path d="M1582.35 -105.83L1439.7 44.37" stroke="rgba(121, 168, 206, 1)" stroke-width="1.5"></path>
        <path d="M1582.35 -105.83L1600.16 191.18" stroke="rgba(121, 168, 206, 1)" stroke-width="1.5"></path>
        <path d="M1582.35 -105.83L1395.08 190.53" stroke="rgba(121, 168, 206, 1)" stroke-width="1.5"></path>
        <path d="M1587.79 55.56L1587.79 55.56" stroke="rgba(121, 168, 206, 1)" stroke-width="1.5"></path>
        <path d="M1587.79 55.56L1600.16 191.18" stroke="rgba(121, 168, 206, 1)" stroke-width="1.5"></path>
        <path d="M1587.79 55.56L1395.08 190.53" stroke="rgba(121, 168, 206, 1)" stroke-width="1.5"></path>
        <path d="M1587.79 55.56L1300.7 -79.47" stroke="rgba(121, 168, 206, 1)" stroke-width="1.5"></path>
        <path d="M1600.16 191.18L1600.16 191.18" stroke="rgba(121, 168, 206, 1)" stroke-width="1.5"></path>
        <path d="M1600.16 191.18L1395.08 190.53" stroke="rgba(121, 168, 206, 1)" stroke-width="1.5"></path>
        <path d="M1600.16 191.18L1580.54 404.68" stroke="rgba(121, 168, 206, 1)" stroke-width="1.5"></path>
        <path d="M1600.16 191.18L1439.7 44.37" stroke="rgba(121, 168, 206, 1)" stroke-width="1.5"></path>
        <path d="M1580.54 404.68L1580.54 404.68" stroke="rgba(121, 168, 206, 1)" stroke-width="1.5"></path>
        <path d="M1580.54 404.68L1447.05 546.44" stroke="rgba(121, 168, 206, 1)" stroke-width="1.5"></path>
        <path d="M1603.53 652.2L1603.53 652.2" stroke="rgba(121, 168, 206, 1)" stroke-width="1.5"></path>
        <path d="M1603.53 652.2L1580.54 404.68" stroke="rgba(121, 168, 206, 1)" stroke-width="1.5"></path>
        <circle r="5" cx="-43.61" cy="359.85" fill="rgba(121, 168, 206, 1)"></circle>
        <circle r="5" cx="-45.5" cy="514.73" fill="rgba(121, 168, 206, 1)"></circle>
        <circle r="5" cx="-54.09" cy="662.31" fill="rgba(121, 168, 206, 1)"></circle>
        <circle r="5" cx="62.61" cy="411.27" fill="rgba(121, 168, 206, 1)"></circle>
        <circle r="5" cx="99.82" cy="685.85" fill="rgba(121, 168, 206, 1)"></circle>
        <circle r="5" cx="195.14" cy="392.97" fill="rgba(121, 168, 206, 1)"></circle>
        <circle r="5" cx="200.47" cy="536.97" fill="rgba(121, 168, 206, 1)"></circle>
        <circle r="5" cx="247.55" cy="694.41" fill="rgba(121, 168, 206, 1)"></circle>
        <circle r="5" cx="388.91" cy="357.72" fill="rgba(121, 168, 206, 1)"></circle>
        <circle r="5" cx="348.03" cy="535.45" fill="rgba(121, 168, 206, 1)"></circle>
        <circle r="5" cx="510.63" cy="367.53" fill="rgba(121, 168, 206, 1)"></circle>
        <circle r="5" cx="561.36" cy="561.36" fill="rgba(121, 168, 206, 1)"></circle>
        <circle r="5" cx="504.84" cy="706.14" fill="rgba(121, 168, 206, 1)"></circle>
        <circle r="5" cx="681.73" cy="212.91" fill="rgba(121, 168, 206, 1)"></circle>
        <circle r="5" cx="707.99" cy="358.75" fill="rgba(121, 168, 206, 1)"></circle>
        <circle r="5" cx="686.1" cy="528.09" fill="rgba(121, 168, 206, 1)"></circle>
        <circle r="5" cx="663.58" cy="654.42" fill="rgba(121, 168, 206, 1)"></circle>
        <circle r="5" cx="812.68" cy="255.54" fill="rgba(121, 168, 206, 1)"></circle>
        <circle r="5" cx="820.86" cy="409.11" fill="rgba(121, 168, 206, 1)"></circle>
        <circle r="5" cx="848.76" cy="560.73" fill="rgba(121, 168, 206, 1)"></circle>
        <circle r="5" cx="823.14" cy="643.45" fill="rgba(121, 168, 206, 1)"></circle>
        <circle r="5" cx="999.85" cy="-49.42" fill="rgba(121, 168, 206, 1)"></circle>
        <circle r="5" cx="962.8" cy="205.18" fill="rgba(121, 168, 206, 1)"></circle>
        <circle r="5" cx="943.1" cy="343.53" fill="rgba(121, 168, 206, 1)"></circle>
        <circle r="5" cx="960.87" cy="541.03" fill="rgba(121, 168, 206, 1)"></circle>
        <circle r="5" cx="953.64" cy="710.22" fill="rgba(121, 168, 206, 1)"></circle>
        <circle r="5" cx="1153.47" cy="-54.53" fill="rgba(121, 168, 206, 1)"></circle>
        <circle r="5" cx="1112.11" cy="63.21" fill="rgba(121, 168, 206, 1)"></circle>
        <circle r="5" cx="1120.47" cy="235.77" fill="rgba(121, 168, 206, 1)"></circle>
        <circle r="5" cx="1096.29" cy="376.46" fill="rgba(121, 168, 206, 1)"></circle>
        <circle r="5" cx="1152.91" cy="559.36" fill="rgba(121, 168, 206, 1)"></circle>
        <circle r="5" cx="1099.95" cy="656.1" fill="rgba(121, 168, 206, 1)"></circle>
        <circle r="5" cx="1300.7" cy="-79.47" fill="rgba(121, 168, 206, 1)"></circle>
        <circle r="5" cx="1255.47" cy="95.01" fill="rgba(121, 168, 206, 1)"></circle>
        <circle r="5" cx="1291.83" cy="216.77" fill="rgba(121, 168, 206, 1)"></circle>
        <circle r="5" cx="1246.47" cy="352.29" fill="rgba(121, 168, 206, 1)"></circle>
        <circle r="5" cx="1286.36" cy="515.5" fill="rgba(121, 168, 206, 1)"></circle>
        <circle r="5" cx="1291.85" cy="671.51" fill="rgba(121, 168, 206, 1)"></circle>
        <circle r="5" cx="1415.27" cy="-104.5" fill="rgba(121, 168, 206, 1)"></circle>
        <circle r="5" cx="1439.7" cy="44.37" fill="rgba(121, 168, 206, 1)"></circle>
        <circle r="5" cx="1395.08" cy="190.53" fill="rgba(121, 168, 206, 1)"></circle>
        <circle r="5" cx="1429.81" cy="368.37" fill="rgba(121, 168, 206, 1)"></circle>
        <circle r="5" cx="1447.05" cy="546.44" fill="rgba(121, 168, 206, 1)"></circle>
        <circle r="5" cx="1432.53" cy="691.57" fill="rgba(121, 168, 206, 1)"></circle>
        <circle r="5" cx="1582.35" cy="-105.83" fill="rgba(121, 168, 206, 1)"></circle>
        <circle r="5" cx="1587.79" cy="55.56" fill="rgba(121, 168, 206, 1)"></circle>
        <circle r="5" cx="1600.16" cy="191.18" fill="rgba(121, 168, 206, 1)"></circle>
        <circle r="5" cx="1580.54" cy="404.68" fill="rgba(121, 168, 206, 1)"></circle>
        <circle r="5" cx="1603.53" cy="652.2" fill="rgba(121, 168, 206, 1)"></circle>
        <path d="M386.76 654.19L386.76 654.19" stroke="hsl(203.60000000000002, 49.6%, 67.3%)" stroke-width="1.5"></path>
        <path d="M386.76 654.19L356.69 557.97" stroke="hsl(203.60000000000002, 49.6%, 67.3%)" stroke-width="1.5"></path>
        <path d="M386.76 654.19L494.26 677.35" stroke="hsl(203.60000000000002, 49.6%, 67.3%)" stroke-width="1.5"></path>
        <path d="M386.76 654.19L222.39 672.72" stroke="hsl(203.60000000000002, 49.6%, 67.3%)" stroke-width="1.5"></path>
        <path d="M386.76 654.19L491.87 496.52" stroke="hsl(203.60000000000002, 49.6%, 67.3%)" stroke-width="1.5"></path>
        <path d="M802.1 679.25L802.1 679.25" stroke="hsl(203.60000000000002, 49.6%, 67.3%)" stroke-width="1.5"></path>
        <path d="M802.1 679.25L706.14 704.61" stroke="hsl(203.60000000000002, 49.6%, 67.3%)" stroke-width="1.5"></path>
        <path d="M802.1 679.25L948.15 658.58" stroke="hsl(203.60000000000002, 49.6%, 67.3%)" stroke-width="1.5"></path>
        <path d="M802.1 679.25L828.41 511.87" stroke="hsl(203.60000000000002, 49.6%, 67.3%)" stroke-width="1.5"></path>
        <path d="M976.61 248.32L976.61 248.32" stroke="hsl(203.60000000000002, 49.6%, 67.3%)" stroke-width="1.5"></path>
        <path d="M976.61 248.32L979.16 362.35" stroke="hsl(203.60000000000002, 49.6%, 67.3%)" stroke-width="1.5"></path>
        <path d="M1286.54 60.63L1286.54 60.63" stroke="hsl(203.60000000000002, 49.6%, 67.3%)" stroke-width="1.5"></path>
        <path d="M1286.54 60.63L1255.56 198.14" stroke="hsl(203.60000000000002, 49.6%, 67.3%)" stroke-width="1.5"></path>
        <path d="M1286.54 60.63L1240.39 -75.23" stroke="hsl(203.60000000000002, 49.6%, 67.3%)" stroke-width="1.5"></path>
        <path d="M1286.54 60.63L1432.83 -82.47" stroke="hsl(203.60000000000002, 49.6%, 67.3%)" stroke-width="1.5"></path>
        <path d="M1286.54 60.63L1397.25 234.83" stroke="hsl(203.60000000000002, 49.6%, 67.3%)" stroke-width="1.5"></path>
        <path d="M1286.54 60.63L1098.31 195.27" stroke="hsl(203.60000000000002, 49.6%, 67.3%)" stroke-width="1.5"></path>
        <path d="M1286.54 60.63L1537.88 -50.12" stroke="hsl(203.60000000000002, 49.6%, 67.3%)" stroke-width="1.5"></path>
        <path d="M1432.83 -82.47L1432.83 -82.47" stroke="hsl(203.60000000000002, 49.6%, 67.3%)" stroke-width="1.5"></path>
        <path d="M1432.83 -82.47L1537.88 -50.12" stroke="hsl(203.60000000000002, 49.6%, 67.3%)" stroke-width="1.5"></path>
        <path d="M1432.83 -82.47L1240.39 -75.23" stroke="hsl(203.60000000000002, 49.6%, 67.3%)" stroke-width="1.5"></path>
        <path d="M1432.83 -82.47L1589.36 46.94" stroke="hsl(203.60000000000002, 49.6%, 67.3%)" stroke-width="1.5"></path>
        <path d="M1432.83 -82.47L1397.25 234.83" stroke="hsl(203.60000000000002, 49.6%, 67.3%)" stroke-width="1.5"></path>
        <path d="M1432.83 -82.47L1539.95 221.92" stroke="hsl(203.60000000000002, 49.6%, 67.3%)" stroke-width="1.5"></path>
        <path d="M1430.05 491.49L1430.05 491.49" stroke="hsl(203.60000000000002, 49.6%, 67.3%)" stroke-width="1.5"></path>
        <path d="M1430.05 491.49L1456.99 367.32" stroke="hsl(203.60000000000002, 49.6%, 67.3%)" stroke-width="1.5"></path>
        <path d="M1430.05 491.49L1266.9 520.94" stroke="hsl(203.60000000000002, 49.6%, 67.3%)" stroke-width="1.5"></path>
        <path d="M1430.05 491.49L1595.22 555.51" stroke="hsl(203.60000000000002, 49.6%, 67.3%)" stroke-width="1.5"></path>
        <path d="M1430.05 491.49L1545.25 343.4" stroke="hsl(203.60000000000002, 49.6%, 67.3%)" stroke-width="1.5"></path>
        <path d="M1430.05 491.49L1410.35 704.45" stroke="hsl(203.60000000000002, 49.6%, 67.3%)" stroke-width="1.5"></path>
        <path d="M1430.05 491.49L1246.2 373.36" stroke="hsl(203.60000000000002, 49.6%, 67.3%)" stroke-width="1.5"></path>
        <path d="M1537.88 -50.12L1537.88 -50.12" stroke="hsl(203.60000000000002, 49.6%, 67.3%)" stroke-width="1.5"></path>
        <path d="M1537.88 -50.12L1589.36 46.94" stroke="hsl(203.60000000000002, 49.6%, 67.3%)" stroke-width="1.5"></path>
        <path d="M1537.88 -50.12L1539.95 221.92" stroke="hsl(203.60000000000002, 49.6%, 67.3%)" stroke-width="1.5"></path>
        <path d="M1589.36 46.94L1589.36 46.94" stroke="hsl(203.60000000000002, 49.6%, 67.3%)" stroke-width="1.5"></path>
        <path d="M1589.36 46.94L1539.95 221.92" stroke="hsl(203.60000000000002, 49.6%, 67.3%)" stroke-width="1.5"></path>
        <path d="M1589.36 46.94L1397.25 234.83" stroke="hsl(203.60000000000002, 49.6%, 67.3%)" stroke-width="1.5"></path>
        <path d="M1539.95 221.92L1539.95 221.92" stroke="hsl(203.60000000000002, 49.6%, 67.3%)" stroke-width="1.5"></path>
        <path d="M1539.95 221.92L1545.25 343.4" stroke="hsl(203.60000000000002, 49.6%, 67.3%)" stroke-width="1.5"></path>
        <path d="M1539.95 221.92L1397.25 234.83" stroke="hsl(203.60000000000002, 49.6%, 67.3%)" stroke-width="1.5"></path>
        <path d="M1545.25 343.4L1545.25 343.4" stroke="hsl(203.60000000000002, 49.6%, 67.3%)" stroke-width="1.5"></path>
        <path d="M1545.25 343.4L1456.99 367.32" stroke="hsl(203.60000000000002, 49.6%, 67.3%)" stroke-width="1.5"></path>
        <path d="M1545.25 343.4L1397.25 234.83" stroke="hsl(203.60000000000002, 49.6%, 67.3%)" stroke-width="1.5"></path>
        <path d="M1545.25 343.4L1595.22 555.51" stroke="hsl(203.60000000000002, 49.6%, 67.3%)" stroke-width="1.5"></path>
        <path d="M-52.85 524.66L-52.85 524.66" stroke="hsl(203.60000000000002, 49.6%, 67.3%)" stroke-width="1.5"></path>
        <path d="M-52.85 524.66L-66.12 704.22" stroke="hsl(203.60000000000002, 49.6%, 67.3%)" stroke-width="1.5"></path>
        <path d="M-52.85 524.66L246.9 514.89" stroke="hsl(203.60000000000002, 49.6%, 67.3%)" stroke-width="1.5"></path>
        <path d="M-52.85 524.66L222.39 672.72" stroke="hsl(203.60000000000002, 49.6%, 67.3%)" stroke-width="1.5"></path>
        <path d="M-66.12 704.22L-66.12 704.22" stroke="hsl(203.60000000000002, 49.6%, 67.3%)" stroke-width="1.5"></path>
        <path d="M-66.12 704.22L222.39 672.72" stroke="hsl(203.60000000000002, 49.6%, 67.3%)" stroke-width="1.5"></path>
        <path d="M-66.12 704.22L246.9 514.89" stroke="hsl(203.60000000000002, 49.6%, 67.3%)" stroke-width="1.5"></path>
        <path d="M-66.12 704.22L356.69 557.97" stroke="hsl(203.60000000000002, 49.6%, 67.3%)" stroke-width="1.5"></path>
        <path d="M-66.12 704.22L386.76 654.19" stroke="hsl(203.60000000000002, 49.6%, 67.3%)" stroke-width="1.5"></path>
        <path d="M-66.12 704.22L494.26 677.35" stroke="hsl(203.60000000000002, 49.6%, 67.3%)" stroke-width="1.5"></path>
        <path d="M246.9 514.89L246.9 514.89" stroke="hsl(203.60000000000002, 49.6%, 67.3%)" stroke-width="1.5"></path>
        <path d="M246.9 514.89L356.69 557.97" stroke="hsl(203.60000000000002, 49.6%, 67.3%)" stroke-width="1.5"></path>
        <path d="M246.9 514.89L222.39 672.72" stroke="hsl(203.60000000000002, 49.6%, 67.3%)" stroke-width="1.5"></path>
        <path d="M246.9 514.89L386.76 654.19" stroke="hsl(203.60000000000002, 49.6%, 67.3%)" stroke-width="1.5"></path>
        <path d="M246.9 514.89L491.87 496.52" stroke="hsl(203.60000000000002, 49.6%, 67.3%)" stroke-width="1.5"></path>
        <path d="M222.39 672.72L222.39 672.72" stroke="hsl(203.60000000000002, 49.6%, 67.3%)" stroke-width="1.5"></path>
        <path d="M222.39 672.72L356.69 557.97" stroke="hsl(203.60000000000002, 49.6%, 67.3%)" stroke-width="1.5"></path>
        <path d="M222.39 672.72L494.26 677.35" stroke="hsl(203.60000000000002, 49.6%, 67.3%)" stroke-width="1.5"></path>
        <path d="M356.69 557.97L356.69 557.97" stroke="hsl(203.60000000000002, 49.6%, 67.3%)" stroke-width="1.5"></path>
        <path d="M356.69 557.97L491.87 496.52" stroke="hsl(203.60000000000002, 49.6%, 67.3%)" stroke-width="1.5"></path>
        <path d="M491.87 496.52L491.87 496.52" stroke="hsl(203.60000000000002, 49.6%, 67.3%)" stroke-width="1.5"></path>
        <path d="M491.87 496.52L640.11 509.59" stroke="hsl(203.60000000000002, 49.6%, 67.3%)" stroke-width="1.5"></path>
        <path d="M491.87 496.52L494.26 677.35" stroke="hsl(203.60000000000002, 49.6%, 67.3%)" stroke-width="1.5"></path>
        <path d="M494.26 677.35L494.26 677.35" stroke="hsl(203.60000000000002, 49.6%, 67.3%)" stroke-width="1.5"></path>
        <path d="M494.26 677.35L356.69 557.97" stroke="hsl(203.60000000000002, 49.6%, 67.3%)" stroke-width="1.5"></path>
        <path d="M670.89 409.21L670.89 409.21" stroke="hsl(203.60000000000002, 49.6%, 67.3%)" stroke-width="1.5"></path>
        <path d="M670.89 409.21L640.11 509.59" stroke="hsl(203.60000000000002, 49.6%, 67.3%)" stroke-width="1.5"></path>
        <path d="M670.89 409.21L844.04 376.52" stroke="hsl(203.60000000000002, 49.6%, 67.3%)" stroke-width="1.5"></path>
        <path d="M670.89 409.21L828.41 511.87" stroke="hsl(203.60000000000002, 49.6%, 67.3%)" stroke-width="1.5"></path>
        <path d="M670.89 409.21L491.87 496.52" stroke="hsl(203.60000000000002, 49.6%, 67.3%)" stroke-width="1.5"></path>
        <path d="M670.89 409.21L706.14 704.61" stroke="hsl(203.60000000000002, 49.6%, 67.3%)" stroke-width="1.5"></path>
        <path d="M640.11 509.59L640.11 509.59" stroke="hsl(203.60000000000002, 49.6%, 67.3%)" stroke-width="1.5"></path>
        <path d="M640.11 509.59L828.41 511.87" stroke="hsl(203.60000000000002, 49.6%, 67.3%)" stroke-width="1.5"></path>
        <path d="M706.14 704.61L706.14 704.61" stroke="hsl(203.60000000000002, 49.6%, 67.3%)" stroke-width="1.5"></path>
        <path d="M706.14 704.61L640.11 509.59" stroke="hsl(203.60000000000002, 49.6%, 67.3%)" stroke-width="1.5"></path>
        <path d="M706.14 704.61L494.26 677.35" stroke="hsl(203.60000000000002, 49.6%, 67.3%)" stroke-width="1.5"></path>
        <path d="M844.04 376.52L844.04 376.52" stroke="hsl(203.60000000000002, 49.6%, 67.3%)" stroke-width="1.5"></path>
        <path d="M844.04 376.52L979.16 362.35" stroke="hsl(203.60000000000002, 49.6%, 67.3%)" stroke-width="1.5"></path>
        <path d="M844.04 376.52L828.41 511.87" stroke="hsl(203.60000000000002, 49.6%, 67.3%)" stroke-width="1.5"></path>
        <path d="M844.04 376.52L976.61 248.32" stroke="hsl(203.60000000000002, 49.6%, 67.3%)" stroke-width="1.5"></path>
        <path d="M844.04 376.52L958.51 560.53" stroke="hsl(203.60000000000002, 49.6%, 67.3%)" stroke-width="1.5"></path>
        <path d="M828.41 511.87L828.41 511.87" stroke="hsl(203.60000000000002, 49.6%, 67.3%)" stroke-width="1.5"></path>
        <path d="M828.41 511.87L958.51 560.53" stroke="hsl(203.60000000000002, 49.6%, 67.3%)" stroke-width="1.5"></path>
        <path d="M979.16 362.35L979.16 362.35" stroke="hsl(203.60000000000002, 49.6%, 67.3%)" stroke-width="1.5"></path>
        <path d="M979.16 362.35L958.51 560.53" stroke="hsl(203.60000000000002, 49.6%, 67.3%)" stroke-width="1.5"></path>
        <path d="M979.16 362.35L1116.21 508.58" stroke="hsl(203.60000000000002, 49.6%, 67.3%)" stroke-width="1.5"></path>
        <path d="M979.16 362.35L1098.31 195.27" stroke="hsl(203.60000000000002, 49.6%, 67.3%)" stroke-width="1.5"></path>
        <path d="M979.16 362.35L828.41 511.87" stroke="hsl(203.60000000000002, 49.6%, 67.3%)" stroke-width="1.5"></path>
        <path d="M958.51 560.53L958.51 560.53" stroke="hsl(203.60000000000002, 49.6%, 67.3%)" stroke-width="1.5"></path>
        <path d="M958.51 560.53L948.15 658.58" stroke="hsl(203.60000000000002, 49.6%, 67.3%)" stroke-width="1.5"></path>
        <path d="M958.51 560.53L1116.21 508.58" stroke="hsl(203.60000000000002, 49.6%, 67.3%)" stroke-width="1.5"></path>
        <path d="M958.51 560.53L802.1 679.25" stroke="hsl(203.60000000000002, 49.6%, 67.3%)" stroke-width="1.5"></path>
        <path d="M948.15 658.58L948.15 658.58" stroke="hsl(203.60000000000002, 49.6%, 67.3%)" stroke-width="1.5"></path>
        <path d="M948.15 658.58L828.41 511.87" stroke="hsl(203.60000000000002, 49.6%, 67.3%)" stroke-width="1.5"></path>
        <path d="M948.15 658.58L1116.21 508.58" stroke="hsl(203.60000000000002, 49.6%, 67.3%)" stroke-width="1.5"></path>
        <path d="M948.15 658.58L706.14 704.61" stroke="hsl(203.60000000000002, 49.6%, 67.3%)" stroke-width="1.5"></path>
        <path d="M948.15 658.58L979.16 362.35" stroke="hsl(203.60000000000002, 49.6%, 67.3%)" stroke-width="1.5"></path>
        <path d="M1098.31 195.27L1098.31 195.27" stroke="hsl(203.60000000000002, 49.6%, 67.3%)" stroke-width="1.5"></path>
        <path d="M1098.31 195.27L976.61 248.32" stroke="hsl(203.60000000000002, 49.6%, 67.3%)" stroke-width="1.5"></path>
        <path d="M1098.31 195.27L1255.56 198.14" stroke="hsl(203.60000000000002, 49.6%, 67.3%)" stroke-width="1.5"></path>
        <path d="M1116.21 508.58L1116.21 508.58" stroke="hsl(203.60000000000002, 49.6%, 67.3%)" stroke-width="1.5"></path>
        <path d="M1116.21 508.58L1266.9 520.94" stroke="hsl(203.60000000000002, 49.6%, 67.3%)" stroke-width="1.5"></path>
        <path d="M1116.21 508.58L1246.2 373.36" stroke="hsl(203.60000000000002, 49.6%, 67.3%)" stroke-width="1.5"></path>
        <path d="M1240.39 -75.23L1240.39 -75.23" stroke="hsl(203.60000000000002, 49.6%, 67.3%)" stroke-width="1.5"></path>
        <path d="M1240.39 -75.23L1255.56 198.14" stroke="hsl(203.60000000000002, 49.6%, 67.3%)" stroke-width="1.5"></path>
        <path d="M1240.39 -75.23L1537.88 -50.12" stroke="hsl(203.60000000000002, 49.6%, 67.3%)" stroke-width="1.5"></path>
        <path d="M1255.56 198.14L1255.56 198.14" stroke="hsl(203.60000000000002, 49.6%, 67.3%)" stroke-width="1.5"></path>
        <path d="M1255.56 198.14L1397.25 234.83" stroke="hsl(203.60000000000002, 49.6%, 67.3%)" stroke-width="1.5"></path>
        <path d="M1246.2 373.36L1246.2 373.36" stroke="hsl(203.60000000000002, 49.6%, 67.3%)" stroke-width="1.5"></path>
        <path d="M1246.2 373.36L1266.9 520.94" stroke="hsl(203.60000000000002, 49.6%, 67.3%)" stroke-width="1.5"></path>
        <path d="M1246.2 373.36L1255.56 198.14" stroke="hsl(203.60000000000002, 49.6%, 67.3%)" stroke-width="1.5"></path>
        <path d="M1266.9 520.94L1266.9 520.94" stroke="hsl(203.60000000000002, 49.6%, 67.3%)" stroke-width="1.5"></path>
        <path d="M1266.9 520.94L1300.74 673.81" stroke="hsl(203.60000000000002, 49.6%, 67.3%)" stroke-width="1.5"></path>
        <path d="M1300.74 673.81L1300.74 673.81" stroke="hsl(203.60000000000002, 49.6%, 67.3%)" stroke-width="1.5"></path>
        <path d="M1300.74 673.81L1410.35 704.45" stroke="hsl(203.60000000000002, 49.6%, 67.3%)" stroke-width="1.5"></path>
        <path d="M1300.74 673.81L1430.05 491.49" stroke="hsl(203.60000000000002, 49.6%, 67.3%)" stroke-width="1.5"></path>
        <path d="M1300.74 673.81L1116.21 508.58" stroke="hsl(203.60000000000002, 49.6%, 67.3%)" stroke-width="1.5"></path>
        <path d="M1300.74 673.81L1596.03 673.16" stroke="hsl(203.60000000000002, 49.6%, 67.3%)" stroke-width="1.5"></path>
        <path d="M1300.74 673.81L1246.2 373.36" stroke="hsl(203.60000000000002, 49.6%, 67.3%)" stroke-width="1.5"></path>
        <path d="M1397.25 234.83L1397.25 234.83" stroke="hsl(203.60000000000002, 49.6%, 67.3%)" stroke-width="1.5"></path>
        <path d="M1456.99 367.32L1456.99 367.32" stroke="hsl(203.60000000000002, 49.6%, 67.3%)" stroke-width="1.5"></path>
        <path d="M1456.99 367.32L1397.25 234.83" stroke="hsl(203.60000000000002, 49.6%, 67.3%)" stroke-width="1.5"></path>
        <path d="M1456.99 367.32L1539.95 221.92" stroke="hsl(203.60000000000002, 49.6%, 67.3%)" stroke-width="1.5"></path>
        <path d="M1456.99 367.32L1246.2 373.36" stroke="hsl(203.60000000000002, 49.6%, 67.3%)" stroke-width="1.5"></path>
        <path d="M1456.99 367.32L1595.22 555.51" stroke="hsl(203.60000000000002, 49.6%, 67.3%)" stroke-width="1.5"></path>
        <path d="M1410.35 704.45L1410.35 704.45" stroke="hsl(203.60000000000002, 49.6%, 67.3%)" stroke-width="1.5"></path>
        <path d="M1410.35 704.45L1596.03 673.16" stroke="hsl(203.60000000000002, 49.6%, 67.3%)" stroke-width="1.5"></path>
        <path d="M1595.22 555.51L1595.22 555.51" stroke="hsl(203.60000000000002, 49.6%, 67.3%)" stroke-width="1.5"></path>
        <path d="M1595.22 555.51L1596.03 673.16" stroke="hsl(203.60000000000002, 49.6%, 67.3%)" stroke-width="1.5"></path>
        <path d="M1595.22 555.51L1410.35 704.45" stroke="hsl(203.60000000000002, 49.6%, 67.3%)" stroke-width="1.5"></path>
        <path d="M1596.03 673.16L1596.03 673.16" stroke="hsl(203.60000000000002, 49.6%, 67.3%)" stroke-width="1.5"></path>
        <path d="M1596.03 673.16L1430.05 491.49" stroke="hsl(203.60000000000002, 49.6%, 67.3%)" stroke-width="1.5"></path>
        <path d="M1596.03 673.16L1545.25 343.4" stroke="hsl(203.60000000000002, 49.6%, 67.3%)" stroke-width="1.5"></path>
        <path d="M1596.03 673.16L1456.99 367.32" stroke="hsl(203.60000000000002, 49.6%, 67.3%)" stroke-width="1.5"></path>
        <circle r="25" cx="386.76" cy="654.19" fill="url(&quot;#SvgjsRadialGradient1013&quot;)"></circle>
        <circle r="25" cx="802.1" cy="679.25" fill="url(&quot;#SvgjsRadialGradient1013&quot;)"></circle>
        <circle r="25" cx="976.61" cy="248.32" fill="url(&quot;#SvgjsRadialGradient1013&quot;)"></circle>
        <circle r="25" cx="1286.54" cy="60.63" fill="url(&quot;#SvgjsRadialGradient1013&quot;)"></circle>
        <circle r="25" cx="1432.83" cy="-82.47" fill="url(&quot;#SvgjsRadialGradient1013&quot;)"></circle>
        <circle r="25" cx="1430.05" cy="491.49" fill="url(&quot;#SvgjsRadialGradient1013&quot;)"></circle>
        <circle r="25" cx="1537.88" cy="-50.12" fill="url(&quot;#SvgjsRadialGradient1013&quot;)"></circle>
        <circle r="25" cx="1589.36" cy="46.94" fill="url(&quot;#SvgjsRadialGradient1013&quot;)"></circle>
        <circle r="25" cx="1539.95" cy="221.92" fill="url(&quot;#SvgjsRadialGradient1013&quot;)"></circle>
        <circle r="25" cx="1545.25" cy="343.4" fill="url(&quot;#SvgjsRadialGradient1013&quot;)"></circle>
        <circle r="5" cx="-52.85" cy="524.66" fill="#a3c8e0"></circle>
        <circle r="5" cx="-66.12" cy="704.22" fill="#a3c8e0"></circle>
        <circle r="5" cx="246.9" cy="514.89" fill="#a3c8e0"></circle>
        <circle r="5" cx="222.39" cy="672.72" fill="#a3c8e0"></circle>
        <circle r="5" cx="356.69" cy="557.97" fill="#a3c8e0"></circle>
        <circle r="5" cx="491.87" cy="496.52" fill="#a3c8e0"></circle>
        <circle r="5" cx="494.26" cy="677.35" fill="#a3c8e0"></circle>
        <circle r="5" cx="670.89" cy="409.21" fill="#a3c8e0"></circle>
        <circle r="5" cx="640.11" cy="509.59" fill="#a3c8e0"></circle>
        <circle r="5" cx="706.14" cy="704.61" fill="#a3c8e0"></circle>
        <circle r="5" cx="844.04" cy="376.52" fill="#a3c8e0"></circle>
        <circle r="5" cx="828.41" cy="511.87" fill="#a3c8e0"></circle>
        <circle r="5" cx="979.16" cy="362.35" fill="#a3c8e0"></circle>
        <circle r="5" cx="958.51" cy="560.53" fill="#a3c8e0"></circle>
        <circle r="5" cx="948.15" cy="658.58" fill="#a3c8e0"></circle>
        <circle r="5" cx="1098.31" cy="195.27" fill="#a3c8e0"></circle>
        <circle r="5" cx="1116.21" cy="508.58" fill="#a3c8e0"></circle>
        <circle r="5" cx="1240.39" cy="-75.23" fill="#a3c8e0"></circle>
        <circle r="5" cx="1255.56" cy="198.14" fill="#a3c8e0"></circle>
        <circle r="5" cx="1246.2" cy="373.36" fill="#a3c8e0"></circle>
        <circle r="5" cx="1266.9" cy="520.94" fill="#a3c8e0"></circle>
        <circle r="5" cx="1300.74" cy="673.81" fill="#a3c8e0"></circle>
        <circle r="5" cx="1397.25" cy="234.83" fill="#a3c8e0"></circle>
        <circle r="5" cx="1456.99" cy="367.32" fill="#a3c8e0"></circle>
        <circle r="5" cx="1410.35" cy="704.45" fill="#a3c8e0"></circle>
        <circle r="5" cx="1595.22" cy="555.51" fill="#a3c8e0"></circle>
        <circle r="5" cx="1596.03" cy="673.16" fill="#a3c8e0"></circle>
    </g>
    <defs>
        <mask id="SvgjsMask1012">
            <rect width="1440" height="560" fill="#ffffff"></rect>
        </mask>
        <radialGradient id="SvgjsRadialGradient1013">
            <stop stop-color="#ffffff" offset="0.1"></stop>
            <stop stop-color="rgba(71, 145, 193, 1)" offset="0.2"></stop>
            <stop stop-color="rgba(71, 145, 193, 0)" offset="1"></stop>
        </radialGradient>
    </defs>
</svg>