<svg xmlns="http://www.w3.org/2000/svg" version="1.1" xmlns:xlink="http://www.w3.org/1999/xlink" xmlns:svgjs="http://svgjs.dev/svgjs" width="1440" height="560" preserveAspectRatio="none" viewBox="0 0 1440 560">
    <g mask="url(&quot;#SvgjsMask1126&quot;)" fill="none">
        <g mask="url(&quot;#SvgjsMask1127&quot;)">
            <path d="M1315 285L1305 295L1295 295L1285 295M1355 285L1345 295L1335 295M1175 285L1165 285M1205 295L1195 285M1415 285L1405 295L1395 295M1265 285L1255 295L1245 295M1125 295L1115 305L1105 305L1095 305L1085 305L1075 305L1065 295M1145 295L1135 305M1115 295L1105 295L1095 295L1085 295L1075 295M1455 285L1445 285L1435 285L1425 285L1415 285L1405 285L1395 285L1385 285L1375 285L1365 285L1355 285L1345 285L1335 285L1325 285L1315 285L1305 285L1295 285L1285 285L1275 285L1265 285L1255 285L1245 285L1235 285L1225 285L1215 285L1205 295L1195 295L1185 285L1175 285L1165 295L1155 295L1145 295L1135 295L1125 295L1115 295L1105 285L1095 285L1085 285" stroke="rgba(79, 163, 205, 0.05)" stroke-width="1.67"></path>
            <path d="M1082.5 285 a2.5 2.5 0 1 0 5 0 a2.5 2.5 0 1 0 -5 0zM1282.5 295 a2.5 2.5 0 1 0 5 0 a2.5 2.5 0 1 0 -5 0zM1332.5 295 a2.5 2.5 0 1 0 5 0 a2.5 2.5 0 1 0 -5 0zM1162.5 285 a2.5 2.5 0 1 0 5 0 a2.5 2.5 0 1 0 -5 0zM1192.5 285 a2.5 2.5 0 1 0 5 0 a2.5 2.5 0 1 0 -5 0zM1392.5 295 a2.5 2.5 0 1 0 5 0 a2.5 2.5 0 1 0 -5 0zM1242.5 295 a2.5 2.5 0 1 0 5 0 a2.5 2.5 0 1 0 -5 0zM1062.5 295 a2.5 2.5 0 1 0 5 0 a2.5 2.5 0 1 0 -5 0zM1132.5 305 a2.5 2.5 0 1 0 5 0 a2.5 2.5 0 1 0 -5 0zM1072.5 295 a2.5 2.5 0 1 0 5 0 a2.5 2.5 0 1 0 -5 0z" fill="rgba(79, 163, 205, 0.05)"></path>
            <path d="M975 275L965 265L955 265L945 265L935 265M1005 265L995 275L985 275L975 285L965 285L955 285L945 285L935 285M1015 265L1005 275L995 285L985 285L975 295L965 295L955 295L945 295L935 295L925 295L915 295L905 295L895 295L885 295L875 295L865 295M1135 285L1125 275L1115 275M1065 265L1055 275L1045 275L1035 275L1025 275L1015 275L1005 285L995 295L985 295L975 305L965 305L955 305L945 305L935 305L925 305L915 305L905 305M1185 275L1175 265L1165 265L1155 265L1145 265L1135 265L1125 265L1115 265L1105 265L1095 265L1085 265M1075 265L1065 275L1055 285L1045 285L1035 285L1025 285M845 265L835 275L825 275L815 275L805 275L795 275L785 285M1195 275L1185 265M895 265L885 275L875 275L865 275L855 275L845 275L835 285L825 285L815 285L805 285L795 285L785 295L775 295M1085 275L1075 275L1065 285M915 265L905 255L895 255L885 255L875 255L865 255L855 255L845 255L835 255L825 255L815 255L805 265L795 265L785 265L775 265M1165 275L1155 275M1205 275L1195 265M985 265L975 265M1455 275L1445 275L1435 275L1425 275L1415 275L1405 275L1395 275L1385 275L1375 275L1365 275L1355 275L1345 275L1335 275L1325 275L1315 275L1305 275L1295 275L1285 275L1275 275L1265 275L1255 275L1245 275L1235 275L1225 275L1215 275L1205 275L1195 275L1185 275L1175 275L1165 275L1155 285L1145 285L1135 285L1125 285L1115 285L1105 275L1095 275L1085 275L1075 265L1065 265L1055 265L1045 265L1035 265L1025 265L1015 265L1005 265L995 265L985 265L975 275L965 275L955 275L945 275L935 275L925 265L915 265L905 265L895 265L885 265L875 265L865 265L855 265L845 265L835 265" stroke="rgba(185, 209, 231, 0.1)" stroke-width="1.67"></path>
            <path d="M832.5 265 a2.5 2.5 0 1 0 5 0 a2.5 2.5 0 1 0 -5 0zM932.5 265 a2.5 2.5 0 1 0 5 0 a2.5 2.5 0 1 0 -5 0zM932.5 285 a2.5 2.5 0 1 0 5 0 a2.5 2.5 0 1 0 -5 0zM862.5 295 a2.5 2.5 0 1 0 5 0 a2.5 2.5 0 1 0 -5 0zM1112.5 275 a2.5 2.5 0 1 0 5 0 a2.5 2.5 0 1 0 -5 0zM902.5 305 a2.5 2.5 0 1 0 5 0 a2.5 2.5 0 1 0 -5 0zM1082.5 265 a2.5 2.5 0 1 0 5 0 a2.5 2.5 0 1 0 -5 0zM1022.5 285 a2.5 2.5 0 1 0 5 0 a2.5 2.5 0 1 0 -5 0zM782.5 285 a2.5 2.5 0 1 0 5 0 a2.5 2.5 0 1 0 -5 0zM1182.5 265 a2.5 2.5 0 1 0 5 0 a2.5 2.5 0 1 0 -5 0zM772.5 295 a2.5 2.5 0 1 0 5 0 a2.5 2.5 0 1 0 -5 0zM1062.5 285 a2.5 2.5 0 1 0 5 0 a2.5 2.5 0 1 0 -5 0zM772.5 265 a2.5 2.5 0 1 0 5 0 a2.5 2.5 0 1 0 -5 0zM1152.5 275 a2.5 2.5 0 1 0 5 0 a2.5 2.5 0 1 0 -5 0zM1192.5 265 a2.5 2.5 0 1 0 5 0 a2.5 2.5 0 1 0 -5 0zM972.5 265 a2.5 2.5 0 1 0 5 0 a2.5 2.5 0 1 0 -5 0z" fill="rgba(185, 209, 231, 0.1)"></path>
            <path d="M1185 305L1175 295M1425 295L1415 295M1275 305L1265 295M1365 305L1355 295M1385 305L1375 295L1365 295M1325 305L1315 295M1235 305L1225 295L1215 295M1455 295L1445 295L1435 295L1425 295L1415 305L1405 305L1395 305L1385 305L1375 305L1365 305L1355 305L1345 305L1335 305L1325 305L1315 305L1305 305L1295 305L1285 305L1275 305L1265 305L1255 305L1245 305L1235 305L1225 305L1215 305L1205 305L1195 305L1185 305L1175 305L1165 305L1155 305" stroke="rgba(79, 163, 205, 0.05)" stroke-width="1.67"></path>
            <path d="M1152.5 305 a2.5 2.5 0 1 0 5 0 a2.5 2.5 0 1 0 -5 0zM1172.5 295 a2.5 2.5 0 1 0 5 0 a2.5 2.5 0 1 0 -5 0zM1412.5 295 a2.5 2.5 0 1 0 5 0 a2.5 2.5 0 1 0 -5 0zM1262.5 295 a2.5 2.5 0 1 0 5 0 a2.5 2.5 0 1 0 -5 0zM1352.5 295 a2.5 2.5 0 1 0 5 0 a2.5 2.5 0 1 0 -5 0zM1362.5 295 a2.5 2.5 0 1 0 5 0 a2.5 2.5 0 1 0 -5 0zM1312.5 295 a2.5 2.5 0 1 0 5 0 a2.5 2.5 0 1 0 -5 0zM1212.5 295 a2.5 2.5 0 1 0 5 0 a2.5 2.5 0 1 0 -5 0z" fill="rgba(79, 163, 205, 0.05)"></path>
            <path d="M1295 265L1285 255L1275 255L1265 255L1255 255L1245 255L1235 255L1225 255L1215 255M1385 265L1375 255M1105 255L1095 245L1085 245L1075 245L1065 245M1325 265L1315 255L1305 255M1005 255L995 245L985 245L975 245L965 245L955 245L945 245L935 245L925 245L915 245L905 245L895 245L885 245L875 245L865 245L855 235M1025 255L1015 245L1005 245L995 235L985 235L975 235L965 235L955 235L945 235L935 225L925 225L915 225L905 215L895 205L885 195L875 195L865 195M1125 255L1115 245L1105 245M1055 255L1045 245L1035 245L1025 245M1215 265L1205 265M1155 255L1145 245L1135 245L1125 245M1165 255L1155 245M1335 265L1325 255M1345 265L1335 255M1455 265L1445 265L1435 265L1425 265L1415 265L1405 265L1395 265L1385 265L1375 265L1365 265L1355 265L1345 265L1335 265L1325 265L1315 265L1305 265L1295 265L1285 265L1275 265L1265 265L1255 265L1245 265L1235 265L1225 265L1215 265L1205 255L1195 255L1185 255L1175 255L1165 255L1155 255L1145 255L1135 255L1125 255L1115 255L1105 255L1095 255L1085 255L1075 255L1065 255L1055 255L1045 255L1035 255L1025 255L1015 255L1005 255L995 255L985 255L975 255L965 255L955 255L945 255L935 255L925 255" stroke="rgba(185, 209, 231, 0.1)" stroke-width="1.67"></path>
            <path d="M922.5 255 a2.5 2.5 0 1 0 5 0 a2.5 2.5 0 1 0 -5 0zM1212.5 255 a2.5 2.5 0 1 0 5 0 a2.5 2.5 0 1 0 -5 0zM1372.5 255 a2.5 2.5 0 1 0 5 0 a2.5 2.5 0 1 0 -5 0zM1062.5 245 a2.5 2.5 0 1 0 5 0 a2.5 2.5 0 1 0 -5 0zM1302.5 255 a2.5 2.5 0 1 0 5 0 a2.5 2.5 0 1 0 -5 0zM852.5 235 a2.5 2.5 0 1 0 5 0 a2.5 2.5 0 1 0 -5 0zM862.5 195 a2.5 2.5 0 1 0 5 0 a2.5 2.5 0 1 0 -5 0zM1102.5 245 a2.5 2.5 0 1 0 5 0 a2.5 2.5 0 1 0 -5 0zM1022.5 245 a2.5 2.5 0 1 0 5 0 a2.5 2.5 0 1 0 -5 0zM1202.5 265 a2.5 2.5 0 1 0 5 0 a2.5 2.5 0 1 0 -5 0zM1122.5 245 a2.5 2.5 0 1 0 5 0 a2.5 2.5 0 1 0 -5 0zM1152.5 245 a2.5 2.5 0 1 0 5 0 a2.5 2.5 0 1 0 -5 0zM1322.5 255 a2.5 2.5 0 1 0 5 0 a2.5 2.5 0 1 0 -5 0zM1332.5 255 a2.5 2.5 0 1 0 5 0 a2.5 2.5 0 1 0 -5 0z" fill="rgba(185, 209, 231, 0.1)"></path>
            <path d="M1155 315L1145 325L1135 325M1115 325L1105 315L1095 315L1085 315L1075 315M865 345L855 335L845 325L835 325L825 325L815 325L805 315L795 315L785 315L775 315M1055 315L1045 315L1035 315M885 345L875 355L865 355L855 355L845 355M935 345L925 355L915 355L905 355L895 355L885 365L875 365L865 375L855 375L845 385M905 345L895 335L885 335L875 335L865 335L855 325L845 315L835 315L825 315L815 315L805 305M1435 305L1425 305M855 345L845 345L835 345L825 345L815 345L805 345L795 345M1195 315L1185 325L1175 325L1165 325L1155 325M1125 325L1115 315M995 335L985 345L975 345L965 345M945 345L935 335L925 335L915 335L905 335L895 325L885 325L875 325L865 325L855 315L845 305L835 295L825 295L815 295L805 295L795 295L785 305L775 305M1215 315L1205 325L1195 325M975 335L965 325L955 325L945 325M1135 315L1125 315M1455 305L1445 305L1435 305L1425 315L1415 315L1405 315L1395 315L1385 315L1375 315L1365 315L1355 315L1345 315L1335 315L1325 315L1315 315L1305 315L1295 315L1285 315L1275 315L1265 315L1255 315L1245 315L1235 315L1225 315L1215 315L1205 315L1195 315L1185 315L1175 315L1165 315L1155 315L1145 315L1135 315L1125 325L1115 325L1105 325L1095 325L1085 325L1075 325L1065 315L1055 315L1045 325L1035 335L1025 345L1015 345L1005 335L995 335L985 335L975 335L965 335L955 335L945 345L935 345L925 345L915 345L905 345L895 345L885 345L875 345L865 345L855 345L845 335L835 335L825 335L815 335L805 335L795 335" stroke="rgba(79, 163, 205, 0.05)" stroke-width="1.67"></path>
            <path d="M792.5 335 a2.5 2.5 0 1 0 5 0 a2.5 2.5 0 1 0 -5 0zM1132.5 325 a2.5 2.5 0 1 0 5 0 a2.5 2.5 0 1 0 -5 0zM1072.5 315 a2.5 2.5 0 1 0 5 0 a2.5 2.5 0 1 0 -5 0zM772.5 315 a2.5 2.5 0 1 0 5 0 a2.5 2.5 0 1 0 -5 0zM1032.5 315 a2.5 2.5 0 1 0 5 0 a2.5 2.5 0 1 0 -5 0zM842.5 355 a2.5 2.5 0 1 0 5 0 a2.5 2.5 0 1 0 -5 0zM842.5 385 a2.5 2.5 0 1 0 5 0 a2.5 2.5 0 1 0 -5 0zM802.5 305 a2.5 2.5 0 1 0 5 0 a2.5 2.5 0 1 0 -5 0zM1422.5 305 a2.5 2.5 0 1 0 5 0 a2.5 2.5 0 1 0 -5 0zM792.5 345 a2.5 2.5 0 1 0 5 0 a2.5 2.5 0 1 0 -5 0zM1152.5 325 a2.5 2.5 0 1 0 5 0 a2.5 2.5 0 1 0 -5 0zM1112.5 315 a2.5 2.5 0 1 0 5 0 a2.5 2.5 0 1 0 -5 0zM962.5 345 a2.5 2.5 0 1 0 5 0 a2.5 2.5 0 1 0 -5 0zM772.5 305 a2.5 2.5 0 1 0 5 0 a2.5 2.5 0 1 0 -5 0zM1192.5 325 a2.5 2.5 0 1 0 5 0 a2.5 2.5 0 1 0 -5 0zM942.5 325 a2.5 2.5 0 1 0 5 0 a2.5 2.5 0 1 0 -5 0zM1122.5 315 a2.5 2.5 0 1 0 5 0 a2.5 2.5 0 1 0 -5 0z" fill="rgba(79, 163, 205, 0.05)"></path>
            <path d="M1305 245L1295 235L1285 235M1355 245L1345 255M1315 245L1305 235M1325 245L1315 235M1175 245L1165 245M1275 245L1265 235L1255 235L1245 235L1235 235L1225 235M1365 245L1355 255M1395 255L1385 255M1455 255L1445 255L1435 255L1425 255L1415 255L1405 255L1395 255L1385 245L1375 245L1365 245L1355 245L1345 245L1335 245L1325 245L1315 245L1305 245L1295 245L1285 245L1275 245L1265 245L1255 245L1245 245L1235 245L1225 245L1215 245L1205 245L1195 245L1185 245L1175 245L1165 235L1155 235L1145 235L1135 235L1125 235L1115 235L1105 235L1095 235L1085 235L1075 235" stroke="rgba(185, 209, 231, 0.1)" stroke-width="1.67"></path>
            <path d="M1072.5 235 a2.5 2.5 0 1 0 5 0 a2.5 2.5 0 1 0 -5 0zM1282.5 235 a2.5 2.5 0 1 0 5 0 a2.5 2.5 0 1 0 -5 0zM1342.5 255 a2.5 2.5 0 1 0 5 0 a2.5 2.5 0 1 0 -5 0zM1302.5 235 a2.5 2.5 0 1 0 5 0 a2.5 2.5 0 1 0 -5 0zM1312.5 235 a2.5 2.5 0 1 0 5 0 a2.5 2.5 0 1 0 -5 0zM1162.5 245 a2.5 2.5 0 1 0 5 0 a2.5 2.5 0 1 0 -5 0zM1222.5 235 a2.5 2.5 0 1 0 5 0 a2.5 2.5 0 1 0 -5 0zM1352.5 255 a2.5 2.5 0 1 0 5 0 a2.5 2.5 0 1 0 -5 0zM1382.5 255 a2.5 2.5 0 1 0 5 0 a2.5 2.5 0 1 0 -5 0z" fill="rgba(185, 209, 231, 0.1)"></path>
            <path d="M1005 355L995 365L985 365L975 365L965 365L955 355M1025 355L1015 365L1005 365L995 375M1095 335L1085 345L1075 345L1065 345L1055 345L1045 345L1035 355L1025 365L1015 375L1005 375L995 385M1225 335L1215 325M1125 335L1115 345L1105 345L1095 345L1085 355M1235 325L1225 325M1065 335L1055 325M1455 315L1445 315L1435 315L1425 325L1415 325L1405 325L1395 325L1385 325L1375 325L1365 325L1355 325L1345 325L1335 325L1325 325L1315 325L1305 325L1295 325L1285 325L1275 325L1265 325L1255 325L1245 325L1235 325L1225 335L1215 335L1205 335L1195 335L1185 335L1175 335L1165 335L1155 335L1145 335L1135 335L1125 335L1115 335L1105 335L1095 335L1085 335L1075 335L1065 335L1055 335L1045 335L1035 345L1025 355L1015 355L1005 355L995 355L985 355" stroke="rgba(185, 209, 231, 0.1)" stroke-width="1.67"></path>
            <path d="M982.5 355 a2.5 2.5 0 1 0 5 0 a2.5 2.5 0 1 0 -5 0zM952.5 355 a2.5 2.5 0 1 0 5 0 a2.5 2.5 0 1 0 -5 0zM992.5 375 a2.5 2.5 0 1 0 5 0 a2.5 2.5 0 1 0 -5 0zM992.5 385 a2.5 2.5 0 1 0 5 0 a2.5 2.5 0 1 0 -5 0zM1212.5 325 a2.5 2.5 0 1 0 5 0 a2.5 2.5 0 1 0 -5 0zM1082.5 355 a2.5 2.5 0 1 0 5 0 a2.5 2.5 0 1 0 -5 0zM1222.5 325 a2.5 2.5 0 1 0 5 0 a2.5 2.5 0 1 0 -5 0zM1052.5 325 a2.5 2.5 0 1 0 5 0 a2.5 2.5 0 1 0 -5 0z" fill="rgba(185, 209, 231, 0.1)"></path>
            <path d="M1035 235L1025 225L1015 225L1005 225L995 225L985 225L975 225L965 225L955 225L945 225L935 215L925 215L915 215L905 205L895 195M1245 225L1235 215L1225 215M1095 225L1085 215M1255 215L1245 215M1115 225L1105 215L1095 215L1085 205L1075 205L1065 205L1055 205L1045 205L1035 205L1025 205L1015 205L1005 205L995 205M1165 225L1155 215L1145 215L1135 215L1125 215M1065 225L1055 225L1045 225L1035 225L1025 215L1015 215L1005 215L995 215L985 215L975 215L965 215L955 215M1275 215L1265 225L1255 225M1185 235L1175 225L1165 215L1155 205L1145 205L1135 205L1125 205L1115 205L1105 205L1095 205M1075 225L1065 215L1055 215L1045 215L1035 215M1335 235L1325 235M1455 245L1445 245L1435 245L1425 245L1415 245L1405 245L1395 245L1385 235L1375 235L1365 235L1355 235L1345 235L1335 235L1325 225L1315 225L1305 225L1295 225L1285 225L1275 215L1265 215L1255 215L1245 225L1235 225L1225 225L1215 235L1205 235L1195 235L1185 235L1175 235L1165 225L1155 225L1145 225L1135 225L1125 225L1115 225L1105 225L1095 225L1085 225L1075 225L1065 225L1055 235L1045 235L1035 235L1025 235L1015 235" stroke="rgba(185, 209, 231, 0.1)" stroke-width="1.67"></path>
            <path d="M1012.5 235 a2.5 2.5 0 1 0 5 0 a2.5 2.5 0 1 0 -5 0zM892.5 195 a2.5 2.5 0 1 0 5 0 a2.5 2.5 0 1 0 -5 0zM1222.5 215 a2.5 2.5 0 1 0 5 0 a2.5 2.5 0 1 0 -5 0zM1082.5 215 a2.5 2.5 0 1 0 5 0 a2.5 2.5 0 1 0 -5 0zM1242.5 215 a2.5 2.5 0 1 0 5 0 a2.5 2.5 0 1 0 -5 0zM992.5 205 a2.5 2.5 0 1 0 5 0 a2.5 2.5 0 1 0 -5 0zM1122.5 215 a2.5 2.5 0 1 0 5 0 a2.5 2.5 0 1 0 -5 0zM952.5 215 a2.5 2.5 0 1 0 5 0 a2.5 2.5 0 1 0 -5 0zM1252.5 225 a2.5 2.5 0 1 0 5 0 a2.5 2.5 0 1 0 -5 0zM1092.5 205 a2.5 2.5 0 1 0 5 0 a2.5 2.5 0 1 0 -5 0zM1032.5 215 a2.5 2.5 0 1 0 5 0 a2.5 2.5 0 1 0 -5 0zM1322.5 235 a2.5 2.5 0 1 0 5 0 a2.5 2.5 0 1 0 -5 0z" fill="rgba(185, 209, 231, 0.1)"></path>
            <path d="M1455 325L1445 325L1435 325L1425 335L1415 335L1405 335L1395 335L1385 335L1375 335L1365 335L1355 335L1345 335L1335 335L1325 335L1315 335L1305 335L1295 335L1285 335L1275 335L1265 335L1255 335L1245 335" stroke="rgba(79, 163, 205, 0.05)" stroke-width="1.67"></path>
            <path d="M1242.5 335 a2.5 2.5 0 1 0 5 0 a2.5 2.5 0 1 0 -5 0z" fill="rgba(79, 163, 205, 0.05)"></path>
            <path d="M1215 195L1205 205L1195 205L1185 205L1175 205L1165 205M1095 195L1085 185L1075 185L1065 185M1435 235L1425 225L1415 225M1105 195L1095 185M1455 235L1445 235L1435 235L1425 235L1415 235L1405 235L1395 235L1385 225L1375 225L1365 225L1355 225L1345 225L1335 225L1325 215L1315 215L1305 215L1295 215L1285 215L1275 205L1265 205L1255 205L1245 205L1235 205L1225 205L1215 195L1205 195L1195 195L1185 195L1175 195L1165 195L1155 195L1145 195L1135 195L1125 195L1115 195L1105 195L1095 195L1085 195" stroke="rgba(79, 163, 205, 0.05)" stroke-width="1.67"></path>
            <path d="M1082.5 195 a2.5 2.5 0 1 0 5 0 a2.5 2.5 0 1 0 -5 0zM1162.5 205 a2.5 2.5 0 1 0 5 0 a2.5 2.5 0 1 0 -5 0zM1062.5 185 a2.5 2.5 0 1 0 5 0 a2.5 2.5 0 1 0 -5 0zM1412.5 225 a2.5 2.5 0 1 0 5 0 a2.5 2.5 0 1 0 -5 0zM1092.5 185 a2.5 2.5 0 1 0 5 0 a2.5 2.5 0 1 0 -5 0z" fill="rgba(79, 163, 205, 0.05)"></path>
            <path d="M1375 345L1365 355L1355 355L1345 355L1335 355L1325 355M1395 345L1385 355L1375 355M1135 345L1125 345M1455 335L1445 335L1435 335L1425 345L1415 345L1405 345L1395 345L1385 345L1375 345L1365 345L1355 345L1345 345L1335 345L1325 345L1315 345L1305 345L1295 345L1285 345L1275 345L1265 345L1255 345L1245 345L1235 345L1225 345L1215 345L1205 345L1195 345L1185 345L1175 345L1165 345L1155 345L1145 345L1135 345L1125 355L1115 355L1105 355" stroke="rgba(79, 163, 205, 0.05)" stroke-width="1.67"></path>
            <path d="M1102.5 355 a2.5 2.5 0 1 0 5 0 a2.5 2.5 0 1 0 -5 0zM1322.5 355 a2.5 2.5 0 1 0 5 0 a2.5 2.5 0 1 0 -5 0zM1372.5 355 a2.5 2.5 0 1 0 5 0 a2.5 2.5 0 1 0 -5 0zM1122.5 345 a2.5 2.5 0 1 0 5 0 a2.5 2.5 0 1 0 -5 0z" fill="rgba(79, 163, 205, 0.05)"></path>
            <path d="M1155 185L1145 175L1135 175L1125 175L1115 175M1445 225L1435 225M1265 195L1255 185M1405 225L1395 215M1415 215L1405 215M1165 185L1155 175M1455 225L1445 225L1435 215L1425 215L1415 215L1405 225L1395 225L1385 215L1375 215L1365 215L1355 215L1345 215L1335 215L1325 205L1315 205L1305 205L1295 205L1285 205L1275 195L1265 195L1255 195L1245 195L1235 195L1225 195L1215 185L1205 185L1195 185L1185 185L1175 185L1165 185L1155 185L1145 185L1135 185L1125 185L1115 185" stroke="rgba(185, 209, 231, 0.1)" stroke-width="1.67"></path>
            <path d="M1112.5 185 a2.5 2.5 0 1 0 5 0 a2.5 2.5 0 1 0 -5 0zM1112.5 175 a2.5 2.5 0 1 0 5 0 a2.5 2.5 0 1 0 -5 0zM1432.5 225 a2.5 2.5 0 1 0 5 0 a2.5 2.5 0 1 0 -5 0zM1252.5 185 a2.5 2.5 0 1 0 5 0 a2.5 2.5 0 1 0 -5 0zM1392.5 215 a2.5 2.5 0 1 0 5 0 a2.5 2.5 0 1 0 -5 0zM1402.5 215 a2.5 2.5 0 1 0 5 0 a2.5 2.5 0 1 0 -5 0zM1152.5 175 a2.5 2.5 0 1 0 5 0 a2.5 2.5 0 1 0 -5 0z" fill="rgba(185, 209, 231, 0.1)"></path>
            <path d="M1045 385L1035 375L1025 375M1255 355L1245 365L1235 365L1225 365L1215 365L1205 365L1195 365L1185 365L1175 365L1165 365L1155 365L1145 365L1135 365M1075 365L1065 365L1055 375L1045 375M1285 355L1275 365L1265 365L1255 365L1245 375L1235 375M985 395L975 385L965 385L955 375L945 375M1305 355L1295 365L1285 365M1405 355L1395 355M1325 365L1315 365L1305 365M1455 345L1445 345L1435 345L1425 355L1415 355L1405 355L1395 365L1385 365L1375 365L1365 365L1355 365L1345 365L1335 365L1325 365L1315 355L1305 355L1295 355L1285 355L1275 355L1265 355L1255 355L1245 355L1235 355L1225 355L1215 355L1205 355L1195 355L1185 355L1175 355L1165 355L1155 355L1145 355L1135 355L1125 365L1115 365L1105 365L1095 365L1085 365L1075 365L1065 375L1055 385L1045 385L1035 385L1025 385L1015 385L1005 395L995 395L985 395L975 395" stroke="rgba(185, 209, 231, 0.1)" stroke-width="1.67"></path>
            <path d="M972.5 395 a2.5 2.5 0 1 0 5 0 a2.5 2.5 0 1 0 -5 0zM1022.5 375 a2.5 2.5 0 1 0 5 0 a2.5 2.5 0 1 0 -5 0zM1132.5 365 a2.5 2.5 0 1 0 5 0 a2.5 2.5 0 1 0 -5 0zM1042.5 375 a2.5 2.5 0 1 0 5 0 a2.5 2.5 0 1 0 -5 0zM1232.5 375 a2.5 2.5 0 1 0 5 0 a2.5 2.5 0 1 0 -5 0zM942.5 375 a2.5 2.5 0 1 0 5 0 a2.5 2.5 0 1 0 -5 0zM1282.5 365 a2.5 2.5 0 1 0 5 0 a2.5 2.5 0 1 0 -5 0zM1392.5 355 a2.5 2.5 0 1 0 5 0 a2.5 2.5 0 1 0 -5 0zM1302.5 365 a2.5 2.5 0 1 0 5 0 a2.5 2.5 0 1 0 -5 0z" fill="rgba(185, 209, 231, 0.1)"></path>
            <path d="M1035 175L1025 185L1015 185L1005 185L995 185L985 185L975 185M1075 175L1065 165M1345 205L1335 195M1145 165L1135 155L1125 155L1115 155L1105 155L1095 155L1085 155L1075 155L1065 155L1055 155L1045 155L1035 155L1025 155L1015 155L1005 155L995 165L985 165L975 165M1175 175L1165 175M1355 205L1345 195M1055 175L1045 165L1035 165L1025 165L1015 165M1085 175L1075 165M1105 175L1095 165L1085 165M1255 175L1245 175L1235 175M965 175L955 165L945 165L935 165L925 165L915 165L905 165L895 165L885 165L875 165L865 165L855 165L845 165L835 165L825 165L815 175L805 175M1365 205L1355 195M1045 175L1035 185L1025 195L1015 195M1455 215L1445 215L1435 205L1425 205L1415 205L1405 205L1395 205L1385 205L1375 205L1365 205L1355 205L1345 205L1335 205L1325 195L1315 195L1305 195L1295 195L1285 195L1275 185L1265 175L1255 175L1245 185L1235 185L1225 185L1215 175L1205 175L1195 175L1185 175L1175 175L1165 165L1155 165L1145 165L1135 165L1125 165L1115 165L1105 175L1095 175L1085 175L1075 175L1065 175L1055 175L1045 175L1035 175L1025 175L1015 175L1005 175L995 175L985 175L975 175L965 175L955 175L945 175" stroke="rgba(185, 209, 231, 0.1)" stroke-width="1.67"></path>
            <path d="M942.5 175 a2.5 2.5 0 1 0 5 0 a2.5 2.5 0 1 0 -5 0zM972.5 185 a2.5 2.5 0 1 0 5 0 a2.5 2.5 0 1 0 -5 0zM1062.5 165 a2.5 2.5 0 1 0 5 0 a2.5 2.5 0 1 0 -5 0zM1332.5 195 a2.5 2.5 0 1 0 5 0 a2.5 2.5 0 1 0 -5 0zM972.5 165 a2.5 2.5 0 1 0 5 0 a2.5 2.5 0 1 0 -5 0zM1162.5 175 a2.5 2.5 0 1 0 5 0 a2.5 2.5 0 1 0 -5 0zM1342.5 195 a2.5 2.5 0 1 0 5 0 a2.5 2.5 0 1 0 -5 0zM1012.5 165 a2.5 2.5 0 1 0 5 0 a2.5 2.5 0 1 0 -5 0zM1072.5 165 a2.5 2.5 0 1 0 5 0 a2.5 2.5 0 1 0 -5 0zM1082.5 165 a2.5 2.5 0 1 0 5 0 a2.5 2.5 0 1 0 -5 0zM1232.5 175 a2.5 2.5 0 1 0 5 0 a2.5 2.5 0 1 0 -5 0zM802.5 175 a2.5 2.5 0 1 0 5 0 a2.5 2.5 0 1 0 -5 0zM1352.5 195 a2.5 2.5 0 1 0 5 0 a2.5 2.5 0 1 0 -5 0zM1012.5 195 a2.5 2.5 0 1 0 5 0 a2.5 2.5 0 1 0 -5 0z" fill="rgba(185, 209, 231, 0.1)"></path>
            <path d="M1095 375L1085 385L1075 395L1065 395M1165 385L1155 385L1145 385L1135 385L1125 385L1115 385L1105 385M1175 385L1165 375M945 385L935 395L925 395L915 395L905 395M1185 385L1175 395L1165 395L1155 395M1195 385L1185 375L1175 375M1275 385L1265 375L1255 375M935 385L925 375M1215 385L1205 375L1195 375M915 385L905 375L895 375L885 375L875 375M875 385L865 395L855 395L845 395L835 395L825 395L815 405L805 405L795 405L785 405M975 405L965 405L955 405L945 405L935 405L925 405L915 405L905 405L895 405L885 415L875 415L865 415L855 415L845 415L835 415L825 415L815 415L805 415M965 395L955 395M885 385L875 395L865 405M1225 385L1215 375M1455 355L1445 355L1435 355L1425 365L1415 365L1405 365L1395 375L1385 375L1375 375L1365 375L1355 375L1345 375L1335 375L1325 375L1315 375L1305 375L1295 375L1285 375L1275 385L1265 385L1255 385L1245 385L1235 385L1225 385L1215 385L1205 385L1195 385L1185 385L1175 385L1165 385L1155 375L1145 375L1135 375L1125 375L1115 375L1105 375L1095 375L1085 375L1075 375L1065 385L1055 395L1045 395L1035 395L1025 395L1015 395L1005 405L995 405L985 405L975 405L965 395L955 385L945 385L935 385L925 385L915 385L905 385L895 385L885 385L875 385L865 385" stroke="rgba(185, 209, 231, 0.1)" stroke-width="1.67"></path>
            <path d="M862.5 385 a2.5 2.5 0 1 0 5 0 a2.5 2.5 0 1 0 -5 0zM1062.5 395 a2.5 2.5 0 1 0 5 0 a2.5 2.5 0 1 0 -5 0zM1102.5 385 a2.5 2.5 0 1 0 5 0 a2.5 2.5 0 1 0 -5 0zM1162.5 375 a2.5 2.5 0 1 0 5 0 a2.5 2.5 0 1 0 -5 0zM902.5 395 a2.5 2.5 0 1 0 5 0 a2.5 2.5 0 1 0 -5 0zM1152.5 395 a2.5 2.5 0 1 0 5 0 a2.5 2.5 0 1 0 -5 0zM1172.5 375 a2.5 2.5 0 1 0 5 0 a2.5 2.5 0 1 0 -5 0zM1252.5 375 a2.5 2.5 0 1 0 5 0 a2.5 2.5 0 1 0 -5 0zM922.5 375 a2.5 2.5 0 1 0 5 0 a2.5 2.5 0 1 0 -5 0zM1192.5 375 a2.5 2.5 0 1 0 5 0 a2.5 2.5 0 1 0 -5 0zM872.5 375 a2.5 2.5 0 1 0 5 0 a2.5 2.5 0 1 0 -5 0zM782.5 405 a2.5 2.5 0 1 0 5 0 a2.5 2.5 0 1 0 -5 0zM802.5 415 a2.5 2.5 0 1 0 5 0 a2.5 2.5 0 1 0 -5 0zM952.5 395 a2.5 2.5 0 1 0 5 0 a2.5 2.5 0 1 0 -5 0zM862.5 405 a2.5 2.5 0 1 0 5 0 a2.5 2.5 0 1 0 -5 0zM1212.5 375 a2.5 2.5 0 1 0 5 0 a2.5 2.5 0 1 0 -5 0z" fill="rgba(185, 209, 231, 0.1)"></path>
            <path d="M1395 195L1385 195L1375 195M1455 205L1445 205L1435 195L1425 195L1415 195L1405 195L1395 195L1385 185L1375 185L1365 185L1355 185L1345 185L1335 185L1325 185L1315 185L1305 185L1295 185" stroke="rgba(185, 209, 231, 0.1)" stroke-width="1.67"></path>
            <path d="M1292.5 185 a2.5 2.5 0 1 0 5 0 a2.5 2.5 0 1 0 -5 0zM1372.5 195 a2.5 2.5 0 1 0 5 0 a2.5 2.5 0 1 0 -5 0z" fill="rgba(185, 209, 231, 0.1)"></path>
            <path d="M1455 365L1445 365L1435 365L1425 375L1415 375L1405 375L1395 385L1385 385L1375 385L1365 385L1355 385L1345 385L1335 385L1325 385L1315 385L1305 385L1295 385L1285 385L1275 395L1265 395L1255 395L1245 395L1235 395L1225 395L1215 395L1205 395L1195 395" stroke="rgba(79, 163, 205, 0.05)" stroke-width="1.67"></path>
            <path d="M1192.5 395 a2.5 2.5 0 1 0 5 0 a2.5 2.5 0 1 0 -5 0z" fill="rgba(79, 163, 205, 0.05)"></path>
            <path d="M975 135L965 145L955 145L945 135L935 135L925 145L915 145M1355 175L1345 165L1335 165L1325 165M1025 145L1015 145L1005 145L995 145L985 145M1185 165L1175 155M1155 145L1145 155M1195 165L1185 155M1205 165L1195 155M1165 155L1155 155M1455 195L1445 195L1435 185L1425 185L1415 185L1405 185L1395 185L1385 175L1375 175L1365 175L1355 175L1345 175L1335 175L1325 175L1315 175L1305 175L1295 175L1285 175L1275 175L1265 165L1255 165L1245 165L1235 165L1225 165L1215 165L1205 165L1195 165L1185 165L1175 165L1165 155L1155 145L1145 145L1135 145L1125 145L1115 145L1105 145L1095 145L1085 145L1075 145L1065 145L1055 145L1045 145L1035 145L1025 145L1015 135L1005 135L995 135L985 135L975 135L965 135L955 135" stroke="rgba(185, 209, 231, 0.1)" stroke-width="1.67"></path>
            <path d="M952.5 135 a2.5 2.5 0 1 0 5 0 a2.5 2.5 0 1 0 -5 0zM912.5 145 a2.5 2.5 0 1 0 5 0 a2.5 2.5 0 1 0 -5 0zM1322.5 165 a2.5 2.5 0 1 0 5 0 a2.5 2.5 0 1 0 -5 0zM982.5 145 a2.5 2.5 0 1 0 5 0 a2.5 2.5 0 1 0 -5 0zM1172.5 155 a2.5 2.5 0 1 0 5 0 a2.5 2.5 0 1 0 -5 0zM1142.5 155 a2.5 2.5 0 1 0 5 0 a2.5 2.5 0 1 0 -5 0zM1182.5 155 a2.5 2.5 0 1 0 5 0 a2.5 2.5 0 1 0 -5 0zM1192.5 155 a2.5 2.5 0 1 0 5 0 a2.5 2.5 0 1 0 -5 0zM1152.5 155 a2.5 2.5 0 1 0 5 0 a2.5 2.5 0 1 0 -5 0z" fill="rgba(185, 209, 231, 0.1)"></path>
            <path d="M1055 405L1045 415L1035 415M1205 405L1195 405M1095 405L1085 395M1155 405L1145 405L1135 405L1125 405L1115 405L1105 395L1095 395M985 415L975 425M1265 405L1255 415L1245 415M1355 395L1345 405L1335 405L1325 405M1025 405L1015 415L1005 425L995 425L985 425L975 435M1185 415L1175 415M1075 405L1065 415L1055 415L1045 425L1035 425L1025 435L1015 435L1005 435L995 435L985 435L975 445L965 445L955 445L945 445L935 455L925 465L915 465L905 465L895 465L885 465L875 465M1125 415L1115 425L1105 425L1095 425L1085 425L1075 425L1065 425M1215 405L1205 415M1455 375L1445 375L1435 375L1425 385L1415 385L1405 385L1395 395L1385 395L1375 395L1365 395L1355 395L1345 395L1335 395L1325 395L1315 395L1305 395L1295 395L1285 395L1275 405L1265 405L1255 405L1245 405L1235 405L1225 405L1215 405L1205 405L1195 415L1185 415L1175 405L1165 405L1155 405L1145 415L1135 415L1125 415L1115 415L1105 405L1095 405L1085 405L1075 405L1065 405L1055 405L1045 405L1035 405L1025 405L1015 405L1005 415L995 415L985 415L975 415" stroke="rgba(79, 163, 205, 0.05)" stroke-width="1.67"></path>
            <path d="M972.5 415 a2.5 2.5 0 1 0 5 0 a2.5 2.5 0 1 0 -5 0zM1032.5 415 a2.5 2.5 0 1 0 5 0 a2.5 2.5 0 1 0 -5 0zM1192.5 405 a2.5 2.5 0 1 0 5 0 a2.5 2.5 0 1 0 -5 0zM1082.5 395 a2.5 2.5 0 1 0 5 0 a2.5 2.5 0 1 0 -5 0zM1092.5 395 a2.5 2.5 0 1 0 5 0 a2.5 2.5 0 1 0 -5 0zM972.5 425 a2.5 2.5 0 1 0 5 0 a2.5 2.5 0 1 0 -5 0zM1242.5 415 a2.5 2.5 0 1 0 5 0 a2.5 2.5 0 1 0 -5 0zM1322.5 405 a2.5 2.5 0 1 0 5 0 a2.5 2.5 0 1 0 -5 0zM972.5 435 a2.5 2.5 0 1 0 5 0 a2.5 2.5 0 1 0 -5 0zM1172.5 415 a2.5 2.5 0 1 0 5 0 a2.5 2.5 0 1 0 -5 0zM872.5 465 a2.5 2.5 0 1 0 5 0 a2.5 2.5 0 1 0 -5 0zM1062.5 425 a2.5 2.5 0 1 0 5 0 a2.5 2.5 0 1 0 -5 0zM1202.5 415 a2.5 2.5 0 1 0 5 0 a2.5 2.5 0 1 0 -5 0z" fill="rgba(79, 163, 205, 0.05)"></path>
            <path d="M1335 155L1325 145L1315 145L1305 145L1295 145L1285 145L1275 135L1265 135L1255 145L1245 145L1235 145L1225 145L1215 145M885 135L875 125L865 125L855 125L845 125L835 125M1375 165L1365 165M1055 135L1045 125L1035 125L1025 125L1015 115L1005 115L995 115L985 115M875 135L865 145L855 155L845 155L835 155L825 155L815 155M1325 155L1315 155L1305 155L1295 155L1285 155L1275 155L1265 145M965 125L955 115L945 115M935 125L925 115L915 115L905 115L895 115L885 115L875 115L865 115L855 115L845 115M915 135L905 125L895 125L885 125M1075 135L1065 125L1055 125M835 135L825 145L815 145L805 145L795 145L785 145L775 145M905 135L895 145L885 155L875 155L865 155M845 135L835 145M1215 155L1205 155M825 135L815 125L805 125M925 135L915 125M1455 185L1445 185L1435 175L1425 175L1415 175L1405 175L1395 175L1385 165L1375 165L1365 155L1355 155L1345 155L1335 155L1325 155L1315 165L1305 165L1295 165L1285 165L1275 165L1265 155L1255 155L1245 155L1235 155L1225 155L1215 155L1205 145L1195 145L1185 145L1175 145L1165 145L1155 135L1145 135L1135 135L1125 135L1115 135L1105 135L1095 135L1085 135L1075 135L1065 135L1055 135L1045 135L1035 135L1025 135L1015 125L1005 125L995 125L985 125L975 125L965 125L955 125L945 125L935 125L925 135L915 135L905 135L895 135L885 135L875 135L865 135L855 135L845 135L835 135L825 135L815 135" stroke="rgba(185, 209, 231, 0.1)" stroke-width="1.67"></path>
            <path d="M812.5 135 a2.5 2.5 0 1 0 5 0 a2.5 2.5 0 1 0 -5 0zM1212.5 145 a2.5 2.5 0 1 0 5 0 a2.5 2.5 0 1 0 -5 0zM832.5 125 a2.5 2.5 0 1 0 5 0 a2.5 2.5 0 1 0 -5 0zM1362.5 165 a2.5 2.5 0 1 0 5 0 a2.5 2.5 0 1 0 -5 0zM982.5 115 a2.5 2.5 0 1 0 5 0 a2.5 2.5 0 1 0 -5 0zM812.5 155 a2.5 2.5 0 1 0 5 0 a2.5 2.5 0 1 0 -5 0zM1262.5 145 a2.5 2.5 0 1 0 5 0 a2.5 2.5 0 1 0 -5 0zM942.5 115 a2.5 2.5 0 1 0 5 0 a2.5 2.5 0 1 0 -5 0zM842.5 115 a2.5 2.5 0 1 0 5 0 a2.5 2.5 0 1 0 -5 0zM882.5 125 a2.5 2.5 0 1 0 5 0 a2.5 2.5 0 1 0 -5 0zM1052.5 125 a2.5 2.5 0 1 0 5 0 a2.5 2.5 0 1 0 -5 0zM772.5 145 a2.5 2.5 0 1 0 5 0 a2.5 2.5 0 1 0 -5 0zM862.5 155 a2.5 2.5 0 1 0 5 0 a2.5 2.5 0 1 0 -5 0zM832.5 145 a2.5 2.5 0 1 0 5 0 a2.5 2.5 0 1 0 -5 0zM1202.5 155 a2.5 2.5 0 1 0 5 0 a2.5 2.5 0 1 0 -5 0zM802.5 125 a2.5 2.5 0 1 0 5 0 a2.5 2.5 0 1 0 -5 0zM912.5 125 a2.5 2.5 0 1 0 5 0 a2.5 2.5 0 1 0 -5 0z" fill="rgba(185, 209, 231, 0.1)"></path>
            <path d="M1165 415L1155 425L1145 435L1135 435L1125 435M1235 425L1225 415L1215 415M1325 415L1315 425L1305 425M1275 425L1265 415M1315 415L1305 405L1295 405L1285 405L1275 415M1305 415L1295 415M1185 425L1175 435M1365 405L1355 405M1455 385L1445 385L1435 385L1425 395L1415 395L1405 395L1395 405L1385 405L1375 405L1365 405L1355 415L1345 415L1335 415L1325 415L1315 415L1305 415L1295 425L1285 425L1275 425L1265 425L1255 425L1245 425L1235 425L1225 425L1215 425L1205 425L1195 425L1185 425L1175 425L1165 415L1155 415L1145 425L1135 425" stroke="rgba(185, 209, 231, 0.1)" stroke-width="1.67"></path>
            <path d="M1132.5 425 a2.5 2.5 0 1 0 5 0 a2.5 2.5 0 1 0 -5 0zM1122.5 435 a2.5 2.5 0 1 0 5 0 a2.5 2.5 0 1 0 -5 0zM1212.5 415 a2.5 2.5 0 1 0 5 0 a2.5 2.5 0 1 0 -5 0zM1302.5 425 a2.5 2.5 0 1 0 5 0 a2.5 2.5 0 1 0 -5 0zM1262.5 415 a2.5 2.5 0 1 0 5 0 a2.5 2.5 0 1 0 -5 0zM1272.5 415 a2.5 2.5 0 1 0 5 0 a2.5 2.5 0 1 0 -5 0zM1292.5 415 a2.5 2.5 0 1 0 5 0 a2.5 2.5 0 1 0 -5 0zM1172.5 435 a2.5 2.5 0 1 0 5 0 a2.5 2.5 0 1 0 -5 0zM1352.5 405 a2.5 2.5 0 1 0 5 0 a2.5 2.5 0 1 0 -5 0z" fill="rgba(185, 209, 231, 0.1)"></path>
            <path d="M1455 175L1445 175L1435 165L1425 165L1415 165L1405 165L1395 155L1385 155L1375 155L1365 145L1355 145L1345 145" stroke="rgba(79, 163, 205, 0.05)" stroke-width="1.67"></path>
            <path d="M1342.5 145 a2.5 2.5 0 1 0 5 0 a2.5 2.5 0 1 0 -5 0z" fill="rgba(79, 163, 205, 0.05)"></path>
            <path d="M1445 395L1435 395M1455 395L1445 395L1435 405L1425 405L1415 405L1405 405L1395 415L1385 415L1375 415L1365 415L1355 425L1345 425L1335 425" stroke="rgba(185, 209, 231, 0.1)" stroke-width="1.67"></path>
            <path d="M1332.5 425 a2.5 2.5 0 1 0 5 0 a2.5 2.5 0 1 0 -5 0zM1432.5 395 a2.5 2.5 0 1 0 5 0 a2.5 2.5 0 1 0 -5 0z" fill="rgba(185, 209, 231, 0.1)"></path>
            <path d="M1245 135L1235 125L1225 115M1045 115L1035 105M1035 115L1025 115M1195 135L1185 125L1175 125L1165 125M1085 125L1075 125M1255 135L1245 125L1235 115M1055 115L1045 105M1265 125L1255 125M1215 135L1205 125L1195 125M1225 135L1215 125M1455 165L1445 165L1435 155L1425 155L1415 155L1405 155L1395 145L1385 145L1375 145L1365 135L1355 135L1345 135L1335 135L1325 135L1315 135L1305 135L1295 135L1285 135L1275 125L1265 125L1255 135L1245 135L1235 135L1225 135L1215 135L1205 135L1195 135L1185 135L1175 135L1165 135L1155 125L1145 125L1135 125L1125 125L1115 125L1105 125L1095 125L1085 125L1075 115L1065 115L1055 115L1045 115L1035 115L1025 105L1015 105L1005 105" stroke="rgba(185, 209, 231, 0.1)" stroke-width="1.67"></path>
            <path d="M1002.5 105 a2.5 2.5 0 1 0 5 0 a2.5 2.5 0 1 0 -5 0zM1222.5 115 a2.5 2.5 0 1 0 5 0 a2.5 2.5 0 1 0 -5 0zM1032.5 105 a2.5 2.5 0 1 0 5 0 a2.5 2.5 0 1 0 -5 0zM1022.5 115 a2.5 2.5 0 1 0 5 0 a2.5 2.5 0 1 0 -5 0zM1162.5 125 a2.5 2.5 0 1 0 5 0 a2.5 2.5 0 1 0 -5 0zM1072.5 125 a2.5 2.5 0 1 0 5 0 a2.5 2.5 0 1 0 -5 0zM1232.5 115 a2.5 2.5 0 1 0 5 0 a2.5 2.5 0 1 0 -5 0zM1042.5 105 a2.5 2.5 0 1 0 5 0 a2.5 2.5 0 1 0 -5 0zM1252.5 125 a2.5 2.5 0 1 0 5 0 a2.5 2.5 0 1 0 -5 0zM1192.5 125 a2.5 2.5 0 1 0 5 0 a2.5 2.5 0 1 0 -5 0zM1212.5 125 a2.5 2.5 0 1 0 5 0 a2.5 2.5 0 1 0 -5 0z" fill="rgba(185, 209, 231, 0.1)"></path>
            <path d="M1225 435L1215 445L1205 445L1195 445L1185 445L1175 445L1165 445L1155 445M1455 405L1445 405L1435 415L1425 415L1415 415L1405 415L1395 425L1385 425L1375 425L1365 425L1355 435L1345 435L1335 435L1325 435L1315 435L1305 435L1295 435L1285 435L1275 435L1265 435L1255 435L1245 435L1235 435L1225 435L1215 435L1205 435L1195 435" stroke="rgba(79, 163, 205, 0.05)" stroke-width="1.67"></path>
            <path d="M1192.5 435 a2.5 2.5 0 1 0 5 0 a2.5 2.5 0 1 0 -5 0zM1152.5 445 a2.5 2.5 0 1 0 5 0 a2.5 2.5 0 1 0 -5 0z" fill="rgba(79, 163, 205, 0.05)"></path>
            <path d="M1445 145L1435 135L1425 135L1415 125L1405 125L1395 125L1385 125L1375 125M1055 95L1045 85L1035 75L1025 75L1015 75L1005 75L995 75L985 75L975 75L965 75L955 75M1265 115L1255 105L1245 95L1235 95L1225 95L1215 95L1205 95L1195 95L1185 95L1175 95L1165 95L1155 95L1145 95L1135 105M1035 85L1025 95L1015 95L1005 95L995 95L985 95M1075 105L1065 95L1055 85L1045 75M1195 115L1185 105L1175 105L1165 105L1155 105M1065 105L1055 105M1215 115L1205 105L1195 105M1105 115L1095 105L1085 105L1075 95M1355 125L1345 115L1335 115L1325 115L1315 115L1305 115L1295 115L1285 115L1275 105L1265 105M1225 105L1215 105M1045 95L1035 95M1455 155L1445 145L1435 145L1425 145L1415 145L1405 135L1395 135L1385 135L1375 135L1365 125L1355 125L1345 125L1335 125L1325 125L1315 125L1305 125L1295 125L1285 125L1275 115L1265 115L1255 115L1245 105L1235 105L1225 105L1215 115L1205 115L1195 115L1185 115L1175 115L1165 115L1155 115L1145 115L1135 115L1125 115L1115 115L1105 115L1095 115L1085 115L1075 105L1065 105L1055 95L1045 95L1035 85L1025 85L1015 85L1005 85L995 85L985 85" stroke="rgba(185, 209, 231, 0.1)" stroke-width="1.67"></path>
            <path d="M982.5 85 a2.5 2.5 0 1 0 5 0 a2.5 2.5 0 1 0 -5 0zM1372.5 125 a2.5 2.5 0 1 0 5 0 a2.5 2.5 0 1 0 -5 0zM952.5 75 a2.5 2.5 0 1 0 5 0 a2.5 2.5 0 1 0 -5 0zM1132.5 105 a2.5 2.5 0 1 0 5 0 a2.5 2.5 0 1 0 -5 0zM982.5 95 a2.5 2.5 0 1 0 5 0 a2.5 2.5 0 1 0 -5 0zM1042.5 75 a2.5 2.5 0 1 0 5 0 a2.5 2.5 0 1 0 -5 0zM1152.5 105 a2.5 2.5 0 1 0 5 0 a2.5 2.5 0 1 0 -5 0zM1052.5 105 a2.5 2.5 0 1 0 5 0 a2.5 2.5 0 1 0 -5 0zM1192.5 105 a2.5 2.5 0 1 0 5 0 a2.5 2.5 0 1 0 -5 0zM1072.5 95 a2.5 2.5 0 1 0 5 0 a2.5 2.5 0 1 0 -5 0zM1262.5 105 a2.5 2.5 0 1 0 5 0 a2.5 2.5 0 1 0 -5 0zM1212.5 105 a2.5 2.5 0 1 0 5 0 a2.5 2.5 0 1 0 -5 0zM1032.5 95 a2.5 2.5 0 1 0 5 0 a2.5 2.5 0 1 0 -5 0z" fill="rgba(185, 209, 231, 0.1)"></path>
            <path d="M1285 445L1275 455L1265 455M1115 455L1105 465M1315 445L1305 455M1425 425L1415 435M1295 445L1285 455L1275 465L1265 465L1255 465L1245 465L1235 465L1225 465L1215 465L1205 465M1155 455L1145 465L1135 465L1125 465L1115 465L1105 475L1095 475L1085 475L1075 475M1095 455L1085 445L1075 445M1385 435L1375 445L1365 455L1355 455L1345 455L1335 455L1325 455L1315 455L1305 465M1375 435L1365 435M1245 445L1235 455M1455 415L1445 415L1435 425L1425 425L1415 425L1405 425L1395 435L1385 435L1375 435L1365 445L1355 445L1345 445L1335 445L1325 445L1315 445L1305 445L1295 445L1285 445L1275 445L1265 445L1255 445L1245 445L1235 445L1225 455L1215 455L1205 455L1195 455L1185 455L1175 455L1165 455L1155 455L1145 455L1135 455L1125 455L1115 455L1105 455L1095 455L1085 455L1075 455L1065 455L1055 455L1045 455" stroke="rgba(185, 209, 231, 0.1)" stroke-width="1.67"></path>
            <path d="M1042.5 455 a2.5 2.5 0 1 0 5 0 a2.5 2.5 0 1 0 -5 0zM1262.5 455 a2.5 2.5 0 1 0 5 0 a2.5 2.5 0 1 0 -5 0zM1102.5 465 a2.5 2.5 0 1 0 5 0 a2.5 2.5 0 1 0 -5 0zM1302.5 455 a2.5 2.5 0 1 0 5 0 a2.5 2.5 0 1 0 -5 0zM1412.5 435 a2.5 2.5 0 1 0 5 0 a2.5 2.5 0 1 0 -5 0zM1202.5 465 a2.5 2.5 0 1 0 5 0 a2.5 2.5 0 1 0 -5 0zM1072.5 475 a2.5 2.5 0 1 0 5 0 a2.5 2.5 0 1 0 -5 0zM1072.5 445 a2.5 2.5 0 1 0 5 0 a2.5 2.5 0 1 0 -5 0zM1302.5 465 a2.5 2.5 0 1 0 5 0 a2.5 2.5 0 1 0 -5 0zM1362.5 435 a2.5 2.5 0 1 0 5 0 a2.5 2.5 0 1 0 -5 0zM1232.5 455 a2.5 2.5 0 1 0 5 0 a2.5 2.5 0 1 0 -5 0z" fill="rgba(185, 209, 231, 0.1)"></path>
        </g>
    </g>
    <defs>
        <mask id="SvgjsMask1126">
            <rect width="1440" height="560" fill="#ffffff"></rect>
        </mask>
        <mask id="SvgjsMask1127">
            <rect width="1440" height="560" fill="white"></rect>
            <path d="M1083.75 285 a1.25 1.25 0 1 0 2.5 0 a1.25 1.25 0 1 0 -2.5 0zM1283.75 295 a1.25 1.25 0 1 0 2.5 0 a1.25 1.25 0 1 0 -2.5 0zM1333.75 295 a1.25 1.25 0 1 0 2.5 0 a1.25 1.25 0 1 0 -2.5 0zM1163.75 285 a1.25 1.25 0 1 0 2.5 0 a1.25 1.25 0 1 0 -2.5 0zM1193.75 285 a1.25 1.25 0 1 0 2.5 0 a1.25 1.25 0 1 0 -2.5 0zM1393.75 295 a1.25 1.25 0 1 0 2.5 0 a1.25 1.25 0 1 0 -2.5 0zM1243.75 295 a1.25 1.25 0 1 0 2.5 0 a1.25 1.25 0 1 0 -2.5 0zM1063.75 295 a1.25 1.25 0 1 0 2.5 0 a1.25 1.25 0 1 0 -2.5 0zM1133.75 305 a1.25 1.25 0 1 0 2.5 0 a1.25 1.25 0 1 0 -2.5 0zM1073.75 295 a1.25 1.25 0 1 0 2.5 0 a1.25 1.25 0 1 0 -2.5 0z" fill="black"></path>
            <path d="M833.75 265 a1.25 1.25 0 1 0 2.5 0 a1.25 1.25 0 1 0 -2.5 0zM933.75 265 a1.25 1.25 0 1 0 2.5 0 a1.25 1.25 0 1 0 -2.5 0zM933.75 285 a1.25 1.25 0 1 0 2.5 0 a1.25 1.25 0 1 0 -2.5 0zM863.75 295 a1.25 1.25 0 1 0 2.5 0 a1.25 1.25 0 1 0 -2.5 0zM1113.75 275 a1.25 1.25 0 1 0 2.5 0 a1.25 1.25 0 1 0 -2.5 0zM903.75 305 a1.25 1.25 0 1 0 2.5 0 a1.25 1.25 0 1 0 -2.5 0zM1083.75 265 a1.25 1.25 0 1 0 2.5 0 a1.25 1.25 0 1 0 -2.5 0zM1023.75 285 a1.25 1.25 0 1 0 2.5 0 a1.25 1.25 0 1 0 -2.5 0zM783.75 285 a1.25 1.25 0 1 0 2.5 0 a1.25 1.25 0 1 0 -2.5 0zM1183.75 265 a1.25 1.25 0 1 0 2.5 0 a1.25 1.25 0 1 0 -2.5 0zM773.75 295 a1.25 1.25 0 1 0 2.5 0 a1.25 1.25 0 1 0 -2.5 0zM1063.75 285 a1.25 1.25 0 1 0 2.5 0 a1.25 1.25 0 1 0 -2.5 0zM773.75 265 a1.25 1.25 0 1 0 2.5 0 a1.25 1.25 0 1 0 -2.5 0zM1153.75 275 a1.25 1.25 0 1 0 2.5 0 a1.25 1.25 0 1 0 -2.5 0zM1193.75 265 a1.25 1.25 0 1 0 2.5 0 a1.25 1.25 0 1 0 -2.5 0zM973.75 265 a1.25 1.25 0 1 0 2.5 0 a1.25 1.25 0 1 0 -2.5 0z" fill="black"></path>
            <path d="M1153.75 305 a1.25 1.25 0 1 0 2.5 0 a1.25 1.25 0 1 0 -2.5 0zM1173.75 295 a1.25 1.25 0 1 0 2.5 0 a1.25 1.25 0 1 0 -2.5 0zM1413.75 295 a1.25 1.25 0 1 0 2.5 0 a1.25 1.25 0 1 0 -2.5 0zM1263.75 295 a1.25 1.25 0 1 0 2.5 0 a1.25 1.25 0 1 0 -2.5 0zM1353.75 295 a1.25 1.25 0 1 0 2.5 0 a1.25 1.25 0 1 0 -2.5 0zM1363.75 295 a1.25 1.25 0 1 0 2.5 0 a1.25 1.25 0 1 0 -2.5 0zM1313.75 295 a1.25 1.25 0 1 0 2.5 0 a1.25 1.25 0 1 0 -2.5 0zM1213.75 295 a1.25 1.25 0 1 0 2.5 0 a1.25 1.25 0 1 0 -2.5 0z" fill="black"></path>
            <path d="M923.75 255 a1.25 1.25 0 1 0 2.5 0 a1.25 1.25 0 1 0 -2.5 0zM1213.75 255 a1.25 1.25 0 1 0 2.5 0 a1.25 1.25 0 1 0 -2.5 0zM1373.75 255 a1.25 1.25 0 1 0 2.5 0 a1.25 1.25 0 1 0 -2.5 0zM1063.75 245 a1.25 1.25 0 1 0 2.5 0 a1.25 1.25 0 1 0 -2.5 0zM1303.75 255 a1.25 1.25 0 1 0 2.5 0 a1.25 1.25 0 1 0 -2.5 0zM853.75 235 a1.25 1.25 0 1 0 2.5 0 a1.25 1.25 0 1 0 -2.5 0zM863.75 195 a1.25 1.25 0 1 0 2.5 0 a1.25 1.25 0 1 0 -2.5 0zM1103.75 245 a1.25 1.25 0 1 0 2.5 0 a1.25 1.25 0 1 0 -2.5 0zM1023.75 245 a1.25 1.25 0 1 0 2.5 0 a1.25 1.25 0 1 0 -2.5 0zM1203.75 265 a1.25 1.25 0 1 0 2.5 0 a1.25 1.25 0 1 0 -2.5 0zM1123.75 245 a1.25 1.25 0 1 0 2.5 0 a1.25 1.25 0 1 0 -2.5 0zM1153.75 245 a1.25 1.25 0 1 0 2.5 0 a1.25 1.25 0 1 0 -2.5 0zM1323.75 255 a1.25 1.25 0 1 0 2.5 0 a1.25 1.25 0 1 0 -2.5 0zM1333.75 255 a1.25 1.25 0 1 0 2.5 0 a1.25 1.25 0 1 0 -2.5 0z" fill="black"></path>
            <path d="M793.75 335 a1.25 1.25 0 1 0 2.5 0 a1.25 1.25 0 1 0 -2.5 0zM1133.75 325 a1.25 1.25 0 1 0 2.5 0 a1.25 1.25 0 1 0 -2.5 0zM1073.75 315 a1.25 1.25 0 1 0 2.5 0 a1.25 1.25 0 1 0 -2.5 0zM773.75 315 a1.25 1.25 0 1 0 2.5 0 a1.25 1.25 0 1 0 -2.5 0zM1033.75 315 a1.25 1.25 0 1 0 2.5 0 a1.25 1.25 0 1 0 -2.5 0zM843.75 355 a1.25 1.25 0 1 0 2.5 0 a1.25 1.25 0 1 0 -2.5 0zM843.75 385 a1.25 1.25 0 1 0 2.5 0 a1.25 1.25 0 1 0 -2.5 0zM803.75 305 a1.25 1.25 0 1 0 2.5 0 a1.25 1.25 0 1 0 -2.5 0zM1423.75 305 a1.25 1.25 0 1 0 2.5 0 a1.25 1.25 0 1 0 -2.5 0zM793.75 345 a1.25 1.25 0 1 0 2.5 0 a1.25 1.25 0 1 0 -2.5 0zM1153.75 325 a1.25 1.25 0 1 0 2.5 0 a1.25 1.25 0 1 0 -2.5 0zM1113.75 315 a1.25 1.25 0 1 0 2.5 0 a1.25 1.25 0 1 0 -2.5 0zM963.75 345 a1.25 1.25 0 1 0 2.5 0 a1.25 1.25 0 1 0 -2.5 0zM773.75 305 a1.25 1.25 0 1 0 2.5 0 a1.25 1.25 0 1 0 -2.5 0zM1193.75 325 a1.25 1.25 0 1 0 2.5 0 a1.25 1.25 0 1 0 -2.5 0zM943.75 325 a1.25 1.25 0 1 0 2.5 0 a1.25 1.25 0 1 0 -2.5 0zM1123.75 315 a1.25 1.25 0 1 0 2.5 0 a1.25 1.25 0 1 0 -2.5 0z" fill="black"></path>
            <path d="M1073.75 235 a1.25 1.25 0 1 0 2.5 0 a1.25 1.25 0 1 0 -2.5 0zM1283.75 235 a1.25 1.25 0 1 0 2.5 0 a1.25 1.25 0 1 0 -2.5 0zM1343.75 255 a1.25 1.25 0 1 0 2.5 0 a1.25 1.25 0 1 0 -2.5 0zM1303.75 235 a1.25 1.25 0 1 0 2.5 0 a1.25 1.25 0 1 0 -2.5 0zM1313.75 235 a1.25 1.25 0 1 0 2.5 0 a1.25 1.25 0 1 0 -2.5 0zM1163.75 245 a1.25 1.25 0 1 0 2.5 0 a1.25 1.25 0 1 0 -2.5 0zM1223.75 235 a1.25 1.25 0 1 0 2.5 0 a1.25 1.25 0 1 0 -2.5 0zM1353.75 255 a1.25 1.25 0 1 0 2.5 0 a1.25 1.25 0 1 0 -2.5 0zM1383.75 255 a1.25 1.25 0 1 0 2.5 0 a1.25 1.25 0 1 0 -2.5 0z" fill="black"></path>
            <path d="M983.75 355 a1.25 1.25 0 1 0 2.5 0 a1.25 1.25 0 1 0 -2.5 0zM953.75 355 a1.25 1.25 0 1 0 2.5 0 a1.25 1.25 0 1 0 -2.5 0zM993.75 375 a1.25 1.25 0 1 0 2.5 0 a1.25 1.25 0 1 0 -2.5 0zM993.75 385 a1.25 1.25 0 1 0 2.5 0 a1.25 1.25 0 1 0 -2.5 0zM1213.75 325 a1.25 1.25 0 1 0 2.5 0 a1.25 1.25 0 1 0 -2.5 0zM1083.75 355 a1.25 1.25 0 1 0 2.5 0 a1.25 1.25 0 1 0 -2.5 0zM1223.75 325 a1.25 1.25 0 1 0 2.5 0 a1.25 1.25 0 1 0 -2.5 0zM1053.75 325 a1.25 1.25 0 1 0 2.5 0 a1.25 1.25 0 1 0 -2.5 0z" fill="black"></path>
            <path d="M1013.75 235 a1.25 1.25 0 1 0 2.5 0 a1.25 1.25 0 1 0 -2.5 0zM893.75 195 a1.25 1.25 0 1 0 2.5 0 a1.25 1.25 0 1 0 -2.5 0zM1223.75 215 a1.25 1.25 0 1 0 2.5 0 a1.25 1.25 0 1 0 -2.5 0zM1083.75 215 a1.25 1.25 0 1 0 2.5 0 a1.25 1.25 0 1 0 -2.5 0zM1243.75 215 a1.25 1.25 0 1 0 2.5 0 a1.25 1.25 0 1 0 -2.5 0zM993.75 205 a1.25 1.25 0 1 0 2.5 0 a1.25 1.25 0 1 0 -2.5 0zM1123.75 215 a1.25 1.25 0 1 0 2.5 0 a1.25 1.25 0 1 0 -2.5 0zM953.75 215 a1.25 1.25 0 1 0 2.5 0 a1.25 1.25 0 1 0 -2.5 0zM1253.75 225 a1.25 1.25 0 1 0 2.5 0 a1.25 1.25 0 1 0 -2.5 0zM1093.75 205 a1.25 1.25 0 1 0 2.5 0 a1.25 1.25 0 1 0 -2.5 0zM1033.75 215 a1.25 1.25 0 1 0 2.5 0 a1.25 1.25 0 1 0 -2.5 0zM1323.75 235 a1.25 1.25 0 1 0 2.5 0 a1.25 1.25 0 1 0 -2.5 0z" fill="black"></path>
            <path d="M1243.75 335 a1.25 1.25 0 1 0 2.5 0 a1.25 1.25 0 1 0 -2.5 0z" fill="black"></path>
            <path d="M1083.75 195 a1.25 1.25 0 1 0 2.5 0 a1.25 1.25 0 1 0 -2.5 0zM1163.75 205 a1.25 1.25 0 1 0 2.5 0 a1.25 1.25 0 1 0 -2.5 0zM1063.75 185 a1.25 1.25 0 1 0 2.5 0 a1.25 1.25 0 1 0 -2.5 0zM1413.75 225 a1.25 1.25 0 1 0 2.5 0 a1.25 1.25 0 1 0 -2.5 0zM1093.75 185 a1.25 1.25 0 1 0 2.5 0 a1.25 1.25 0 1 0 -2.5 0z" fill="black"></path>
            <path d="M1103.75 355 a1.25 1.25 0 1 0 2.5 0 a1.25 1.25 0 1 0 -2.5 0zM1323.75 355 a1.25 1.25 0 1 0 2.5 0 a1.25 1.25 0 1 0 -2.5 0zM1373.75 355 a1.25 1.25 0 1 0 2.5 0 a1.25 1.25 0 1 0 -2.5 0zM1123.75 345 a1.25 1.25 0 1 0 2.5 0 a1.25 1.25 0 1 0 -2.5 0z" fill="black"></path>
            <path d="M1113.75 185 a1.25 1.25 0 1 0 2.5 0 a1.25 1.25 0 1 0 -2.5 0zM1113.75 175 a1.25 1.25 0 1 0 2.5 0 a1.25 1.25 0 1 0 -2.5 0zM1433.75 225 a1.25 1.25 0 1 0 2.5 0 a1.25 1.25 0 1 0 -2.5 0zM1253.75 185 a1.25 1.25 0 1 0 2.5 0 a1.25 1.25 0 1 0 -2.5 0zM1393.75 215 a1.25 1.25 0 1 0 2.5 0 a1.25 1.25 0 1 0 -2.5 0zM1403.75 215 a1.25 1.25 0 1 0 2.5 0 a1.25 1.25 0 1 0 -2.5 0zM1153.75 175 a1.25 1.25 0 1 0 2.5 0 a1.25 1.25 0 1 0 -2.5 0z" fill="black"></path>
            <path d="M973.75 395 a1.25 1.25 0 1 0 2.5 0 a1.25 1.25 0 1 0 -2.5 0zM1023.75 375 a1.25 1.25 0 1 0 2.5 0 a1.25 1.25 0 1 0 -2.5 0zM1133.75 365 a1.25 1.25 0 1 0 2.5 0 a1.25 1.25 0 1 0 -2.5 0zM1043.75 375 a1.25 1.25 0 1 0 2.5 0 a1.25 1.25 0 1 0 -2.5 0zM1233.75 375 a1.25 1.25 0 1 0 2.5 0 a1.25 1.25 0 1 0 -2.5 0zM943.75 375 a1.25 1.25 0 1 0 2.5 0 a1.25 1.25 0 1 0 -2.5 0zM1283.75 365 a1.25 1.25 0 1 0 2.5 0 a1.25 1.25 0 1 0 -2.5 0zM1393.75 355 a1.25 1.25 0 1 0 2.5 0 a1.25 1.25 0 1 0 -2.5 0zM1303.75 365 a1.25 1.25 0 1 0 2.5 0 a1.25 1.25 0 1 0 -2.5 0z" fill="black"></path>
            <path d="M943.75 175 a1.25 1.25 0 1 0 2.5 0 a1.25 1.25 0 1 0 -2.5 0zM973.75 185 a1.25 1.25 0 1 0 2.5 0 a1.25 1.25 0 1 0 -2.5 0zM1063.75 165 a1.25 1.25 0 1 0 2.5 0 a1.25 1.25 0 1 0 -2.5 0zM1333.75 195 a1.25 1.25 0 1 0 2.5 0 a1.25 1.25 0 1 0 -2.5 0zM973.75 165 a1.25 1.25 0 1 0 2.5 0 a1.25 1.25 0 1 0 -2.5 0zM1163.75 175 a1.25 1.25 0 1 0 2.5 0 a1.25 1.25 0 1 0 -2.5 0zM1343.75 195 a1.25 1.25 0 1 0 2.5 0 a1.25 1.25 0 1 0 -2.5 0zM1013.75 165 a1.25 1.25 0 1 0 2.5 0 a1.25 1.25 0 1 0 -2.5 0zM1073.75 165 a1.25 1.25 0 1 0 2.5 0 a1.25 1.25 0 1 0 -2.5 0zM1083.75 165 a1.25 1.25 0 1 0 2.5 0 a1.25 1.25 0 1 0 -2.5 0zM1233.75 175 a1.25 1.25 0 1 0 2.5 0 a1.25 1.25 0 1 0 -2.5 0zM803.75 175 a1.25 1.25 0 1 0 2.5 0 a1.25 1.25 0 1 0 -2.5 0zM1353.75 195 a1.25 1.25 0 1 0 2.5 0 a1.25 1.25 0 1 0 -2.5 0zM1013.75 195 a1.25 1.25 0 1 0 2.5 0 a1.25 1.25 0 1 0 -2.5 0z" fill="black"></path>
            <path d="M863.75 385 a1.25 1.25 0 1 0 2.5 0 a1.25 1.25 0 1 0 -2.5 0zM1063.75 395 a1.25 1.25 0 1 0 2.5 0 a1.25 1.25 0 1 0 -2.5 0zM1103.75 385 a1.25 1.25 0 1 0 2.5 0 a1.25 1.25 0 1 0 -2.5 0zM1163.75 375 a1.25 1.25 0 1 0 2.5 0 a1.25 1.25 0 1 0 -2.5 0zM903.75 395 a1.25 1.25 0 1 0 2.5 0 a1.25 1.25 0 1 0 -2.5 0zM1153.75 395 a1.25 1.25 0 1 0 2.5 0 a1.25 1.25 0 1 0 -2.5 0zM1173.75 375 a1.25 1.25 0 1 0 2.5 0 a1.25 1.25 0 1 0 -2.5 0zM1253.75 375 a1.25 1.25 0 1 0 2.5 0 a1.25 1.25 0 1 0 -2.5 0zM923.75 375 a1.25 1.25 0 1 0 2.5 0 a1.25 1.25 0 1 0 -2.5 0zM1193.75 375 a1.25 1.25 0 1 0 2.5 0 a1.25 1.25 0 1 0 -2.5 0zM873.75 375 a1.25 1.25 0 1 0 2.5 0 a1.25 1.25 0 1 0 -2.5 0zM783.75 405 a1.25 1.25 0 1 0 2.5 0 a1.25 1.25 0 1 0 -2.5 0zM803.75 415 a1.25 1.25 0 1 0 2.5 0 a1.25 1.25 0 1 0 -2.5 0zM953.75 395 a1.25 1.25 0 1 0 2.5 0 a1.25 1.25 0 1 0 -2.5 0zM863.75 405 a1.25 1.25 0 1 0 2.5 0 a1.25 1.25 0 1 0 -2.5 0zM1213.75 375 a1.25 1.25 0 1 0 2.5 0 a1.25 1.25 0 1 0 -2.5 0z" fill="black"></path>
            <path d="M1293.75 185 a1.25 1.25 0 1 0 2.5 0 a1.25 1.25 0 1 0 -2.5 0zM1373.75 195 a1.25 1.25 0 1 0 2.5 0 a1.25 1.25 0 1 0 -2.5 0z" fill="black"></path>
            <path d="M1193.75 395 a1.25 1.25 0 1 0 2.5 0 a1.25 1.25 0 1 0 -2.5 0z" fill="black"></path>
            <path d="M953.75 135 a1.25 1.25 0 1 0 2.5 0 a1.25 1.25 0 1 0 -2.5 0zM913.75 145 a1.25 1.25 0 1 0 2.5 0 a1.25 1.25 0 1 0 -2.5 0zM1323.75 165 a1.25 1.25 0 1 0 2.5 0 a1.25 1.25 0 1 0 -2.5 0zM983.75 145 a1.25 1.25 0 1 0 2.5 0 a1.25 1.25 0 1 0 -2.5 0zM1173.75 155 a1.25 1.25 0 1 0 2.5 0 a1.25 1.25 0 1 0 -2.5 0zM1143.75 155 a1.25 1.25 0 1 0 2.5 0 a1.25 1.25 0 1 0 -2.5 0zM1183.75 155 a1.25 1.25 0 1 0 2.5 0 a1.25 1.25 0 1 0 -2.5 0zM1193.75 155 a1.25 1.25 0 1 0 2.5 0 a1.25 1.25 0 1 0 -2.5 0zM1153.75 155 a1.25 1.25 0 1 0 2.5 0 a1.25 1.25 0 1 0 -2.5 0z" fill="black"></path>
            <path d="M973.75 415 a1.25 1.25 0 1 0 2.5 0 a1.25 1.25 0 1 0 -2.5 0zM1033.75 415 a1.25 1.25 0 1 0 2.5 0 a1.25 1.25 0 1 0 -2.5 0zM1193.75 405 a1.25 1.25 0 1 0 2.5 0 a1.25 1.25 0 1 0 -2.5 0zM1083.75 395 a1.25 1.25 0 1 0 2.5 0 a1.25 1.25 0 1 0 -2.5 0zM1093.75 395 a1.25 1.25 0 1 0 2.5 0 a1.25 1.25 0 1 0 -2.5 0zM973.75 425 a1.25 1.25 0 1 0 2.5 0 a1.25 1.25 0 1 0 -2.5 0zM1243.75 415 a1.25 1.25 0 1 0 2.5 0 a1.25 1.25 0 1 0 -2.5 0zM1323.75 405 a1.25 1.25 0 1 0 2.5 0 a1.25 1.25 0 1 0 -2.5 0zM973.75 435 a1.25 1.25 0 1 0 2.5 0 a1.25 1.25 0 1 0 -2.5 0zM1173.75 415 a1.25 1.25 0 1 0 2.5 0 a1.25 1.25 0 1 0 -2.5 0zM873.75 465 a1.25 1.25 0 1 0 2.5 0 a1.25 1.25 0 1 0 -2.5 0zM1063.75 425 a1.25 1.25 0 1 0 2.5 0 a1.25 1.25 0 1 0 -2.5 0zM1203.75 415 a1.25 1.25 0 1 0 2.5 0 a1.25 1.25 0 1 0 -2.5 0z" fill="black"></path>
            <path d="M813.75 135 a1.25 1.25 0 1 0 2.5 0 a1.25 1.25 0 1 0 -2.5 0zM1213.75 145 a1.25 1.25 0 1 0 2.5 0 a1.25 1.25 0 1 0 -2.5 0zM833.75 125 a1.25 1.25 0 1 0 2.5 0 a1.25 1.25 0 1 0 -2.5 0zM1363.75 165 a1.25 1.25 0 1 0 2.5 0 a1.25 1.25 0 1 0 -2.5 0zM983.75 115 a1.25 1.25 0 1 0 2.5 0 a1.25 1.25 0 1 0 -2.5 0zM813.75 155 a1.25 1.25 0 1 0 2.5 0 a1.25 1.25 0 1 0 -2.5 0zM1263.75 145 a1.25 1.25 0 1 0 2.5 0 a1.25 1.25 0 1 0 -2.5 0zM943.75 115 a1.25 1.25 0 1 0 2.5 0 a1.25 1.25 0 1 0 -2.5 0zM843.75 115 a1.25 1.25 0 1 0 2.5 0 a1.25 1.25 0 1 0 -2.5 0zM883.75 125 a1.25 1.25 0 1 0 2.5 0 a1.25 1.25 0 1 0 -2.5 0zM1053.75 125 a1.25 1.25 0 1 0 2.5 0 a1.25 1.25 0 1 0 -2.5 0zM773.75 145 a1.25 1.25 0 1 0 2.5 0 a1.25 1.25 0 1 0 -2.5 0zM863.75 155 a1.25 1.25 0 1 0 2.5 0 a1.25 1.25 0 1 0 -2.5 0zM833.75 145 a1.25 1.25 0 1 0 2.5 0 a1.25 1.25 0 1 0 -2.5 0zM1203.75 155 a1.25 1.25 0 1 0 2.5 0 a1.25 1.25 0 1 0 -2.5 0zM803.75 125 a1.25 1.25 0 1 0 2.5 0 a1.25 1.25 0 1 0 -2.5 0zM913.75 125 a1.25 1.25 0 1 0 2.5 0 a1.25 1.25 0 1 0 -2.5 0z" fill="black"></path>
            <path d="M1133.75 425 a1.25 1.25 0 1 0 2.5 0 a1.25 1.25 0 1 0 -2.5 0zM1123.75 435 a1.25 1.25 0 1 0 2.5 0 a1.25 1.25 0 1 0 -2.5 0zM1213.75 415 a1.25 1.25 0 1 0 2.5 0 a1.25 1.25 0 1 0 -2.5 0zM1303.75 425 a1.25 1.25 0 1 0 2.5 0 a1.25 1.25 0 1 0 -2.5 0zM1263.75 415 a1.25 1.25 0 1 0 2.5 0 a1.25 1.25 0 1 0 -2.5 0zM1273.75 415 a1.25 1.25 0 1 0 2.5 0 a1.25 1.25 0 1 0 -2.5 0zM1293.75 415 a1.25 1.25 0 1 0 2.5 0 a1.25 1.25 0 1 0 -2.5 0zM1173.75 435 a1.25 1.25 0 1 0 2.5 0 a1.25 1.25 0 1 0 -2.5 0zM1353.75 405 a1.25 1.25 0 1 0 2.5 0 a1.25 1.25 0 1 0 -2.5 0z" fill="black"></path>
            <path d="M1343.75 145 a1.25 1.25 0 1 0 2.5 0 a1.25 1.25 0 1 0 -2.5 0z" fill="black"></path>
            <path d="M1333.75 425 a1.25 1.25 0 1 0 2.5 0 a1.25 1.25 0 1 0 -2.5 0zM1433.75 395 a1.25 1.25 0 1 0 2.5 0 a1.25 1.25 0 1 0 -2.5 0z" fill="black"></path>
            <path d="M1003.75 105 a1.25 1.25 0 1 0 2.5 0 a1.25 1.25 0 1 0 -2.5 0zM1223.75 115 a1.25 1.25 0 1 0 2.5 0 a1.25 1.25 0 1 0 -2.5 0zM1033.75 105 a1.25 1.25 0 1 0 2.5 0 a1.25 1.25 0 1 0 -2.5 0zM1023.75 115 a1.25 1.25 0 1 0 2.5 0 a1.25 1.25 0 1 0 -2.5 0zM1163.75 125 a1.25 1.25 0 1 0 2.5 0 a1.25 1.25 0 1 0 -2.5 0zM1073.75 125 a1.25 1.25 0 1 0 2.5 0 a1.25 1.25 0 1 0 -2.5 0zM1233.75 115 a1.25 1.25 0 1 0 2.5 0 a1.25 1.25 0 1 0 -2.5 0zM1043.75 105 a1.25 1.25 0 1 0 2.5 0 a1.25 1.25 0 1 0 -2.5 0zM1253.75 125 a1.25 1.25 0 1 0 2.5 0 a1.25 1.25 0 1 0 -2.5 0zM1193.75 125 a1.25 1.25 0 1 0 2.5 0 a1.25 1.25 0 1 0 -2.5 0zM1213.75 125 a1.25 1.25 0 1 0 2.5 0 a1.25 1.25 0 1 0 -2.5 0z" fill="black"></path>
            <path d="M1193.75 435 a1.25 1.25 0 1 0 2.5 0 a1.25 1.25 0 1 0 -2.5 0zM1153.75 445 a1.25 1.25 0 1 0 2.5 0 a1.25 1.25 0 1 0 -2.5 0z" fill="black"></path>
            <path d="M983.75 85 a1.25 1.25 0 1 0 2.5 0 a1.25 1.25 0 1 0 -2.5 0zM1373.75 125 a1.25 1.25 0 1 0 2.5 0 a1.25 1.25 0 1 0 -2.5 0zM953.75 75 a1.25 1.25 0 1 0 2.5 0 a1.25 1.25 0 1 0 -2.5 0zM1133.75 105 a1.25 1.25 0 1 0 2.5 0 a1.25 1.25 0 1 0 -2.5 0zM983.75 95 a1.25 1.25 0 1 0 2.5 0 a1.25 1.25 0 1 0 -2.5 0zM1043.75 75 a1.25 1.25 0 1 0 2.5 0 a1.25 1.25 0 1 0 -2.5 0zM1153.75 105 a1.25 1.25 0 1 0 2.5 0 a1.25 1.25 0 1 0 -2.5 0zM1053.75 105 a1.25 1.25 0 1 0 2.5 0 a1.25 1.25 0 1 0 -2.5 0zM1193.75 105 a1.25 1.25 0 1 0 2.5 0 a1.25 1.25 0 1 0 -2.5 0zM1073.75 95 a1.25 1.25 0 1 0 2.5 0 a1.25 1.25 0 1 0 -2.5 0zM1263.75 105 a1.25 1.25 0 1 0 2.5 0 a1.25 1.25 0 1 0 -2.5 0zM1213.75 105 a1.25 1.25 0 1 0 2.5 0 a1.25 1.25 0 1 0 -2.5 0zM1033.75 95 a1.25 1.25 0 1 0 2.5 0 a1.25 1.25 0 1 0 -2.5 0z" fill="black"></path>
            <path d="M1043.75 455 a1.25 1.25 0 1 0 2.5 0 a1.25 1.25 0 1 0 -2.5 0zM1263.75 455 a1.25 1.25 0 1 0 2.5 0 a1.25 1.25 0 1 0 -2.5 0zM1103.75 465 a1.25 1.25 0 1 0 2.5 0 a1.25 1.25 0 1 0 -2.5 0zM1303.75 455 a1.25 1.25 0 1 0 2.5 0 a1.25 1.25 0 1 0 -2.5 0zM1413.75 435 a1.25 1.25 0 1 0 2.5 0 a1.25 1.25 0 1 0 -2.5 0zM1203.75 465 a1.25 1.25 0 1 0 2.5 0 a1.25 1.25 0 1 0 -2.5 0zM1073.75 475 a1.25 1.25 0 1 0 2.5 0 a1.25 1.25 0 1 0 -2.5 0zM1073.75 445 a1.25 1.25 0 1 0 2.5 0 a1.25 1.25 0 1 0 -2.5 0zM1303.75 465 a1.25 1.25 0 1 0 2.5 0 a1.25 1.25 0 1 0 -2.5 0zM1363.75 435 a1.25 1.25 0 1 0 2.5 0 a1.25 1.25 0 1 0 -2.5 0zM1233.75 455 a1.25 1.25 0 1 0 2.5 0 a1.25 1.25 0 1 0 -2.5 0z" fill="black"></path>
        </mask>
    </defs>
</svg>