<svg xmlns="http://www.w3.org/2000/svg" version="1.1" xmlns:xlink="http://www.w3.org/1999/xlink" xmlns:svgjs="http://svgjs.dev/svgjs" width="1440" height="560" preserveAspectRatio="none" viewBox="0 0 1440 560"><g mask="url(&quot;#SvgjsMask1378&quot;)" fill="none"><g mask="url(&quot;#SvgjsMask1379&quot;)"><path d="M536 312L520 328L504 328L488 328L472 328L456 328L440 328L424 328M1032 280L1016 280L1000 280L984 280L968 280L952 280L936 264L920 248L904 248L888 248L872 248L856 248L840 248L824 248L808 248L792 248L776 232M440 312L424 296L408 280L392 264L376 264L360 264L344 264L328 264L312 264L296 264L280 280M1400 264L1384 280L1368 280L1352 280L1336 280L1320 280M392 280L376 296L360 312L344 312L328 328L312 328L296 328L280 328M728 296L712 280L696 280L680 280L664 280M824 296L808 280L792 280L776 280L760 280L744 280L728 280L712 264L696 264M776 296L760 312L744 312L728 312L712 312M888 296L872 280L856 280L840 280L824 280L808 264L792 264L776 264M488 312L472 296L456 296L440 280L424 280L408 264L392 248L376 248L360 248L344 248M424 312L408 312L392 312M584 312L568 296L552 296L536 296L520 296L504 296L488 296L472 280L456 280L440 264L424 264L408 248L392 232L376 232L360 232L344 232L328 232L312 232M1064 280L1048 296M1224 280L1208 264M600 312L584 328L568 328L552 328L536 328L520 344L504 344L488 344L472 344L456 344L440 360L424 360M680 296L664 312M1128 280L1112 296L1096 296L1080 296L1064 296M616 312L600 296L584 296L568 280L552 280L536 280L520 280L504 280L488 280L472 264L456 264L440 248M1464 280L1448 280L1432 280L1416 280L1400 264L1384 264L1368 264L1352 264L1336 264L1320 264L1304 264L1288 264L1272 280L1256 280L1240 280L1224 280L1208 280L1192 280L1176 280L1160 280L1144 280L1128 280L1112 280L1096 280L1080 280L1064 280L1048 280L1032 280L1016 296L1000 296L984 296L968 296L952 296L936 296L920 296L904 296L888 296L872 296L856 296L840 296L824 296L808 296L792 296L776 296L760 296L744 296L728 296L712 296L696 296L680 296L664 296L648 296L632 312L616 312L600 312L584 312L568 312L552 312L536 312L520 312L504 312L488 312L472 312L456 312L440 312L424 312L408 296L392 280L376 280L360 280L344 296L328 312L312 312L296 312" stroke="rgba(217, 222, 225, 0.37)" stroke-width="2.67"></path><path d="M292 312 a4 4 0 1 0 8 0 a4 4 0 1 0 -8 0zM420 328 a4 4 0 1 0 8 0 a4 4 0 1 0 -8 0zM772 232 a4 4 0 1 0 8 0 a4 4 0 1 0 -8 0zM276 280 a4 4 0 1 0 8 0 a4 4 0 1 0 -8 0zM1316 280 a4 4 0 1 0 8 0 a4 4 0 1 0 -8 0zM276 328 a4 4 0 1 0 8 0 a4 4 0 1 0 -8 0zM660 280 a4 4 0 1 0 8 0 a4 4 0 1 0 -8 0zM692 264 a4 4 0 1 0 8 0 a4 4 0 1 0 -8 0zM708 312 a4 4 0 1 0 8 0 a4 4 0 1 0 -8 0zM772 264 a4 4 0 1 0 8 0 a4 4 0 1 0 -8 0zM340 248 a4 4 0 1 0 8 0 a4 4 0 1 0 -8 0zM388 312 a4 4 0 1 0 8 0 a4 4 0 1 0 -8 0zM308 232 a4 4 0 1 0 8 0 a4 4 0 1 0 -8 0zM1044 296 a4 4 0 1 0 8 0 a4 4 0 1 0 -8 0zM1204 264 a4 4 0 1 0 8 0 a4 4 0 1 0 -8 0zM420 360 a4 4 0 1 0 8 0 a4 4 0 1 0 -8 0zM660 312 a4 4 0 1 0 8 0 a4 4 0 1 0 -8 0zM1060 296 a4 4 0 1 0 8 0 a4 4 0 1 0 -8 0zM436 248 a4 4 0 1 0 8 0 a4 4 0 1 0 -8 0z" fill="rgba(217, 222, 225, 0.37)"></path><path d="M1064 312L1048 328L1032 328L1016 328L1000 328L984 328L968 328L952 328L936 328L920 344L904 344L888 344M728 328L712 344L696 344L680 344L664 344L648 344L632 344L616 344L600 344L584 344L568 344L552 344L536 344L520 360L504 376M1352 296L1336 312L1320 312M696 328L680 312M1176 296L1160 312L1144 328L1128 328M1272 312L1256 328L1240 328L1224 328L1208 328M1256 312L1240 296M792 328L776 312M808 328L792 344M776 328L760 344M1096 312L1080 328L1064 328M1112 312L1096 328M1208 296L1192 312M1464 296L1448 296L1432 296L1416 296L1400 296L1384 296L1368 296L1352 296L1336 296L1320 296L1304 296L1288 312L1272 312L1256 312L1240 312L1224 296L1208 296L1192 296L1176 296L1160 296L1144 312L1128 312L1112 312L1096 312L1080 312L1064 312L1048 312L1032 312L1016 312L1000 312L984 312L968 312L952 312L936 312L920 312L904 312L888 312L872 312L856 312L840 312L824 312L808 328L792 328L776 328L760 328L744 328L728 328L712 328L696 328L680 328L664 328L648 312" stroke="rgba(217, 222, 225, 0.37)" stroke-width="2.67"></path><path d="M644 312 a4 4 0 1 0 8 0 a4 4 0 1 0 -8 0zM884 344 a4 4 0 1 0 8 0 a4 4 0 1 0 -8 0zM500 376 a4 4 0 1 0 8 0 a4 4 0 1 0 -8 0zM1316 312 a4 4 0 1 0 8 0 a4 4 0 1 0 -8 0zM676 312 a4 4 0 1 0 8 0 a4 4 0 1 0 -8 0zM1124 328 a4 4 0 1 0 8 0 a4 4 0 1 0 -8 0zM1204 328 a4 4 0 1 0 8 0 a4 4 0 1 0 -8 0zM1236 296 a4 4 0 1 0 8 0 a4 4 0 1 0 -8 0zM772 312 a4 4 0 1 0 8 0 a4 4 0 1 0 -8 0zM788 344 a4 4 0 1 0 8 0 a4 4 0 1 0 -8 0zM756 344 a4 4 0 1 0 8 0 a4 4 0 1 0 -8 0zM1060 328 a4 4 0 1 0 8 0 a4 4 0 1 0 -8 0zM1092 328 a4 4 0 1 0 8 0 a4 4 0 1 0 -8 0zM1188 312 a4 4 0 1 0 8 0 a4 4 0 1 0 -8 0z" fill="rgba(217, 222, 225, 0.37)"></path><path d="M1240 248L1224 232L1208 232L1192 232L1176 232L1160 232L1144 232L1128 232L1112 232L1096 232M1048 264L1032 248L1016 248L1000 232L984 232L968 232M1080 264L1064 248L1048 248L1032 232L1016 232L1000 216L984 216L968 216L952 216L936 216L920 216M1160 264L1144 248L1128 248M1096 264L1080 248L1064 232L1048 232M1176 264L1160 248M1208 248L1192 248L1176 248M1464 264L1448 264L1432 264L1416 264L1400 248L1384 248L1368 248L1352 248L1336 248L1320 248L1304 248L1288 248L1272 248L1256 248L1240 248L1224 248L1208 248L1192 264L1176 264L1160 264L1144 264L1128 264L1112 264L1096 264L1080 264L1064 264L1048 264L1032 264L1016 264" stroke="rgba(217, 222, 225, 0.37)" stroke-width="2.67"></path><path d="M1012 264 a4 4 0 1 0 8 0 a4 4 0 1 0 -8 0zM1092 232 a4 4 0 1 0 8 0 a4 4 0 1 0 -8 0zM964 232 a4 4 0 1 0 8 0 a4 4 0 1 0 -8 0zM916 216 a4 4 0 1 0 8 0 a4 4 0 1 0 -8 0zM1124 248 a4 4 0 1 0 8 0 a4 4 0 1 0 -8 0zM1044 232 a4 4 0 1 0 8 0 a4 4 0 1 0 -8 0zM1156 248 a4 4 0 1 0 8 0 a4 4 0 1 0 -8 0zM1172 248 a4 4 0 1 0 8 0 a4 4 0 1 0 -8 0z" fill="rgba(217, 222, 225, 0.37)"></path><path d="M1096 344L1080 360L1064 360M1112 344L1096 360M1368 312L1352 312M1176 344L1160 360L1144 360L1128 360L1112 360M968 360L952 344L936 344M872 376L856 360M856 376L840 392L824 392M1192 344L1176 360M728 392L712 376L696 376L680 376L664 376L648 376L632 376L616 376L600 376L584 376L568 376M1336 344L1320 328M744 392L728 376L712 360L696 360L680 360L664 360L648 360L632 360L616 360L600 360M808 360L792 360L776 360L760 360L744 376M1304 344L1288 328L1272 328M1048 344L1032 360L1016 360L1000 360M1464 312L1448 312L1432 312L1416 312L1400 312L1384 312L1368 312L1352 328L1336 344L1320 344L1304 344L1288 344L1272 344L1256 344L1240 344L1224 344L1208 344L1192 344L1176 344L1160 344L1144 344L1128 344L1112 344L1096 344L1080 344L1064 344L1048 344L1032 344L1016 344L1000 344L984 344L968 360L952 360L936 360L920 360L904 376L888 376L872 376L856 376L840 376L824 360L808 360L792 376L776 376L760 392L744 392L728 392L712 392L696 392L680 392L664 392L648 392L632 392L616 392L600 392L584 392L568 392" stroke="rgba(217, 222, 225, 0.37)" stroke-width="2.67"></path><path d="M564 392 a4 4 0 1 0 8 0 a4 4 0 1 0 -8 0zM1060 360 a4 4 0 1 0 8 0 a4 4 0 1 0 -8 0zM1092 360 a4 4 0 1 0 8 0 a4 4 0 1 0 -8 0zM1348 312 a4 4 0 1 0 8 0 a4 4 0 1 0 -8 0zM1108 360 a4 4 0 1 0 8 0 a4 4 0 1 0 -8 0zM932 344 a4 4 0 1 0 8 0 a4 4 0 1 0 -8 0zM852 360 a4 4 0 1 0 8 0 a4 4 0 1 0 -8 0zM820 392 a4 4 0 1 0 8 0 a4 4 0 1 0 -8 0zM1172 360 a4 4 0 1 0 8 0 a4 4 0 1 0 -8 0zM564 376 a4 4 0 1 0 8 0 a4 4 0 1 0 -8 0zM1316 328 a4 4 0 1 0 8 0 a4 4 0 1 0 -8 0zM596 360 a4 4 0 1 0 8 0 a4 4 0 1 0 -8 0zM740 376 a4 4 0 1 0 8 0 a4 4 0 1 0 -8 0zM1268 328 a4 4 0 1 0 8 0 a4 4 0 1 0 -8 0zM996 360 a4 4 0 1 0 8 0 a4 4 0 1 0 -8 0z" fill="rgba(217, 222, 225, 0.37)"></path><path d="M1256 216L1240 232M1096 216L1080 200M1272 216L1256 232M1288 232L1272 232M1112 216L1096 200M1464 248L1448 248L1432 248L1416 248L1400 232L1384 232L1368 232L1352 232L1336 232L1320 232L1304 232L1288 232L1272 216L1256 216L1240 216L1224 216L1208 216L1192 216L1176 216L1160 216L1144 216L1128 216L1112 216L1096 216L1080 216" stroke="rgba(217, 222, 225, 0.37)" stroke-width="2.67"></path><path d="M1076 216 a4 4 0 1 0 8 0 a4 4 0 1 0 -8 0zM1236 232 a4 4 0 1 0 8 0 a4 4 0 1 0 -8 0zM1076 200 a4 4 0 1 0 8 0 a4 4 0 1 0 -8 0zM1252 232 a4 4 0 1 0 8 0 a4 4 0 1 0 -8 0zM1268 232 a4 4 0 1 0 8 0 a4 4 0 1 0 -8 0zM1092 200 a4 4 0 1 0 8 0 a4 4 0 1 0 -8 0z" fill="rgba(217, 222, 225, 0.37)"></path><path d="M968 376L952 392L936 408L920 408M936 376L920 392M1032 376L1016 392L1000 392L984 392L968 392L952 408M1384 328L1368 344L1352 360M1240 376L1224 360L1208 360M1320 360L1304 360L1288 360L1272 360L1256 360L1240 360M1400 328L1384 344M904 392L888 408L872 408L856 408L840 408M1416 328L1400 344M1464 328L1448 328L1432 328L1416 328L1400 328L1384 328L1368 328L1352 344L1336 360L1320 360L1304 376L1288 376L1272 376L1256 376L1240 376L1224 376L1208 376L1192 376L1176 376L1160 376L1144 376L1128 376L1112 376L1096 376L1080 376L1064 376L1048 376L1032 376L1016 376L1000 376L984 376L968 376L952 376L936 376L920 376L904 392L888 392L872 392" stroke="rgba(217, 222, 225, 0.37)" stroke-width="2.67"></path><path d="M868 392 a4 4 0 1 0 8 0 a4 4 0 1 0 -8 0zM916 408 a4 4 0 1 0 8 0 a4 4 0 1 0 -8 0zM916 392 a4 4 0 1 0 8 0 a4 4 0 1 0 -8 0zM948 408 a4 4 0 1 0 8 0 a4 4 0 1 0 -8 0zM1348 360 a4 4 0 1 0 8 0 a4 4 0 1 0 -8 0zM1204 360 a4 4 0 1 0 8 0 a4 4 0 1 0 -8 0zM1236 360 a4 4 0 1 0 8 0 a4 4 0 1 0 -8 0zM1380 344 a4 4 0 1 0 8 0 a4 4 0 1 0 -8 0zM836 408 a4 4 0 1 0 8 0 a4 4 0 1 0 -8 0zM1396 344 a4 4 0 1 0 8 0 a4 4 0 1 0 -8 0z" fill="rgba(217, 222, 225, 0.37)"></path><path d="M984 184L968 168L952 168L936 168L920 168L904 168L888 168L872 168L856 168M696 184L680 200L664 200L648 200L632 200L616 200M1064 184L1048 200L1032 200L1016 200L1000 200M648 184L632 168L616 168L600 168L584 168L568 168L552 168L536 168L520 168L504 168L488 168L472 168L456 168L440 168L424 168L408 168M1448 232L1432 216M584 184L568 200L552 200L536 200L520 200M664 184L648 168M968 184L952 200L936 200M824 200L808 184L792 184L776 184L760 184L744 168M728 184L712 168L696 168L680 168L664 168M840 200L824 216L808 216M760 200L744 200L728 200L712 200L696 200L680 216L664 216L648 216L632 216L616 216M792 200L776 216L760 216L744 216L728 216L712 216L696 216L680 232L664 232L648 232L632 232L616 232L600 232L584 232L568 232L552 232L536 232L520 232L504 232L488 232L472 232L456 248M856 200L840 184L824 184L808 168L792 168L776 168L760 168M904 184L888 184L872 184L856 184M1464 232L1448 232L1432 232L1416 232L1400 216L1384 216L1368 216L1352 216L1336 216L1320 216L1304 216L1288 200L1272 200L1256 200L1240 200L1224 200L1208 200L1192 200L1176 200L1160 200L1144 200L1128 200L1112 184L1096 184L1080 184L1064 184L1048 184L1032 184L1016 184L1000 184L984 184L968 184L952 184L936 184L920 184L904 184L888 200L872 200L856 200L840 200L824 200L808 200L792 200L776 200L760 200L744 184L728 184L712 184L696 184L680 184L664 184L648 184L632 184L616 184L600 184L584 184L568 184L552 184L536 184L520 184L504 184L488 184" stroke="rgba(217, 222, 225, 0.37)" stroke-width="2.67"></path><path d="M484 184 a4 4 0 1 0 8 0 a4 4 0 1 0 -8 0zM852 168 a4 4 0 1 0 8 0 a4 4 0 1 0 -8 0zM612 200 a4 4 0 1 0 8 0 a4 4 0 1 0 -8 0zM996 200 a4 4 0 1 0 8 0 a4 4 0 1 0 -8 0zM404 168 a4 4 0 1 0 8 0 a4 4 0 1 0 -8 0zM1428 216 a4 4 0 1 0 8 0 a4 4 0 1 0 -8 0zM516 200 a4 4 0 1 0 8 0 a4 4 0 1 0 -8 0zM644 168 a4 4 0 1 0 8 0 a4 4 0 1 0 -8 0zM932 200 a4 4 0 1 0 8 0 a4 4 0 1 0 -8 0zM740 168 a4 4 0 1 0 8 0 a4 4 0 1 0 -8 0zM660 168 a4 4 0 1 0 8 0 a4 4 0 1 0 -8 0zM804 216 a4 4 0 1 0 8 0 a4 4 0 1 0 -8 0zM612 216 a4 4 0 1 0 8 0 a4 4 0 1 0 -8 0zM452 248 a4 4 0 1 0 8 0 a4 4 0 1 0 -8 0zM756 168 a4 4 0 1 0 8 0 a4 4 0 1 0 -8 0zM852 184 a4 4 0 1 0 8 0 a4 4 0 1 0 -8 0z" fill="rgba(217, 222, 225, 0.37)"></path><path d="M1432 344L1416 344M1464 344L1448 344L1432 344L1416 360L1400 360L1384 360" stroke="rgba(217, 222, 225, 0.37)" stroke-width="2.67"></path><path d="M1380 360 a4 4 0 1 0 8 0 a4 4 0 1 0 -8 0zM1412 344 a4 4 0 1 0 8 0 a4 4 0 1 0 -8 0z" fill="rgba(217, 222, 225, 0.37)"></path><path d="M1256 184L1240 168M1384 200L1368 184L1352 184L1336 184L1320 184M1288 184L1272 168L1256 168M1224 184L1208 168L1192 168L1176 168L1160 168L1144 168M1400 200L1384 184M1432 200L1416 184L1400 184M1464 216L1448 200L1432 200L1416 200L1400 200L1384 200L1368 200L1352 200L1336 200L1320 200L1304 200L1288 184L1272 184L1256 184L1240 184L1224 184L1208 184L1192 184L1176 184L1160 184L1144 184L1128 168L1112 168L1096 168L1080 168L1064 168L1048 168" stroke="rgba(217, 222, 225, 0.37)" stroke-width="2.67"></path><path d="M1044 168 a4 4 0 1 0 8 0 a4 4 0 1 0 -8 0zM1236 168 a4 4 0 1 0 8 0 a4 4 0 1 0 -8 0zM1316 184 a4 4 0 1 0 8 0 a4 4 0 1 0 -8 0zM1252 168 a4 4 0 1 0 8 0 a4 4 0 1 0 -8 0zM1140 168 a4 4 0 1 0 8 0 a4 4 0 1 0 -8 0zM1380 184 a4 4 0 1 0 8 0 a4 4 0 1 0 -8 0zM1396 184 a4 4 0 1 0 8 0 a4 4 0 1 0 -8 0z" fill="rgba(217, 222, 225, 0.37)"></path><path d="M1144 392L1128 392M1080 408L1064 392L1048 392L1032 392L1016 408L1000 408L984 408L968 408M1096 408L1080 392M1112 408L1096 392M1464 360L1448 360L1432 360L1416 376L1400 376L1384 376L1368 376L1352 376L1336 376L1320 376L1304 392L1288 392L1272 392L1256 392L1240 392L1224 392L1208 392L1192 392L1176 392L1160 392L1144 392L1128 408L1112 408L1096 408L1080 408L1064 408L1048 408" stroke="rgba(217, 222, 225, 0.37)" stroke-width="2.67"></path><path d="M1044 408 a4 4 0 1 0 8 0 a4 4 0 1 0 -8 0zM1124 392 a4 4 0 1 0 8 0 a4 4 0 1 0 -8 0zM964 408 a4 4 0 1 0 8 0 a4 4 0 1 0 -8 0zM1076 392 a4 4 0 1 0 8 0 a4 4 0 1 0 -8 0zM1092 392 a4 4 0 1 0 8 0 a4 4 0 1 0 -8 0z" fill="rgba(217, 222, 225, 0.37)"></path><path d="M984 424L968 440L952 440L936 440L920 440L904 440L888 440L872 440M1176 408L1160 424L1144 424M696 424L680 408M792 408L776 392M1208 408L1192 424L1176 424M680 424L664 424L648 424L632 424L616 424L600 424L584 424L568 424L552 424M760 408L744 424M728 408L712 408L696 408M856 424L840 440L824 440L808 440L792 440L776 456L760 456M1240 408L1224 424L1208 424M824 408L808 424L792 424L776 424L760 424L744 440L728 440L712 456L696 456L680 440M1256 408L1240 424M664 440L648 456L632 456L616 456M712 424L696 440M1464 376L1448 376L1432 376L1416 392L1400 392L1384 392L1368 392L1352 392L1336 392L1320 392L1304 408L1288 408L1272 408L1256 408L1240 408L1224 408L1208 408L1192 408L1176 408L1160 408L1144 408L1128 424L1112 424L1096 424L1080 424L1064 424L1048 424L1032 424L1016 424L1000 424L984 424L968 424L952 424L936 424L920 424L904 424L888 424L872 424L856 424L840 424L824 408L808 408L792 408L776 408L760 408L744 408L728 408L712 424L696 424L680 424L664 440L648 440L632 440L616 440L600 456L584 456" stroke="rgba(217, 222, 225, 0.37)" stroke-width="2.67"></path><path d="M580 456 a4 4 0 1 0 8 0 a4 4 0 1 0 -8 0zM868 440 a4 4 0 1 0 8 0 a4 4 0 1 0 -8 0zM1140 424 a4 4 0 1 0 8 0 a4 4 0 1 0 -8 0zM676 408 a4 4 0 1 0 8 0 a4 4 0 1 0 -8 0zM772 392 a4 4 0 1 0 8 0 a4 4 0 1 0 -8 0zM1172 424 a4 4 0 1 0 8 0 a4 4 0 1 0 -8 0zM548 424 a4 4 0 1 0 8 0 a4 4 0 1 0 -8 0zM740 424 a4 4 0 1 0 8 0 a4 4 0 1 0 -8 0zM692 408 a4 4 0 1 0 8 0 a4 4 0 1 0 -8 0zM756 456 a4 4 0 1 0 8 0 a4 4 0 1 0 -8 0zM1204 424 a4 4 0 1 0 8 0 a4 4 0 1 0 -8 0zM676 440 a4 4 0 1 0 8 0 a4 4 0 1 0 -8 0zM1236 424 a4 4 0 1 0 8 0 a4 4 0 1 0 -8 0zM612 456 a4 4 0 1 0 8 0 a4 4 0 1 0 -8 0zM692 440 a4 4 0 1 0 8 0 a4 4 0 1 0 -8 0z" fill="rgba(217, 222, 225, 0.37)"></path><path d="M1032 152L1016 168L1000 168L984 168M1128 152L1112 136L1096 136L1080 136L1064 136M1192 152L1176 136L1160 136M968 152L952 136L936 120L920 120L904 120L888 120L872 120L856 136L840 136L824 136L808 136L792 136L776 120L760 120L744 120L728 136L712 136L696 136L680 136M1320 152L1304 168L1288 168M616 152L600 136M552 152L536 136M1272 136L1256 152M760 152L744 136M568 152L552 136L536 120L520 120L504 120L488 120L472 120L456 120L440 120L424 120L408 120L392 120L376 120L360 120L344 120L328 120L312 120L296 120L280 120M664 152L648 136M1352 152L1336 168L1320 168M1224 152L1208 136L1192 136M1368 168L1352 168M632 152L616 136L600 120L584 120L568 120L552 120M1464 184L1448 184L1432 168L1416 168L1400 168L1384 168L1368 168L1352 152L1336 152L1320 152L1304 152L1288 152L1272 136L1256 136L1240 152L1224 152L1208 152L1192 152L1176 152L1160 152L1144 152L1128 152L1112 152L1096 152L1080 152L1064 152L1048 152L1032 152L1016 152L1000 152L984 152L968 152L952 152L936 152L920 152L904 152L888 152L872 152L856 152L840 152L824 152L808 152L792 152L776 152L760 152L744 152L728 152L712 152L696 152L680 152L664 152L648 152L632 152L616 152L600 152L584 152L568 152L552 152L536 152L520 152" stroke="rgba(217, 222, 225, 0.37)" stroke-width="2.67"></path><path d="M516 152 a4 4 0 1 0 8 0 a4 4 0 1 0 -8 0zM980 168 a4 4 0 1 0 8 0 a4 4 0 1 0 -8 0zM1060 136 a4 4 0 1 0 8 0 a4 4 0 1 0 -8 0zM1156 136 a4 4 0 1 0 8 0 a4 4 0 1 0 -8 0zM676 136 a4 4 0 1 0 8 0 a4 4 0 1 0 -8 0zM1284 168 a4 4 0 1 0 8 0 a4 4 0 1 0 -8 0zM596 136 a4 4 0 1 0 8 0 a4 4 0 1 0 -8 0zM532 136 a4 4 0 1 0 8 0 a4 4 0 1 0 -8 0zM1252 152 a4 4 0 1 0 8 0 a4 4 0 1 0 -8 0zM740 136 a4 4 0 1 0 8 0 a4 4 0 1 0 -8 0zM276 120 a4 4 0 1 0 8 0 a4 4 0 1 0 -8 0zM644 136 a4 4 0 1 0 8 0 a4 4 0 1 0 -8 0zM1316 168 a4 4 0 1 0 8 0 a4 4 0 1 0 -8 0zM1188 136 a4 4 0 1 0 8 0 a4 4 0 1 0 -8 0zM1348 168 a4 4 0 1 0 8 0 a4 4 0 1 0 -8 0zM548 120 a4 4 0 1 0 8 0 a4 4 0 1 0 -8 0z" fill="rgba(217, 222, 225, 0.37)"></path><path d="M664 488L648 472L632 472L616 472L600 472M888 456L872 472L856 472M504 520L488 504L472 504M552 504L536 488L520 488M792 488L776 472L760 472L744 472L728 472L712 472L696 472L680 472L664 472M808 488L792 472M1368 408L1352 424L1336 424L1320 424M952 456L936 472L920 472L904 472L888 472M968 456L952 472M1384 408L1368 424M488 520L472 536L456 536M1000 440L984 440M824 488L808 472L792 456M840 472L824 472L808 456M1304 424L1288 424L1272 424M1464 392L1448 392L1432 392L1416 408L1400 408L1384 408L1368 408L1352 408L1336 408L1320 408L1304 424L1288 440L1272 440L1256 440L1240 440L1224 440L1208 440L1192 440L1176 440L1160 440L1144 440L1128 440L1112 440L1096 440L1080 440L1064 440L1048 440L1032 440L1016 440L1000 440L984 456L968 456L952 456L936 456L920 456L904 456L888 456L872 456L856 456L840 472L824 488L808 488L792 488L776 488L760 488L744 488L728 488L712 488L696 488L680 488L664 488L648 488L632 488L616 488L600 488L584 488L568 504L552 504L536 504L520 504L504 520L488 520L472 520" stroke="rgba(217, 222, 225, 0.37)" stroke-width="2.67"></path><path d="M468 520 a4 4 0 1 0 8 0 a4 4 0 1 0 -8 0zM596 472 a4 4 0 1 0 8 0 a4 4 0 1 0 -8 0zM852 472 a4 4 0 1 0 8 0 a4 4 0 1 0 -8 0zM468 504 a4 4 0 1 0 8 0 a4 4 0 1 0 -8 0zM516 488 a4 4 0 1 0 8 0 a4 4 0 1 0 -8 0zM660 472 a4 4 0 1 0 8 0 a4 4 0 1 0 -8 0zM788 472 a4 4 0 1 0 8 0 a4 4 0 1 0 -8 0zM1316 424 a4 4 0 1 0 8 0 a4 4 0 1 0 -8 0zM884 472 a4 4 0 1 0 8 0 a4 4 0 1 0 -8 0zM948 472 a4 4 0 1 0 8 0 a4 4 0 1 0 -8 0zM1364 424 a4 4 0 1 0 8 0 a4 4 0 1 0 -8 0zM452 536 a4 4 0 1 0 8 0 a4 4 0 1 0 -8 0zM980 440 a4 4 0 1 0 8 0 a4 4 0 1 0 -8 0zM788 456 a4 4 0 1 0 8 0 a4 4 0 1 0 -8 0zM804 456 a4 4 0 1 0 8 0 a4 4 0 1 0 -8 0zM1268 424 a4 4 0 1 0 8 0 a4 4 0 1 0 -8 0z" fill="rgba(217, 222, 225, 0.37)"></path><path d="M856 88L840 88L824 88L808 88L792 104L776 104L760 104L744 104L728 104L712 104L696 104L680 104L664 104L648 104L632 104L616 120M1048 88L1032 72L1016 72M760 88L744 72L728 72L712 72L696 72L680 72L664 72L648 72L632 72L616 72L600 72L584 56L568 40L552 40L536 40L520 40L504 40L488 40L472 56L456 56L440 56L424 56M968 88L952 72L936 72L920 72L904 72L888 72L872 72L856 72L840 56L824 56L808 56L792 56L776 56M1160 104L1144 120L1128 120L1112 120M616 88L600 104L584 104L568 104M1064 88L1048 72L1032 56L1016 56L1000 72L984 72L968 72L952 56L936 56L920 56L904 56L888 56L872 56M1016 88L1000 104L984 104M1176 120L1160 120M1128 104L1112 104L1096 104L1080 104L1064 104L1048 104L1032 104L1016 104M952 88L936 104L920 104L904 104L888 104L872 104M1192 120L1176 104M1096 88L1080 72L1064 72L1048 56L1032 40L1016 40L1000 40L984 40L968 40L952 40L936 40L920 40L904 40L888 40M1240 120L1224 136M1464 168L1448 168L1432 152L1416 152L1400 152L1384 152L1368 152L1352 136L1336 136L1320 136L1304 136L1288 136L1272 120L1256 120L1240 120L1224 120L1208 120L1192 120L1176 120L1160 104L1144 104L1128 104L1112 88L1096 88L1080 88L1064 88L1048 88L1032 88L1016 88L1000 88L984 88L968 88L952 88L936 88L920 88L904 88L888 88L872 88L856 88L840 72L824 72L808 72L792 72L776 88L760 88L744 88L728 88L712 88L696 88L680 88L664 88L648 88L632 88L616 88L600 88L584 88L568 88L552 104L536 104" stroke="rgba(217, 222, 225, 0.37)" stroke-width="2.67"></path><path d="M532 104 a4 4 0 1 0 8 0 a4 4 0 1 0 -8 0zM612 120 a4 4 0 1 0 8 0 a4 4 0 1 0 -8 0zM1012 72 a4 4 0 1 0 8 0 a4 4 0 1 0 -8 0zM420 56 a4 4 0 1 0 8 0 a4 4 0 1 0 -8 0zM772 56 a4 4 0 1 0 8 0 a4 4 0 1 0 -8 0zM1108 120 a4 4 0 1 0 8 0 a4 4 0 1 0 -8 0zM564 104 a4 4 0 1 0 8 0 a4 4 0 1 0 -8 0zM868 56 a4 4 0 1 0 8 0 a4 4 0 1 0 -8 0zM980 104 a4 4 0 1 0 8 0 a4 4 0 1 0 -8 0zM1156 120 a4 4 0 1 0 8 0 a4 4 0 1 0 -8 0zM1012 104 a4 4 0 1 0 8 0 a4 4 0 1 0 -8 0zM868 104 a4 4 0 1 0 8 0 a4 4 0 1 0 -8 0zM1172 104 a4 4 0 1 0 8 0 a4 4 0 1 0 -8 0zM884 40 a4 4 0 1 0 8 0 a4 4 0 1 0 -8 0zM1220 136 a4 4 0 1 0 8 0 a4 4 0 1 0 -8 0z" fill="rgba(217, 222, 225, 0.37)"></path><path d="M1128 456L1112 472L1096 472L1080 472L1064 472L1048 472L1032 472L1016 472L1000 472L984 488L968 504L952 504M1384 440L1368 456L1352 456L1336 456L1320 456L1304 456L1288 472L1272 472L1256 472M744 504L728 520L712 520L696 520L680 520L664 520L648 520L632 520L616 520M1224 456L1208 472L1192 472L1176 472L1160 472L1144 472L1128 472L1112 488L1096 488L1080 488L1064 488L1048 488L1032 488L1016 488L1000 488L984 504L968 520L952 520L936 520L920 520M920 488L904 504L888 504M760 504L744 520L728 536L712 536L696 536L680 536L664 536M600 504L584 520L568 520L552 520L536 520L520 520L504 536L488 536M792 504L776 520L760 520L744 536M856 488L840 504L824 520L808 520L792 520L776 536M984 472L968 472M936 488L920 504M1448 408L1432 424L1416 440L1400 440L1384 456L1368 472L1352 472L1336 472L1320 472L1304 472L1288 488L1272 488M1400 424L1384 424M872 488L856 504L840 520M1464 408L1448 408L1432 408L1416 424L1400 424L1384 440L1368 440L1352 440L1336 440L1320 440L1304 440L1288 456L1272 456L1256 456L1240 456L1224 456L1208 456L1192 456L1176 456L1160 456L1144 456L1128 456L1112 456L1096 456L1080 456L1064 456L1048 456L1032 456L1016 456L1000 456L984 472L968 488L952 488L936 488L920 488L904 488L888 488L872 488L856 488L840 488L824 504L808 504L792 504L776 504L760 504L744 504L728 504L712 504L696 504L680 504L664 504L648 504L632 504L616 504L600 504L584 504" stroke="rgba(217, 222, 225, 0.37)" stroke-width="2.67"></path><path d="M580 504 a4 4 0 1 0 8 0 a4 4 0 1 0 -8 0zM948 504 a4 4 0 1 0 8 0 a4 4 0 1 0 -8 0zM1252 472 a4 4 0 1 0 8 0 a4 4 0 1 0 -8 0zM612 520 a4 4 0 1 0 8 0 a4 4 0 1 0 -8 0zM916 520 a4 4 0 1 0 8 0 a4 4 0 1 0 -8 0zM884 504 a4 4 0 1 0 8 0 a4 4 0 1 0 -8 0zM660 536 a4 4 0 1 0 8 0 a4 4 0 1 0 -8 0zM484 536 a4 4 0 1 0 8 0 a4 4 0 1 0 -8 0zM740 536 a4 4 0 1 0 8 0 a4 4 0 1 0 -8 0zM772 536 a4 4 0 1 0 8 0 a4 4 0 1 0 -8 0zM964 472 a4 4 0 1 0 8 0 a4 4 0 1 0 -8 0zM916 504 a4 4 0 1 0 8 0 a4 4 0 1 0 -8 0zM1268 488 a4 4 0 1 0 8 0 a4 4 0 1 0 -8 0zM1380 424 a4 4 0 1 0 8 0 a4 4 0 1 0 -8 0zM836 520 a4 4 0 1 0 8 0 a4 4 0 1 0 -8 0z" fill="rgba(217, 222, 225, 0.37)"></path><path d="M1192 88L1176 72M1336 120L1320 104L1304 104L1288 104L1272 88M1256 104L1240 88L1224 88L1208 88M1432 136L1416 120L1400 120L1384 120L1368 120L1352 104L1336 104L1320 88L1304 88M1112 72L1096 72M1208 104L1192 104M1464 152L1448 152L1432 136L1416 136L1400 136L1384 136L1368 136L1352 120L1336 120L1320 120L1304 120L1288 120L1272 104L1256 104L1240 104L1224 104L1208 104L1192 88L1176 88L1160 88L1144 88L1128 88L1112 72L1096 56" stroke="rgba(217, 222, 225, 0.37)" stroke-width="2.67"></path><path d="M1092 56 a4 4 0 1 0 8 0 a4 4 0 1 0 -8 0zM1172 72 a4 4 0 1 0 8 0 a4 4 0 1 0 -8 0zM1268 88 a4 4 0 1 0 8 0 a4 4 0 1 0 -8 0zM1204 88 a4 4 0 1 0 8 0 a4 4 0 1 0 -8 0zM1300 88 a4 4 0 1 0 8 0 a4 4 0 1 0 -8 0zM1092 72 a4 4 0 1 0 8 0 a4 4 0 1 0 -8 0zM1188 104 a4 4 0 1 0 8 0 a4 4 0 1 0 -8 0z" fill="rgba(217, 222, 225, 0.37)"></path></g></g><defs><mask id="SvgjsMask1378"><rect width="1440" height="560" fill="#ffffff"></rect></mask><mask id="SvgjsMask1379"><rect width="1440" height="560" fill="white"></rect><path d="M294 312 a2 2 0 1 0 4 0 a2 2 0 1 0 -4 0zM422 328 a2 2 0 1 0 4 0 a2 2 0 1 0 -4 0zM774 232 a2 2 0 1 0 4 0 a2 2 0 1 0 -4 0zM278 280 a2 2 0 1 0 4 0 a2 2 0 1 0 -4 0zM1318 280 a2 2 0 1 0 4 0 a2 2 0 1 0 -4 0zM278 328 a2 2 0 1 0 4 0 a2 2 0 1 0 -4 0zM662 280 a2 2 0 1 0 4 0 a2 2 0 1 0 -4 0zM694 264 a2 2 0 1 0 4 0 a2 2 0 1 0 -4 0zM710 312 a2 2 0 1 0 4 0 a2 2 0 1 0 -4 0zM774 264 a2 2 0 1 0 4 0 a2 2 0 1 0 -4 0zM342 248 a2 2 0 1 0 4 0 a2 2 0 1 0 -4 0zM390 312 a2 2 0 1 0 4 0 a2 2 0 1 0 -4 0zM310 232 a2 2 0 1 0 4 0 a2 2 0 1 0 -4 0zM1046 296 a2 2 0 1 0 4 0 a2 2 0 1 0 -4 0zM1206 264 a2 2 0 1 0 4 0 a2 2 0 1 0 -4 0zM422 360 a2 2 0 1 0 4 0 a2 2 0 1 0 -4 0zM662 312 a2 2 0 1 0 4 0 a2 2 0 1 0 -4 0zM1062 296 a2 2 0 1 0 4 0 a2 2 0 1 0 -4 0zM438 248 a2 2 0 1 0 4 0 a2 2 0 1 0 -4 0z" fill="black"></path><path d="M646 312 a2 2 0 1 0 4 0 a2 2 0 1 0 -4 0zM886 344 a2 2 0 1 0 4 0 a2 2 0 1 0 -4 0zM502 376 a2 2 0 1 0 4 0 a2 2 0 1 0 -4 0zM1318 312 a2 2 0 1 0 4 0 a2 2 0 1 0 -4 0zM678 312 a2 2 0 1 0 4 0 a2 2 0 1 0 -4 0zM1126 328 a2 2 0 1 0 4 0 a2 2 0 1 0 -4 0zM1206 328 a2 2 0 1 0 4 0 a2 2 0 1 0 -4 0zM1238 296 a2 2 0 1 0 4 0 a2 2 0 1 0 -4 0zM774 312 a2 2 0 1 0 4 0 a2 2 0 1 0 -4 0zM790 344 a2 2 0 1 0 4 0 a2 2 0 1 0 -4 0zM758 344 a2 2 0 1 0 4 0 a2 2 0 1 0 -4 0zM1062 328 a2 2 0 1 0 4 0 a2 2 0 1 0 -4 0zM1094 328 a2 2 0 1 0 4 0 a2 2 0 1 0 -4 0zM1190 312 a2 2 0 1 0 4 0 a2 2 0 1 0 -4 0z" fill="black"></path><path d="M1014 264 a2 2 0 1 0 4 0 a2 2 0 1 0 -4 0zM1094 232 a2 2 0 1 0 4 0 a2 2 0 1 0 -4 0zM966 232 a2 2 0 1 0 4 0 a2 2 0 1 0 -4 0zM918 216 a2 2 0 1 0 4 0 a2 2 0 1 0 -4 0zM1126 248 a2 2 0 1 0 4 0 a2 2 0 1 0 -4 0zM1046 232 a2 2 0 1 0 4 0 a2 2 0 1 0 -4 0zM1158 248 a2 2 0 1 0 4 0 a2 2 0 1 0 -4 0zM1174 248 a2 2 0 1 0 4 0 a2 2 0 1 0 -4 0z" fill="black"></path><path d="M566 392 a2 2 0 1 0 4 0 a2 2 0 1 0 -4 0zM1062 360 a2 2 0 1 0 4 0 a2 2 0 1 0 -4 0zM1094 360 a2 2 0 1 0 4 0 a2 2 0 1 0 -4 0zM1350 312 a2 2 0 1 0 4 0 a2 2 0 1 0 -4 0zM1110 360 a2 2 0 1 0 4 0 a2 2 0 1 0 -4 0zM934 344 a2 2 0 1 0 4 0 a2 2 0 1 0 -4 0zM854 360 a2 2 0 1 0 4 0 a2 2 0 1 0 -4 0zM822 392 a2 2 0 1 0 4 0 a2 2 0 1 0 -4 0zM1174 360 a2 2 0 1 0 4 0 a2 2 0 1 0 -4 0zM566 376 a2 2 0 1 0 4 0 a2 2 0 1 0 -4 0zM1318 328 a2 2 0 1 0 4 0 a2 2 0 1 0 -4 0zM598 360 a2 2 0 1 0 4 0 a2 2 0 1 0 -4 0zM742 376 a2 2 0 1 0 4 0 a2 2 0 1 0 -4 0zM1270 328 a2 2 0 1 0 4 0 a2 2 0 1 0 -4 0zM998 360 a2 2 0 1 0 4 0 a2 2 0 1 0 -4 0z" fill="black"></path><path d="M1078 216 a2 2 0 1 0 4 0 a2 2 0 1 0 -4 0zM1238 232 a2 2 0 1 0 4 0 a2 2 0 1 0 -4 0zM1078 200 a2 2 0 1 0 4 0 a2 2 0 1 0 -4 0zM1254 232 a2 2 0 1 0 4 0 a2 2 0 1 0 -4 0zM1270 232 a2 2 0 1 0 4 0 a2 2 0 1 0 -4 0zM1094 200 a2 2 0 1 0 4 0 a2 2 0 1 0 -4 0z" fill="black"></path><path d="M870 392 a2 2 0 1 0 4 0 a2 2 0 1 0 -4 0zM918 408 a2 2 0 1 0 4 0 a2 2 0 1 0 -4 0zM918 392 a2 2 0 1 0 4 0 a2 2 0 1 0 -4 0zM950 408 a2 2 0 1 0 4 0 a2 2 0 1 0 -4 0zM1350 360 a2 2 0 1 0 4 0 a2 2 0 1 0 -4 0zM1206 360 a2 2 0 1 0 4 0 a2 2 0 1 0 -4 0zM1238 360 a2 2 0 1 0 4 0 a2 2 0 1 0 -4 0zM1382 344 a2 2 0 1 0 4 0 a2 2 0 1 0 -4 0zM838 408 a2 2 0 1 0 4 0 a2 2 0 1 0 -4 0zM1398 344 a2 2 0 1 0 4 0 a2 2 0 1 0 -4 0z" fill="black"></path><path d="M486 184 a2 2 0 1 0 4 0 a2 2 0 1 0 -4 0zM854 168 a2 2 0 1 0 4 0 a2 2 0 1 0 -4 0zM614 200 a2 2 0 1 0 4 0 a2 2 0 1 0 -4 0zM998 200 a2 2 0 1 0 4 0 a2 2 0 1 0 -4 0zM406 168 a2 2 0 1 0 4 0 a2 2 0 1 0 -4 0zM1430 216 a2 2 0 1 0 4 0 a2 2 0 1 0 -4 0zM518 200 a2 2 0 1 0 4 0 a2 2 0 1 0 -4 0zM646 168 a2 2 0 1 0 4 0 a2 2 0 1 0 -4 0zM934 200 a2 2 0 1 0 4 0 a2 2 0 1 0 -4 0zM742 168 a2 2 0 1 0 4 0 a2 2 0 1 0 -4 0zM662 168 a2 2 0 1 0 4 0 a2 2 0 1 0 -4 0zM806 216 a2 2 0 1 0 4 0 a2 2 0 1 0 -4 0zM614 216 a2 2 0 1 0 4 0 a2 2 0 1 0 -4 0zM454 248 a2 2 0 1 0 4 0 a2 2 0 1 0 -4 0zM758 168 a2 2 0 1 0 4 0 a2 2 0 1 0 -4 0zM854 184 a2 2 0 1 0 4 0 a2 2 0 1 0 -4 0z" fill="black"></path><path d="M1382 360 a2 2 0 1 0 4 0 a2 2 0 1 0 -4 0zM1414 344 a2 2 0 1 0 4 0 a2 2 0 1 0 -4 0z" fill="black"></path><path d="M1046 168 a2 2 0 1 0 4 0 a2 2 0 1 0 -4 0zM1238 168 a2 2 0 1 0 4 0 a2 2 0 1 0 -4 0zM1318 184 a2 2 0 1 0 4 0 a2 2 0 1 0 -4 0zM1254 168 a2 2 0 1 0 4 0 a2 2 0 1 0 -4 0zM1142 168 a2 2 0 1 0 4 0 a2 2 0 1 0 -4 0zM1382 184 a2 2 0 1 0 4 0 a2 2 0 1 0 -4 0zM1398 184 a2 2 0 1 0 4 0 a2 2 0 1 0 -4 0z" fill="black"></path><path d="M1046 408 a2 2 0 1 0 4 0 a2 2 0 1 0 -4 0zM1126 392 a2 2 0 1 0 4 0 a2 2 0 1 0 -4 0zM966 408 a2 2 0 1 0 4 0 a2 2 0 1 0 -4 0zM1078 392 a2 2 0 1 0 4 0 a2 2 0 1 0 -4 0zM1094 392 a2 2 0 1 0 4 0 a2 2 0 1 0 -4 0z" fill="black"></path><path d="M582 456 a2 2 0 1 0 4 0 a2 2 0 1 0 -4 0zM870 440 a2 2 0 1 0 4 0 a2 2 0 1 0 -4 0zM1142 424 a2 2 0 1 0 4 0 a2 2 0 1 0 -4 0zM678 408 a2 2 0 1 0 4 0 a2 2 0 1 0 -4 0zM774 392 a2 2 0 1 0 4 0 a2 2 0 1 0 -4 0zM1174 424 a2 2 0 1 0 4 0 a2 2 0 1 0 -4 0zM550 424 a2 2 0 1 0 4 0 a2 2 0 1 0 -4 0zM742 424 a2 2 0 1 0 4 0 a2 2 0 1 0 -4 0zM694 408 a2 2 0 1 0 4 0 a2 2 0 1 0 -4 0zM758 456 a2 2 0 1 0 4 0 a2 2 0 1 0 -4 0zM1206 424 a2 2 0 1 0 4 0 a2 2 0 1 0 -4 0zM678 440 a2 2 0 1 0 4 0 a2 2 0 1 0 -4 0zM1238 424 a2 2 0 1 0 4 0 a2 2 0 1 0 -4 0zM614 456 a2 2 0 1 0 4 0 a2 2 0 1 0 -4 0zM694 440 a2 2 0 1 0 4 0 a2 2 0 1 0 -4 0z" fill="black"></path><path d="M518 152 a2 2 0 1 0 4 0 a2 2 0 1 0 -4 0zM982 168 a2 2 0 1 0 4 0 a2 2 0 1 0 -4 0zM1062 136 a2 2 0 1 0 4 0 a2 2 0 1 0 -4 0zM1158 136 a2 2 0 1 0 4 0 a2 2 0 1 0 -4 0zM678 136 a2 2 0 1 0 4 0 a2 2 0 1 0 -4 0zM1286 168 a2 2 0 1 0 4 0 a2 2 0 1 0 -4 0zM598 136 a2 2 0 1 0 4 0 a2 2 0 1 0 -4 0zM534 136 a2 2 0 1 0 4 0 a2 2 0 1 0 -4 0zM1254 152 a2 2 0 1 0 4 0 a2 2 0 1 0 -4 0zM742 136 a2 2 0 1 0 4 0 a2 2 0 1 0 -4 0zM278 120 a2 2 0 1 0 4 0 a2 2 0 1 0 -4 0zM646 136 a2 2 0 1 0 4 0 a2 2 0 1 0 -4 0zM1318 168 a2 2 0 1 0 4 0 a2 2 0 1 0 -4 0zM1190 136 a2 2 0 1 0 4 0 a2 2 0 1 0 -4 0zM1350 168 a2 2 0 1 0 4 0 a2 2 0 1 0 -4 0zM550 120 a2 2 0 1 0 4 0 a2 2 0 1 0 -4 0z" fill="black"></path><path d="M470 520 a2 2 0 1 0 4 0 a2 2 0 1 0 -4 0zM598 472 a2 2 0 1 0 4 0 a2 2 0 1 0 -4 0zM854 472 a2 2 0 1 0 4 0 a2 2 0 1 0 -4 0zM470 504 a2 2 0 1 0 4 0 a2 2 0 1 0 -4 0zM518 488 a2 2 0 1 0 4 0 a2 2 0 1 0 -4 0zM662 472 a2 2 0 1 0 4 0 a2 2 0 1 0 -4 0zM790 472 a2 2 0 1 0 4 0 a2 2 0 1 0 -4 0zM1318 424 a2 2 0 1 0 4 0 a2 2 0 1 0 -4 0zM886 472 a2 2 0 1 0 4 0 a2 2 0 1 0 -4 0zM950 472 a2 2 0 1 0 4 0 a2 2 0 1 0 -4 0zM1366 424 a2 2 0 1 0 4 0 a2 2 0 1 0 -4 0zM454 536 a2 2 0 1 0 4 0 a2 2 0 1 0 -4 0zM982 440 a2 2 0 1 0 4 0 a2 2 0 1 0 -4 0zM790 456 a2 2 0 1 0 4 0 a2 2 0 1 0 -4 0zM806 456 a2 2 0 1 0 4 0 a2 2 0 1 0 -4 0zM1270 424 a2 2 0 1 0 4 0 a2 2 0 1 0 -4 0z" fill="black"></path><path d="M534 104 a2 2 0 1 0 4 0 a2 2 0 1 0 -4 0zM614 120 a2 2 0 1 0 4 0 a2 2 0 1 0 -4 0zM1014 72 a2 2 0 1 0 4 0 a2 2 0 1 0 -4 0zM422 56 a2 2 0 1 0 4 0 a2 2 0 1 0 -4 0zM774 56 a2 2 0 1 0 4 0 a2 2 0 1 0 -4 0zM1110 120 a2 2 0 1 0 4 0 a2 2 0 1 0 -4 0zM566 104 a2 2 0 1 0 4 0 a2 2 0 1 0 -4 0zM870 56 a2 2 0 1 0 4 0 a2 2 0 1 0 -4 0zM982 104 a2 2 0 1 0 4 0 a2 2 0 1 0 -4 0zM1158 120 a2 2 0 1 0 4 0 a2 2 0 1 0 -4 0zM1014 104 a2 2 0 1 0 4 0 a2 2 0 1 0 -4 0zM870 104 a2 2 0 1 0 4 0 a2 2 0 1 0 -4 0zM1174 104 a2 2 0 1 0 4 0 a2 2 0 1 0 -4 0zM886 40 a2 2 0 1 0 4 0 a2 2 0 1 0 -4 0zM1222 136 a2 2 0 1 0 4 0 a2 2 0 1 0 -4 0z" fill="black"></path><path d="M582 504 a2 2 0 1 0 4 0 a2 2 0 1 0 -4 0zM950 504 a2 2 0 1 0 4 0 a2 2 0 1 0 -4 0zM1254 472 a2 2 0 1 0 4 0 a2 2 0 1 0 -4 0zM614 520 a2 2 0 1 0 4 0 a2 2 0 1 0 -4 0zM918 520 a2 2 0 1 0 4 0 a2 2 0 1 0 -4 0zM886 504 a2 2 0 1 0 4 0 a2 2 0 1 0 -4 0zM662 536 a2 2 0 1 0 4 0 a2 2 0 1 0 -4 0zM486 536 a2 2 0 1 0 4 0 a2 2 0 1 0 -4 0zM742 536 a2 2 0 1 0 4 0 a2 2 0 1 0 -4 0zM774 536 a2 2 0 1 0 4 0 a2 2 0 1 0 -4 0zM966 472 a2 2 0 1 0 4 0 a2 2 0 1 0 -4 0zM918 504 a2 2 0 1 0 4 0 a2 2 0 1 0 -4 0zM1270 488 a2 2 0 1 0 4 0 a2 2 0 1 0 -4 0zM1382 424 a2 2 0 1 0 4 0 a2 2 0 1 0 -4 0zM838 520 a2 2 0 1 0 4 0 a2 2 0 1 0 -4 0z" fill="black"></path><path d="M1094 56 a2 2 0 1 0 4 0 a2 2 0 1 0 -4 0zM1174 72 a2 2 0 1 0 4 0 a2 2 0 1 0 -4 0zM1270 88 a2 2 0 1 0 4 0 a2 2 0 1 0 -4 0zM1206 88 a2 2 0 1 0 4 0 a2 2 0 1 0 -4 0zM1302 88 a2 2 0 1 0 4 0 a2 2 0 1 0 -4 0zM1094 72 a2 2 0 1 0 4 0 a2 2 0 1 0 -4 0zM1190 104 a2 2 0 1 0 4 0 a2 2 0 1 0 -4 0z" fill="black"></path></mask></defs></svg>