<svg xmlns="http://www.w3.org/2000/svg" version="1.1" xmlns:xlink="http://www.w3.org/1999/xlink" xmlns:svgjs="http://svgjs.dev/svgjs" width="1440" height="560" preserveAspectRatio="none" viewBox="0 0 1440 560">
    <g mask="url(&quot;#SvgjsMask1239&quot;)" fill="none">
        <g mask="url(&quot;#SvgjsMask1240&quot;)">
            <path d="M1015 285L1025 295L1035 295L1045 295L1055 295L1065 295L1075 295L1085 295L1095 295L1105 295L1115 295L1125 295L1135 295L1145 295L1155 285L1165 285L1175 285L1185 285L1195 285L1205 285L1215 285L1225 295L1235 295L1245 295L1255 295L1265 295L1275 295L1285 295L1295 305L1305 315L1315 315L1325 325L1335 335L1345 335L1355 335L1365 335L1375 335L1385 335L1395 335L1405 335L1415 335L1425 335M1035 285L1045 275L1055 275L1065 275L1075 275L1085 275L1095 275L1105 275L1115 275L1125 265L1135 265L1145 265L1155 265L1165 265L1175 265L1185 265L1195 265L1205 265L1215 265L1225 265L1235 265L1245 265L1255 265L1265 265L1275 265L1285 265M675 295L685 295L695 295L705 305L715 305L725 305L735 315M565 305L575 315L585 315L595 315L605 315L615 315L625 325L635 325L645 325L655 325L665 325L675 325L685 325L695 325L705 325L715 325L725 325L735 325L745 325L755 325L765 325L775 325L785 325M915 305L925 305L935 305L945 305L955 305L965 315L975 315L985 315L995 305L1005 305L1015 305L1025 305L1035 305L1045 305M1215 275L1225 275L1235 275L1245 275L1255 275M995 285L1005 295L1015 295M855 305L865 295L875 295L885 295L895 295L905 295M785 295L795 295L805 295L815 295L825 295L835 285L845 285L855 285L865 285L875 275L885 275L895 275L905 275L915 275L925 275M495 295L505 285M775 295L785 285L795 285L805 285L815 285L825 285L835 275L845 275L855 275L865 275L875 265L885 255L895 255L905 255L915 255L925 255L935 255L945 255L955 255L965 255L975 255L985 255L995 255M715 295L725 285L735 285L745 285L755 285L765 275L775 275L785 275L795 275L805 275L815 275L825 265L835 265L845 265L855 265L865 265L875 255L885 245L895 245L905 245L915 245L925 245L935 245L945 245L955 245L965 245L975 245L985 245M95 285L105 295M575 305L585 295L595 295L605 295L615 295L625 295L635 295L645 295L655 295L665 295L675 285L685 275L695 275L705 275L715 275L725 275L735 275L745 275L755 275L765 265M355 275L365 285L375 285L385 285L395 295L405 295L415 295L425 295L435 295L445 305L455 305L465 305L475 305L485 305L495 305L505 305L515 305L525 305L535 305L545 315L555 315L565 315L575 325L585 325L595 325L605 325L615 325L625 335L635 335L645 335L655 335L665 335L675 335L685 335L695 335L705 335M335 275L345 285L355 285M755 295L765 305L775 305L785 305L795 315L805 325L815 325L825 325L835 325L845 325L855 325L865 325L875 325M425 285L435 275L445 275L455 275L465 275L475 275L485 265L495 265L505 265L515 265L525 265L535 265L545 265L555 265L565 265M705 295L715 285M445 285L455 285L465 285L475 285L485 285L495 285L505 275M535 295L545 295L555 295L565 295L575 295L585 285L595 285L605 275L615 275L625 275L635 275L645 275L655 275L665 275L675 275L685 265L695 265L705 265L715 265L725 265M945 295L955 285L965 285L975 285L985 275L995 275L1005 275L1015 265L1025 255L1035 245L1045 245L1055 245L1065 245L1075 245L1085 245L1095 255L1105 255L1115 255L1125 255L1135 255L1145 255L1155 255L1165 255L1175 255L1185 255L1195 255L1205 255L1215 255L1225 255L1235 255L1245 255L1255 255L1265 255L1275 255L1285 255L1295 255M805 305L815 315L825 315L835 315L845 315L855 315L865 315L875 315L885 315L895 315L905 315L915 315L925 315L935 315L945 315L955 315L965 325L975 325L985 325L995 325L1005 325L1015 325L1025 325L1035 325L1045 325L1055 325L1065 335L1075 335L1085 325L1095 325L1105 325M975 295L985 295M625 315L635 305M665 305L675 305L685 305L695 305L705 315L715 315L725 315M385 275L395 275L405 275L415 275L425 275L435 265L445 265L455 265L465 265M695 285L705 285M845 305L855 295M935 295L945 285L955 275L965 275L975 275L985 265L995 265L1005 265L1015 255L1025 245M1115 285L1125 285L1135 285L1145 285M-5 285L5 285L15 285L25 285L35 285L45 285L55 285L65 285L75 285L85 285L95 285L105 285L115 285L125 285L135 285L145 285L155 285L165 285L175 285L185 285L195 285L205 285L215 285L225 285L235 285L245 285L255 285L265 285L275 285L285 285L295 285L305 285L315 285L325 275L335 275L345 275L355 275L365 275L375 275L385 275L395 285L405 285L415 285L425 285L435 285L445 285L455 295L465 295L475 295L485 295L495 295L505 295L515 295L525 295L535 295L545 305L555 305L565 305L575 305L585 305L595 305L605 305L615 305L625 315L635 315L645 305L655 305L665 305L675 295L685 285L695 285L705 295L715 295L725 295L735 295L745 295L755 295L765 295L775 295L785 295L795 305L805 305L815 305L825 305L835 305L845 305L855 305L865 305L875 305L885 305L895 305L905 305L915 305L925 295L935 295L945 295L955 295L965 295L975 295L985 285L995 285L1005 285L1015 285L1025 285L1035 285L1045 285L1055 285L1065 285L1075 285L1085 285L1095 285L1105 285L1115 285L1125 275L1135 275L1145 275L1155 275L1165 275L1175 275L1185 275L1195 275L1205 275L1215 275L1225 285L1235 285" stroke="rgba(255, 255, 255, 0.1)" stroke-width="1.67"></path>
            <path d="M1232.5 285 a2.5 2.5 0 1 0 5 0 a2.5 2.5 0 1 0 -5 0zM1422.5 335 a2.5 2.5 0 1 0 5 0 a2.5 2.5 0 1 0 -5 0zM1282.5 265 a2.5 2.5 0 1 0 5 0 a2.5 2.5 0 1 0 -5 0zM732.5 315 a2.5 2.5 0 1 0 5 0 a2.5 2.5 0 1 0 -5 0zM782.5 325 a2.5 2.5 0 1 0 5 0 a2.5 2.5 0 1 0 -5 0zM1042.5 305 a2.5 2.5 0 1 0 5 0 a2.5 2.5 0 1 0 -5 0zM1252.5 275 a2.5 2.5 0 1 0 5 0 a2.5 2.5 0 1 0 -5 0zM1012.5 295 a2.5 2.5 0 1 0 5 0 a2.5 2.5 0 1 0 -5 0zM902.5 295 a2.5 2.5 0 1 0 5 0 a2.5 2.5 0 1 0 -5 0zM922.5 275 a2.5 2.5 0 1 0 5 0 a2.5 2.5 0 1 0 -5 0zM502.5 285 a2.5 2.5 0 1 0 5 0 a2.5 2.5 0 1 0 -5 0zM992.5 255 a2.5 2.5 0 1 0 5 0 a2.5 2.5 0 1 0 -5 0zM982.5 245 a2.5 2.5 0 1 0 5 0 a2.5 2.5 0 1 0 -5 0zM102.5 295 a2.5 2.5 0 1 0 5 0 a2.5 2.5 0 1 0 -5 0zM762.5 265 a2.5 2.5 0 1 0 5 0 a2.5 2.5 0 1 0 -5 0zM702.5 335 a2.5 2.5 0 1 0 5 0 a2.5 2.5 0 1 0 -5 0zM352.5 285 a2.5 2.5 0 1 0 5 0 a2.5 2.5 0 1 0 -5 0zM872.5 325 a2.5 2.5 0 1 0 5 0 a2.5 2.5 0 1 0 -5 0zM562.5 265 a2.5 2.5 0 1 0 5 0 a2.5 2.5 0 1 0 -5 0zM712.5 285 a2.5 2.5 0 1 0 5 0 a2.5 2.5 0 1 0 -5 0zM502.5 275 a2.5 2.5 0 1 0 5 0 a2.5 2.5 0 1 0 -5 0zM722.5 265 a2.5 2.5 0 1 0 5 0 a2.5 2.5 0 1 0 -5 0zM1292.5 255 a2.5 2.5 0 1 0 5 0 a2.5 2.5 0 1 0 -5 0zM1102.5 325 a2.5 2.5 0 1 0 5 0 a2.5 2.5 0 1 0 -5 0zM982.5 295 a2.5 2.5 0 1 0 5 0 a2.5 2.5 0 1 0 -5 0zM632.5 305 a2.5 2.5 0 1 0 5 0 a2.5 2.5 0 1 0 -5 0zM722.5 315 a2.5 2.5 0 1 0 5 0 a2.5 2.5 0 1 0 -5 0zM462.5 265 a2.5 2.5 0 1 0 5 0 a2.5 2.5 0 1 0 -5 0zM702.5 285 a2.5 2.5 0 1 0 5 0 a2.5 2.5 0 1 0 -5 0zM852.5 295 a2.5 2.5 0 1 0 5 0 a2.5 2.5 0 1 0 -5 0zM1022.5 245 a2.5 2.5 0 1 0 5 0 a2.5 2.5 0 1 0 -5 0zM1142.5 285 a2.5 2.5 0 1 0 5 0 a2.5 2.5 0 1 0 -5 0z" fill="rgba(255, 255, 255, 0.1)"></path>
            <path d="M65 275L75 265L85 265L95 265L105 265L115 265L125 265L135 265L145 265L155 265L165 265L175 265L185 265L195 265L205 265L215 265L225 265L235 265L245 265L255 265L265 265L275 265L285 265L295 265M1085 235L1095 235L1105 235L1115 235L1125 235L1135 235L1145 225L1155 225L1165 225L1175 225L1185 225L1195 225L1205 215L1215 215L1225 215L1235 215L1245 215L1255 215L1265 215L1275 215L1285 215L1295 215L1305 215L1315 215L1325 215L1335 215L1345 215L1355 215L1365 215L1375 215L1385 215L1395 215L1405 215L1415 215L1425 215M1035 235L1045 225L1055 225L1065 225L1075 225L1085 225L1095 225L1105 225L1115 225L1125 225L1135 225L1145 215L1155 215L1165 205L1175 195L1185 195L1195 195L1205 195L1215 195M905 215L915 225L925 225L935 235L945 235L955 235L965 235L975 235L985 235M775 225L785 215L795 215L805 215L815 215L825 215L835 215L845 215L855 215L865 215L875 215L885 205L895 205L905 195M435 245L445 255L455 255L465 255L475 255L485 255L495 255L505 255L515 255L525 255L535 255L545 255L555 255L565 255L575 255L585 255L595 255L605 255L615 255L625 255L635 255L645 255L655 255L665 255M795 225L805 235L815 235L825 235L835 235L845 235L855 235M625 235L635 245L645 245L655 245L665 245L675 245L685 245L695 245L705 245L715 245L725 245L735 245L745 245L755 255L765 255L775 255L785 255M45 275L55 265L65 265M745 225L755 215L765 215L775 215L785 205L795 205L805 205L815 205M985 225L995 225M615 235L625 225M345 265L355 255L365 255L375 255L385 255L395 255L405 255L415 255L425 245L435 235L445 235L455 235L465 235L475 225L485 225L495 225L505 225L515 225L525 225L535 225L545 235L555 235L565 235L575 235L585 235L595 235L605 225L615 215L625 215M485 235L495 245L505 245M995 235L1005 245L1015 245M955 215L965 215L975 215L985 215L995 215L1005 215L1015 215L1025 215L1035 215L1045 215L1055 215L1065 205L1075 205L1085 215L1095 215L1105 215M1135 245L1145 245L1155 245L1165 245L1175 245L1185 245L1195 245L1205 245L1215 245L1225 245L1235 245L1245 245L1255 245L1265 245L1275 235L1285 235L1295 235L1305 235L1315 235L1325 225L1335 225L1345 225L1355 225L1365 225L1375 225L1385 225L1395 225L1405 225L1415 225L1425 225M785 225L795 235L805 245L815 255L825 255M305 275L315 265L325 255L335 255L345 245L355 245L365 245L375 245L385 245L395 245L405 245L415 245L425 235L435 225L445 225L455 225L465 225M875 225L885 225L895 225L905 225L915 235L925 235M505 235L515 235L525 235L535 235M645 235L655 225L665 225L675 225L685 225L695 225L705 225M755 225L765 235L775 235L785 235L795 245M475 245L485 245M865 225L875 235L885 235L895 235L905 235M705 235L715 235M945 215L955 225M915 215L925 205L935 205L945 205L955 205L965 205L975 205L985 205L995 205L1005 205L1015 205L1025 205L1035 205L1045 205L1055 205L1065 195L1075 195L1085 195L1095 195M935 215L945 225M-5 275L5 275L15 275L25 275L35 275L45 275L55 275L65 275L75 275L85 275L95 275L105 275L115 275L125 275L135 275L145 275L155 275L165 275L175 275L185 275L195 275L205 275L215 275L225 275L235 275L245 275L255 275L265 275L275 275L285 275L295 275L305 275L315 275L325 265L335 265L345 265L355 265L365 265L375 265L385 265L395 265L405 265L415 265L425 255L435 245L445 245L455 245L465 245L475 245L485 235L495 235L505 235L515 245L525 245L535 245L545 245L555 245L565 245L575 245L585 245L595 245L605 235L615 235L625 235L635 235L645 235L655 235L665 235L675 235L685 235L695 235L705 235L715 225L725 225L735 225L745 225L755 225L765 225L775 225L785 225L795 225L805 225L815 225L825 225L835 225L845 225L855 225L865 225L875 225L885 215L895 215L905 215L915 215L925 215L935 215L945 215L955 215L965 225L975 225L985 225L995 235L1005 235L1015 235L1025 235L1035 235L1045 235L1055 235L1065 235L1075 235L1085 235L1095 245L1105 245L1115 245L1125 245L1135 245L1145 235L1155 235L1165 235" stroke="rgba(255, 255, 255, 0.1)" stroke-width="1.67"></path>
            <path d="M1162.5 235 a2.5 2.5 0 1 0 5 0 a2.5 2.5 0 1 0 -5 0zM292.5 265 a2.5 2.5 0 1 0 5 0 a2.5 2.5 0 1 0 -5 0zM1422.5 215 a2.5 2.5 0 1 0 5 0 a2.5 2.5 0 1 0 -5 0zM1212.5 195 a2.5 2.5 0 1 0 5 0 a2.5 2.5 0 1 0 -5 0zM982.5 235 a2.5 2.5 0 1 0 5 0 a2.5 2.5 0 1 0 -5 0zM902.5 195 a2.5 2.5 0 1 0 5 0 a2.5 2.5 0 1 0 -5 0zM662.5 255 a2.5 2.5 0 1 0 5 0 a2.5 2.5 0 1 0 -5 0zM852.5 235 a2.5 2.5 0 1 0 5 0 a2.5 2.5 0 1 0 -5 0zM782.5 255 a2.5 2.5 0 1 0 5 0 a2.5 2.5 0 1 0 -5 0zM62.5 265 a2.5 2.5 0 1 0 5 0 a2.5 2.5 0 1 0 -5 0zM812.5 205 a2.5 2.5 0 1 0 5 0 a2.5 2.5 0 1 0 -5 0zM992.5 225 a2.5 2.5 0 1 0 5 0 a2.5 2.5 0 1 0 -5 0zM622.5 225 a2.5 2.5 0 1 0 5 0 a2.5 2.5 0 1 0 -5 0zM622.5 215 a2.5 2.5 0 1 0 5 0 a2.5 2.5 0 1 0 -5 0zM502.5 245 a2.5 2.5 0 1 0 5 0 a2.5 2.5 0 1 0 -5 0zM1012.5 245 a2.5 2.5 0 1 0 5 0 a2.5 2.5 0 1 0 -5 0zM1102.5 215 a2.5 2.5 0 1 0 5 0 a2.5 2.5 0 1 0 -5 0zM1422.5 225 a2.5 2.5 0 1 0 5 0 a2.5 2.5 0 1 0 -5 0zM822.5 255 a2.5 2.5 0 1 0 5 0 a2.5 2.5 0 1 0 -5 0zM462.5 225 a2.5 2.5 0 1 0 5 0 a2.5 2.5 0 1 0 -5 0zM922.5 235 a2.5 2.5 0 1 0 5 0 a2.5 2.5 0 1 0 -5 0zM532.5 235 a2.5 2.5 0 1 0 5 0 a2.5 2.5 0 1 0 -5 0zM702.5 225 a2.5 2.5 0 1 0 5 0 a2.5 2.5 0 1 0 -5 0zM792.5 245 a2.5 2.5 0 1 0 5 0 a2.5 2.5 0 1 0 -5 0zM482.5 245 a2.5 2.5 0 1 0 5 0 a2.5 2.5 0 1 0 -5 0zM902.5 235 a2.5 2.5 0 1 0 5 0 a2.5 2.5 0 1 0 -5 0zM712.5 235 a2.5 2.5 0 1 0 5 0 a2.5 2.5 0 1 0 -5 0zM952.5 225 a2.5 2.5 0 1 0 5 0 a2.5 2.5 0 1 0 -5 0zM1092.5 195 a2.5 2.5 0 1 0 5 0 a2.5 2.5 0 1 0 -5 0zM942.5 225 a2.5 2.5 0 1 0 5 0 a2.5 2.5 0 1 0 -5 0z" fill="rgba(255, 255, 255, 0.1)"></path>
            <path d="M245 295L255 305L265 305L275 305L285 305L295 315M295 295L305 305L315 305L325 305M375 295L385 295M35 305L45 305L55 305L65 305L75 305L85 305M115 295L125 305L135 305M415 315L425 305M335 295L345 305L355 305L365 305L375 305M405 305L415 305M105 305L115 305M165 295L175 305L185 305L195 305L205 305L215 305L225 305L235 305L245 305L255 315L265 315L275 315M145 295L155 305L165 305M-5 295L5 295L15 295L25 305L35 305L45 295L55 295L65 295L75 295L85 295L95 305L105 305L115 295L125 295L135 295L145 295L155 295L165 295L175 295L185 295L195 295L205 295L215 295L225 295L235 295L245 295L255 295L265 295L275 295L285 295L295 295L305 295L315 295L325 295L335 295L345 295L355 295L365 295L375 295L385 305L395 305L405 305L415 315L425 315L435 305" stroke="rgba(255, 255, 255, 0.1)" stroke-width="1.67"></path>
            <path d="M432.5 305 a2.5 2.5 0 1 0 5 0 a2.5 2.5 0 1 0 -5 0zM292.5 315 a2.5 2.5 0 1 0 5 0 a2.5 2.5 0 1 0 -5 0zM322.5 305 a2.5 2.5 0 1 0 5 0 a2.5 2.5 0 1 0 -5 0zM382.5 295 a2.5 2.5 0 1 0 5 0 a2.5 2.5 0 1 0 -5 0zM82.5 305 a2.5 2.5 0 1 0 5 0 a2.5 2.5 0 1 0 -5 0zM132.5 305 a2.5 2.5 0 1 0 5 0 a2.5 2.5 0 1 0 -5 0zM422.5 305 a2.5 2.5 0 1 0 5 0 a2.5 2.5 0 1 0 -5 0zM372.5 305 a2.5 2.5 0 1 0 5 0 a2.5 2.5 0 1 0 -5 0zM412.5 305 a2.5 2.5 0 1 0 5 0 a2.5 2.5 0 1 0 -5 0zM112.5 305 a2.5 2.5 0 1 0 5 0 a2.5 2.5 0 1 0 -5 0zM272.5 315 a2.5 2.5 0 1 0 5 0 a2.5 2.5 0 1 0 -5 0zM162.5 305 a2.5 2.5 0 1 0 5 0 a2.5 2.5 0 1 0 -5 0z" fill="rgba(255, 255, 255, 0.1)"></path>
            <path d="M-5 265L5 265L15 265L25 265L35 265" stroke="rgba(255, 255, 255, 0.1)" stroke-width="1.67"></path>
            <path d="M32.5 265 a2.5 2.5 0 1 0 5 0 a2.5 2.5 0 1 0 -5 0z" fill="rgba(255, 255, 255, 0.1)"></path>
            <path d="M145 315L155 325L165 325M205 325L215 315M455 325L465 315L475 315L485 315L495 315L505 315L515 315L525 315L535 315M225 325L235 315L245 315M375 315L385 325L395 325M435 325L445 335L455 335M425 325L435 335L445 345M445 325L455 315M195 325L205 315M105 315L115 325L125 325L135 325L145 325M495 325L505 325L515 325L525 325L535 325L545 325M505 335L515 345L525 345L535 345L545 345M305 325L315 315L325 315M-5 305L5 305L15 305L25 315L35 315L45 315L55 315L65 315L75 315L85 315L95 315L105 315L115 315L125 315L135 315L145 315L155 315L165 315L175 315L185 315L195 325L205 325L215 325L225 325L235 325L245 325L255 325L265 325L275 325L285 325L295 325L305 325L315 325L325 325L335 325L345 325L355 315L365 315L375 315L385 315L395 315L405 315L415 325L425 325L435 325L445 325L455 325L465 325L475 325L485 325L495 325L505 335L515 335" stroke="rgba(218, 224, 227, 0.05)" stroke-width="1.67"></path>
            <path d="M512.5 335 a2.5 2.5 0 1 0 5 0 a2.5 2.5 0 1 0 -5 0zM162.5 325 a2.5 2.5 0 1 0 5 0 a2.5 2.5 0 1 0 -5 0zM212.5 315 a2.5 2.5 0 1 0 5 0 a2.5 2.5 0 1 0 -5 0zM532.5 315 a2.5 2.5 0 1 0 5 0 a2.5 2.5 0 1 0 -5 0zM242.5 315 a2.5 2.5 0 1 0 5 0 a2.5 2.5 0 1 0 -5 0zM392.5 325 a2.5 2.5 0 1 0 5 0 a2.5 2.5 0 1 0 -5 0zM452.5 335 a2.5 2.5 0 1 0 5 0 a2.5 2.5 0 1 0 -5 0zM442.5 345 a2.5 2.5 0 1 0 5 0 a2.5 2.5 0 1 0 -5 0zM452.5 315 a2.5 2.5 0 1 0 5 0 a2.5 2.5 0 1 0 -5 0zM202.5 315 a2.5 2.5 0 1 0 5 0 a2.5 2.5 0 1 0 -5 0zM142.5 325 a2.5 2.5 0 1 0 5 0 a2.5 2.5 0 1 0 -5 0zM542.5 325 a2.5 2.5 0 1 0 5 0 a2.5 2.5 0 1 0 -5 0zM542.5 345 a2.5 2.5 0 1 0 5 0 a2.5 2.5 0 1 0 -5 0zM322.5 315 a2.5 2.5 0 1 0 5 0 a2.5 2.5 0 1 0 -5 0z" fill="rgba(218, 224, 227, 0.05)"></path>
            <path d="M155 245L165 255L175 255M145 245L155 255M115 255L125 255M165 245L175 245L185 245L195 245L205 245M-5 255L5 255L15 255L25 255L35 255L45 255L55 255L65 255L75 255L85 255L95 255L105 255L115 255L125 245L135 245L145 245L155 245L165 245L175 235" stroke="rgba(255, 255, 255, 0.1)" stroke-width="1.67"></path>
            <path d="M172.5 235 a2.5 2.5 0 1 0 5 0 a2.5 2.5 0 1 0 -5 0zM172.5 255 a2.5 2.5 0 1 0 5 0 a2.5 2.5 0 1 0 -5 0zM152.5 255 a2.5 2.5 0 1 0 5 0 a2.5 2.5 0 1 0 -5 0zM122.5 255 a2.5 2.5 0 1 0 5 0 a2.5 2.5 0 1 0 -5 0zM202.5 245 a2.5 2.5 0 1 0 5 0 a2.5 2.5 0 1 0 -5 0z" fill="rgba(255, 255, 255, 0.1)"></path>
            <path d="M265 335L275 345L285 345L295 345L305 345L315 345M165 335L175 335L185 335M375 335L385 345L395 345L405 345L415 345M215 335L225 345L235 345L245 345L255 345L265 345L275 355L285 355L295 355L305 355L315 355L325 355L335 355L345 355M5 315L15 315M345 335L355 345L365 345L375 345L385 355M95 325L105 325M395 335L405 335M205 335L215 345M325 335L335 345L345 345M-5 315L5 315L15 325L25 325L35 325L45 325L55 325L65 325L75 325L85 325L95 325L105 335L115 335L125 335L135 335L145 335L155 335L165 335L175 325L185 325L195 335L205 335L215 335L225 335L235 335L245 335L255 335L265 335L275 335L285 335L295 335L305 335L315 335L325 335L335 335L345 335L355 335L365 335L375 335L385 335L395 335L405 325" stroke="rgba(218, 224, 227, 0.05)" stroke-width="1.67"></path>
            <path d="M402.5 325 a2.5 2.5 0 1 0 5 0 a2.5 2.5 0 1 0 -5 0zM312.5 345 a2.5 2.5 0 1 0 5 0 a2.5 2.5 0 1 0 -5 0zM182.5 335 a2.5 2.5 0 1 0 5 0 a2.5 2.5 0 1 0 -5 0zM412.5 345 a2.5 2.5 0 1 0 5 0 a2.5 2.5 0 1 0 -5 0zM342.5 355 a2.5 2.5 0 1 0 5 0 a2.5 2.5 0 1 0 -5 0zM12.5 315 a2.5 2.5 0 1 0 5 0 a2.5 2.5 0 1 0 -5 0zM382.5 355 a2.5 2.5 0 1 0 5 0 a2.5 2.5 0 1 0 -5 0zM102.5 325 a2.5 2.5 0 1 0 5 0 a2.5 2.5 0 1 0 -5 0zM402.5 335 a2.5 2.5 0 1 0 5 0 a2.5 2.5 0 1 0 -5 0zM212.5 345 a2.5 2.5 0 1 0 5 0 a2.5 2.5 0 1 0 -5 0zM342.5 345 a2.5 2.5 0 1 0 5 0 a2.5 2.5 0 1 0 -5 0z" fill="rgba(218, 224, 227, 0.05)"></path>
            <path d="M175 225L185 215L195 215L205 215L215 215M275 225L285 225L295 235L305 235L315 235L325 235L335 235L345 235L355 235L365 235L375 235L385 235L395 235L405 235L415 235L425 225M495 205L505 215L515 215L525 215M205 225L215 235L225 235M135 235L145 225L155 225L165 225L175 215L185 205L195 205L205 195L215 195L225 195L235 195L245 195L255 205L265 205L275 205L285 205L295 205M425 205L435 215L445 215M475 215L485 205M385 205L395 215L405 215L415 215L425 215M375 205L385 215L395 225L405 225L415 225M355 205L365 195L375 195M185 225L195 235L205 235M225 225L235 215M295 215L305 225M-5 245L5 245L15 245L25 245L35 245L45 245L55 245L65 245L75 245L85 245L95 245L105 245L115 245L125 235L135 235L145 235L155 235L165 235L175 225L185 225L195 225L205 225L215 225L225 225L235 225L245 225L255 225L265 225L275 225L285 215L295 215L305 215L315 215L325 215L335 215L345 215L355 205L365 205L375 205L385 205L395 205L405 205L415 205L425 205L435 205L445 205L455 215L465 215L475 215L485 215L495 205L505 205L515 205L525 205" stroke="rgba(255, 255, 255, 0.1)" stroke-width="1.67"></path>
            <path d="M522.5 205 a2.5 2.5 0 1 0 5 0 a2.5 2.5 0 1 0 -5 0zM212.5 215 a2.5 2.5 0 1 0 5 0 a2.5 2.5 0 1 0 -5 0zM422.5 225 a2.5 2.5 0 1 0 5 0 a2.5 2.5 0 1 0 -5 0zM522.5 215 a2.5 2.5 0 1 0 5 0 a2.5 2.5 0 1 0 -5 0zM222.5 235 a2.5 2.5 0 1 0 5 0 a2.5 2.5 0 1 0 -5 0zM292.5 205 a2.5 2.5 0 1 0 5 0 a2.5 2.5 0 1 0 -5 0zM442.5 215 a2.5 2.5 0 1 0 5 0 a2.5 2.5 0 1 0 -5 0zM482.5 205 a2.5 2.5 0 1 0 5 0 a2.5 2.5 0 1 0 -5 0zM422.5 215 a2.5 2.5 0 1 0 5 0 a2.5 2.5 0 1 0 -5 0zM412.5 225 a2.5 2.5 0 1 0 5 0 a2.5 2.5 0 1 0 -5 0zM372.5 195 a2.5 2.5 0 1 0 5 0 a2.5 2.5 0 1 0 -5 0zM202.5 235 a2.5 2.5 0 1 0 5 0 a2.5 2.5 0 1 0 -5 0zM232.5 215 a2.5 2.5 0 1 0 5 0 a2.5 2.5 0 1 0 -5 0zM302.5 225 a2.5 2.5 0 1 0 5 0 a2.5 2.5 0 1 0 -5 0z" fill="rgba(255, 255, 255, 0.1)"></path>
            <path d="M1195 385L1205 375L1215 375L1225 375L1235 375L1245 375L1255 375L1265 375L1275 375L1285 375L1295 375L1305 365L1315 355L1325 355L1335 345L1345 345L1355 345L1365 345L1375 345L1385 345L1395 345L1405 345L1415 345L1425 355M585 365L595 375L605 375L615 375M595 365L605 365L615 365L625 365L635 375L645 375L655 375L665 375L675 375L685 375L695 375L705 375L715 375L725 375L735 375L745 375L755 375M255 365L265 355M315 365L325 375L335 375L345 375L355 375L365 385L375 385L385 385L395 385L405 385L415 375L425 375L435 375L445 375L455 375L465 375L475 375L485 375L495 375L505 375M1085 375L1095 385L1105 395L1115 395L1125 395L1135 395L1145 395L1155 395L1165 395L1175 395L1185 395L1195 395L1205 395L1215 405L1225 415L1235 415L1245 415L1255 415L1265 415L1275 405L1285 405L1295 405L1305 405L1315 415L1325 415L1335 415L1345 415L1355 415L1365 415L1375 415L1385 415L1395 415L1405 415L1415 415L1425 405M665 365L675 355L685 345L695 345L705 345M575 365L585 355L595 355L605 345L615 335M685 365L695 355L705 355L715 355L725 355L735 355L745 355L755 355L765 355L775 345L785 345L795 345L805 345M415 365L425 355L435 355L445 355L455 355L465 355L475 345L485 345L495 345L505 345M1055 375L1065 385L1075 385L1085 385L1095 395L1105 405L1115 405L1125 415L1135 415L1145 415L1155 415L1165 415L1175 415L1185 415L1195 415L1205 415L1215 415L1225 425L1235 425L1245 425L1255 425M825 355L835 365L845 365L855 365L865 365L875 365L885 365L895 365L905 365L915 365L925 365L935 365L945 365L955 365L965 365L975 375L985 375L995 375L1005 375L1015 385L1025 385L1035 385L1045 385L1055 385L1065 395L1075 405L1085 405M995 355L1005 355L1015 355L1025 355L1035 355L1045 355L1055 355L1065 355L1075 355L1085 355L1095 365L1105 365L1115 365L1125 365L1135 365L1145 365L1155 355M875 355L885 345L895 345L905 345L915 345L925 345L935 345L945 345M1315 405L1325 395L1335 385L1345 375L1355 375L1365 375L1375 375L1385 375L1395 365L1405 365L1415 375L1425 375M655 365L665 355L675 345M1185 385L1195 375L1205 365L1215 365L1225 365L1235 365L1245 365L1255 365L1265 365L1275 365L1285 365L1295 365L1305 355L1315 345L1325 345M515 355L525 365L535 365L545 365L555 365L565 375L575 375L585 375M1245 405L1255 405L1265 405M505 355L515 365L525 375L535 375L545 375L555 375M1345 395L1355 405L1365 405L1375 405M1155 375L1165 385M1205 385L1215 385L1225 385L1235 385L1245 385L1255 385L1265 385L1275 385L1285 385M635 365L645 355L655 355L665 345M1295 395L1305 385L1315 385L1325 385L1335 375L1345 365L1355 365L1365 365L1375 365L1385 365L1395 355L1405 355L1415 355L1425 365M475 355L485 365L495 365M865 355L875 345L885 335L895 335L905 335L915 335L925 335L935 335L945 335L955 335L965 335L975 335M1045 375L1055 365L1065 365L1075 365L1085 365M1175 385L1185 375L1195 365M815 355L825 345L835 345L845 345L855 345L865 345M565 365L575 355L585 345L595 345L605 335M1145 375L1155 385M1335 395L1345 405M1225 405L1235 395L1245 395M-5 325L5 325L15 335L25 335L35 335L45 335L55 335L65 335L75 335L85 335L95 335L105 345L115 345L125 345L135 345L145 345L155 345L165 345L175 345L185 345L195 355L205 355L215 355L225 355L235 355L245 355L255 365L265 365L275 365L285 365L295 365L305 365L315 365L325 365L335 365L345 365L355 365L365 365L375 365L385 365L395 365L405 365L415 365L425 365L435 365L445 365L455 365L465 365L475 355L485 355L495 355L505 355L515 355L525 355L535 355L545 355L555 355L565 365L575 365L585 365L595 365L605 355L615 355L625 355L635 365L645 365L655 365L665 365L675 365L685 365L695 365L705 365L715 365L725 365L735 365L745 365L755 365L765 365L775 355L785 355L795 355L805 355L815 355L825 355L835 355L845 355L855 355L865 355L875 355L885 355L895 355L905 355L915 355L925 355L935 355L945 355L955 355L965 355L975 355L985 355L995 355L1005 365L1015 365L1025 375L1035 375L1045 375L1055 375L1065 375L1075 375L1085 375L1095 375L1105 375L1115 375L1125 375L1135 375L1145 375L1155 375L1165 375L1175 385L1185 385L1195 385L1205 385L1215 395L1225 405L1235 405L1245 405L1255 395L1265 395L1275 395L1285 395L1295 395L1305 395L1315 405L1325 405L1335 395L1345 395L1355 395L1365 395" stroke="rgba(255, 255, 255, 0.1)" stroke-width="1.67"></path>
            <path d="M1362.5 395 a2.5 2.5 0 1 0 5 0 a2.5 2.5 0 1 0 -5 0zM1422.5 355 a2.5 2.5 0 1 0 5 0 a2.5 2.5 0 1 0 -5 0zM612.5 375 a2.5 2.5 0 1 0 5 0 a2.5 2.5 0 1 0 -5 0zM752.5 375 a2.5 2.5 0 1 0 5 0 a2.5 2.5 0 1 0 -5 0zM262.5 355 a2.5 2.5 0 1 0 5 0 a2.5 2.5 0 1 0 -5 0zM502.5 375 a2.5 2.5 0 1 0 5 0 a2.5 2.5 0 1 0 -5 0zM1422.5 405 a2.5 2.5 0 1 0 5 0 a2.5 2.5 0 1 0 -5 0zM702.5 345 a2.5 2.5 0 1 0 5 0 a2.5 2.5 0 1 0 -5 0zM612.5 335 a2.5 2.5 0 1 0 5 0 a2.5 2.5 0 1 0 -5 0zM802.5 345 a2.5 2.5 0 1 0 5 0 a2.5 2.5 0 1 0 -5 0zM502.5 345 a2.5 2.5 0 1 0 5 0 a2.5 2.5 0 1 0 -5 0zM1252.5 425 a2.5 2.5 0 1 0 5 0 a2.5 2.5 0 1 0 -5 0zM1082.5 405 a2.5 2.5 0 1 0 5 0 a2.5 2.5 0 1 0 -5 0zM1152.5 355 a2.5 2.5 0 1 0 5 0 a2.5 2.5 0 1 0 -5 0zM942.5 345 a2.5 2.5 0 1 0 5 0 a2.5 2.5 0 1 0 -5 0zM1422.5 375 a2.5 2.5 0 1 0 5 0 a2.5 2.5 0 1 0 -5 0zM672.5 345 a2.5 2.5 0 1 0 5 0 a2.5 2.5 0 1 0 -5 0zM1322.5 345 a2.5 2.5 0 1 0 5 0 a2.5 2.5 0 1 0 -5 0zM582.5 375 a2.5 2.5 0 1 0 5 0 a2.5 2.5 0 1 0 -5 0zM1262.5 405 a2.5 2.5 0 1 0 5 0 a2.5 2.5 0 1 0 -5 0zM552.5 375 a2.5 2.5 0 1 0 5 0 a2.5 2.5 0 1 0 -5 0zM1372.5 405 a2.5 2.5 0 1 0 5 0 a2.5 2.5 0 1 0 -5 0zM1162.5 385 a2.5 2.5 0 1 0 5 0 a2.5 2.5 0 1 0 -5 0zM1282.5 385 a2.5 2.5 0 1 0 5 0 a2.5 2.5 0 1 0 -5 0zM662.5 345 a2.5 2.5 0 1 0 5 0 a2.5 2.5 0 1 0 -5 0zM1422.5 365 a2.5 2.5 0 1 0 5 0 a2.5 2.5 0 1 0 -5 0zM492.5 365 a2.5 2.5 0 1 0 5 0 a2.5 2.5 0 1 0 -5 0zM972.5 335 a2.5 2.5 0 1 0 5 0 a2.5 2.5 0 1 0 -5 0zM1082.5 365 a2.5 2.5 0 1 0 5 0 a2.5 2.5 0 1 0 -5 0zM1192.5 365 a2.5 2.5 0 1 0 5 0 a2.5 2.5 0 1 0 -5 0zM862.5 345 a2.5 2.5 0 1 0 5 0 a2.5 2.5 0 1 0 -5 0zM602.5 335 a2.5 2.5 0 1 0 5 0 a2.5 2.5 0 1 0 -5 0zM1152.5 385 a2.5 2.5 0 1 0 5 0 a2.5 2.5 0 1 0 -5 0zM1342.5 405 a2.5 2.5 0 1 0 5 0 a2.5 2.5 0 1 0 -5 0zM1242.5 395 a2.5 2.5 0 1 0 5 0 a2.5 2.5 0 1 0 -5 0z" fill="rgba(255, 255, 255, 0.1)"></path>
            <path d="M155 205L165 215M95 235L105 225L115 225L125 215M75 235L85 225L95 225M145 215L155 215M-5 235L5 235L15 235L25 235L35 235L45 235L55 235L65 235L75 235L85 235L95 235L105 235L115 235L125 225L135 215L145 215L155 205L165 205" stroke="rgba(218, 224, 227, 0.05)" stroke-width="1.67"></path>
            <path d="M162.5 205 a2.5 2.5 0 1 0 5 0 a2.5 2.5 0 1 0 -5 0zM162.5 215 a2.5 2.5 0 1 0 5 0 a2.5 2.5 0 1 0 -5 0zM122.5 215 a2.5 2.5 0 1 0 5 0 a2.5 2.5 0 1 0 -5 0zM92.5 225 a2.5 2.5 0 1 0 5 0 a2.5 2.5 0 1 0 -5 0zM152.5 215 a2.5 2.5 0 1 0 5 0 a2.5 2.5 0 1 0 -5 0z" fill="rgba(218, 224, 227, 0.05)"></path>
            <path d="M225 365L235 375L245 375M205 365L215 375L225 375M35 345L45 355M295 375L305 385L315 385L325 385M265 375L275 385M-5 335L5 335L15 345L25 345L35 345L45 345L55 345L65 345L75 345L85 345L95 345L105 355L115 355L125 355L135 355L145 355L155 355L165 355L175 355L185 355L195 365L205 365L215 365L225 365L235 365L245 365L255 375L265 375L275 375L285 375L295 375L305 375" stroke="rgba(255, 255, 255, 0.1)" stroke-width="1.67"></path>
            <path d="M302.5 375 a2.5 2.5 0 1 0 5 0 a2.5 2.5 0 1 0 -5 0zM242.5 375 a2.5 2.5 0 1 0 5 0 a2.5 2.5 0 1 0 -5 0zM222.5 375 a2.5 2.5 0 1 0 5 0 a2.5 2.5 0 1 0 -5 0zM42.5 355 a2.5 2.5 0 1 0 5 0 a2.5 2.5 0 1 0 -5 0zM322.5 385 a2.5 2.5 0 1 0 5 0 a2.5 2.5 0 1 0 -5 0zM272.5 385 a2.5 2.5 0 1 0 5 0 a2.5 2.5 0 1 0 -5 0z" fill="rgba(255, 255, 255, 0.1)"></path>
            <path d="M345 185L355 195M1075 175L1085 165L1095 165L1105 165L1115 165L1125 155L1135 145L1145 145L1155 145L1165 145L1175 145L1185 145L1195 145L1205 145L1215 145L1225 145L1235 145L1245 145L1255 145L1265 145L1275 145L1285 145L1295 145L1305 145L1315 145M225 175L235 185L245 185M895 185L905 175L915 175L925 175L935 175L945 165L955 165L965 165L975 165L985 165L995 165L1005 155L1015 155L1025 155L1035 155L1045 155L1055 155L1065 155L1075 155L1085 145L1095 145M1015 185L1025 195L1035 195L1045 195L1055 195M825 195L835 195M435 195L445 185M1055 185L1065 185L1075 185L1085 185L1095 185L1105 185L1115 185L1125 175L1135 175L1145 175L1155 175L1165 175L1175 185L1185 185M645 215L655 205L665 205L675 205L685 205L695 205L705 205L715 195M725 205L735 195L745 185L755 175L765 175L775 175L785 175L795 175L805 175L815 175L825 175L835 175L845 175L855 175L865 175L875 175L885 175L895 175L905 165L915 165L925 165L935 165L945 155L955 155L965 155L975 155L985 155L995 155L1005 145L1015 145L1025 145L1035 145L1045 145L1055 145L1065 145L1075 145L1085 135L1095 135M135 205L145 195M335 185L345 195M605 205L615 195L625 185L635 185L645 185L655 185L665 185L675 185L685 185L695 185L705 185L715 175L725 175L735 175L745 175L755 165L765 165L775 165M555 205L565 195L575 195L585 195L595 195L605 195L615 185L625 175L635 175L645 175L655 175L665 175L675 175L685 175L695 175L705 175L715 165L725 165L735 165L745 165L755 155L765 155L775 155L785 155L795 155L805 155L815 155L825 155L835 155L845 155L855 155L865 155L875 155L885 155L895 155L905 155L915 155L925 155L935 145L945 145L955 145M215 175L225 185M1275 195L1285 185L1295 185L1305 185L1315 185L1325 175L1335 175L1345 175L1355 175L1365 175L1375 175L1385 175L1395 175L1405 175L1415 175L1425 175M1125 165L1135 165L1145 165M405 195L415 185L425 185L435 185L445 175M845 185L855 195L865 195L875 195L885 195L895 195M625 205L635 205L645 205L655 195L665 195L675 195L685 195L695 195L705 195M185 175L195 185M1065 175L1075 165M565 205L575 215L585 215L595 215L605 215M1185 175L1195 175L1205 175L1215 175L1225 175L1235 175L1245 175L1255 175L1265 175L1275 175M485 195L495 185M105 205L115 215M1325 195L1335 205L1345 205L1355 205L1365 205L1375 205L1385 205L1395 205L1405 205L1415 205L1425 205M525 195L535 185L545 185L555 185L565 185L575 185L585 185L595 185L605 185L615 175M1035 185L1045 175L1055 175L1065 165M365 185L375 175L385 175L395 165L405 165L415 165L425 165L435 165L445 165L455 165L465 165L475 165L485 165L495 165L505 175L515 175M985 195L995 185L1005 175L1015 175L1025 175L1035 175L1045 165L1055 165M995 195L1005 195L1015 195M1255 195L1265 205L1275 205L1285 205L1295 205L1305 205L1315 205L1325 205M275 185L285 195L295 195L305 195L315 195L325 195L335 195L345 205M-5 225L5 225L15 225L25 225L35 225L45 225L55 225L65 225L75 215L85 215L95 215L105 205L115 205L125 205L135 205L145 205L155 195L165 185L175 175L185 175L195 175L205 175L215 175L225 175L235 175L245 175L255 185L265 185L275 185L285 185L295 185L305 185L315 185L325 185L335 185L345 185L355 185L365 185L375 185L385 195L395 195L405 195L415 195L425 195L435 195L445 195L455 195L465 195L475 195L485 195L495 195L505 195L515 195L525 195L535 195L545 195L555 205L565 205L575 205L585 205L595 205L605 205L615 205L625 205L635 215L645 215L655 215L665 215L675 215L685 215L695 215L705 215L715 205L725 205L735 205L745 205L755 205L765 205L775 195L785 195L795 195L805 195L815 195L825 195L835 185L845 185L855 185L865 185L875 185L885 185L895 185L905 185L915 195L925 195L935 195L945 195L955 195L965 195L975 195L985 195L995 195L1005 185L1015 185L1025 185L1035 185L1045 185L1055 185L1065 175L1075 175L1085 175L1095 175L1105 175L1115 175L1125 165L1135 155L1145 155L1155 165L1165 165L1175 175L1185 175L1195 185L1205 185L1215 185L1225 185L1235 185L1245 195L1255 195L1265 195L1275 195L1285 195L1295 195L1305 195L1315 195L1325 195L1335 195L1345 195L1355 195L1365 195L1375 195" stroke="rgba(218, 224, 227, 0.05)" stroke-width="1.67"></path>
            <path d="M1372.5 195 a2.5 2.5 0 1 0 5 0 a2.5 2.5 0 1 0 -5 0zM352.5 195 a2.5 2.5 0 1 0 5 0 a2.5 2.5 0 1 0 -5 0zM1312.5 145 a2.5 2.5 0 1 0 5 0 a2.5 2.5 0 1 0 -5 0zM242.5 185 a2.5 2.5 0 1 0 5 0 a2.5 2.5 0 1 0 -5 0zM1092.5 145 a2.5 2.5 0 1 0 5 0 a2.5 2.5 0 1 0 -5 0zM1052.5 195 a2.5 2.5 0 1 0 5 0 a2.5 2.5 0 1 0 -5 0zM832.5 195 a2.5 2.5 0 1 0 5 0 a2.5 2.5 0 1 0 -5 0zM442.5 185 a2.5 2.5 0 1 0 5 0 a2.5 2.5 0 1 0 -5 0zM1182.5 185 a2.5 2.5 0 1 0 5 0 a2.5 2.5 0 1 0 -5 0zM712.5 195 a2.5 2.5 0 1 0 5 0 a2.5 2.5 0 1 0 -5 0zM1092.5 135 a2.5 2.5 0 1 0 5 0 a2.5 2.5 0 1 0 -5 0zM142.5 195 a2.5 2.5 0 1 0 5 0 a2.5 2.5 0 1 0 -5 0zM342.5 195 a2.5 2.5 0 1 0 5 0 a2.5 2.5 0 1 0 -5 0zM772.5 165 a2.5 2.5 0 1 0 5 0 a2.5 2.5 0 1 0 -5 0zM952.5 145 a2.5 2.5 0 1 0 5 0 a2.5 2.5 0 1 0 -5 0zM222.5 185 a2.5 2.5 0 1 0 5 0 a2.5 2.5 0 1 0 -5 0zM1422.5 175 a2.5 2.5 0 1 0 5 0 a2.5 2.5 0 1 0 -5 0zM1142.5 165 a2.5 2.5 0 1 0 5 0 a2.5 2.5 0 1 0 -5 0zM442.5 175 a2.5 2.5 0 1 0 5 0 a2.5 2.5 0 1 0 -5 0zM892.5 195 a2.5 2.5 0 1 0 5 0 a2.5 2.5 0 1 0 -5 0zM702.5 195 a2.5 2.5 0 1 0 5 0 a2.5 2.5 0 1 0 -5 0zM192.5 185 a2.5 2.5 0 1 0 5 0 a2.5 2.5 0 1 0 -5 0zM1072.5 165 a2.5 2.5 0 1 0 5 0 a2.5 2.5 0 1 0 -5 0zM602.5 215 a2.5 2.5 0 1 0 5 0 a2.5 2.5 0 1 0 -5 0zM1272.5 175 a2.5 2.5 0 1 0 5 0 a2.5 2.5 0 1 0 -5 0zM492.5 185 a2.5 2.5 0 1 0 5 0 a2.5 2.5 0 1 0 -5 0zM112.5 215 a2.5 2.5 0 1 0 5 0 a2.5 2.5 0 1 0 -5 0zM1422.5 205 a2.5 2.5 0 1 0 5 0 a2.5 2.5 0 1 0 -5 0zM612.5 175 a2.5 2.5 0 1 0 5 0 a2.5 2.5 0 1 0 -5 0zM1062.5 165 a2.5 2.5 0 1 0 5 0 a2.5 2.5 0 1 0 -5 0zM512.5 175 a2.5 2.5 0 1 0 5 0 a2.5 2.5 0 1 0 -5 0zM1052.5 165 a2.5 2.5 0 1 0 5 0 a2.5 2.5 0 1 0 -5 0zM1012.5 195 a2.5 2.5 0 1 0 5 0 a2.5 2.5 0 1 0 -5 0zM1322.5 205 a2.5 2.5 0 1 0 5 0 a2.5 2.5 0 1 0 -5 0zM342.5 205 a2.5 2.5 0 1 0 5 0 a2.5 2.5 0 1 0 -5 0z" fill="rgba(218, 224, 227, 0.05)"></path>
            <path d="M395 405L405 415L415 415L425 415L435 415L445 415M355 405L365 395L375 395L385 395L395 395L405 395L415 395L425 395L435 395L445 385L455 385L465 385L475 385L485 385L495 385L505 385L515 385M195 385L205 375M55 355L65 365L75 365M555 385L565 395L575 395L585 395L595 395M85 355L95 365M255 385L265 385M245 385L255 395M725 385L735 395L745 395L755 395L765 395L775 395L785 395L795 395L805 395L815 385L825 385L835 375M475 405L485 395L495 395L505 395M635 385L645 395L655 405L665 405L675 405M45 365L55 365M545 385L555 395L565 405L575 415L585 415L595 415L605 415L615 415L625 415L635 415L645 415L655 415L665 425L675 425L685 425L695 425L705 425L715 425M685 385L695 395M365 405L375 415M295 395L305 395L315 395L325 395M185 385L195 375M525 385L535 395L545 395L555 405L565 415M-5 345L5 345L15 355L25 355L35 365L45 365L55 355L65 355L75 355L85 355L95 355L105 365L115 365L125 365L135 365L145 365L155 365L165 365L175 375L185 385L195 385L205 385L215 385L225 385L235 385L245 385L255 385L265 395L275 395L285 395L295 395L305 405L315 405L325 405L335 405L345 405L355 405L365 405L375 405L385 405L395 405L405 405L415 405L425 405L435 405L445 405L455 405L465 405L475 405L485 405L495 405L505 405L515 395L525 385L535 385L545 385L555 385L565 385L575 385L585 385L595 385L605 385L615 385L625 385L635 385L645 385L655 385L665 385L675 385L685 385L695 385L705 385L715 385L725 385L735 385" stroke="rgba(218, 224, 227, 0.05)" stroke-width="1.67"></path>
            <path d="M732.5 385 a2.5 2.5 0 1 0 5 0 a2.5 2.5 0 1 0 -5 0zM442.5 415 a2.5 2.5 0 1 0 5 0 a2.5 2.5 0 1 0 -5 0zM512.5 385 a2.5 2.5 0 1 0 5 0 a2.5 2.5 0 1 0 -5 0zM202.5 375 a2.5 2.5 0 1 0 5 0 a2.5 2.5 0 1 0 -5 0zM72.5 365 a2.5 2.5 0 1 0 5 0 a2.5 2.5 0 1 0 -5 0zM592.5 395 a2.5 2.5 0 1 0 5 0 a2.5 2.5 0 1 0 -5 0zM92.5 365 a2.5 2.5 0 1 0 5 0 a2.5 2.5 0 1 0 -5 0zM262.5 385 a2.5 2.5 0 1 0 5 0 a2.5 2.5 0 1 0 -5 0zM252.5 395 a2.5 2.5 0 1 0 5 0 a2.5 2.5 0 1 0 -5 0zM832.5 375 a2.5 2.5 0 1 0 5 0 a2.5 2.5 0 1 0 -5 0zM502.5 395 a2.5 2.5 0 1 0 5 0 a2.5 2.5 0 1 0 -5 0zM672.5 405 a2.5 2.5 0 1 0 5 0 a2.5 2.5 0 1 0 -5 0zM52.5 365 a2.5 2.5 0 1 0 5 0 a2.5 2.5 0 1 0 -5 0zM712.5 425 a2.5 2.5 0 1 0 5 0 a2.5 2.5 0 1 0 -5 0zM692.5 395 a2.5 2.5 0 1 0 5 0 a2.5 2.5 0 1 0 -5 0zM372.5 415 a2.5 2.5 0 1 0 5 0 a2.5 2.5 0 1 0 -5 0zM322.5 395 a2.5 2.5 0 1 0 5 0 a2.5 2.5 0 1 0 -5 0zM192.5 375 a2.5 2.5 0 1 0 5 0 a2.5 2.5 0 1 0 -5 0zM562.5 415 a2.5 2.5 0 1 0 5 0 a2.5 2.5 0 1 0 -5 0z" fill="rgba(218, 224, 227, 0.05)"></path>
            <path d="M365 165L375 155L385 145L395 145L405 145L415 145L425 145M125 185L135 195M485 155L495 145L505 145L515 145M565 155L575 145L585 145L595 145L605 145L615 145L625 145L635 145L645 145L655 145L665 145L675 145L685 145L695 145L705 145L715 145L725 145L735 135L745 135M525 155L535 165M645 165L655 155L665 155L675 155L685 155L695 155L705 155L715 155L725 155M205 155L215 165L225 165M105 195L115 195M535 155L545 145L555 145L565 145L575 135L585 135M475 155L485 145M245 165L255 165L265 165L275 175L285 175M375 165L385 165M595 155L605 165L615 165M515 155L525 165L535 175L545 175L555 175L565 175L575 175L585 175L595 175L605 175M555 155L565 165M585 155L595 165M285 155L295 165L305 175M-5 215L5 215L15 215L25 215L35 215L45 215L55 215L65 215L75 205L85 205L95 205L105 195L115 185L125 185L135 185L145 185L155 185L165 175L175 165L185 165L195 165L205 155L215 155L225 155L235 165L245 165L255 155L265 155L275 155L285 155L295 155L305 155L315 155L325 155L335 155L345 165L355 165L365 165L375 165L385 155L395 155L405 155L415 155L425 155L435 155L445 155L455 155L465 155L475 155L485 155L495 155L505 155L515 155L525 155L535 155L545 155L555 155L565 155L575 155L585 155L595 155L605 155L615 155L625 165L635 165L645 165L655 165L665 165" stroke="rgba(218, 224, 227, 0.05)" stroke-width="1.67"></path>
            <path d="M662.5 165 a2.5 2.5 0 1 0 5 0 a2.5 2.5 0 1 0 -5 0zM422.5 145 a2.5 2.5 0 1 0 5 0 a2.5 2.5 0 1 0 -5 0zM132.5 195 a2.5 2.5 0 1 0 5 0 a2.5 2.5 0 1 0 -5 0zM512.5 145 a2.5 2.5 0 1 0 5 0 a2.5 2.5 0 1 0 -5 0zM742.5 135 a2.5 2.5 0 1 0 5 0 a2.5 2.5 0 1 0 -5 0zM532.5 165 a2.5 2.5 0 1 0 5 0 a2.5 2.5 0 1 0 -5 0zM722.5 155 a2.5 2.5 0 1 0 5 0 a2.5 2.5 0 1 0 -5 0zM222.5 165 a2.5 2.5 0 1 0 5 0 a2.5 2.5 0 1 0 -5 0zM112.5 195 a2.5 2.5 0 1 0 5 0 a2.5 2.5 0 1 0 -5 0zM582.5 135 a2.5 2.5 0 1 0 5 0 a2.5 2.5 0 1 0 -5 0zM482.5 145 a2.5 2.5 0 1 0 5 0 a2.5 2.5 0 1 0 -5 0zM282.5 175 a2.5 2.5 0 1 0 5 0 a2.5 2.5 0 1 0 -5 0zM382.5 165 a2.5 2.5 0 1 0 5 0 a2.5 2.5 0 1 0 -5 0zM612.5 165 a2.5 2.5 0 1 0 5 0 a2.5 2.5 0 1 0 -5 0zM602.5 175 a2.5 2.5 0 1 0 5 0 a2.5 2.5 0 1 0 -5 0zM562.5 165 a2.5 2.5 0 1 0 5 0 a2.5 2.5 0 1 0 -5 0zM592.5 165 a2.5 2.5 0 1 0 5 0 a2.5 2.5 0 1 0 -5 0zM302.5 175 a2.5 2.5 0 1 0 5 0 a2.5 2.5 0 1 0 -5 0z" fill="rgba(218, 224, 227, 0.05)"></path>
            <path d="M75 375L85 385M235 405L245 395M215 405L225 395L235 395M55 375L65 385L75 385M205 395L215 395M-5 355L5 355L15 365L25 365L35 375L45 375L55 375L65 375L75 375L85 375L95 375L105 375L115 375L125 375L135 375L145 375L155 375L165 375L175 385L185 395L195 395L205 395L215 405L225 405L235 405L245 405L255 405L265 405L275 405L285 405L295 405L305 415" stroke="rgba(218, 224, 227, 0.05)" stroke-width="1.67"></path>
            <path d="M302.5 415 a2.5 2.5 0 1 0 5 0 a2.5 2.5 0 1 0 -5 0zM82.5 385 a2.5 2.5 0 1 0 5 0 a2.5 2.5 0 1 0 -5 0zM242.5 395 a2.5 2.5 0 1 0 5 0 a2.5 2.5 0 1 0 -5 0zM232.5 395 a2.5 2.5 0 1 0 5 0 a2.5 2.5 0 1 0 -5 0zM72.5 385 a2.5 2.5 0 1 0 5 0 a2.5 2.5 0 1 0 -5 0zM212.5 395 a2.5 2.5 0 1 0 5 0 a2.5 2.5 0 1 0 -5 0z" fill="rgba(218, 224, 227, 0.05)"></path>
            <path d="M965 125L975 135M445 125L455 135L465 135L475 135L485 135L495 135L505 135L515 135L525 135L535 135L545 135L555 135L565 135M235 145L245 155M895 125L905 135L915 135L925 135L935 135M775 115L785 105L795 105L805 105L815 105L825 105L835 105L845 105L855 105L865 95L875 95L885 95L895 95L905 95L915 95L925 95L935 95L945 95L955 95L965 95L975 95L985 95L995 95L1005 95L1015 95L1025 95L1035 95L1045 95L1055 95L1065 95L1075 95L1085 95L1095 95L1105 95L1115 95L1125 95L1135 95L1145 95L1155 95L1165 95L1175 95L1185 95L1195 95L1205 95L1215 95L1225 95L1235 85L1245 85L1255 85L1265 85L1275 85L1285 85L1295 85L1305 85L1315 85L1325 85L1335 85L1345 85L1355 85L1365 85M605 135L615 125L625 125L635 125L645 125L655 125L665 125L675 115L685 115L695 115L705 105L715 105L725 105L735 115L745 115L755 115L765 115L775 105M1275 125L1285 115L1295 115L1305 115L1315 115L1325 115L1335 105L1345 105L1355 105L1365 105L1375 105L1385 105M1045 125L1055 135L1065 135L1075 135L1085 125L1095 125L1105 125L1115 115L1125 115L1135 115L1145 115L1155 125L1165 135L1175 135M855 115L865 125L875 125L885 135L895 135L905 145L915 145L925 145M1185 125L1195 125L1205 125L1215 125L1225 135L1235 135L1245 135L1255 135L1265 135M565 125L575 115L585 115L595 115L605 115M1145 105L1155 105L1165 105L1175 105L1185 105L1195 105L1205 105L1215 105L1225 105L1235 105L1245 95L1255 95L1265 95L1275 95L1285 95L1295 95L1305 95L1315 95L1325 95L1335 95L1345 95L1355 95L1365 95L1375 85L1385 85L1395 85L1405 85L1415 85L1425 85M435 115L445 115L455 115L465 115L475 115L485 115M875 115L885 115L895 115L905 115L915 115L925 115L935 115L945 115L955 115L965 115L975 115L985 115L995 115L1005 115L1015 115L1025 115L1035 115L1045 115L1055 115L1065 115L1075 105L1085 105M845 115L855 125L865 135L875 135L885 145L895 145M1155 115L1165 115L1175 115L1185 115M425 115L435 125L445 135L455 145L465 145L475 145M535 125L545 115L555 105L565 105L575 105L585 105L595 105L605 105M335 125L345 135L355 135L365 135L375 135L385 135M1005 125L1015 135L1025 135L1035 135L1045 135M1265 125L1275 115L1285 105L1295 105L1305 105M1315 135L1325 125L1335 125L1345 125L1355 125L1365 125L1375 125L1385 125L1395 125L1405 125L1415 125L1425 115M1235 125L1245 115L1255 115L1265 105L1275 105M1065 125L1075 125M515 125L525 115L535 115L545 105L555 95L565 95L575 95L585 95M1095 105L1105 115M695 125L705 135L715 135L725 135M715 125L725 115M765 125L775 125L785 125L795 125L805 125L815 125L825 125L835 125M1335 135L1345 135L1355 135L1365 135L1375 135L1385 135L1395 145L1405 145L1415 145L1425 145M375 115L385 125L395 125L405 125L415 125L425 125M1305 135L1315 125M1345 145L1355 155L1365 155L1375 155L1385 155L1395 155L1405 155L1415 155L1425 165M755 125L765 135L775 135L785 135L795 145L805 145L815 145M-5 205L5 205L15 205L25 205L35 205L45 205L55 205L65 205L75 195L85 195L95 195L105 185L115 175L125 175L135 175L145 175L155 175L165 165L175 155L185 155L195 155L205 145L215 145L225 145L235 145L245 145L255 145L265 145L275 145L285 145L295 145L305 145L315 135L325 135L335 125L345 125L355 115L365 115L375 115L385 115L395 115L405 115L415 115L425 115L435 115L445 125L455 125L465 125L475 125L485 125L495 125L505 125L515 125L525 125L535 125L545 125L555 125L565 125L575 125L585 125L595 135L605 135L615 135L625 135L635 135L645 135L655 135L665 135L675 125L685 125L695 125L705 125L715 125L725 125L735 125L745 125L755 125L765 125L775 115L785 115L795 115L805 115L815 115L825 115L835 115L845 115L855 115L865 115L875 115L885 125L895 125L905 125L915 125L925 125L935 125L945 125L955 125L965 125L975 125L985 125L995 125L1005 125L1015 125L1025 125L1035 125L1045 125L1055 125L1065 125L1075 115L1085 115L1095 105L1105 105L1115 105L1125 105L1135 105L1145 105L1155 115L1165 125L1175 125L1185 125L1195 115L1205 115L1215 115L1225 125L1235 125L1245 125L1255 125L1265 125L1275 125L1285 125L1295 135L1305 135L1315 135L1325 135L1335 135L1345 145L1355 145" stroke="rgba(218, 224, 227, 0.05)" stroke-width="1.67"></path>
            <path d="M1352.5 145 a2.5 2.5 0 1 0 5 0 a2.5 2.5 0 1 0 -5 0zM972.5 135 a2.5 2.5 0 1 0 5 0 a2.5 2.5 0 1 0 -5 0zM562.5 135 a2.5 2.5 0 1 0 5 0 a2.5 2.5 0 1 0 -5 0zM242.5 155 a2.5 2.5 0 1 0 5 0 a2.5 2.5 0 1 0 -5 0zM932.5 135 a2.5 2.5 0 1 0 5 0 a2.5 2.5 0 1 0 -5 0zM1362.5 85 a2.5 2.5 0 1 0 5 0 a2.5 2.5 0 1 0 -5 0zM772.5 105 a2.5 2.5 0 1 0 5 0 a2.5 2.5 0 1 0 -5 0zM1382.5 105 a2.5 2.5 0 1 0 5 0 a2.5 2.5 0 1 0 -5 0zM1172.5 135 a2.5 2.5 0 1 0 5 0 a2.5 2.5 0 1 0 -5 0zM922.5 145 a2.5 2.5 0 1 0 5 0 a2.5 2.5 0 1 0 -5 0zM1262.5 135 a2.5 2.5 0 1 0 5 0 a2.5 2.5 0 1 0 -5 0zM602.5 115 a2.5 2.5 0 1 0 5 0 a2.5 2.5 0 1 0 -5 0zM1422.5 85 a2.5 2.5 0 1 0 5 0 a2.5 2.5 0 1 0 -5 0zM482.5 115 a2.5 2.5 0 1 0 5 0 a2.5 2.5 0 1 0 -5 0zM1082.5 105 a2.5 2.5 0 1 0 5 0 a2.5 2.5 0 1 0 -5 0zM892.5 145 a2.5 2.5 0 1 0 5 0 a2.5 2.5 0 1 0 -5 0zM1182.5 115 a2.5 2.5 0 1 0 5 0 a2.5 2.5 0 1 0 -5 0zM472.5 145 a2.5 2.5 0 1 0 5 0 a2.5 2.5 0 1 0 -5 0zM602.5 105 a2.5 2.5 0 1 0 5 0 a2.5 2.5 0 1 0 -5 0zM382.5 135 a2.5 2.5 0 1 0 5 0 a2.5 2.5 0 1 0 -5 0zM1042.5 135 a2.5 2.5 0 1 0 5 0 a2.5 2.5 0 1 0 -5 0zM1302.5 105 a2.5 2.5 0 1 0 5 0 a2.5 2.5 0 1 0 -5 0zM1422.5 115 a2.5 2.5 0 1 0 5 0 a2.5 2.5 0 1 0 -5 0zM1272.5 105 a2.5 2.5 0 1 0 5 0 a2.5 2.5 0 1 0 -5 0zM1072.5 125 a2.5 2.5 0 1 0 5 0 a2.5 2.5 0 1 0 -5 0zM582.5 95 a2.5 2.5 0 1 0 5 0 a2.5 2.5 0 1 0 -5 0zM1102.5 115 a2.5 2.5 0 1 0 5 0 a2.5 2.5 0 1 0 -5 0zM722.5 135 a2.5 2.5 0 1 0 5 0 a2.5 2.5 0 1 0 -5 0zM722.5 115 a2.5 2.5 0 1 0 5 0 a2.5 2.5 0 1 0 -5 0zM832.5 125 a2.5 2.5 0 1 0 5 0 a2.5 2.5 0 1 0 -5 0zM1422.5 145 a2.5 2.5 0 1 0 5 0 a2.5 2.5 0 1 0 -5 0zM422.5 125 a2.5 2.5 0 1 0 5 0 a2.5 2.5 0 1 0 -5 0zM1312.5 125 a2.5 2.5 0 1 0 5 0 a2.5 2.5 0 1 0 -5 0zM1422.5 165 a2.5 2.5 0 1 0 5 0 a2.5 2.5 0 1 0 -5 0zM812.5 145 a2.5 2.5 0 1 0 5 0 a2.5 2.5 0 1 0 -5 0z" fill="rgba(218, 224, 227, 0.05)"></path>
            <path d="M625 425L635 435L645 445L655 445L665 445L675 445L685 445M635 425L645 425L655 425L665 435L675 435L685 435L695 435L705 435L715 435L725 435M105 385L115 395L125 395L135 395L145 395L155 395L165 395M325 425L335 415L345 415L355 415M465 435L475 425L485 425L495 425L505 425L515 415L525 415L535 415M445 425L455 435M425 425L435 435L445 435M85 395L95 395L105 395M495 435L505 445L515 445L525 445L535 445M535 425L545 435L555 445M605 425L615 435L625 435L635 445M415 425L425 435M455 425L465 425L475 415L485 415L495 415L505 415M565 425L575 435L585 435L595 435L605 435M315 425L325 415M515 425L525 435M-5 365L5 365L15 375L25 375L35 385L45 385L55 395L65 395L75 395L85 395L95 385L105 385L115 385L125 385L135 385L145 385L155 385L165 385L175 395L185 405L195 405L205 405L215 415L225 415L235 415L245 415L255 415L265 415L275 415L285 415L295 415L305 425L315 425L325 425L335 425L345 425L355 425L365 425L375 425L385 425L395 425L405 425L415 425L425 425L435 425L445 425L455 425L465 435L475 435L485 435L495 435L505 435L515 425L525 425L535 425L545 425L555 425L565 425L575 425L585 425L595 425L605 425L615 425L625 425L635 425L645 435" stroke="rgba(218, 224, 227, 0.05)" stroke-width="1.67"></path>
            <path d="M642.5 435 a2.5 2.5 0 1 0 5 0 a2.5 2.5 0 1 0 -5 0zM682.5 445 a2.5 2.5 0 1 0 5 0 a2.5 2.5 0 1 0 -5 0zM722.5 435 a2.5 2.5 0 1 0 5 0 a2.5 2.5 0 1 0 -5 0zM162.5 395 a2.5 2.5 0 1 0 5 0 a2.5 2.5 0 1 0 -5 0zM352.5 415 a2.5 2.5 0 1 0 5 0 a2.5 2.5 0 1 0 -5 0zM532.5 415 a2.5 2.5 0 1 0 5 0 a2.5 2.5 0 1 0 -5 0zM452.5 435 a2.5 2.5 0 1 0 5 0 a2.5 2.5 0 1 0 -5 0zM442.5 435 a2.5 2.5 0 1 0 5 0 a2.5 2.5 0 1 0 -5 0zM102.5 395 a2.5 2.5 0 1 0 5 0 a2.5 2.5 0 1 0 -5 0zM532.5 445 a2.5 2.5 0 1 0 5 0 a2.5 2.5 0 1 0 -5 0zM552.5 445 a2.5 2.5 0 1 0 5 0 a2.5 2.5 0 1 0 -5 0zM632.5 445 a2.5 2.5 0 1 0 5 0 a2.5 2.5 0 1 0 -5 0zM422.5 435 a2.5 2.5 0 1 0 5 0 a2.5 2.5 0 1 0 -5 0zM502.5 415 a2.5 2.5 0 1 0 5 0 a2.5 2.5 0 1 0 -5 0zM602.5 435 a2.5 2.5 0 1 0 5 0 a2.5 2.5 0 1 0 -5 0zM322.5 415 a2.5 2.5 0 1 0 5 0 a2.5 2.5 0 1 0 -5 0zM522.5 435 a2.5 2.5 0 1 0 5 0 a2.5 2.5 0 1 0 -5 0z" fill="rgba(218, 224, 227, 0.05)"></path>
            <path d="M435 95L445 85M55 195L65 185M125 165L135 155L145 155L155 155M1305 75L1315 65L1325 65L1335 65L1345 65L1355 65L1365 65L1375 65L1385 65L1395 65L1405 65L1415 65L1425 65M845 95L855 85L865 75L875 65L885 65L895 75L905 75L915 75L925 75L935 75L945 75L955 75L965 75L975 75M375 95L385 105L395 105L405 105L415 105L425 105L435 105L445 105L455 105L465 105L475 105L485 105L495 105L505 105L515 105L525 105L535 105L545 95M655 105L665 115M835 95L845 85L855 75L865 65L875 55L885 55L895 55L905 55L915 55L925 65L935 65L945 65L955 65L965 65L975 65L985 65L995 65L1005 65L1015 65L1025 65L1035 65L1045 65L1055 65L1065 65L1075 65L1085 55L1095 55L1105 55L1115 55L1125 55L1135 55L1145 55L1155 55L1165 55L1175 55L1185 55L1195 55L1205 55L1215 55M625 105L635 115L645 115L655 115M615 105L625 115M405 85L415 95L425 95M385 95L395 95L405 95M1175 85L1185 75L1195 75L1205 75L1215 75L1225 65M735 95L745 105L755 105M1055 75L1065 85L1075 85L1085 85M15 195L25 185L35 185L45 185M1115 65L1125 65L1135 65L1145 65L1155 65L1165 65M595 85L605 85L615 85L625 95L635 95L645 95L655 95L665 95L675 95M1245 65L1255 55L1265 55L1275 55L1285 55M605 95L615 95M1215 85L1225 85M1255 65L1265 65L1275 65L1285 65L1295 55L1305 55L1315 55L1325 55M1045 75L1055 85M1155 85L1165 75L1175 75L1185 65L1195 65L1205 65L1215 65M1005 85L1015 75L1025 75M795 95L805 85L815 85L825 85L835 85L845 75L855 65L865 55L875 45L885 45L895 45M995 85L1005 75M355 105L365 105L375 105M1085 65L1095 75L1105 75L1115 85M1075 75L1085 75M1145 85L1155 75M985 85L995 75M1135 75L1145 75M1035 75L1045 85M515 95L525 95L535 95M-5 195L5 195L15 195L25 195L35 195L45 195L55 195L65 195L75 185L85 185L95 185L105 175L115 165L125 165L135 165L145 165L155 165L165 155L175 145L185 145L195 145L205 135L215 135L225 135L235 135L245 135L255 135L265 135L275 135L285 135L295 135L305 135L315 125L325 125L335 115L345 115L355 105L365 95L375 95L385 95L395 85L405 85L415 85L425 85L435 95L445 95L455 95L465 95L475 95L485 95L495 95L505 95L515 95L525 85L535 85L545 85L555 85L565 85L575 85L585 85L595 85L605 95L615 105L625 105L635 105L645 105L655 105L665 105L675 105L685 95L695 95L705 95L715 95L725 95L735 95L745 95L755 95L765 95L775 95L785 95L795 95L805 95L815 95L825 95L835 95L845 95L855 95L865 85L875 85L885 85L895 85L905 85L915 85L925 85L935 85L945 85L955 85L965 85L975 85L985 85L995 85L1005 85L1015 85L1025 85L1035 75L1045 75L1055 75L1065 75L1075 75L1085 65L1095 65L1105 65L1115 65L1125 75L1135 75L1145 85L1155 85L1165 85L1175 85L1185 85L1195 85L1205 85L1215 85L1225 75L1235 75L1245 65L1255 65L1265 75L1275 75L1285 75L1295 75L1305 75L1315 75L1325 75L1335 75L1345 75L1355 75L1365 75L1375 75L1385 75" stroke="rgba(255, 255, 255, 0.1)" stroke-width="1.67"></path>
            <path d="M1382.5 75 a2.5 2.5 0 1 0 5 0 a2.5 2.5 0 1 0 -5 0zM442.5 85 a2.5 2.5 0 1 0 5 0 a2.5 2.5 0 1 0 -5 0zM62.5 185 a2.5 2.5 0 1 0 5 0 a2.5 2.5 0 1 0 -5 0zM152.5 155 a2.5 2.5 0 1 0 5 0 a2.5 2.5 0 1 0 -5 0zM1422.5 65 a2.5 2.5 0 1 0 5 0 a2.5 2.5 0 1 0 -5 0zM972.5 75 a2.5 2.5 0 1 0 5 0 a2.5 2.5 0 1 0 -5 0zM542.5 95 a2.5 2.5 0 1 0 5 0 a2.5 2.5 0 1 0 -5 0zM662.5 115 a2.5 2.5 0 1 0 5 0 a2.5 2.5 0 1 0 -5 0zM1212.5 55 a2.5 2.5 0 1 0 5 0 a2.5 2.5 0 1 0 -5 0zM652.5 115 a2.5 2.5 0 1 0 5 0 a2.5 2.5 0 1 0 -5 0zM622.5 115 a2.5 2.5 0 1 0 5 0 a2.5 2.5 0 1 0 -5 0zM422.5 95 a2.5 2.5 0 1 0 5 0 a2.5 2.5 0 1 0 -5 0zM402.5 95 a2.5 2.5 0 1 0 5 0 a2.5 2.5 0 1 0 -5 0zM1222.5 65 a2.5 2.5 0 1 0 5 0 a2.5 2.5 0 1 0 -5 0zM752.5 105 a2.5 2.5 0 1 0 5 0 a2.5 2.5 0 1 0 -5 0zM1082.5 85 a2.5 2.5 0 1 0 5 0 a2.5 2.5 0 1 0 -5 0zM42.5 185 a2.5 2.5 0 1 0 5 0 a2.5 2.5 0 1 0 -5 0zM1162.5 65 a2.5 2.5 0 1 0 5 0 a2.5 2.5 0 1 0 -5 0zM672.5 95 a2.5 2.5 0 1 0 5 0 a2.5 2.5 0 1 0 -5 0zM1282.5 55 a2.5 2.5 0 1 0 5 0 a2.5 2.5 0 1 0 -5 0zM612.5 95 a2.5 2.5 0 1 0 5 0 a2.5 2.5 0 1 0 -5 0zM1222.5 85 a2.5 2.5 0 1 0 5 0 a2.5 2.5 0 1 0 -5 0zM1322.5 55 a2.5 2.5 0 1 0 5 0 a2.5 2.5 0 1 0 -5 0zM1052.5 85 a2.5 2.5 0 1 0 5 0 a2.5 2.5 0 1 0 -5 0zM1212.5 65 a2.5 2.5 0 1 0 5 0 a2.5 2.5 0 1 0 -5 0zM1022.5 75 a2.5 2.5 0 1 0 5 0 a2.5 2.5 0 1 0 -5 0zM892.5 45 a2.5 2.5 0 1 0 5 0 a2.5 2.5 0 1 0 -5 0zM1002.5 75 a2.5 2.5 0 1 0 5 0 a2.5 2.5 0 1 0 -5 0zM372.5 105 a2.5 2.5 0 1 0 5 0 a2.5 2.5 0 1 0 -5 0zM1112.5 85 a2.5 2.5 0 1 0 5 0 a2.5 2.5 0 1 0 -5 0zM1082.5 75 a2.5 2.5 0 1 0 5 0 a2.5 2.5 0 1 0 -5 0zM1152.5 75 a2.5 2.5 0 1 0 5 0 a2.5 2.5 0 1 0 -5 0zM992.5 75 a2.5 2.5 0 1 0 5 0 a2.5 2.5 0 1 0 -5 0zM1142.5 75 a2.5 2.5 0 1 0 5 0 a2.5 2.5 0 1 0 -5 0zM1042.5 85 a2.5 2.5 0 1 0 5 0 a2.5 2.5 0 1 0 -5 0zM532.5 95 a2.5 2.5 0 1 0 5 0 a2.5 2.5 0 1 0 -5 0z" fill="rgba(255, 255, 255, 0.1)"></path>
            <path d="M195 415L205 425M565 455L575 445L585 445M375 435L385 445L395 445L405 455L415 455L425 455L435 455L445 455M145 405L155 415L165 415M395 435L405 435L415 435M485 445L495 445M615 455L625 445M705 455L715 445L725 445L735 445L745 445L755 445L765 445L775 445L785 445L795 445L805 445L815 445L825 445L835 445L845 445L855 445L865 435L875 435L885 435L895 435L905 435L915 435L925 435L935 435L945 435L955 435L965 435M315 435L325 445L335 445L345 445L355 445L365 445L375 445L385 455L395 455M595 455L605 445L615 445M185 415L195 425M695 455L705 445M-5 375L5 375L15 385L25 385L35 395L45 395L55 405L65 405L75 405L85 405L95 405L105 405L115 405L125 405L135 405L145 405L155 405L165 405L175 405L185 415L195 415L205 415L215 425L225 425L235 425L245 425L255 425L265 425L275 425L285 425L295 425L305 435L315 435L325 435L335 435L345 435L355 435L365 435L375 435L385 435L395 435L405 445L415 445L425 445L435 445L445 445L455 445L465 445L475 445L485 445L495 455L505 455L515 455L525 455L535 455L545 455L555 455L565 455L575 455L585 455L595 455L605 455L615 455L625 455L635 455L645 455L655 455L665 455L675 455L685 455L695 455L705 455L715 455" stroke="rgba(218, 224, 227, 0.05)" stroke-width="1.67"></path>
            <path d="M712.5 455 a2.5 2.5 0 1 0 5 0 a2.5 2.5 0 1 0 -5 0zM202.5 425 a2.5 2.5 0 1 0 5 0 a2.5 2.5 0 1 0 -5 0zM582.5 445 a2.5 2.5 0 1 0 5 0 a2.5 2.5 0 1 0 -5 0zM442.5 455 a2.5 2.5 0 1 0 5 0 a2.5 2.5 0 1 0 -5 0zM162.5 415 a2.5 2.5 0 1 0 5 0 a2.5 2.5 0 1 0 -5 0zM412.5 435 a2.5 2.5 0 1 0 5 0 a2.5 2.5 0 1 0 -5 0zM492.5 445 a2.5 2.5 0 1 0 5 0 a2.5 2.5 0 1 0 -5 0zM622.5 445 a2.5 2.5 0 1 0 5 0 a2.5 2.5 0 1 0 -5 0zM962.5 435 a2.5 2.5 0 1 0 5 0 a2.5 2.5 0 1 0 -5 0zM392.5 455 a2.5 2.5 0 1 0 5 0 a2.5 2.5 0 1 0 -5 0zM612.5 445 a2.5 2.5 0 1 0 5 0 a2.5 2.5 0 1 0 -5 0zM192.5 425 a2.5 2.5 0 1 0 5 0 a2.5 2.5 0 1 0 -5 0zM702.5 445 a2.5 2.5 0 1 0 5 0 a2.5 2.5 0 1 0 -5 0z" fill="rgba(218, 224, 227, 0.05)"></path>
            <path d="M135 145L145 135M25 175L35 165L45 165L55 165L65 165L75 165L85 165L95 165L105 155M235 125L245 115L255 115L265 115L275 105M285 125L295 115L305 115M645 75L655 85L665 85L675 85M455 85L465 75L475 75L485 75L495 75L505 75L515 75M215 125L225 115L235 115L245 105L255 105L265 105M5 185L15 185M115 155L125 155M445 75L455 75M675 75L685 75M635 75L645 85M625 75L635 85M275 125L285 115M175 135L185 125M205 125L215 115L225 105L235 105M-5 185L5 185L15 175L25 175L35 175L45 175L55 175L65 175L75 175L85 175L95 175L105 165L115 155L125 145L135 145L145 145L155 145L165 145L175 135L185 135L195 135L205 125L215 125L225 125L235 125L245 125L255 125L265 125L275 125L285 125L295 125L305 125L315 115L325 115L335 105L345 105L355 95L365 85L375 85L385 85L395 75L405 75L415 75L425 75L435 75L445 75L455 85L465 85L475 85L485 85L495 85L505 85L515 85L525 75L535 75L545 75L555 75L565 75L575 75L585 75L595 75L605 75L615 75L625 75L635 75L645 75L655 75L665 75L675 75L685 85L695 85L705 85" stroke="rgba(255, 255, 255, 0.1)" stroke-width="1.67"></path>
            <path d="M702.5 85 a2.5 2.5 0 1 0 5 0 a2.5 2.5 0 1 0 -5 0zM142.5 135 a2.5 2.5 0 1 0 5 0 a2.5 2.5 0 1 0 -5 0zM102.5 155 a2.5 2.5 0 1 0 5 0 a2.5 2.5 0 1 0 -5 0zM272.5 105 a2.5 2.5 0 1 0 5 0 a2.5 2.5 0 1 0 -5 0zM302.5 115 a2.5 2.5 0 1 0 5 0 a2.5 2.5 0 1 0 -5 0zM672.5 85 a2.5 2.5 0 1 0 5 0 a2.5 2.5 0 1 0 -5 0zM512.5 75 a2.5 2.5 0 1 0 5 0 a2.5 2.5 0 1 0 -5 0zM262.5 105 a2.5 2.5 0 1 0 5 0 a2.5 2.5 0 1 0 -5 0zM12.5 185 a2.5 2.5 0 1 0 5 0 a2.5 2.5 0 1 0 -5 0zM122.5 155 a2.5 2.5 0 1 0 5 0 a2.5 2.5 0 1 0 -5 0zM452.5 75 a2.5 2.5 0 1 0 5 0 a2.5 2.5 0 1 0 -5 0zM682.5 75 a2.5 2.5 0 1 0 5 0 a2.5 2.5 0 1 0 -5 0zM642.5 85 a2.5 2.5 0 1 0 5 0 a2.5 2.5 0 1 0 -5 0zM632.5 85 a2.5 2.5 0 1 0 5 0 a2.5 2.5 0 1 0 -5 0zM282.5 115 a2.5 2.5 0 1 0 5 0 a2.5 2.5 0 1 0 -5 0zM182.5 125 a2.5 2.5 0 1 0 5 0 a2.5 2.5 0 1 0 -5 0zM232.5 105 a2.5 2.5 0 1 0 5 0 a2.5 2.5 0 1 0 -5 0z" fill="rgba(255, 255, 255, 0.1)"></path>
            <path d="M-5 385L5 385L15 395L25 395L35 405L45 405L55 415L65 415L75 415L85 415L95 415L105 415L115 415L125 415L135 415L145 425L155 425" stroke="rgba(255, 255, 255, 0.1)" stroke-width="1.67"></path>
            <path d="M152.5 425 a2.5 2.5 0 1 0 5 0 a2.5 2.5 0 1 0 -5 0z" fill="rgba(255, 255, 255, 0.1)"></path>
            <path d="M45 145L55 155L65 155L75 155L85 155M35 155L45 155M15 165L25 165M125 135L135 135M-5 175L5 175L15 165L25 155L35 155L45 145L55 145L65 145L75 145L85 145L95 145L105 145L115 145L125 135L135 125L145 125L155 125L165 135" stroke="rgba(218, 224, 227, 0.05)" stroke-width="1.67"></path>
            <path d="M162.5 135 a2.5 2.5 0 1 0 5 0 a2.5 2.5 0 1 0 -5 0zM82.5 155 a2.5 2.5 0 1 0 5 0 a2.5 2.5 0 1 0 -5 0zM42.5 155 a2.5 2.5 0 1 0 5 0 a2.5 2.5 0 1 0 -5 0zM22.5 165 a2.5 2.5 0 1 0 5 0 a2.5 2.5 0 1 0 -5 0zM132.5 135 a2.5 2.5 0 1 0 5 0 a2.5 2.5 0 1 0 -5 0z" fill="rgba(218, 224, 227, 0.05)"></path>
            <path d="M235 435L245 445L255 445L265 445L275 445L285 445L295 445M795 455L805 465L815 465L825 465L835 455L845 455M675 465L685 475L695 475L705 475L715 475L725 475L735 475L745 475L755 475L765 475L775 475L785 475L795 475L805 475L815 475L825 475L835 475L845 475L855 475L865 475L875 475L885 475L895 475L905 475L915 475L925 465L935 455L945 455M365 465L375 455M745 455L755 465L765 465L775 465L785 465L795 465M165 435L175 425L185 425M635 465L645 475L655 475L665 475L675 475M605 465L615 475L625 475L635 475M355 455L365 455M195 435L205 445L215 445L225 445L235 445L245 455L255 455L265 455M725 465L735 455M305 445L315 445M445 465L455 465M735 465L745 465M595 465L605 475M185 435L195 445M585 465L595 475M175 435L185 445M-5 395L5 395L15 405L25 405L35 415L45 415L55 425L65 425L75 425L85 425L95 425L105 425L115 425L125 425L135 425L145 435L155 435L165 435L175 435L185 435L195 435L205 435L215 435L225 435L235 435L245 435L255 435L265 435L275 435L285 435L295 435L305 445L315 455L325 455L335 455L345 455L355 455L365 465L375 465L385 465L395 465L405 465L415 465L425 465L435 465L445 465L455 455L465 455L475 455L485 455L495 465L505 465L515 465L525 465L535 465L545 465L555 465L565 465L575 465L585 465L595 465L605 465L615 465L625 465L635 465L645 465L655 465L665 465L675 465L685 465L695 465L705 465L715 465L725 465L735 465L745 455L755 455L765 455L775 455L785 455L795 455L805 455L815 455" stroke="rgba(255, 255, 255, 0.1)" stroke-width="1.67"></path>
            <path d="M812.5 455 a2.5 2.5 0 1 0 5 0 a2.5 2.5 0 1 0 -5 0zM292.5 445 a2.5 2.5 0 1 0 5 0 a2.5 2.5 0 1 0 -5 0zM842.5 455 a2.5 2.5 0 1 0 5 0 a2.5 2.5 0 1 0 -5 0zM942.5 455 a2.5 2.5 0 1 0 5 0 a2.5 2.5 0 1 0 -5 0zM372.5 455 a2.5 2.5 0 1 0 5 0 a2.5 2.5 0 1 0 -5 0zM792.5 465 a2.5 2.5 0 1 0 5 0 a2.5 2.5 0 1 0 -5 0zM182.5 425 a2.5 2.5 0 1 0 5 0 a2.5 2.5 0 1 0 -5 0zM672.5 475 a2.5 2.5 0 1 0 5 0 a2.5 2.5 0 1 0 -5 0zM632.5 475 a2.5 2.5 0 1 0 5 0 a2.5 2.5 0 1 0 -5 0zM362.5 455 a2.5 2.5 0 1 0 5 0 a2.5 2.5 0 1 0 -5 0zM262.5 455 a2.5 2.5 0 1 0 5 0 a2.5 2.5 0 1 0 -5 0zM732.5 455 a2.5 2.5 0 1 0 5 0 a2.5 2.5 0 1 0 -5 0zM312.5 445 a2.5 2.5 0 1 0 5 0 a2.5 2.5 0 1 0 -5 0zM452.5 465 a2.5 2.5 0 1 0 5 0 a2.5 2.5 0 1 0 -5 0zM742.5 465 a2.5 2.5 0 1 0 5 0 a2.5 2.5 0 1 0 -5 0zM602.5 475 a2.5 2.5 0 1 0 5 0 a2.5 2.5 0 1 0 -5 0zM192.5 445 a2.5 2.5 0 1 0 5 0 a2.5 2.5 0 1 0 -5 0zM592.5 475 a2.5 2.5 0 1 0 5 0 a2.5 2.5 0 1 0 -5 0zM182.5 445 a2.5 2.5 0 1 0 5 0 a2.5 2.5 0 1 0 -5 0z" fill="rgba(255, 255, 255, 0.1)"></path>
            <path d="M-5 165L5 165L15 155L25 145L35 145L45 135L55 135L65 135L75 135L85 135L95 135L105 135L115 135L125 125L135 115L145 115" stroke="rgba(218, 224, 227, 0.05)" stroke-width="1.67"></path>
            <path d="M142.5 115 a2.5 2.5 0 1 0 5 0 a2.5 2.5 0 1 0 -5 0z" fill="rgba(218, 224, 227, 0.05)"></path>
            <path d="M165 445L175 445M-5 405L5 405L15 415L25 415L35 425L45 425L55 435L65 435L75 435L85 435L95 435L105 435L115 435L125 435L135 435L145 445L155 445L165 445L175 455L185 455L195 455L205 455L215 455L225 455" stroke="rgba(218, 224, 227, 0.05)" stroke-width="1.67"></path>
            <path d="M222.5 455 a2.5 2.5 0 1 0 5 0 a2.5 2.5 0 1 0 -5 0zM172.5 445 a2.5 2.5 0 1 0 5 0 a2.5 2.5 0 1 0 -5 0z" fill="rgba(218, 224, 227, 0.05)"></path>
            <path d="M175 115L185 105L195 105L205 105M185 115L195 115L205 115M165 115L175 125M-5 155L5 155L15 145L25 135L35 135L45 125L55 125L65 125L75 125L85 125L95 125L105 125L115 125L125 115L135 105L145 105L155 105L165 115L175 115L185 115L195 125" stroke="rgba(255, 255, 255, 0.1)" stroke-width="1.67"></path>
            <path d="M192.5 125 a2.5 2.5 0 1 0 5 0 a2.5 2.5 0 1 0 -5 0zM202.5 105 a2.5 2.5 0 1 0 5 0 a2.5 2.5 0 1 0 -5 0zM202.5 115 a2.5 2.5 0 1 0 5 0 a2.5 2.5 0 1 0 -5 0zM172.5 125 a2.5 2.5 0 1 0 5 0 a2.5 2.5 0 1 0 -5 0z" fill="rgba(255, 255, 255, 0.1)"></path>
            <path d="M185 465L195 475L205 475L215 475L225 475L235 475L245 475L255 475L265 475L275 475L285 475L295 475L305 475L315 475L325 475L335 475L345 475L355 475L365 485L375 485L385 485L395 485L405 485L415 485L425 485L435 485M1005 495L1015 505L1025 515L1035 515L1045 515L1055 515L1065 515L1075 515L1085 515L1095 515L1105 515L1115 515L1125 515L1135 515L1145 515L1155 515L1165 515L1175 515M985 495L995 485L1005 485M35 435L45 445L55 455L65 455L75 465L85 475L95 475L105 475L115 475L125 475L135 475L145 475L155 475L165 475L175 475L185 475L195 485L205 485L215 485L225 485L235 485L245 485L255 485L265 485L275 485L285 485L295 485L305 485L315 485L325 485L335 485L345 485L355 485L365 495L375 495L385 495L395 495L405 495L415 505L425 505L435 505L445 495L455 495M95 445L105 455L115 465L125 465L135 465L145 465L155 465L165 465M945 495L955 505L965 505L975 505L985 505L995 505L1005 505L1015 515L1025 525L1035 525L1045 525L1055 525L1065 535L1075 535L1085 535L1095 535L1105 535L1115 535L1125 535L1135 535L1145 535L1155 535L1165 535L1175 535L1185 535L1195 535L1205 525L1215 515L1225 515L1235 515L1245 515L1255 515L1265 515M565 475L575 485L585 495L595 495L605 495L615 495L625 495L635 495L645 495L655 495L665 495L675 495L685 505L695 505L705 495L715 495L725 505L735 505L745 505L755 505L765 505L775 505L785 505L795 515L805 515L815 525L825 525L835 525L845 515L855 515L865 515M15 425L25 435M75 445L85 455L95 455L105 465M455 475L465 475L475 475L485 475L495 485L505 485M875 495L885 485L895 485L905 485L915 485L925 485L935 485L945 485L955 485L965 485L975 485L985 485L995 475L1005 475L1015 475L1025 475L1035 475L1045 475L1055 475L1065 475L1075 475M785 495L795 485L805 485L815 485L825 485L835 485L845 485L855 485L865 485L875 485M115 445L125 455L135 455M775 495L785 485M1035 495L1045 485L1055 485L1065 485L1075 485L1085 485L1095 485L1105 485L1115 485L1125 485L1135 485L1145 475L1155 475L1165 475L1175 475L1185 475L1195 475L1205 475L1215 475L1225 475L1235 475L1245 475L1255 475L1265 475L1275 475L1285 475L1295 475M295 465L305 455M555 475L565 485L575 495L585 505M805 495L815 505L825 505L835 505L845 505L855 505L865 505L875 505L885 515L895 515L905 515L915 515L925 515L935 515L945 515L955 515L965 515L975 515L985 515L995 515L1005 515L1015 525L1025 535L1035 535L1045 535L1055 535L1065 545L1075 545L1085 545L1095 545L1105 545L1115 545L1125 545L1135 545L1145 545L1155 545L1165 545L1175 545L1185 545L1195 545L1205 545L1215 545M795 495L805 505M765 495L775 485M935 495L945 505M725 495L735 485L745 485L755 485L765 485M1025 495L1035 505M535 475L545 485L555 485L565 495L575 505L585 515L595 515L605 515L615 515L625 515L635 515L645 505L655 505L665 505M445 475L455 485L465 485L475 485L485 495L495 495L505 495L515 495M895 495L905 505L915 505L925 505L935 505M-5 415L5 415L15 425L25 425L35 435L45 435L55 445L65 445L75 445L85 445L95 445L105 445L115 445L125 445L135 445L145 455L155 455L165 455L175 465L185 465L195 465L205 465L215 465L225 465L235 465L245 465L255 465L265 465L275 465L285 465L295 465L305 465L315 465L325 465L335 465L345 465L355 465L365 475L375 475L385 475L395 475L405 475L415 475L425 475L435 475L445 475L455 475L465 465L475 465L485 465L495 475L505 475L515 475L525 475L535 475L545 475L555 475L565 475L575 475L585 485L595 485L605 485L615 485L625 485L635 485L645 485L655 485L665 485L675 485L685 485L695 485L705 485L715 485L725 495L735 495L745 495L755 495L765 495L775 495L785 495L795 495L805 495L815 495L825 495L835 495L845 495L855 495L865 495L875 495L885 495L895 495L905 495L915 495L925 495L935 495L945 495L955 495L965 495L975 495L985 495L995 495L1005 495L1015 495L1025 495L1035 495L1045 495" stroke="rgba(255, 255, 255, 0.1)" stroke-width="1.67"></path>
            <path d="M1042.5 495 a2.5 2.5 0 1 0 5 0 a2.5 2.5 0 1 0 -5 0zM432.5 485 a2.5 2.5 0 1 0 5 0 a2.5 2.5 0 1 0 -5 0zM1172.5 515 a2.5 2.5 0 1 0 5 0 a2.5 2.5 0 1 0 -5 0zM1002.5 485 a2.5 2.5 0 1 0 5 0 a2.5 2.5 0 1 0 -5 0zM452.5 495 a2.5 2.5 0 1 0 5 0 a2.5 2.5 0 1 0 -5 0zM162.5 465 a2.5 2.5 0 1 0 5 0 a2.5 2.5 0 1 0 -5 0zM1262.5 515 a2.5 2.5 0 1 0 5 0 a2.5 2.5 0 1 0 -5 0zM862.5 515 a2.5 2.5 0 1 0 5 0 a2.5 2.5 0 1 0 -5 0zM22.5 435 a2.5 2.5 0 1 0 5 0 a2.5 2.5 0 1 0 -5 0zM102.5 465 a2.5 2.5 0 1 0 5 0 a2.5 2.5 0 1 0 -5 0zM502.5 485 a2.5 2.5 0 1 0 5 0 a2.5 2.5 0 1 0 -5 0zM1072.5 475 a2.5 2.5 0 1 0 5 0 a2.5 2.5 0 1 0 -5 0zM872.5 485 a2.5 2.5 0 1 0 5 0 a2.5 2.5 0 1 0 -5 0zM132.5 455 a2.5 2.5 0 1 0 5 0 a2.5 2.5 0 1 0 -5 0zM782.5 485 a2.5 2.5 0 1 0 5 0 a2.5 2.5 0 1 0 -5 0zM1292.5 475 a2.5 2.5 0 1 0 5 0 a2.5 2.5 0 1 0 -5 0zM302.5 455 a2.5 2.5 0 1 0 5 0 a2.5 2.5 0 1 0 -5 0zM582.5 505 a2.5 2.5 0 1 0 5 0 a2.5 2.5 0 1 0 -5 0zM1212.5 545 a2.5 2.5 0 1 0 5 0 a2.5 2.5 0 1 0 -5 0zM802.5 505 a2.5 2.5 0 1 0 5 0 a2.5 2.5 0 1 0 -5 0zM772.5 485 a2.5 2.5 0 1 0 5 0 a2.5 2.5 0 1 0 -5 0zM942.5 505 a2.5 2.5 0 1 0 5 0 a2.5 2.5 0 1 0 -5 0zM762.5 485 a2.5 2.5 0 1 0 5 0 a2.5 2.5 0 1 0 -5 0zM1032.5 505 a2.5 2.5 0 1 0 5 0 a2.5 2.5 0 1 0 -5 0zM662.5 505 a2.5 2.5 0 1 0 5 0 a2.5 2.5 0 1 0 -5 0zM512.5 495 a2.5 2.5 0 1 0 5 0 a2.5 2.5 0 1 0 -5 0zM932.5 505 a2.5 2.5 0 1 0 5 0 a2.5 2.5 0 1 0 -5 0z" fill="rgba(255, 255, 255, 0.1)"></path>
            <path d="M455 65L465 55M635 65L645 55L655 55L665 55L675 55L685 55L695 45L705 45M205 95L215 85L225 85L235 85L245 85L255 85M295 105L305 95L315 95L325 95L335 85M575 65L585 55L595 45L605 45L615 45L625 35L635 35L645 35L655 35L665 35L675 35L685 35L695 35L705 35M285 105L295 95L305 85L315 85L325 85L335 75L345 65L355 65L365 65L375 65L385 65L395 55L405 55L415 55L425 55L435 55M95 115L105 105L115 95L125 95L135 85L145 85L155 85L165 85L175 85L185 85L195 85L205 85L215 75L225 75L235 75L245 75L255 75L265 75L275 75M55 115L65 105L75 105L85 95L95 95L105 95L115 85L125 85L135 75L145 75L155 75L165 75L175 75L185 75L195 75L205 75L215 65L225 65L235 65L245 65L255 55L265 45L275 45L285 45L295 35M265 95L275 85L285 85L295 85L305 75L315 75L325 75L335 65L345 55L355 55M725 75L735 75L745 65L755 65M545 65L555 55L565 55L575 55L585 45L595 35L605 35L615 35L625 25L635 25L645 25L655 25L665 25L675 25L685 25L695 25L705 25L715 25L725 25L735 25L745 25L755 25L765 25L775 25L785 25L795 25L805 25L815 25L825 25L835 25M485 65L495 55L505 55L515 55L525 55L535 55L545 55L555 45L565 45L575 45L585 35L595 25L605 25L615 25M445 65L455 55L465 45L475 45L485 45L495 45L505 35L515 35L525 35L535 35M615 65L625 55L635 55L645 45L655 45L665 45L675 45L685 45M715 75L725 65L735 65M595 65L605 55L615 55M165 95L175 105M105 115L115 115M-5 145L5 145L15 135L25 125L35 125L45 115L55 115L65 115L75 115L85 115L95 115L105 115L115 105L125 105L135 95L145 95L155 95L165 95L175 95L185 95L195 95L205 95L215 95L225 95L235 95L245 95L255 95L265 95L275 95L285 105L295 105L305 105L315 105L325 105L335 95L345 95L355 85L365 75L375 75L385 75L395 65L405 65L415 65L425 65L435 65L445 65L455 65L465 65L475 65L485 65L495 65L505 65L515 65L525 65L535 65L545 65L555 65L565 65L575 65L585 65L595 65L605 65L615 65L625 65L635 65L645 65L655 65L665 65L675 65L685 65L695 75L705 75L715 75L725 75L735 85" stroke="rgba(255, 255, 255, 0.1)" stroke-width="1.67"></path>
            <path d="M732.5 85 a2.5 2.5 0 1 0 5 0 a2.5 2.5 0 1 0 -5 0zM462.5 55 a2.5 2.5 0 1 0 5 0 a2.5 2.5 0 1 0 -5 0zM702.5 45 a2.5 2.5 0 1 0 5 0 a2.5 2.5 0 1 0 -5 0zM252.5 85 a2.5 2.5 0 1 0 5 0 a2.5 2.5 0 1 0 -5 0zM332.5 85 a2.5 2.5 0 1 0 5 0 a2.5 2.5 0 1 0 -5 0zM702.5 35 a2.5 2.5 0 1 0 5 0 a2.5 2.5 0 1 0 -5 0zM432.5 55 a2.5 2.5 0 1 0 5 0 a2.5 2.5 0 1 0 -5 0zM272.5 75 a2.5 2.5 0 1 0 5 0 a2.5 2.5 0 1 0 -5 0zM292.5 35 a2.5 2.5 0 1 0 5 0 a2.5 2.5 0 1 0 -5 0zM352.5 55 a2.5 2.5 0 1 0 5 0 a2.5 2.5 0 1 0 -5 0zM752.5 65 a2.5 2.5 0 1 0 5 0 a2.5 2.5 0 1 0 -5 0zM832.5 25 a2.5 2.5 0 1 0 5 0 a2.5 2.5 0 1 0 -5 0zM612.5 25 a2.5 2.5 0 1 0 5 0 a2.5 2.5 0 1 0 -5 0zM532.5 35 a2.5 2.5 0 1 0 5 0 a2.5 2.5 0 1 0 -5 0zM682.5 45 a2.5 2.5 0 1 0 5 0 a2.5 2.5 0 1 0 -5 0zM732.5 65 a2.5 2.5 0 1 0 5 0 a2.5 2.5 0 1 0 -5 0zM612.5 55 a2.5 2.5 0 1 0 5 0 a2.5 2.5 0 1 0 -5 0zM172.5 105 a2.5 2.5 0 1 0 5 0 a2.5 2.5 0 1 0 -5 0zM112.5 115 a2.5 2.5 0 1 0 5 0 a2.5 2.5 0 1 0 -5 0z" fill="rgba(255, 255, 255, 0.1)"></path>
        </g>
    </g>
    <defs>
        <mask id="SvgjsMask1239">
            <rect width="1440" height="560" fill="#ffffff"></rect>
        </mask>
        <mask id="SvgjsMask1240">
            <rect width="1440" height="560" fill="white"></rect>
            <path d="M1233.75 285 a1.25 1.25 0 1 0 2.5 0 a1.25 1.25 0 1 0 -2.5 0zM1423.75 335 a1.25 1.25 0 1 0 2.5 0 a1.25 1.25 0 1 0 -2.5 0zM1283.75 265 a1.25 1.25 0 1 0 2.5 0 a1.25 1.25 0 1 0 -2.5 0zM733.75 315 a1.25 1.25 0 1 0 2.5 0 a1.25 1.25 0 1 0 -2.5 0zM783.75 325 a1.25 1.25 0 1 0 2.5 0 a1.25 1.25 0 1 0 -2.5 0zM1043.75 305 a1.25 1.25 0 1 0 2.5 0 a1.25 1.25 0 1 0 -2.5 0zM1253.75 275 a1.25 1.25 0 1 0 2.5 0 a1.25 1.25 0 1 0 -2.5 0zM1013.75 295 a1.25 1.25 0 1 0 2.5 0 a1.25 1.25 0 1 0 -2.5 0zM903.75 295 a1.25 1.25 0 1 0 2.5 0 a1.25 1.25 0 1 0 -2.5 0zM923.75 275 a1.25 1.25 0 1 0 2.5 0 a1.25 1.25 0 1 0 -2.5 0zM503.75 285 a1.25 1.25 0 1 0 2.5 0 a1.25 1.25 0 1 0 -2.5 0zM993.75 255 a1.25 1.25 0 1 0 2.5 0 a1.25 1.25 0 1 0 -2.5 0zM983.75 245 a1.25 1.25 0 1 0 2.5 0 a1.25 1.25 0 1 0 -2.5 0zM103.75 295 a1.25 1.25 0 1 0 2.5 0 a1.25 1.25 0 1 0 -2.5 0zM763.75 265 a1.25 1.25 0 1 0 2.5 0 a1.25 1.25 0 1 0 -2.5 0zM703.75 335 a1.25 1.25 0 1 0 2.5 0 a1.25 1.25 0 1 0 -2.5 0zM353.75 285 a1.25 1.25 0 1 0 2.5 0 a1.25 1.25 0 1 0 -2.5 0zM873.75 325 a1.25 1.25 0 1 0 2.5 0 a1.25 1.25 0 1 0 -2.5 0zM563.75 265 a1.25 1.25 0 1 0 2.5 0 a1.25 1.25 0 1 0 -2.5 0zM713.75 285 a1.25 1.25 0 1 0 2.5 0 a1.25 1.25 0 1 0 -2.5 0zM503.75 275 a1.25 1.25 0 1 0 2.5 0 a1.25 1.25 0 1 0 -2.5 0zM723.75 265 a1.25 1.25 0 1 0 2.5 0 a1.25 1.25 0 1 0 -2.5 0zM1293.75 255 a1.25 1.25 0 1 0 2.5 0 a1.25 1.25 0 1 0 -2.5 0zM1103.75 325 a1.25 1.25 0 1 0 2.5 0 a1.25 1.25 0 1 0 -2.5 0zM983.75 295 a1.25 1.25 0 1 0 2.5 0 a1.25 1.25 0 1 0 -2.5 0zM633.75 305 a1.25 1.25 0 1 0 2.5 0 a1.25 1.25 0 1 0 -2.5 0zM723.75 315 a1.25 1.25 0 1 0 2.5 0 a1.25 1.25 0 1 0 -2.5 0zM463.75 265 a1.25 1.25 0 1 0 2.5 0 a1.25 1.25 0 1 0 -2.5 0zM703.75 285 a1.25 1.25 0 1 0 2.5 0 a1.25 1.25 0 1 0 -2.5 0zM853.75 295 a1.25 1.25 0 1 0 2.5 0 a1.25 1.25 0 1 0 -2.5 0zM1023.75 245 a1.25 1.25 0 1 0 2.5 0 a1.25 1.25 0 1 0 -2.5 0zM1143.75 285 a1.25 1.25 0 1 0 2.5 0 a1.25 1.25 0 1 0 -2.5 0z" fill="black"></path>
            <path d="M1163.75 235 a1.25 1.25 0 1 0 2.5 0 a1.25 1.25 0 1 0 -2.5 0zM293.75 265 a1.25 1.25 0 1 0 2.5 0 a1.25 1.25 0 1 0 -2.5 0zM1423.75 215 a1.25 1.25 0 1 0 2.5 0 a1.25 1.25 0 1 0 -2.5 0zM1213.75 195 a1.25 1.25 0 1 0 2.5 0 a1.25 1.25 0 1 0 -2.5 0zM983.75 235 a1.25 1.25 0 1 0 2.5 0 a1.25 1.25 0 1 0 -2.5 0zM903.75 195 a1.25 1.25 0 1 0 2.5 0 a1.25 1.25 0 1 0 -2.5 0zM663.75 255 a1.25 1.25 0 1 0 2.5 0 a1.25 1.25 0 1 0 -2.5 0zM853.75 235 a1.25 1.25 0 1 0 2.5 0 a1.25 1.25 0 1 0 -2.5 0zM783.75 255 a1.25 1.25 0 1 0 2.5 0 a1.25 1.25 0 1 0 -2.5 0zM63.75 265 a1.25 1.25 0 1 0 2.5 0 a1.25 1.25 0 1 0 -2.5 0zM813.75 205 a1.25 1.25 0 1 0 2.5 0 a1.25 1.25 0 1 0 -2.5 0zM993.75 225 a1.25 1.25 0 1 0 2.5 0 a1.25 1.25 0 1 0 -2.5 0zM623.75 225 a1.25 1.25 0 1 0 2.5 0 a1.25 1.25 0 1 0 -2.5 0zM623.75 215 a1.25 1.25 0 1 0 2.5 0 a1.25 1.25 0 1 0 -2.5 0zM503.75 245 a1.25 1.25 0 1 0 2.5 0 a1.25 1.25 0 1 0 -2.5 0zM1013.75 245 a1.25 1.25 0 1 0 2.5 0 a1.25 1.25 0 1 0 -2.5 0zM1103.75 215 a1.25 1.25 0 1 0 2.5 0 a1.25 1.25 0 1 0 -2.5 0zM1423.75 225 a1.25 1.25 0 1 0 2.5 0 a1.25 1.25 0 1 0 -2.5 0zM823.75 255 a1.25 1.25 0 1 0 2.5 0 a1.25 1.25 0 1 0 -2.5 0zM463.75 225 a1.25 1.25 0 1 0 2.5 0 a1.25 1.25 0 1 0 -2.5 0zM923.75 235 a1.25 1.25 0 1 0 2.5 0 a1.25 1.25 0 1 0 -2.5 0zM533.75 235 a1.25 1.25 0 1 0 2.5 0 a1.25 1.25 0 1 0 -2.5 0zM703.75 225 a1.25 1.25 0 1 0 2.5 0 a1.25 1.25 0 1 0 -2.5 0zM793.75 245 a1.25 1.25 0 1 0 2.5 0 a1.25 1.25 0 1 0 -2.5 0zM483.75 245 a1.25 1.25 0 1 0 2.5 0 a1.25 1.25 0 1 0 -2.5 0zM903.75 235 a1.25 1.25 0 1 0 2.5 0 a1.25 1.25 0 1 0 -2.5 0zM713.75 235 a1.25 1.25 0 1 0 2.5 0 a1.25 1.25 0 1 0 -2.5 0zM953.75 225 a1.25 1.25 0 1 0 2.5 0 a1.25 1.25 0 1 0 -2.5 0zM1093.75 195 a1.25 1.25 0 1 0 2.5 0 a1.25 1.25 0 1 0 -2.5 0zM943.75 225 a1.25 1.25 0 1 0 2.5 0 a1.25 1.25 0 1 0 -2.5 0z" fill="black"></path>
            <path d="M433.75 305 a1.25 1.25 0 1 0 2.5 0 a1.25 1.25 0 1 0 -2.5 0zM293.75 315 a1.25 1.25 0 1 0 2.5 0 a1.25 1.25 0 1 0 -2.5 0zM323.75 305 a1.25 1.25 0 1 0 2.5 0 a1.25 1.25 0 1 0 -2.5 0zM383.75 295 a1.25 1.25 0 1 0 2.5 0 a1.25 1.25 0 1 0 -2.5 0zM83.75 305 a1.25 1.25 0 1 0 2.5 0 a1.25 1.25 0 1 0 -2.5 0zM133.75 305 a1.25 1.25 0 1 0 2.5 0 a1.25 1.25 0 1 0 -2.5 0zM423.75 305 a1.25 1.25 0 1 0 2.5 0 a1.25 1.25 0 1 0 -2.5 0zM373.75 305 a1.25 1.25 0 1 0 2.5 0 a1.25 1.25 0 1 0 -2.5 0zM413.75 305 a1.25 1.25 0 1 0 2.5 0 a1.25 1.25 0 1 0 -2.5 0zM113.75 305 a1.25 1.25 0 1 0 2.5 0 a1.25 1.25 0 1 0 -2.5 0zM273.75 315 a1.25 1.25 0 1 0 2.5 0 a1.25 1.25 0 1 0 -2.5 0zM163.75 305 a1.25 1.25 0 1 0 2.5 0 a1.25 1.25 0 1 0 -2.5 0z" fill="black"></path>
            <path d="M33.75 265 a1.25 1.25 0 1 0 2.5 0 a1.25 1.25 0 1 0 -2.5 0z" fill="black"></path>
            <path d="M513.75 335 a1.25 1.25 0 1 0 2.5 0 a1.25 1.25 0 1 0 -2.5 0zM163.75 325 a1.25 1.25 0 1 0 2.5 0 a1.25 1.25 0 1 0 -2.5 0zM213.75 315 a1.25 1.25 0 1 0 2.5 0 a1.25 1.25 0 1 0 -2.5 0zM533.75 315 a1.25 1.25 0 1 0 2.5 0 a1.25 1.25 0 1 0 -2.5 0zM243.75 315 a1.25 1.25 0 1 0 2.5 0 a1.25 1.25 0 1 0 -2.5 0zM393.75 325 a1.25 1.25 0 1 0 2.5 0 a1.25 1.25 0 1 0 -2.5 0zM453.75 335 a1.25 1.25 0 1 0 2.5 0 a1.25 1.25 0 1 0 -2.5 0zM443.75 345 a1.25 1.25 0 1 0 2.5 0 a1.25 1.25 0 1 0 -2.5 0zM453.75 315 a1.25 1.25 0 1 0 2.5 0 a1.25 1.25 0 1 0 -2.5 0zM203.75 315 a1.25 1.25 0 1 0 2.5 0 a1.25 1.25 0 1 0 -2.5 0zM143.75 325 a1.25 1.25 0 1 0 2.5 0 a1.25 1.25 0 1 0 -2.5 0zM543.75 325 a1.25 1.25 0 1 0 2.5 0 a1.25 1.25 0 1 0 -2.5 0zM543.75 345 a1.25 1.25 0 1 0 2.5 0 a1.25 1.25 0 1 0 -2.5 0zM323.75 315 a1.25 1.25 0 1 0 2.5 0 a1.25 1.25 0 1 0 -2.5 0z" fill="black"></path>
            <path d="M173.75 235 a1.25 1.25 0 1 0 2.5 0 a1.25 1.25 0 1 0 -2.5 0zM173.75 255 a1.25 1.25 0 1 0 2.5 0 a1.25 1.25 0 1 0 -2.5 0zM153.75 255 a1.25 1.25 0 1 0 2.5 0 a1.25 1.25 0 1 0 -2.5 0zM123.75 255 a1.25 1.25 0 1 0 2.5 0 a1.25 1.25 0 1 0 -2.5 0zM203.75 245 a1.25 1.25 0 1 0 2.5 0 a1.25 1.25 0 1 0 -2.5 0z" fill="black"></path>
            <path d="M403.75 325 a1.25 1.25 0 1 0 2.5 0 a1.25 1.25 0 1 0 -2.5 0zM313.75 345 a1.25 1.25 0 1 0 2.5 0 a1.25 1.25 0 1 0 -2.5 0zM183.75 335 a1.25 1.25 0 1 0 2.5 0 a1.25 1.25 0 1 0 -2.5 0zM413.75 345 a1.25 1.25 0 1 0 2.5 0 a1.25 1.25 0 1 0 -2.5 0zM343.75 355 a1.25 1.25 0 1 0 2.5 0 a1.25 1.25 0 1 0 -2.5 0zM13.75 315 a1.25 1.25 0 1 0 2.5 0 a1.25 1.25 0 1 0 -2.5 0zM383.75 355 a1.25 1.25 0 1 0 2.5 0 a1.25 1.25 0 1 0 -2.5 0zM103.75 325 a1.25 1.25 0 1 0 2.5 0 a1.25 1.25 0 1 0 -2.5 0zM403.75 335 a1.25 1.25 0 1 0 2.5 0 a1.25 1.25 0 1 0 -2.5 0zM213.75 345 a1.25 1.25 0 1 0 2.5 0 a1.25 1.25 0 1 0 -2.5 0zM343.75 345 a1.25 1.25 0 1 0 2.5 0 a1.25 1.25 0 1 0 -2.5 0z" fill="black"></path>
            <path d="M523.75 205 a1.25 1.25 0 1 0 2.5 0 a1.25 1.25 0 1 0 -2.5 0zM213.75 215 a1.25 1.25 0 1 0 2.5 0 a1.25 1.25 0 1 0 -2.5 0zM423.75 225 a1.25 1.25 0 1 0 2.5 0 a1.25 1.25 0 1 0 -2.5 0zM523.75 215 a1.25 1.25 0 1 0 2.5 0 a1.25 1.25 0 1 0 -2.5 0zM223.75 235 a1.25 1.25 0 1 0 2.5 0 a1.25 1.25 0 1 0 -2.5 0zM293.75 205 a1.25 1.25 0 1 0 2.5 0 a1.25 1.25 0 1 0 -2.5 0zM443.75 215 a1.25 1.25 0 1 0 2.5 0 a1.25 1.25 0 1 0 -2.5 0zM483.75 205 a1.25 1.25 0 1 0 2.5 0 a1.25 1.25 0 1 0 -2.5 0zM423.75 215 a1.25 1.25 0 1 0 2.5 0 a1.25 1.25 0 1 0 -2.5 0zM413.75 225 a1.25 1.25 0 1 0 2.5 0 a1.25 1.25 0 1 0 -2.5 0zM373.75 195 a1.25 1.25 0 1 0 2.5 0 a1.25 1.25 0 1 0 -2.5 0zM203.75 235 a1.25 1.25 0 1 0 2.5 0 a1.25 1.25 0 1 0 -2.5 0zM233.75 215 a1.25 1.25 0 1 0 2.5 0 a1.25 1.25 0 1 0 -2.5 0zM303.75 225 a1.25 1.25 0 1 0 2.5 0 a1.25 1.25 0 1 0 -2.5 0z" fill="black"></path>
            <path d="M1363.75 395 a1.25 1.25 0 1 0 2.5 0 a1.25 1.25 0 1 0 -2.5 0zM1423.75 355 a1.25 1.25 0 1 0 2.5 0 a1.25 1.25 0 1 0 -2.5 0zM613.75 375 a1.25 1.25 0 1 0 2.5 0 a1.25 1.25 0 1 0 -2.5 0zM753.75 375 a1.25 1.25 0 1 0 2.5 0 a1.25 1.25 0 1 0 -2.5 0zM263.75 355 a1.25 1.25 0 1 0 2.5 0 a1.25 1.25 0 1 0 -2.5 0zM503.75 375 a1.25 1.25 0 1 0 2.5 0 a1.25 1.25 0 1 0 -2.5 0zM1423.75 405 a1.25 1.25 0 1 0 2.5 0 a1.25 1.25 0 1 0 -2.5 0zM703.75 345 a1.25 1.25 0 1 0 2.5 0 a1.25 1.25 0 1 0 -2.5 0zM613.75 335 a1.25 1.25 0 1 0 2.5 0 a1.25 1.25 0 1 0 -2.5 0zM803.75 345 a1.25 1.25 0 1 0 2.5 0 a1.25 1.25 0 1 0 -2.5 0zM503.75 345 a1.25 1.25 0 1 0 2.5 0 a1.25 1.25 0 1 0 -2.5 0zM1253.75 425 a1.25 1.25 0 1 0 2.5 0 a1.25 1.25 0 1 0 -2.5 0zM1083.75 405 a1.25 1.25 0 1 0 2.5 0 a1.25 1.25 0 1 0 -2.5 0zM1153.75 355 a1.25 1.25 0 1 0 2.5 0 a1.25 1.25 0 1 0 -2.5 0zM943.75 345 a1.25 1.25 0 1 0 2.5 0 a1.25 1.25 0 1 0 -2.5 0zM1423.75 375 a1.25 1.25 0 1 0 2.5 0 a1.25 1.25 0 1 0 -2.5 0zM673.75 345 a1.25 1.25 0 1 0 2.5 0 a1.25 1.25 0 1 0 -2.5 0zM1323.75 345 a1.25 1.25 0 1 0 2.5 0 a1.25 1.25 0 1 0 -2.5 0zM583.75 375 a1.25 1.25 0 1 0 2.5 0 a1.25 1.25 0 1 0 -2.5 0zM1263.75 405 a1.25 1.25 0 1 0 2.5 0 a1.25 1.25 0 1 0 -2.5 0zM553.75 375 a1.25 1.25 0 1 0 2.5 0 a1.25 1.25 0 1 0 -2.5 0zM1373.75 405 a1.25 1.25 0 1 0 2.5 0 a1.25 1.25 0 1 0 -2.5 0zM1163.75 385 a1.25 1.25 0 1 0 2.5 0 a1.25 1.25 0 1 0 -2.5 0zM1283.75 385 a1.25 1.25 0 1 0 2.5 0 a1.25 1.25 0 1 0 -2.5 0zM663.75 345 a1.25 1.25 0 1 0 2.5 0 a1.25 1.25 0 1 0 -2.5 0zM1423.75 365 a1.25 1.25 0 1 0 2.5 0 a1.25 1.25 0 1 0 -2.5 0zM493.75 365 a1.25 1.25 0 1 0 2.5 0 a1.25 1.25 0 1 0 -2.5 0zM973.75 335 a1.25 1.25 0 1 0 2.5 0 a1.25 1.25 0 1 0 -2.5 0zM1083.75 365 a1.25 1.25 0 1 0 2.5 0 a1.25 1.25 0 1 0 -2.5 0zM1193.75 365 a1.25 1.25 0 1 0 2.5 0 a1.25 1.25 0 1 0 -2.5 0zM863.75 345 a1.25 1.25 0 1 0 2.5 0 a1.25 1.25 0 1 0 -2.5 0zM603.75 335 a1.25 1.25 0 1 0 2.5 0 a1.25 1.25 0 1 0 -2.5 0zM1153.75 385 a1.25 1.25 0 1 0 2.5 0 a1.25 1.25 0 1 0 -2.5 0zM1343.75 405 a1.25 1.25 0 1 0 2.5 0 a1.25 1.25 0 1 0 -2.5 0zM1243.75 395 a1.25 1.25 0 1 0 2.5 0 a1.25 1.25 0 1 0 -2.5 0z" fill="black"></path>
            <path d="M163.75 205 a1.25 1.25 0 1 0 2.5 0 a1.25 1.25 0 1 0 -2.5 0zM163.75 215 a1.25 1.25 0 1 0 2.5 0 a1.25 1.25 0 1 0 -2.5 0zM123.75 215 a1.25 1.25 0 1 0 2.5 0 a1.25 1.25 0 1 0 -2.5 0zM93.75 225 a1.25 1.25 0 1 0 2.5 0 a1.25 1.25 0 1 0 -2.5 0zM153.75 215 a1.25 1.25 0 1 0 2.5 0 a1.25 1.25 0 1 0 -2.5 0z" fill="black"></path>
            <path d="M303.75 375 a1.25 1.25 0 1 0 2.5 0 a1.25 1.25 0 1 0 -2.5 0zM243.75 375 a1.25 1.25 0 1 0 2.5 0 a1.25 1.25 0 1 0 -2.5 0zM223.75 375 a1.25 1.25 0 1 0 2.5 0 a1.25 1.25 0 1 0 -2.5 0zM43.75 355 a1.25 1.25 0 1 0 2.5 0 a1.25 1.25 0 1 0 -2.5 0zM323.75 385 a1.25 1.25 0 1 0 2.5 0 a1.25 1.25 0 1 0 -2.5 0zM273.75 385 a1.25 1.25 0 1 0 2.5 0 a1.25 1.25 0 1 0 -2.5 0z" fill="black"></path>
            <path d="M1373.75 195 a1.25 1.25 0 1 0 2.5 0 a1.25 1.25 0 1 0 -2.5 0zM353.75 195 a1.25 1.25 0 1 0 2.5 0 a1.25 1.25 0 1 0 -2.5 0zM1313.75 145 a1.25 1.25 0 1 0 2.5 0 a1.25 1.25 0 1 0 -2.5 0zM243.75 185 a1.25 1.25 0 1 0 2.5 0 a1.25 1.25 0 1 0 -2.5 0zM1093.75 145 a1.25 1.25 0 1 0 2.5 0 a1.25 1.25 0 1 0 -2.5 0zM1053.75 195 a1.25 1.25 0 1 0 2.5 0 a1.25 1.25 0 1 0 -2.5 0zM833.75 195 a1.25 1.25 0 1 0 2.5 0 a1.25 1.25 0 1 0 -2.5 0zM443.75 185 a1.25 1.25 0 1 0 2.5 0 a1.25 1.25 0 1 0 -2.5 0zM1183.75 185 a1.25 1.25 0 1 0 2.5 0 a1.25 1.25 0 1 0 -2.5 0zM713.75 195 a1.25 1.25 0 1 0 2.5 0 a1.25 1.25 0 1 0 -2.5 0zM1093.75 135 a1.25 1.25 0 1 0 2.5 0 a1.25 1.25 0 1 0 -2.5 0zM143.75 195 a1.25 1.25 0 1 0 2.5 0 a1.25 1.25 0 1 0 -2.5 0zM343.75 195 a1.25 1.25 0 1 0 2.5 0 a1.25 1.25 0 1 0 -2.5 0zM773.75 165 a1.25 1.25 0 1 0 2.5 0 a1.25 1.25 0 1 0 -2.5 0zM953.75 145 a1.25 1.25 0 1 0 2.5 0 a1.25 1.25 0 1 0 -2.5 0zM223.75 185 a1.25 1.25 0 1 0 2.5 0 a1.25 1.25 0 1 0 -2.5 0zM1423.75 175 a1.25 1.25 0 1 0 2.5 0 a1.25 1.25 0 1 0 -2.5 0zM1143.75 165 a1.25 1.25 0 1 0 2.5 0 a1.25 1.25 0 1 0 -2.5 0zM443.75 175 a1.25 1.25 0 1 0 2.5 0 a1.25 1.25 0 1 0 -2.5 0zM893.75 195 a1.25 1.25 0 1 0 2.5 0 a1.25 1.25 0 1 0 -2.5 0zM703.75 195 a1.25 1.25 0 1 0 2.5 0 a1.25 1.25 0 1 0 -2.5 0zM193.75 185 a1.25 1.25 0 1 0 2.5 0 a1.25 1.25 0 1 0 -2.5 0zM1073.75 165 a1.25 1.25 0 1 0 2.5 0 a1.25 1.25 0 1 0 -2.5 0zM603.75 215 a1.25 1.25 0 1 0 2.5 0 a1.25 1.25 0 1 0 -2.5 0zM1273.75 175 a1.25 1.25 0 1 0 2.5 0 a1.25 1.25 0 1 0 -2.5 0zM493.75 185 a1.25 1.25 0 1 0 2.5 0 a1.25 1.25 0 1 0 -2.5 0zM113.75 215 a1.25 1.25 0 1 0 2.5 0 a1.25 1.25 0 1 0 -2.5 0zM1423.75 205 a1.25 1.25 0 1 0 2.5 0 a1.25 1.25 0 1 0 -2.5 0zM613.75 175 a1.25 1.25 0 1 0 2.5 0 a1.25 1.25 0 1 0 -2.5 0zM1063.75 165 a1.25 1.25 0 1 0 2.5 0 a1.25 1.25 0 1 0 -2.5 0zM513.75 175 a1.25 1.25 0 1 0 2.5 0 a1.25 1.25 0 1 0 -2.5 0zM1053.75 165 a1.25 1.25 0 1 0 2.5 0 a1.25 1.25 0 1 0 -2.5 0zM1013.75 195 a1.25 1.25 0 1 0 2.5 0 a1.25 1.25 0 1 0 -2.5 0zM1323.75 205 a1.25 1.25 0 1 0 2.5 0 a1.25 1.25 0 1 0 -2.5 0zM343.75 205 a1.25 1.25 0 1 0 2.5 0 a1.25 1.25 0 1 0 -2.5 0z" fill="black"></path>
            <path d="M733.75 385 a1.25 1.25 0 1 0 2.5 0 a1.25 1.25 0 1 0 -2.5 0zM443.75 415 a1.25 1.25 0 1 0 2.5 0 a1.25 1.25 0 1 0 -2.5 0zM513.75 385 a1.25 1.25 0 1 0 2.5 0 a1.25 1.25 0 1 0 -2.5 0zM203.75 375 a1.25 1.25 0 1 0 2.5 0 a1.25 1.25 0 1 0 -2.5 0zM73.75 365 a1.25 1.25 0 1 0 2.5 0 a1.25 1.25 0 1 0 -2.5 0zM593.75 395 a1.25 1.25 0 1 0 2.5 0 a1.25 1.25 0 1 0 -2.5 0zM93.75 365 a1.25 1.25 0 1 0 2.5 0 a1.25 1.25 0 1 0 -2.5 0zM263.75 385 a1.25 1.25 0 1 0 2.5 0 a1.25 1.25 0 1 0 -2.5 0zM253.75 395 a1.25 1.25 0 1 0 2.5 0 a1.25 1.25 0 1 0 -2.5 0zM833.75 375 a1.25 1.25 0 1 0 2.5 0 a1.25 1.25 0 1 0 -2.5 0zM503.75 395 a1.25 1.25 0 1 0 2.5 0 a1.25 1.25 0 1 0 -2.5 0zM673.75 405 a1.25 1.25 0 1 0 2.5 0 a1.25 1.25 0 1 0 -2.5 0zM53.75 365 a1.25 1.25 0 1 0 2.5 0 a1.25 1.25 0 1 0 -2.5 0zM713.75 425 a1.25 1.25 0 1 0 2.5 0 a1.25 1.25 0 1 0 -2.5 0zM693.75 395 a1.25 1.25 0 1 0 2.5 0 a1.25 1.25 0 1 0 -2.5 0zM373.75 415 a1.25 1.25 0 1 0 2.5 0 a1.25 1.25 0 1 0 -2.5 0zM323.75 395 a1.25 1.25 0 1 0 2.5 0 a1.25 1.25 0 1 0 -2.5 0zM193.75 375 a1.25 1.25 0 1 0 2.5 0 a1.25 1.25 0 1 0 -2.5 0zM563.75 415 a1.25 1.25 0 1 0 2.5 0 a1.25 1.25 0 1 0 -2.5 0z" fill="black"></path>
            <path d="M663.75 165 a1.25 1.25 0 1 0 2.5 0 a1.25 1.25 0 1 0 -2.5 0zM423.75 145 a1.25 1.25 0 1 0 2.5 0 a1.25 1.25 0 1 0 -2.5 0zM133.75 195 a1.25 1.25 0 1 0 2.5 0 a1.25 1.25 0 1 0 -2.5 0zM513.75 145 a1.25 1.25 0 1 0 2.5 0 a1.25 1.25 0 1 0 -2.5 0zM743.75 135 a1.25 1.25 0 1 0 2.5 0 a1.25 1.25 0 1 0 -2.5 0zM533.75 165 a1.25 1.25 0 1 0 2.5 0 a1.25 1.25 0 1 0 -2.5 0zM723.75 155 a1.25 1.25 0 1 0 2.5 0 a1.25 1.25 0 1 0 -2.5 0zM223.75 165 a1.25 1.25 0 1 0 2.5 0 a1.25 1.25 0 1 0 -2.5 0zM113.75 195 a1.25 1.25 0 1 0 2.5 0 a1.25 1.25 0 1 0 -2.5 0zM583.75 135 a1.25 1.25 0 1 0 2.5 0 a1.25 1.25 0 1 0 -2.5 0zM483.75 145 a1.25 1.25 0 1 0 2.5 0 a1.25 1.25 0 1 0 -2.5 0zM283.75 175 a1.25 1.25 0 1 0 2.5 0 a1.25 1.25 0 1 0 -2.5 0zM383.75 165 a1.25 1.25 0 1 0 2.5 0 a1.25 1.25 0 1 0 -2.5 0zM613.75 165 a1.25 1.25 0 1 0 2.5 0 a1.25 1.25 0 1 0 -2.5 0zM603.75 175 a1.25 1.25 0 1 0 2.5 0 a1.25 1.25 0 1 0 -2.5 0zM563.75 165 a1.25 1.25 0 1 0 2.5 0 a1.25 1.25 0 1 0 -2.5 0zM593.75 165 a1.25 1.25 0 1 0 2.5 0 a1.25 1.25 0 1 0 -2.5 0zM303.75 175 a1.25 1.25 0 1 0 2.5 0 a1.25 1.25 0 1 0 -2.5 0z" fill="black"></path>
            <path d="M303.75 415 a1.25 1.25 0 1 0 2.5 0 a1.25 1.25 0 1 0 -2.5 0zM83.75 385 a1.25 1.25 0 1 0 2.5 0 a1.25 1.25 0 1 0 -2.5 0zM243.75 395 a1.25 1.25 0 1 0 2.5 0 a1.25 1.25 0 1 0 -2.5 0zM233.75 395 a1.25 1.25 0 1 0 2.5 0 a1.25 1.25 0 1 0 -2.5 0zM73.75 385 a1.25 1.25 0 1 0 2.5 0 a1.25 1.25 0 1 0 -2.5 0zM213.75 395 a1.25 1.25 0 1 0 2.5 0 a1.25 1.25 0 1 0 -2.5 0z" fill="black"></path>
            <path d="M1353.75 145 a1.25 1.25 0 1 0 2.5 0 a1.25 1.25 0 1 0 -2.5 0zM973.75 135 a1.25 1.25 0 1 0 2.5 0 a1.25 1.25 0 1 0 -2.5 0zM563.75 135 a1.25 1.25 0 1 0 2.5 0 a1.25 1.25 0 1 0 -2.5 0zM243.75 155 a1.25 1.25 0 1 0 2.5 0 a1.25 1.25 0 1 0 -2.5 0zM933.75 135 a1.25 1.25 0 1 0 2.5 0 a1.25 1.25 0 1 0 -2.5 0zM1363.75 85 a1.25 1.25 0 1 0 2.5 0 a1.25 1.25 0 1 0 -2.5 0zM773.75 105 a1.25 1.25 0 1 0 2.5 0 a1.25 1.25 0 1 0 -2.5 0zM1383.75 105 a1.25 1.25 0 1 0 2.5 0 a1.25 1.25 0 1 0 -2.5 0zM1173.75 135 a1.25 1.25 0 1 0 2.5 0 a1.25 1.25 0 1 0 -2.5 0zM923.75 145 a1.25 1.25 0 1 0 2.5 0 a1.25 1.25 0 1 0 -2.5 0zM1263.75 135 a1.25 1.25 0 1 0 2.5 0 a1.25 1.25 0 1 0 -2.5 0zM603.75 115 a1.25 1.25 0 1 0 2.5 0 a1.25 1.25 0 1 0 -2.5 0zM1423.75 85 a1.25 1.25 0 1 0 2.5 0 a1.25 1.25 0 1 0 -2.5 0zM483.75 115 a1.25 1.25 0 1 0 2.5 0 a1.25 1.25 0 1 0 -2.5 0zM1083.75 105 a1.25 1.25 0 1 0 2.5 0 a1.25 1.25 0 1 0 -2.5 0zM893.75 145 a1.25 1.25 0 1 0 2.5 0 a1.25 1.25 0 1 0 -2.5 0zM1183.75 115 a1.25 1.25 0 1 0 2.5 0 a1.25 1.25 0 1 0 -2.5 0zM473.75 145 a1.25 1.25 0 1 0 2.5 0 a1.25 1.25 0 1 0 -2.5 0zM603.75 105 a1.25 1.25 0 1 0 2.5 0 a1.25 1.25 0 1 0 -2.5 0zM383.75 135 a1.25 1.25 0 1 0 2.5 0 a1.25 1.25 0 1 0 -2.5 0zM1043.75 135 a1.25 1.25 0 1 0 2.5 0 a1.25 1.25 0 1 0 -2.5 0zM1303.75 105 a1.25 1.25 0 1 0 2.5 0 a1.25 1.25 0 1 0 -2.5 0zM1423.75 115 a1.25 1.25 0 1 0 2.5 0 a1.25 1.25 0 1 0 -2.5 0zM1273.75 105 a1.25 1.25 0 1 0 2.5 0 a1.25 1.25 0 1 0 -2.5 0zM1073.75 125 a1.25 1.25 0 1 0 2.5 0 a1.25 1.25 0 1 0 -2.5 0zM583.75 95 a1.25 1.25 0 1 0 2.5 0 a1.25 1.25 0 1 0 -2.5 0zM1103.75 115 a1.25 1.25 0 1 0 2.5 0 a1.25 1.25 0 1 0 -2.5 0zM723.75 135 a1.25 1.25 0 1 0 2.5 0 a1.25 1.25 0 1 0 -2.5 0zM723.75 115 a1.25 1.25 0 1 0 2.5 0 a1.25 1.25 0 1 0 -2.5 0zM833.75 125 a1.25 1.25 0 1 0 2.5 0 a1.25 1.25 0 1 0 -2.5 0zM1423.75 145 a1.25 1.25 0 1 0 2.5 0 a1.25 1.25 0 1 0 -2.5 0zM423.75 125 a1.25 1.25 0 1 0 2.5 0 a1.25 1.25 0 1 0 -2.5 0zM1313.75 125 a1.25 1.25 0 1 0 2.5 0 a1.25 1.25 0 1 0 -2.5 0zM1423.75 165 a1.25 1.25 0 1 0 2.5 0 a1.25 1.25 0 1 0 -2.5 0zM813.75 145 a1.25 1.25 0 1 0 2.5 0 a1.25 1.25 0 1 0 -2.5 0z" fill="black"></path>
            <path d="M643.75 435 a1.25 1.25 0 1 0 2.5 0 a1.25 1.25 0 1 0 -2.5 0zM683.75 445 a1.25 1.25 0 1 0 2.5 0 a1.25 1.25 0 1 0 -2.5 0zM723.75 435 a1.25 1.25 0 1 0 2.5 0 a1.25 1.25 0 1 0 -2.5 0zM163.75 395 a1.25 1.25 0 1 0 2.5 0 a1.25 1.25 0 1 0 -2.5 0zM353.75 415 a1.25 1.25 0 1 0 2.5 0 a1.25 1.25 0 1 0 -2.5 0zM533.75 415 a1.25 1.25 0 1 0 2.5 0 a1.25 1.25 0 1 0 -2.5 0zM453.75 435 a1.25 1.25 0 1 0 2.5 0 a1.25 1.25 0 1 0 -2.5 0zM443.75 435 a1.25 1.25 0 1 0 2.5 0 a1.25 1.25 0 1 0 -2.5 0zM103.75 395 a1.25 1.25 0 1 0 2.5 0 a1.25 1.25 0 1 0 -2.5 0zM533.75 445 a1.25 1.25 0 1 0 2.5 0 a1.25 1.25 0 1 0 -2.5 0zM553.75 445 a1.25 1.25 0 1 0 2.5 0 a1.25 1.25 0 1 0 -2.5 0zM633.75 445 a1.25 1.25 0 1 0 2.5 0 a1.25 1.25 0 1 0 -2.5 0zM423.75 435 a1.25 1.25 0 1 0 2.5 0 a1.25 1.25 0 1 0 -2.5 0zM503.75 415 a1.25 1.25 0 1 0 2.5 0 a1.25 1.25 0 1 0 -2.5 0zM603.75 435 a1.25 1.25 0 1 0 2.5 0 a1.25 1.25 0 1 0 -2.5 0zM323.75 415 a1.25 1.25 0 1 0 2.5 0 a1.25 1.25 0 1 0 -2.5 0zM523.75 435 a1.25 1.25 0 1 0 2.5 0 a1.25 1.25 0 1 0 -2.5 0z" fill="black"></path>
            <path d="M1383.75 75 a1.25 1.25 0 1 0 2.5 0 a1.25 1.25 0 1 0 -2.5 0zM443.75 85 a1.25 1.25 0 1 0 2.5 0 a1.25 1.25 0 1 0 -2.5 0zM63.75 185 a1.25 1.25 0 1 0 2.5 0 a1.25 1.25 0 1 0 -2.5 0zM153.75 155 a1.25 1.25 0 1 0 2.5 0 a1.25 1.25 0 1 0 -2.5 0zM1423.75 65 a1.25 1.25 0 1 0 2.5 0 a1.25 1.25 0 1 0 -2.5 0zM973.75 75 a1.25 1.25 0 1 0 2.5 0 a1.25 1.25 0 1 0 -2.5 0zM543.75 95 a1.25 1.25 0 1 0 2.5 0 a1.25 1.25 0 1 0 -2.5 0zM663.75 115 a1.25 1.25 0 1 0 2.5 0 a1.25 1.25 0 1 0 -2.5 0zM1213.75 55 a1.25 1.25 0 1 0 2.5 0 a1.25 1.25 0 1 0 -2.5 0zM653.75 115 a1.25 1.25 0 1 0 2.5 0 a1.25 1.25 0 1 0 -2.5 0zM623.75 115 a1.25 1.25 0 1 0 2.5 0 a1.25 1.25 0 1 0 -2.5 0zM423.75 95 a1.25 1.25 0 1 0 2.5 0 a1.25 1.25 0 1 0 -2.5 0zM403.75 95 a1.25 1.25 0 1 0 2.5 0 a1.25 1.25 0 1 0 -2.5 0zM1223.75 65 a1.25 1.25 0 1 0 2.5 0 a1.25 1.25 0 1 0 -2.5 0zM753.75 105 a1.25 1.25 0 1 0 2.5 0 a1.25 1.25 0 1 0 -2.5 0zM1083.75 85 a1.25 1.25 0 1 0 2.5 0 a1.25 1.25 0 1 0 -2.5 0zM43.75 185 a1.25 1.25 0 1 0 2.5 0 a1.25 1.25 0 1 0 -2.5 0zM1163.75 65 a1.25 1.25 0 1 0 2.5 0 a1.25 1.25 0 1 0 -2.5 0zM673.75 95 a1.25 1.25 0 1 0 2.5 0 a1.25 1.25 0 1 0 -2.5 0zM1283.75 55 a1.25 1.25 0 1 0 2.5 0 a1.25 1.25 0 1 0 -2.5 0zM613.75 95 a1.25 1.25 0 1 0 2.5 0 a1.25 1.25 0 1 0 -2.5 0zM1223.75 85 a1.25 1.25 0 1 0 2.5 0 a1.25 1.25 0 1 0 -2.5 0zM1323.75 55 a1.25 1.25 0 1 0 2.5 0 a1.25 1.25 0 1 0 -2.5 0zM1053.75 85 a1.25 1.25 0 1 0 2.5 0 a1.25 1.25 0 1 0 -2.5 0zM1213.75 65 a1.25 1.25 0 1 0 2.5 0 a1.25 1.25 0 1 0 -2.5 0zM1023.75 75 a1.25 1.25 0 1 0 2.5 0 a1.25 1.25 0 1 0 -2.5 0zM893.75 45 a1.25 1.25 0 1 0 2.5 0 a1.25 1.25 0 1 0 -2.5 0zM1003.75 75 a1.25 1.25 0 1 0 2.5 0 a1.25 1.25 0 1 0 -2.5 0zM373.75 105 a1.25 1.25 0 1 0 2.5 0 a1.25 1.25 0 1 0 -2.5 0zM1113.75 85 a1.25 1.25 0 1 0 2.5 0 a1.25 1.25 0 1 0 -2.5 0zM1083.75 75 a1.25 1.25 0 1 0 2.5 0 a1.25 1.25 0 1 0 -2.5 0zM1153.75 75 a1.25 1.25 0 1 0 2.5 0 a1.25 1.25 0 1 0 -2.5 0zM993.75 75 a1.25 1.25 0 1 0 2.5 0 a1.25 1.25 0 1 0 -2.5 0zM1143.75 75 a1.25 1.25 0 1 0 2.5 0 a1.25 1.25 0 1 0 -2.5 0zM1043.75 85 a1.25 1.25 0 1 0 2.5 0 a1.25 1.25 0 1 0 -2.5 0zM533.75 95 a1.25 1.25 0 1 0 2.5 0 a1.25 1.25 0 1 0 -2.5 0z" fill="black"></path>
            <path d="M713.75 455 a1.25 1.25 0 1 0 2.5 0 a1.25 1.25 0 1 0 -2.5 0zM203.75 425 a1.25 1.25 0 1 0 2.5 0 a1.25 1.25 0 1 0 -2.5 0zM583.75 445 a1.25 1.25 0 1 0 2.5 0 a1.25 1.25 0 1 0 -2.5 0zM443.75 455 a1.25 1.25 0 1 0 2.5 0 a1.25 1.25 0 1 0 -2.5 0zM163.75 415 a1.25 1.25 0 1 0 2.5 0 a1.25 1.25 0 1 0 -2.5 0zM413.75 435 a1.25 1.25 0 1 0 2.5 0 a1.25 1.25 0 1 0 -2.5 0zM493.75 445 a1.25 1.25 0 1 0 2.5 0 a1.25 1.25 0 1 0 -2.5 0zM623.75 445 a1.25 1.25 0 1 0 2.5 0 a1.25 1.25 0 1 0 -2.5 0zM963.75 435 a1.25 1.25 0 1 0 2.5 0 a1.25 1.25 0 1 0 -2.5 0zM393.75 455 a1.25 1.25 0 1 0 2.5 0 a1.25 1.25 0 1 0 -2.5 0zM613.75 445 a1.25 1.25 0 1 0 2.5 0 a1.25 1.25 0 1 0 -2.5 0zM193.75 425 a1.25 1.25 0 1 0 2.5 0 a1.25 1.25 0 1 0 -2.5 0zM703.75 445 a1.25 1.25 0 1 0 2.5 0 a1.25 1.25 0 1 0 -2.5 0z" fill="black"></path>
            <path d="M703.75 85 a1.25 1.25 0 1 0 2.5 0 a1.25 1.25 0 1 0 -2.5 0zM143.75 135 a1.25 1.25 0 1 0 2.5 0 a1.25 1.25 0 1 0 -2.5 0zM103.75 155 a1.25 1.25 0 1 0 2.5 0 a1.25 1.25 0 1 0 -2.5 0zM273.75 105 a1.25 1.25 0 1 0 2.5 0 a1.25 1.25 0 1 0 -2.5 0zM303.75 115 a1.25 1.25 0 1 0 2.5 0 a1.25 1.25 0 1 0 -2.5 0zM673.75 85 a1.25 1.25 0 1 0 2.5 0 a1.25 1.25 0 1 0 -2.5 0zM513.75 75 a1.25 1.25 0 1 0 2.5 0 a1.25 1.25 0 1 0 -2.5 0zM263.75 105 a1.25 1.25 0 1 0 2.5 0 a1.25 1.25 0 1 0 -2.5 0zM13.75 185 a1.25 1.25 0 1 0 2.5 0 a1.25 1.25 0 1 0 -2.5 0zM123.75 155 a1.25 1.25 0 1 0 2.5 0 a1.25 1.25 0 1 0 -2.5 0zM453.75 75 a1.25 1.25 0 1 0 2.5 0 a1.25 1.25 0 1 0 -2.5 0zM683.75 75 a1.25 1.25 0 1 0 2.5 0 a1.25 1.25 0 1 0 -2.5 0zM643.75 85 a1.25 1.25 0 1 0 2.5 0 a1.25 1.25 0 1 0 -2.5 0zM633.75 85 a1.25 1.25 0 1 0 2.5 0 a1.25 1.25 0 1 0 -2.5 0zM283.75 115 a1.25 1.25 0 1 0 2.5 0 a1.25 1.25 0 1 0 -2.5 0zM183.75 125 a1.25 1.25 0 1 0 2.5 0 a1.25 1.25 0 1 0 -2.5 0zM233.75 105 a1.25 1.25 0 1 0 2.5 0 a1.25 1.25 0 1 0 -2.5 0z" fill="black"></path>
            <path d="M153.75 425 a1.25 1.25 0 1 0 2.5 0 a1.25 1.25 0 1 0 -2.5 0z" fill="black"></path>
            <path d="M163.75 135 a1.25 1.25 0 1 0 2.5 0 a1.25 1.25 0 1 0 -2.5 0zM83.75 155 a1.25 1.25 0 1 0 2.5 0 a1.25 1.25 0 1 0 -2.5 0zM43.75 155 a1.25 1.25 0 1 0 2.5 0 a1.25 1.25 0 1 0 -2.5 0zM23.75 165 a1.25 1.25 0 1 0 2.5 0 a1.25 1.25 0 1 0 -2.5 0zM133.75 135 a1.25 1.25 0 1 0 2.5 0 a1.25 1.25 0 1 0 -2.5 0z" fill="black"></path>
            <path d="M813.75 455 a1.25 1.25 0 1 0 2.5 0 a1.25 1.25 0 1 0 -2.5 0zM293.75 445 a1.25 1.25 0 1 0 2.5 0 a1.25 1.25 0 1 0 -2.5 0zM843.75 455 a1.25 1.25 0 1 0 2.5 0 a1.25 1.25 0 1 0 -2.5 0zM943.75 455 a1.25 1.25 0 1 0 2.5 0 a1.25 1.25 0 1 0 -2.5 0zM373.75 455 a1.25 1.25 0 1 0 2.5 0 a1.25 1.25 0 1 0 -2.5 0zM793.75 465 a1.25 1.25 0 1 0 2.5 0 a1.25 1.25 0 1 0 -2.5 0zM183.75 425 a1.25 1.25 0 1 0 2.5 0 a1.25 1.25 0 1 0 -2.5 0zM673.75 475 a1.25 1.25 0 1 0 2.5 0 a1.25 1.25 0 1 0 -2.5 0zM633.75 475 a1.25 1.25 0 1 0 2.5 0 a1.25 1.25 0 1 0 -2.5 0zM363.75 455 a1.25 1.25 0 1 0 2.5 0 a1.25 1.25 0 1 0 -2.5 0zM263.75 455 a1.25 1.25 0 1 0 2.5 0 a1.25 1.25 0 1 0 -2.5 0zM733.75 455 a1.25 1.25 0 1 0 2.5 0 a1.25 1.25 0 1 0 -2.5 0zM313.75 445 a1.25 1.25 0 1 0 2.5 0 a1.25 1.25 0 1 0 -2.5 0zM453.75 465 a1.25 1.25 0 1 0 2.5 0 a1.25 1.25 0 1 0 -2.5 0zM743.75 465 a1.25 1.25 0 1 0 2.5 0 a1.25 1.25 0 1 0 -2.5 0zM603.75 475 a1.25 1.25 0 1 0 2.5 0 a1.25 1.25 0 1 0 -2.5 0zM193.75 445 a1.25 1.25 0 1 0 2.5 0 a1.25 1.25 0 1 0 -2.5 0zM593.75 475 a1.25 1.25 0 1 0 2.5 0 a1.25 1.25 0 1 0 -2.5 0zM183.75 445 a1.25 1.25 0 1 0 2.5 0 a1.25 1.25 0 1 0 -2.5 0z" fill="black"></path>
            <path d="M143.75 115 a1.25 1.25 0 1 0 2.5 0 a1.25 1.25 0 1 0 -2.5 0z" fill="black"></path>
            <path d="M223.75 455 a1.25 1.25 0 1 0 2.5 0 a1.25 1.25 0 1 0 -2.5 0zM173.75 445 a1.25 1.25 0 1 0 2.5 0 a1.25 1.25 0 1 0 -2.5 0z" fill="black"></path>
            <path d="M193.75 125 a1.25 1.25 0 1 0 2.5 0 a1.25 1.25 0 1 0 -2.5 0zM203.75 105 a1.25 1.25 0 1 0 2.5 0 a1.25 1.25 0 1 0 -2.5 0zM203.75 115 a1.25 1.25 0 1 0 2.5 0 a1.25 1.25 0 1 0 -2.5 0zM173.75 125 a1.25 1.25 0 1 0 2.5 0 a1.25 1.25 0 1 0 -2.5 0z" fill="black"></path>
            <path d="M1043.75 495 a1.25 1.25 0 1 0 2.5 0 a1.25 1.25 0 1 0 -2.5 0zM433.75 485 a1.25 1.25 0 1 0 2.5 0 a1.25 1.25 0 1 0 -2.5 0zM1173.75 515 a1.25 1.25 0 1 0 2.5 0 a1.25 1.25 0 1 0 -2.5 0zM1003.75 485 a1.25 1.25 0 1 0 2.5 0 a1.25 1.25 0 1 0 -2.5 0zM453.75 495 a1.25 1.25 0 1 0 2.5 0 a1.25 1.25 0 1 0 -2.5 0zM163.75 465 a1.25 1.25 0 1 0 2.5 0 a1.25 1.25 0 1 0 -2.5 0zM1263.75 515 a1.25 1.25 0 1 0 2.5 0 a1.25 1.25 0 1 0 -2.5 0zM863.75 515 a1.25 1.25 0 1 0 2.5 0 a1.25 1.25 0 1 0 -2.5 0zM23.75 435 a1.25 1.25 0 1 0 2.5 0 a1.25 1.25 0 1 0 -2.5 0zM103.75 465 a1.25 1.25 0 1 0 2.5 0 a1.25 1.25 0 1 0 -2.5 0zM503.75 485 a1.25 1.25 0 1 0 2.5 0 a1.25 1.25 0 1 0 -2.5 0zM1073.75 475 a1.25 1.25 0 1 0 2.5 0 a1.25 1.25 0 1 0 -2.5 0zM873.75 485 a1.25 1.25 0 1 0 2.5 0 a1.25 1.25 0 1 0 -2.5 0zM133.75 455 a1.25 1.25 0 1 0 2.5 0 a1.25 1.25 0 1 0 -2.5 0zM783.75 485 a1.25 1.25 0 1 0 2.5 0 a1.25 1.25 0 1 0 -2.5 0zM1293.75 475 a1.25 1.25 0 1 0 2.5 0 a1.25 1.25 0 1 0 -2.5 0zM303.75 455 a1.25 1.25 0 1 0 2.5 0 a1.25 1.25 0 1 0 -2.5 0zM583.75 505 a1.25 1.25 0 1 0 2.5 0 a1.25 1.25 0 1 0 -2.5 0zM1213.75 545 a1.25 1.25 0 1 0 2.5 0 a1.25 1.25 0 1 0 -2.5 0zM803.75 505 a1.25 1.25 0 1 0 2.5 0 a1.25 1.25 0 1 0 -2.5 0zM773.75 485 a1.25 1.25 0 1 0 2.5 0 a1.25 1.25 0 1 0 -2.5 0zM943.75 505 a1.25 1.25 0 1 0 2.5 0 a1.25 1.25 0 1 0 -2.5 0zM763.75 485 a1.25 1.25 0 1 0 2.5 0 a1.25 1.25 0 1 0 -2.5 0zM1033.75 505 a1.25 1.25 0 1 0 2.5 0 a1.25 1.25 0 1 0 -2.5 0zM663.75 505 a1.25 1.25 0 1 0 2.5 0 a1.25 1.25 0 1 0 -2.5 0zM513.75 495 a1.25 1.25 0 1 0 2.5 0 a1.25 1.25 0 1 0 -2.5 0zM933.75 505 a1.25 1.25 0 1 0 2.5 0 a1.25 1.25 0 1 0 -2.5 0z" fill="black"></path>
            <path d="M733.75 85 a1.25 1.25 0 1 0 2.5 0 a1.25 1.25 0 1 0 -2.5 0zM463.75 55 a1.25 1.25 0 1 0 2.5 0 a1.25 1.25 0 1 0 -2.5 0zM703.75 45 a1.25 1.25 0 1 0 2.5 0 a1.25 1.25 0 1 0 -2.5 0zM253.75 85 a1.25 1.25 0 1 0 2.5 0 a1.25 1.25 0 1 0 -2.5 0zM333.75 85 a1.25 1.25 0 1 0 2.5 0 a1.25 1.25 0 1 0 -2.5 0zM703.75 35 a1.25 1.25 0 1 0 2.5 0 a1.25 1.25 0 1 0 -2.5 0zM433.75 55 a1.25 1.25 0 1 0 2.5 0 a1.25 1.25 0 1 0 -2.5 0zM273.75 75 a1.25 1.25 0 1 0 2.5 0 a1.25 1.25 0 1 0 -2.5 0zM293.75 35 a1.25 1.25 0 1 0 2.5 0 a1.25 1.25 0 1 0 -2.5 0zM353.75 55 a1.25 1.25 0 1 0 2.5 0 a1.25 1.25 0 1 0 -2.5 0zM753.75 65 a1.25 1.25 0 1 0 2.5 0 a1.25 1.25 0 1 0 -2.5 0zM833.75 25 a1.25 1.25 0 1 0 2.5 0 a1.25 1.25 0 1 0 -2.5 0zM613.75 25 a1.25 1.25 0 1 0 2.5 0 a1.25 1.25 0 1 0 -2.5 0zM533.75 35 a1.25 1.25 0 1 0 2.5 0 a1.25 1.25 0 1 0 -2.5 0zM683.75 45 a1.25 1.25 0 1 0 2.5 0 a1.25 1.25 0 1 0 -2.5 0zM733.75 65 a1.25 1.25 0 1 0 2.5 0 a1.25 1.25 0 1 0 -2.5 0zM613.75 55 a1.25 1.25 0 1 0 2.5 0 a1.25 1.25 0 1 0 -2.5 0zM173.75 105 a1.25 1.25 0 1 0 2.5 0 a1.25 1.25 0 1 0 -2.5 0zM113.75 115 a1.25 1.25 0 1 0 2.5 0 a1.25 1.25 0 1 0 -2.5 0z" fill="black"></path>
        </mask>
    </defs>
</svg>