<svg xmlns="http://www.w3.org/2000/svg" version="1.1" xmlns:xlink="http://www.w3.org/1999/xlink" xmlns:svgjs="http://svgjs.dev/svgjs" width="1440" height="560" preserveAspectRatio="none" viewBox="0 0 1440 560">
    <g mask="url(&quot;#SvgjsMask1014&quot;)" fill="none">
        <g mask="url(&quot;#SvgjsMask1015&quot;)">
            <path d="M105 275L115 275L125 275M75 275L85 265L95 265M115 265L125 255L135 255L145 255L155 255M215 255L225 265L235 275M145 265L155 275L165 275L175 275L185 275L195 275L205 275M55 275L65 265L75 265M-5 285L5 285L15 285L25 275L35 275L45 275L55 275L65 275L75 275L85 275L95 275L105 275L115 265L125 265L135 265L145 265L155 265L165 265L175 255L185 255L195 255L205 255L215 255L225 255" stroke="rgba(255, 255, 255, 0.23)" stroke-width="1.67"></path>
            <path d="M222.5 255 a2.5 2.5 0 1 0 5 0 a2.5 2.5 0 1 0 -5 0zM122.5 275 a2.5 2.5 0 1 0 5 0 a2.5 2.5 0 1 0 -5 0zM92.5 265 a2.5 2.5 0 1 0 5 0 a2.5 2.5 0 1 0 -5 0zM152.5 255 a2.5 2.5 0 1 0 5 0 a2.5 2.5 0 1 0 -5 0zM232.5 275 a2.5 2.5 0 1 0 5 0 a2.5 2.5 0 1 0 -5 0zM202.5 275 a2.5 2.5 0 1 0 5 0 a2.5 2.5 0 1 0 -5 0zM72.5 265 a2.5 2.5 0 1 0 5 0 a2.5 2.5 0 1 0 -5 0z" fill="rgba(255, 255, 255, 0.23)"></path>
            <path d="M45 255L55 265M85 255L95 245L105 245L115 245M35 265L45 265M-5 275L5 275L15 275L25 265L35 265L45 255L55 255L65 255L75 255L85 255L95 255L105 265" stroke="rgba(23, 131, 166, 0.44)" stroke-width="1.67"></path>
            <path d="M102.5 265 a2.5 2.5 0 1 0 5 0 a2.5 2.5 0 1 0 -5 0zM52.5 265 a2.5 2.5 0 1 0 5 0 a2.5 2.5 0 1 0 -5 0zM112.5 245 a2.5 2.5 0 1 0 5 0 a2.5 2.5 0 1 0 -5 0zM42.5 265 a2.5 2.5 0 1 0 5 0 a2.5 2.5 0 1 0 -5 0z" fill="rgba(23, 131, 166, 0.44)"></path>
            <path d="M45 305L55 295L65 295L75 295M25 305L35 295M125 305L135 315L145 315M135 305L145 295L155 285M-5 295L5 305L15 305L25 305L35 305L45 305L55 305L65 315L75 315L85 315L95 315L105 315L115 315L125 305L135 305L145 305" stroke="rgba(255, 255, 255, 0.23)" stroke-width="1.67"></path>
            <path d="M142.5 305 a2.5 2.5 0 1 0 5 0 a2.5 2.5 0 1 0 -5 0zM72.5 295 a2.5 2.5 0 1 0 5 0 a2.5 2.5 0 1 0 -5 0zM32.5 295 a2.5 2.5 0 1 0 5 0 a2.5 2.5 0 1 0 -5 0zM142.5 315 a2.5 2.5 0 1 0 5 0 a2.5 2.5 0 1 0 -5 0zM152.5 285 a2.5 2.5 0 1 0 5 0 a2.5 2.5 0 1 0 -5 0z" fill="rgba(255, 255, 255, 0.23)"></path>
            <path d="M195 215L205 225M155 225L165 235L175 235M65 235L75 245L85 245M205 215L215 205L225 205L235 205M145 225L155 235L165 245M-5 265L5 265L15 265L25 255L35 255L45 245L55 245L65 235L75 235L85 235L95 235L105 235L115 235L125 235L135 225L145 225L155 225L165 225L175 225L185 225L195 215L205 215L215 215" stroke="rgba(23, 131, 166, 0.44)" stroke-width="1.67"></path>
            <path d="M212.5 215 a2.5 2.5 0 1 0 5 0 a2.5 2.5 0 1 0 -5 0zM202.5 225 a2.5 2.5 0 1 0 5 0 a2.5 2.5 0 1 0 -5 0zM172.5 235 a2.5 2.5 0 1 0 5 0 a2.5 2.5 0 1 0 -5 0zM82.5 245 a2.5 2.5 0 1 0 5 0 a2.5 2.5 0 1 0 -5 0zM232.5 205 a2.5 2.5 0 1 0 5 0 a2.5 2.5 0 1 0 -5 0zM162.5 245 a2.5 2.5 0 1 0 5 0 a2.5 2.5 0 1 0 -5 0z" fill="rgba(23, 131, 166, 0.44)"></path>
            <path d="M105 325L115 335M115 325L125 325L135 325L145 325M-5 305L5 315L15 315L25 315L35 315L45 315L55 315L65 325L75 325L85 325L95 325L105 325L115 325L125 335L135 335" stroke="rgba(255, 255, 255, 0.23)" stroke-width="1.67"></path>
            <path d="M132.5 335 a2.5 2.5 0 1 0 5 0 a2.5 2.5 0 1 0 -5 0zM112.5 335 a2.5 2.5 0 1 0 5 0 a2.5 2.5 0 1 0 -5 0zM142.5 325 a2.5 2.5 0 1 0 5 0 a2.5 2.5 0 1 0 -5 0z" fill="rgba(255, 255, 255, 0.23)"></path>
            <path d="M255 195L265 195M115 225L125 215M245 195L255 185L265 185L275 185L285 185M85 225L95 215L105 215L115 215M145 215L155 205L165 205L175 205L185 205M275 205L285 215L295 215L305 215L315 215M135 215L145 205M75 225L85 215M-5 255L5 255L15 255L25 245L35 245L45 235L55 235L65 225L75 225L85 225L95 225L105 225L115 225L125 225L135 215L145 215L155 215L165 215L175 215L185 215L195 205L205 195L215 195L225 195L235 195L245 195L255 195L265 205L275 205L285 205L295 205L305 205" stroke="rgba(23, 131, 166, 0.44)" stroke-width="1.67"></path>
            <path d="M302.5 205 a2.5 2.5 0 1 0 5 0 a2.5 2.5 0 1 0 -5 0zM262.5 195 a2.5 2.5 0 1 0 5 0 a2.5 2.5 0 1 0 -5 0zM122.5 215 a2.5 2.5 0 1 0 5 0 a2.5 2.5 0 1 0 -5 0zM282.5 185 a2.5 2.5 0 1 0 5 0 a2.5 2.5 0 1 0 -5 0zM112.5 215 a2.5 2.5 0 1 0 5 0 a2.5 2.5 0 1 0 -5 0zM182.5 205 a2.5 2.5 0 1 0 5 0 a2.5 2.5 0 1 0 -5 0zM312.5 215 a2.5 2.5 0 1 0 5 0 a2.5 2.5 0 1 0 -5 0zM142.5 205 a2.5 2.5 0 1 0 5 0 a2.5 2.5 0 1 0 -5 0zM82.5 215 a2.5 2.5 0 1 0 5 0 a2.5 2.5 0 1 0 -5 0z" fill="rgba(23, 131, 166, 0.44)"></path>
            <path d="M225 345L235 355M125 345L135 355L145 355L155 355L165 365L175 365L185 365L195 365L205 365M145 345L155 335L165 335L175 335L185 335L195 335L205 335M245 345L255 355L265 355L275 355L285 355M315 345L325 355L335 355M265 345L275 335L285 335L295 335L305 335L315 335L325 335L335 335L345 335L355 335L365 335M95 335L105 335M215 345L225 355L235 365L245 365L255 365M-5 315L5 325L15 325L25 325L35 325L45 325L55 325L65 335L75 335L85 335L95 335L105 345L115 345L125 345L135 345L145 345L155 345L165 345L175 345L185 345L195 345L205 345L215 345L225 345L235 345L245 345L255 345L265 345L275 345L285 345L295 345L305 345L315 345L325 345L335 345" stroke="rgba(23, 131, 166, 0.44)" stroke-width="1.67"></path>
            <path d="M332.5 345 a2.5 2.5 0 1 0 5 0 a2.5 2.5 0 1 0 -5 0zM232.5 355 a2.5 2.5 0 1 0 5 0 a2.5 2.5 0 1 0 -5 0zM202.5 365 a2.5 2.5 0 1 0 5 0 a2.5 2.5 0 1 0 -5 0zM202.5 335 a2.5 2.5 0 1 0 5 0 a2.5 2.5 0 1 0 -5 0zM282.5 355 a2.5 2.5 0 1 0 5 0 a2.5 2.5 0 1 0 -5 0zM332.5 355 a2.5 2.5 0 1 0 5 0 a2.5 2.5 0 1 0 -5 0zM362.5 335 a2.5 2.5 0 1 0 5 0 a2.5 2.5 0 1 0 -5 0zM102.5 335 a2.5 2.5 0 1 0 5 0 a2.5 2.5 0 1 0 -5 0zM252.5 365 a2.5 2.5 0 1 0 5 0 a2.5 2.5 0 1 0 -5 0z" fill="rgba(23, 131, 166, 0.44)"></path>
            <path d="M-5 245L5 245L15 245L25 235L35 235L45 225L55 225L65 215" stroke="rgba(23, 131, 166, 0.44)" stroke-width="1.67"></path>
            <path d="M62.5 215 a2.5 2.5 0 1 0 5 0 a2.5 2.5 0 1 0 -5 0z" fill="rgba(23, 131, 166, 0.44)"></path>
            <path d="M85 345L95 355L105 365L115 375M335 385L345 375L355 375M125 375L135 365L145 365L155 365M105 355L115 355L125 355M75 345L85 355M305 375L315 365M295 385L305 395L315 395L325 395L335 395L345 395L355 395L365 395L375 395L385 395M115 365L125 365M275 385L285 375M-5 325L5 335L15 335L25 335L35 335L45 335L55 335L65 345L75 345L85 345L95 345L105 355L115 365L125 375L135 375L145 375L155 375L165 375L175 375L185 375L195 375L205 375L215 375L225 375L235 375L245 375L255 375L265 385L275 385L285 385L295 385L305 375L315 375L325 375L335 385L345 385" stroke="rgba(255, 255, 255, 0.23)" stroke-width="1.67"></path>
            <path d="M342.5 385 a2.5 2.5 0 1 0 5 0 a2.5 2.5 0 1 0 -5 0zM112.5 375 a2.5 2.5 0 1 0 5 0 a2.5 2.5 0 1 0 -5 0zM352.5 375 a2.5 2.5 0 1 0 5 0 a2.5 2.5 0 1 0 -5 0zM152.5 365 a2.5 2.5 0 1 0 5 0 a2.5 2.5 0 1 0 -5 0zM122.5 355 a2.5 2.5 0 1 0 5 0 a2.5 2.5 0 1 0 -5 0zM82.5 355 a2.5 2.5 0 1 0 5 0 a2.5 2.5 0 1 0 -5 0zM312.5 365 a2.5 2.5 0 1 0 5 0 a2.5 2.5 0 1 0 -5 0zM382.5 395 a2.5 2.5 0 1 0 5 0 a2.5 2.5 0 1 0 -5 0zM122.5 365 a2.5 2.5 0 1 0 5 0 a2.5 2.5 0 1 0 -5 0zM282.5 375 a2.5 2.5 0 1 0 5 0 a2.5 2.5 0 1 0 -5 0z" fill="rgba(255, 255, 255, 0.23)"></path>
            <path d="M-5 235L5 235L15 235L25 225L35 225L45 215L55 215" stroke="rgba(23, 131, 166, 0.44)" stroke-width="1.67"></path>
            <path d="M52.5 215 a2.5 2.5 0 1 0 5 0 a2.5 2.5 0 1 0 -5 0z" fill="rgba(23, 131, 166, 0.44)"></path>
            <path d="M65 355L75 355M-5 335L5 345L15 345L25 345L35 345L45 345L55 345L65 355L75 365L85 365" stroke="rgba(255, 255, 255, 0.23)" stroke-width="1.67"></path>
            <path d="M82.5 365 a2.5 2.5 0 1 0 5 0 a2.5 2.5 0 1 0 -5 0zM72.5 355 a2.5 2.5 0 1 0 5 0 a2.5 2.5 0 1 0 -5 0z" fill="rgba(255, 255, 255, 0.23)"></path>
            <path d="M285 175L295 165L305 165L315 165L325 165L335 165L345 165L355 165L365 155M255 175L265 165L275 155L285 155L295 155L305 155L315 155L325 145M235 185L245 185M305 175L315 185L325 185M115 205L125 195M125 205L135 205M295 175L305 185M-5 225L5 225L15 225L25 215L35 215L45 205L55 205L65 205L75 205L85 205L95 205L105 205L115 205L125 205L135 195L145 195L155 195L165 195L175 195L185 195L195 195L205 185L215 185L225 185L235 185L245 175L255 175L265 175L275 175L285 175L295 175L305 175L315 175L325 175L335 175" stroke="rgba(255, 255, 255, 0.23)" stroke-width="1.67"></path>
            <path d="M332.5 175 a2.5 2.5 0 1 0 5 0 a2.5 2.5 0 1 0 -5 0zM362.5 155 a2.5 2.5 0 1 0 5 0 a2.5 2.5 0 1 0 -5 0zM322.5 145 a2.5 2.5 0 1 0 5 0 a2.5 2.5 0 1 0 -5 0zM242.5 185 a2.5 2.5 0 1 0 5 0 a2.5 2.5 0 1 0 -5 0zM322.5 185 a2.5 2.5 0 1 0 5 0 a2.5 2.5 0 1 0 -5 0zM122.5 195 a2.5 2.5 0 1 0 5 0 a2.5 2.5 0 1 0 -5 0zM132.5 205 a2.5 2.5 0 1 0 5 0 a2.5 2.5 0 1 0 -5 0zM302.5 185 a2.5 2.5 0 1 0 5 0 a2.5 2.5 0 1 0 -5 0z" fill="rgba(255, 255, 255, 0.23)"></path>
            <path d="M-5 345L5 355L15 355L25 355L35 355L45 355L55 355L65 365L75 375L85 375L95 375" stroke="rgba(23, 131, 166, 0.44)" stroke-width="1.67"></path>
            <path d="M92.5 375 a2.5 2.5 0 1 0 5 0 a2.5 2.5 0 1 0 -5 0z" fill="rgba(23, 131, 166, 0.44)"></path>
            <path d="M-5 215L5 215" stroke="rgba(23, 131, 166, 0.44)" stroke-width="1.67"></path>
            <path d="M2.5 215 a2.5 2.5 0 1 0 5 0 a2.5 2.5 0 1 0 -5 0z" fill="rgba(23, 131, 166, 0.44)"></path>
            <path d="M205 385L215 395L225 395L235 395L245 395L255 395L265 405L275 405M145 385L155 395L165 395L175 395M195 385L205 395M135 385L145 395M125 385L135 395M185 385L195 395M-5 355L5 365L15 365L25 365L35 365L45 365L55 365L65 375L75 385L85 385L95 385L105 385L115 385L125 385L135 385L145 385L155 385L165 385L175 385L185 385L195 385L205 385L215 385L225 385L235 385L245 385L255 385L265 395L275 395L285 395" stroke="rgba(255, 255, 255, 0.23)" stroke-width="1.67"></path>
            <path d="M282.5 395 a2.5 2.5 0 1 0 5 0 a2.5 2.5 0 1 0 -5 0zM272.5 405 a2.5 2.5 0 1 0 5 0 a2.5 2.5 0 1 0 -5 0zM172.5 395 a2.5 2.5 0 1 0 5 0 a2.5 2.5 0 1 0 -5 0zM202.5 395 a2.5 2.5 0 1 0 5 0 a2.5 2.5 0 1 0 -5 0zM142.5 395 a2.5 2.5 0 1 0 5 0 a2.5 2.5 0 1 0 -5 0zM132.5 395 a2.5 2.5 0 1 0 5 0 a2.5 2.5 0 1 0 -5 0zM192.5 395 a2.5 2.5 0 1 0 5 0 a2.5 2.5 0 1 0 -5 0z" fill="rgba(255, 255, 255, 0.23)"></path>
            <path d="M175 185L185 175L195 175M145 185L155 175L165 175L175 175L185 165M15 205L25 195L35 195M105 195L115 195M205 175L215 165L225 165L235 165L245 155L255 155L265 155L275 145M115 185L125 175L135 165L145 165L155 165L165 165L175 165M-5 205L5 205L15 205L25 205L35 205L45 195L55 195L65 195L75 195L85 195L95 195L105 195L115 185L125 185L135 185L145 185L155 185L165 185L175 185L185 185L195 185L205 175L215 175L225 175L235 175L245 165" stroke="rgba(255, 255, 255, 0.23)" stroke-width="1.67"></path>
            <path d="M242.5 165 a2.5 2.5 0 1 0 5 0 a2.5 2.5 0 1 0 -5 0zM192.5 175 a2.5 2.5 0 1 0 5 0 a2.5 2.5 0 1 0 -5 0zM182.5 165 a2.5 2.5 0 1 0 5 0 a2.5 2.5 0 1 0 -5 0zM32.5 195 a2.5 2.5 0 1 0 5 0 a2.5 2.5 0 1 0 -5 0zM112.5 195 a2.5 2.5 0 1 0 5 0 a2.5 2.5 0 1 0 -5 0zM272.5 145 a2.5 2.5 0 1 0 5 0 a2.5 2.5 0 1 0 -5 0zM172.5 165 a2.5 2.5 0 1 0 5 0 a2.5 2.5 0 1 0 -5 0z" fill="rgba(255, 255, 255, 0.23)"></path>
            <path d="M105 395L115 405M315 415L325 405L335 405L345 405L355 405L365 405L375 405L385 405L395 405L405 405L415 405L425 405L435 405L445 405L455 405M115 395L125 395M285 415L295 405M235 405L245 405L255 405M95 395L105 405M-5 365L5 375L15 375L25 375L35 375L45 375L55 375L65 385L75 395L85 395L95 395L105 395L115 395L125 405L135 405L145 405L155 405L165 405L175 405L185 405L195 405L205 405L215 405L225 405L235 405L245 415L255 415L265 415L275 415L285 415L295 415L305 415L315 415L325 415L335 415" stroke="rgba(23, 131, 166, 0.44)" stroke-width="1.67"></path>
            <path d="M332.5 415 a2.5 2.5 0 1 0 5 0 a2.5 2.5 0 1 0 -5 0zM112.5 405 a2.5 2.5 0 1 0 5 0 a2.5 2.5 0 1 0 -5 0zM452.5 405 a2.5 2.5 0 1 0 5 0 a2.5 2.5 0 1 0 -5 0zM122.5 395 a2.5 2.5 0 1 0 5 0 a2.5 2.5 0 1 0 -5 0zM292.5 405 a2.5 2.5 0 1 0 5 0 a2.5 2.5 0 1 0 -5 0zM252.5 405 a2.5 2.5 0 1 0 5 0 a2.5 2.5 0 1 0 -5 0zM102.5 405 a2.5 2.5 0 1 0 5 0 a2.5 2.5 0 1 0 -5 0z" fill="rgba(23, 131, 166, 0.44)"></path>
            <path d="M195 415L205 425M225 415L235 415M215 415L225 425M-5 375L5 385L15 385L25 385L35 385L45 385L55 385L65 395L75 405L85 405L95 415L105 415L115 415L125 415L135 415L145 415L155 415L165 415L175 415L185 415L195 415L205 415L215 415L225 415L235 425L245 425L255 425L265 425L275 425L285 425L295 425L305 425L315 425L325 425L335 425L345 425" stroke="rgba(255, 255, 255, 0.23)" stroke-width="1.67"></path>
            <path d="M342.5 425 a2.5 2.5 0 1 0 5 0 a2.5 2.5 0 1 0 -5 0zM202.5 425 a2.5 2.5 0 1 0 5 0 a2.5 2.5 0 1 0 -5 0zM232.5 415 a2.5 2.5 0 1 0 5 0 a2.5 2.5 0 1 0 -5 0zM222.5 425 a2.5 2.5 0 1 0 5 0 a2.5 2.5 0 1 0 -5 0z" fill="rgba(255, 255, 255, 0.23)"></path>
            <path d="M5 185L15 195M-5 185L5 185L15 185L25 185L35 185L45 185L55 185L65 185L75 185L85 185" stroke="rgba(255, 255, 255, 0.23)" stroke-width="1.67"></path>
            <path d="M82.5 185 a2.5 2.5 0 1 0 5 0 a2.5 2.5 0 1 0 -5 0zM12.5 195 a2.5 2.5 0 1 0 5 0 a2.5 2.5 0 1 0 -5 0z" fill="rgba(255, 255, 255, 0.23)"></path>
            <path d="M305 435L315 445L325 445L335 445L345 445L355 445L365 445L375 445L385 445L395 455M375 435L385 425L395 425L405 425L415 425L425 425L435 425L445 425M365 435L375 425L385 415M395 435L405 445L415 455L425 455L435 455L445 455M355 435L365 425L375 415M185 425L195 425M-5 385L5 395L15 395L25 395L35 395L45 395L55 395L65 405L75 415L85 415L95 425L105 425L115 425L125 425L135 425L145 425L155 425L165 425L175 425L185 425L195 435L205 435L215 435L225 435L235 435L245 435L255 435L265 435L275 435L285 435L295 435L305 435L315 435L325 435L335 435L345 435L355 435L365 435L375 435L385 435L395 435L405 435L415 435" stroke="rgba(255, 255, 255, 0.23)" stroke-width="1.67"></path>
            <path d="M412.5 435 a2.5 2.5 0 1 0 5 0 a2.5 2.5 0 1 0 -5 0zM392.5 455 a2.5 2.5 0 1 0 5 0 a2.5 2.5 0 1 0 -5 0zM442.5 425 a2.5 2.5 0 1 0 5 0 a2.5 2.5 0 1 0 -5 0zM382.5 415 a2.5 2.5 0 1 0 5 0 a2.5 2.5 0 1 0 -5 0zM442.5 455 a2.5 2.5 0 1 0 5 0 a2.5 2.5 0 1 0 -5 0zM372.5 415 a2.5 2.5 0 1 0 5 0 a2.5 2.5 0 1 0 -5 0zM192.5 425 a2.5 2.5 0 1 0 5 0 a2.5 2.5 0 1 0 -5 0z" fill="rgba(255, 255, 255, 0.23)"></path>
            <path d="M95 175L105 185M-5 175L5 175L15 175L25 175L35 175L45 175L55 175L65 175L75 175L85 175L95 175L105 175" stroke="rgba(23, 131, 166, 0.44)" stroke-width="1.67"></path>
            <path d="M102.5 175 a2.5 2.5 0 1 0 5 0 a2.5 2.5 0 1 0 -5 0zM102.5 185 a2.5 2.5 0 1 0 5 0 a2.5 2.5 0 1 0 -5 0z" fill="rgba(23, 131, 166, 0.44)"></path>
            <path d="M275 445L285 455L295 455M265 445L275 455M255 445L265 455M225 445L235 455L245 455L255 455M215 445L225 455M-5 395L5 405L15 405L25 405L35 405L45 405L55 405L65 415L75 425L85 425L95 435L105 435L115 435L125 435L135 435L145 435L155 435L165 435L175 435L185 435L195 445L205 445L215 445L225 445L235 445L245 445L255 445L265 445L275 445L285 445L295 445" stroke="rgba(23, 131, 166, 0.44)" stroke-width="1.67"></path>
            <path d="M292.5 445 a2.5 2.5 0 1 0 5 0 a2.5 2.5 0 1 0 -5 0zM292.5 455 a2.5 2.5 0 1 0 5 0 a2.5 2.5 0 1 0 -5 0zM272.5 455 a2.5 2.5 0 1 0 5 0 a2.5 2.5 0 1 0 -5 0zM262.5 455 a2.5 2.5 0 1 0 5 0 a2.5 2.5 0 1 0 -5 0zM252.5 455 a2.5 2.5 0 1 0 5 0 a2.5 2.5 0 1 0 -5 0zM222.5 455 a2.5 2.5 0 1 0 5 0 a2.5 2.5 0 1 0 -5 0z" fill="rgba(23, 131, 166, 0.44)"></path>
            <path d="M-5 165L5 165L15 165L25 165L35 165L45 165L55 165L65 165L75 165L85 165L95 165" stroke="rgba(23, 131, 166, 0.44)" stroke-width="1.67"></path>
            <path d="M92.5 165 a2.5 2.5 0 1 0 5 0 a2.5 2.5 0 1 0 -5 0z" fill="rgba(23, 131, 166, 0.44)"></path>
            <path d="M275 465L285 465L295 465L305 465L315 465L325 465L335 465L345 455M375 475L385 485L395 485L405 485L415 485L425 485L435 485L445 485L455 485M205 455L215 455M335 475L345 485L355 485L365 485M385 475L395 465M355 475L365 465L375 465L385 465M325 475L335 485M-5 405L5 415L15 415L25 415L35 415L45 415L55 415L65 425L75 435L85 435L95 445L105 445L115 445L125 445L135 445L145 445L155 445L165 445L175 445L185 445L195 455L205 455L215 465L225 465L235 465L245 465L255 465L265 465L275 465L285 475L295 475L305 475L315 475L325 475L335 475L345 475L355 475L365 475L375 475L385 475L395 475L405 475" stroke="rgba(23, 131, 166, 0.44)" stroke-width="1.67"></path>
            <path d="M402.5 475 a2.5 2.5 0 1 0 5 0 a2.5 2.5 0 1 0 -5 0zM342.5 455 a2.5 2.5 0 1 0 5 0 a2.5 2.5 0 1 0 -5 0zM452.5 485 a2.5 2.5 0 1 0 5 0 a2.5 2.5 0 1 0 -5 0zM212.5 455 a2.5 2.5 0 1 0 5 0 a2.5 2.5 0 1 0 -5 0zM362.5 485 a2.5 2.5 0 1 0 5 0 a2.5 2.5 0 1 0 -5 0zM392.5 465 a2.5 2.5 0 1 0 5 0 a2.5 2.5 0 1 0 -5 0zM382.5 465 a2.5 2.5 0 1 0 5 0 a2.5 2.5 0 1 0 -5 0zM332.5 485 a2.5 2.5 0 1 0 5 0 a2.5 2.5 0 1 0 -5 0z" fill="rgba(23, 131, 166, 0.44)"></path>
            <path d="M115 145L125 155M145 145L155 155M95 155L105 145L115 135L125 135M135 145L145 135L155 135L165 135M65 155L75 145L85 145L95 145L105 135M-5 155L5 155L15 155L25 155L35 155L45 155L55 155L65 155L75 155L85 155L95 155L105 155L115 145L125 145L135 145L145 145L155 145L165 145L175 155L185 155L195 165" stroke="rgba(23, 131, 166, 0.44)" stroke-width="1.67"></path>
            <path d="M192.5 165 a2.5 2.5 0 1 0 5 0 a2.5 2.5 0 1 0 -5 0zM122.5 155 a2.5 2.5 0 1 0 5 0 a2.5 2.5 0 1 0 -5 0zM152.5 155 a2.5 2.5 0 1 0 5 0 a2.5 2.5 0 1 0 -5 0zM122.5 135 a2.5 2.5 0 1 0 5 0 a2.5 2.5 0 1 0 -5 0zM162.5 135 a2.5 2.5 0 1 0 5 0 a2.5 2.5 0 1 0 -5 0zM102.5 135 a2.5 2.5 0 1 0 5 0 a2.5 2.5 0 1 0 -5 0z" fill="rgba(23, 131, 166, 0.44)"></path>
            <path d="M125 455L135 465M165 455L175 465L185 475L195 475L205 475L215 485M115 455L125 465L135 475L145 475L155 475M155 455L165 465L175 475M35 425L45 435L55 435L65 445L75 455L85 455L95 465L105 465L115 465L125 475L135 485L145 485M15 425L25 435L35 435L45 445L55 445L65 455L75 465L85 465M145 455L155 465M235 475L245 485L255 485L265 485L275 485L285 495L295 495L305 495L315 505M-5 415L5 425L15 425L25 425L35 425L45 425L55 425L65 435L75 445L85 445L95 455L105 455L115 455L125 455L135 455L145 455L155 455L165 455L175 455L185 465L195 465L205 465L215 475L225 475L235 475L245 475L255 475L265 475L275 475L285 485L295 485L305 485" stroke="rgba(23, 131, 166, 0.44)" stroke-width="1.67"></path>
            <path d="M302.5 485 a2.5 2.5 0 1 0 5 0 a2.5 2.5 0 1 0 -5 0zM132.5 465 a2.5 2.5 0 1 0 5 0 a2.5 2.5 0 1 0 -5 0zM212.5 485 a2.5 2.5 0 1 0 5 0 a2.5 2.5 0 1 0 -5 0zM152.5 475 a2.5 2.5 0 1 0 5 0 a2.5 2.5 0 1 0 -5 0zM172.5 475 a2.5 2.5 0 1 0 5 0 a2.5 2.5 0 1 0 -5 0zM142.5 485 a2.5 2.5 0 1 0 5 0 a2.5 2.5 0 1 0 -5 0zM82.5 465 a2.5 2.5 0 1 0 5 0 a2.5 2.5 0 1 0 -5 0zM152.5 465 a2.5 2.5 0 1 0 5 0 a2.5 2.5 0 1 0 -5 0zM312.5 505 a2.5 2.5 0 1 0 5 0 a2.5 2.5 0 1 0 -5 0z" fill="rgba(23, 131, 166, 0.44)"></path>
            <path d="M45 145L55 135L65 135L75 135L85 135M25 145L35 135L45 135L55 125L65 125M5 145L15 135L25 135M-5 145L5 145L15 145L25 145L35 145L45 145L55 145" stroke="rgba(255, 255, 255, 0.23)" stroke-width="1.67"></path>
            <path d="M52.5 145 a2.5 2.5 0 1 0 5 0 a2.5 2.5 0 1 0 -5 0zM82.5 135 a2.5 2.5 0 1 0 5 0 a2.5 2.5 0 1 0 -5 0zM62.5 125 a2.5 2.5 0 1 0 5 0 a2.5 2.5 0 1 0 -5 0zM22.5 135 a2.5 2.5 0 1 0 5 0 a2.5 2.5 0 1 0 -5 0z" fill="rgba(255, 255, 255, 0.23)"></path>
        </g>
    </g>
    <defs>
        <mask id="SvgjsMask1014">
            <rect width="1440" height="560" fill="#ffffff"></rect>
        </mask>
        <mask id="SvgjsMask1015">
            <rect width="1440" height="560" fill="white"></rect>
            <path d="M223.75 255 a1.25 1.25 0 1 0 2.5 0 a1.25 1.25 0 1 0 -2.5 0zM123.75 275 a1.25 1.25 0 1 0 2.5 0 a1.25 1.25 0 1 0 -2.5 0zM93.75 265 a1.25 1.25 0 1 0 2.5 0 a1.25 1.25 0 1 0 -2.5 0zM153.75 255 a1.25 1.25 0 1 0 2.5 0 a1.25 1.25 0 1 0 -2.5 0zM233.75 275 a1.25 1.25 0 1 0 2.5 0 a1.25 1.25 0 1 0 -2.5 0zM203.75 275 a1.25 1.25 0 1 0 2.5 0 a1.25 1.25 0 1 0 -2.5 0zM73.75 265 a1.25 1.25 0 1 0 2.5 0 a1.25 1.25 0 1 0 -2.5 0z" fill="black"></path>
            <path d="M103.75 265 a1.25 1.25 0 1 0 2.5 0 a1.25 1.25 0 1 0 -2.5 0zM53.75 265 a1.25 1.25 0 1 0 2.5 0 a1.25 1.25 0 1 0 -2.5 0zM113.75 245 a1.25 1.25 0 1 0 2.5 0 a1.25 1.25 0 1 0 -2.5 0zM43.75 265 a1.25 1.25 0 1 0 2.5 0 a1.25 1.25 0 1 0 -2.5 0z" fill="black"></path>
            <path d="M143.75 305 a1.25 1.25 0 1 0 2.5 0 a1.25 1.25 0 1 0 -2.5 0zM73.75 295 a1.25 1.25 0 1 0 2.5 0 a1.25 1.25 0 1 0 -2.5 0zM33.75 295 a1.25 1.25 0 1 0 2.5 0 a1.25 1.25 0 1 0 -2.5 0zM143.75 315 a1.25 1.25 0 1 0 2.5 0 a1.25 1.25 0 1 0 -2.5 0zM153.75 285 a1.25 1.25 0 1 0 2.5 0 a1.25 1.25 0 1 0 -2.5 0z" fill="black"></path>
            <path d="M213.75 215 a1.25 1.25 0 1 0 2.5 0 a1.25 1.25 0 1 0 -2.5 0zM203.75 225 a1.25 1.25 0 1 0 2.5 0 a1.25 1.25 0 1 0 -2.5 0zM173.75 235 a1.25 1.25 0 1 0 2.5 0 a1.25 1.25 0 1 0 -2.5 0zM83.75 245 a1.25 1.25 0 1 0 2.5 0 a1.25 1.25 0 1 0 -2.5 0zM233.75 205 a1.25 1.25 0 1 0 2.5 0 a1.25 1.25 0 1 0 -2.5 0zM163.75 245 a1.25 1.25 0 1 0 2.5 0 a1.25 1.25 0 1 0 -2.5 0z" fill="black"></path>
            <path d="M133.75 335 a1.25 1.25 0 1 0 2.5 0 a1.25 1.25 0 1 0 -2.5 0zM113.75 335 a1.25 1.25 0 1 0 2.5 0 a1.25 1.25 0 1 0 -2.5 0zM143.75 325 a1.25 1.25 0 1 0 2.5 0 a1.25 1.25 0 1 0 -2.5 0z" fill="black"></path>
            <path d="M303.75 205 a1.25 1.25 0 1 0 2.5 0 a1.25 1.25 0 1 0 -2.5 0zM263.75 195 a1.25 1.25 0 1 0 2.5 0 a1.25 1.25 0 1 0 -2.5 0zM123.75 215 a1.25 1.25 0 1 0 2.5 0 a1.25 1.25 0 1 0 -2.5 0zM283.75 185 a1.25 1.25 0 1 0 2.5 0 a1.25 1.25 0 1 0 -2.5 0zM113.75 215 a1.25 1.25 0 1 0 2.5 0 a1.25 1.25 0 1 0 -2.5 0zM183.75 205 a1.25 1.25 0 1 0 2.5 0 a1.25 1.25 0 1 0 -2.5 0zM313.75 215 a1.25 1.25 0 1 0 2.5 0 a1.25 1.25 0 1 0 -2.5 0zM143.75 205 a1.25 1.25 0 1 0 2.5 0 a1.25 1.25 0 1 0 -2.5 0zM83.75 215 a1.25 1.25 0 1 0 2.5 0 a1.25 1.25 0 1 0 -2.5 0z" fill="black"></path>
            <path d="M333.75 345 a1.25 1.25 0 1 0 2.5 0 a1.25 1.25 0 1 0 -2.5 0zM233.75 355 a1.25 1.25 0 1 0 2.5 0 a1.25 1.25 0 1 0 -2.5 0zM203.75 365 a1.25 1.25 0 1 0 2.5 0 a1.25 1.25 0 1 0 -2.5 0zM203.75 335 a1.25 1.25 0 1 0 2.5 0 a1.25 1.25 0 1 0 -2.5 0zM283.75 355 a1.25 1.25 0 1 0 2.5 0 a1.25 1.25 0 1 0 -2.5 0zM333.75 355 a1.25 1.25 0 1 0 2.5 0 a1.25 1.25 0 1 0 -2.5 0zM363.75 335 a1.25 1.25 0 1 0 2.5 0 a1.25 1.25 0 1 0 -2.5 0zM103.75 335 a1.25 1.25 0 1 0 2.5 0 a1.25 1.25 0 1 0 -2.5 0zM253.75 365 a1.25 1.25 0 1 0 2.5 0 a1.25 1.25 0 1 0 -2.5 0z" fill="black"></path>
            <path d="M63.75 215 a1.25 1.25 0 1 0 2.5 0 a1.25 1.25 0 1 0 -2.5 0z" fill="black"></path>
            <path d="M343.75 385 a1.25 1.25 0 1 0 2.5 0 a1.25 1.25 0 1 0 -2.5 0zM113.75 375 a1.25 1.25 0 1 0 2.5 0 a1.25 1.25 0 1 0 -2.5 0zM353.75 375 a1.25 1.25 0 1 0 2.5 0 a1.25 1.25 0 1 0 -2.5 0zM153.75 365 a1.25 1.25 0 1 0 2.5 0 a1.25 1.25 0 1 0 -2.5 0zM123.75 355 a1.25 1.25 0 1 0 2.5 0 a1.25 1.25 0 1 0 -2.5 0zM83.75 355 a1.25 1.25 0 1 0 2.5 0 a1.25 1.25 0 1 0 -2.5 0zM313.75 365 a1.25 1.25 0 1 0 2.5 0 a1.25 1.25 0 1 0 -2.5 0zM383.75 395 a1.25 1.25 0 1 0 2.5 0 a1.25 1.25 0 1 0 -2.5 0zM123.75 365 a1.25 1.25 0 1 0 2.5 0 a1.25 1.25 0 1 0 -2.5 0zM283.75 375 a1.25 1.25 0 1 0 2.5 0 a1.25 1.25 0 1 0 -2.5 0z" fill="black"></path>
            <path d="M53.75 215 a1.25 1.25 0 1 0 2.5 0 a1.25 1.25 0 1 0 -2.5 0z" fill="black"></path>
            <path d="M83.75 365 a1.25 1.25 0 1 0 2.5 0 a1.25 1.25 0 1 0 -2.5 0zM73.75 355 a1.25 1.25 0 1 0 2.5 0 a1.25 1.25 0 1 0 -2.5 0z" fill="black"></path>
            <path d="M333.75 175 a1.25 1.25 0 1 0 2.5 0 a1.25 1.25 0 1 0 -2.5 0zM363.75 155 a1.25 1.25 0 1 0 2.5 0 a1.25 1.25 0 1 0 -2.5 0zM323.75 145 a1.25 1.25 0 1 0 2.5 0 a1.25 1.25 0 1 0 -2.5 0zM243.75 185 a1.25 1.25 0 1 0 2.5 0 a1.25 1.25 0 1 0 -2.5 0zM323.75 185 a1.25 1.25 0 1 0 2.5 0 a1.25 1.25 0 1 0 -2.5 0zM123.75 195 a1.25 1.25 0 1 0 2.5 0 a1.25 1.25 0 1 0 -2.5 0zM133.75 205 a1.25 1.25 0 1 0 2.5 0 a1.25 1.25 0 1 0 -2.5 0zM303.75 185 a1.25 1.25 0 1 0 2.5 0 a1.25 1.25 0 1 0 -2.5 0z" fill="black"></path>
            <path d="M93.75 375 a1.25 1.25 0 1 0 2.5 0 a1.25 1.25 0 1 0 -2.5 0z" fill="black"></path>
            <path d="M3.75 215 a1.25 1.25 0 1 0 2.5 0 a1.25 1.25 0 1 0 -2.5 0z" fill="black"></path>
            <path d="M283.75 395 a1.25 1.25 0 1 0 2.5 0 a1.25 1.25 0 1 0 -2.5 0zM273.75 405 a1.25 1.25 0 1 0 2.5 0 a1.25 1.25 0 1 0 -2.5 0zM173.75 395 a1.25 1.25 0 1 0 2.5 0 a1.25 1.25 0 1 0 -2.5 0zM203.75 395 a1.25 1.25 0 1 0 2.5 0 a1.25 1.25 0 1 0 -2.5 0zM143.75 395 a1.25 1.25 0 1 0 2.5 0 a1.25 1.25 0 1 0 -2.5 0zM133.75 395 a1.25 1.25 0 1 0 2.5 0 a1.25 1.25 0 1 0 -2.5 0zM193.75 395 a1.25 1.25 0 1 0 2.5 0 a1.25 1.25 0 1 0 -2.5 0z" fill="black"></path>
            <path d="M243.75 165 a1.25 1.25 0 1 0 2.5 0 a1.25 1.25 0 1 0 -2.5 0zM193.75 175 a1.25 1.25 0 1 0 2.5 0 a1.25 1.25 0 1 0 -2.5 0zM183.75 165 a1.25 1.25 0 1 0 2.5 0 a1.25 1.25 0 1 0 -2.5 0zM33.75 195 a1.25 1.25 0 1 0 2.5 0 a1.25 1.25 0 1 0 -2.5 0zM113.75 195 a1.25 1.25 0 1 0 2.5 0 a1.25 1.25 0 1 0 -2.5 0zM273.75 145 a1.25 1.25 0 1 0 2.5 0 a1.25 1.25 0 1 0 -2.5 0zM173.75 165 a1.25 1.25 0 1 0 2.5 0 a1.25 1.25 0 1 0 -2.5 0z" fill="black"></path>
            <path d="M333.75 415 a1.25 1.25 0 1 0 2.5 0 a1.25 1.25 0 1 0 -2.5 0zM113.75 405 a1.25 1.25 0 1 0 2.5 0 a1.25 1.25 0 1 0 -2.5 0zM453.75 405 a1.25 1.25 0 1 0 2.5 0 a1.25 1.25 0 1 0 -2.5 0zM123.75 395 a1.25 1.25 0 1 0 2.5 0 a1.25 1.25 0 1 0 -2.5 0zM293.75 405 a1.25 1.25 0 1 0 2.5 0 a1.25 1.25 0 1 0 -2.5 0zM253.75 405 a1.25 1.25 0 1 0 2.5 0 a1.25 1.25 0 1 0 -2.5 0zM103.75 405 a1.25 1.25 0 1 0 2.5 0 a1.25 1.25 0 1 0 -2.5 0z" fill="black"></path>
            <path d="M343.75 425 a1.25 1.25 0 1 0 2.5 0 a1.25 1.25 0 1 0 -2.5 0zM203.75 425 a1.25 1.25 0 1 0 2.5 0 a1.25 1.25 0 1 0 -2.5 0zM233.75 415 a1.25 1.25 0 1 0 2.5 0 a1.25 1.25 0 1 0 -2.5 0zM223.75 425 a1.25 1.25 0 1 0 2.5 0 a1.25 1.25 0 1 0 -2.5 0z" fill="black"></path>
            <path d="M83.75 185 a1.25 1.25 0 1 0 2.5 0 a1.25 1.25 0 1 0 -2.5 0zM13.75 195 a1.25 1.25 0 1 0 2.5 0 a1.25 1.25 0 1 0 -2.5 0z" fill="black"></path>
            <path d="M413.75 435 a1.25 1.25 0 1 0 2.5 0 a1.25 1.25 0 1 0 -2.5 0zM393.75 455 a1.25 1.25 0 1 0 2.5 0 a1.25 1.25 0 1 0 -2.5 0zM443.75 425 a1.25 1.25 0 1 0 2.5 0 a1.25 1.25 0 1 0 -2.5 0zM383.75 415 a1.25 1.25 0 1 0 2.5 0 a1.25 1.25 0 1 0 -2.5 0zM443.75 455 a1.25 1.25 0 1 0 2.5 0 a1.25 1.25 0 1 0 -2.5 0zM373.75 415 a1.25 1.25 0 1 0 2.5 0 a1.25 1.25 0 1 0 -2.5 0zM193.75 425 a1.25 1.25 0 1 0 2.5 0 a1.25 1.25 0 1 0 -2.5 0z" fill="black"></path>
            <path d="M103.75 175 a1.25 1.25 0 1 0 2.5 0 a1.25 1.25 0 1 0 -2.5 0zM103.75 185 a1.25 1.25 0 1 0 2.5 0 a1.25 1.25 0 1 0 -2.5 0z" fill="black"></path>
            <path d="M293.75 445 a1.25 1.25 0 1 0 2.5 0 a1.25 1.25 0 1 0 -2.5 0zM293.75 455 a1.25 1.25 0 1 0 2.5 0 a1.25 1.25 0 1 0 -2.5 0zM273.75 455 a1.25 1.25 0 1 0 2.5 0 a1.25 1.25 0 1 0 -2.5 0zM263.75 455 a1.25 1.25 0 1 0 2.5 0 a1.25 1.25 0 1 0 -2.5 0zM253.75 455 a1.25 1.25 0 1 0 2.5 0 a1.25 1.25 0 1 0 -2.5 0zM223.75 455 a1.25 1.25 0 1 0 2.5 0 a1.25 1.25 0 1 0 -2.5 0z" fill="black"></path>
            <path d="M93.75 165 a1.25 1.25 0 1 0 2.5 0 a1.25 1.25 0 1 0 -2.5 0z" fill="black"></path>
            <path d="M403.75 475 a1.25 1.25 0 1 0 2.5 0 a1.25 1.25 0 1 0 -2.5 0zM343.75 455 a1.25 1.25 0 1 0 2.5 0 a1.25 1.25 0 1 0 -2.5 0zM453.75 485 a1.25 1.25 0 1 0 2.5 0 a1.25 1.25 0 1 0 -2.5 0zM213.75 455 a1.25 1.25 0 1 0 2.5 0 a1.25 1.25 0 1 0 -2.5 0zM363.75 485 a1.25 1.25 0 1 0 2.5 0 a1.25 1.25 0 1 0 -2.5 0zM393.75 465 a1.25 1.25 0 1 0 2.5 0 a1.25 1.25 0 1 0 -2.5 0zM383.75 465 a1.25 1.25 0 1 0 2.5 0 a1.25 1.25 0 1 0 -2.5 0zM333.75 485 a1.25 1.25 0 1 0 2.5 0 a1.25 1.25 0 1 0 -2.5 0z" fill="black"></path>
            <path d="M193.75 165 a1.25 1.25 0 1 0 2.5 0 a1.25 1.25 0 1 0 -2.5 0zM123.75 155 a1.25 1.25 0 1 0 2.5 0 a1.25 1.25 0 1 0 -2.5 0zM153.75 155 a1.25 1.25 0 1 0 2.5 0 a1.25 1.25 0 1 0 -2.5 0zM123.75 135 a1.25 1.25 0 1 0 2.5 0 a1.25 1.25 0 1 0 -2.5 0zM163.75 135 a1.25 1.25 0 1 0 2.5 0 a1.25 1.25 0 1 0 -2.5 0zM103.75 135 a1.25 1.25 0 1 0 2.5 0 a1.25 1.25 0 1 0 -2.5 0z" fill="black"></path>
            <path d="M303.75 485 a1.25 1.25 0 1 0 2.5 0 a1.25 1.25 0 1 0 -2.5 0zM133.75 465 a1.25 1.25 0 1 0 2.5 0 a1.25 1.25 0 1 0 -2.5 0zM213.75 485 a1.25 1.25 0 1 0 2.5 0 a1.25 1.25 0 1 0 -2.5 0zM153.75 475 a1.25 1.25 0 1 0 2.5 0 a1.25 1.25 0 1 0 -2.5 0zM173.75 475 a1.25 1.25 0 1 0 2.5 0 a1.25 1.25 0 1 0 -2.5 0zM143.75 485 a1.25 1.25 0 1 0 2.5 0 a1.25 1.25 0 1 0 -2.5 0zM83.75 465 a1.25 1.25 0 1 0 2.5 0 a1.25 1.25 0 1 0 -2.5 0zM153.75 465 a1.25 1.25 0 1 0 2.5 0 a1.25 1.25 0 1 0 -2.5 0zM313.75 505 a1.25 1.25 0 1 0 2.5 0 a1.25 1.25 0 1 0 -2.5 0z" fill="black"></path>
            <path d="M53.75 145 a1.25 1.25 0 1 0 2.5 0 a1.25 1.25 0 1 0 -2.5 0zM83.75 135 a1.25 1.25 0 1 0 2.5 0 a1.25 1.25 0 1 0 -2.5 0zM63.75 125 a1.25 1.25 0 1 0 2.5 0 a1.25 1.25 0 1 0 -2.5 0zM23.75 135 a1.25 1.25 0 1 0 2.5 0 a1.25 1.25 0 1 0 -2.5 0z" fill="black"></path>
        </mask>
    </defs>
</svg>