<svg xmlns="http://www.w3.org/2000/svg" version="1.1" xmlns:xlink="http://www.w3.org/1999/xlink" xmlns:svgjs="http://svgjs.dev/svgjs" width="1440" height="560" preserveAspectRatio="none" viewBox="0 0 1440 560">
    <g mask="url(&quot;#SvgjsMask1346&quot;)" fill="none">
        <g mask="url(&quot;#SvgjsMask1347&quot;)">
            <path d="M75 295L85 285L95 285L105 285L115 285L125 285L135 285L145 285M185 295L195 285L205 285L215 285L225 285L235 285L245 285L255 285M215 305L225 295M205 295L215 295M65 295L75 285L85 275L95 275L105 275L115 275L125 275L135 275L145 275L155 275L165 275M45 295L55 285L65 285M165 295L175 285L185 285L195 275M-5 285L5 285L15 285L25 285L35 285L45 295L55 295L65 295L75 295L85 295L95 295L105 295L115 295L125 295L135 295L145 295L155 295L165 295L175 295L185 295L195 295L205 295L215 305L225 305L235 305L245 305L255 305L265 305L275 305" stroke="rgba(218, 224, 227, 0.05)" stroke-width="1.67"></path>
            <path d="M272.5 305 a2.5 2.5 0 1 0 5 0 a2.5 2.5 0 1 0 -5 0zM142.5 285 a2.5 2.5 0 1 0 5 0 a2.5 2.5 0 1 0 -5 0zM252.5 285 a2.5 2.5 0 1 0 5 0 a2.5 2.5 0 1 0 -5 0zM222.5 295 a2.5 2.5 0 1 0 5 0 a2.5 2.5 0 1 0 -5 0zM212.5 295 a2.5 2.5 0 1 0 5 0 a2.5 2.5 0 1 0 -5 0zM162.5 275 a2.5 2.5 0 1 0 5 0 a2.5 2.5 0 1 0 -5 0zM62.5 285 a2.5 2.5 0 1 0 5 0 a2.5 2.5 0 1 0 -5 0zM192.5 275 a2.5 2.5 0 1 0 5 0 a2.5 2.5 0 1 0 -5 0z" fill="rgba(218, 224, 227, 0.05)"></path>
            <path d="M435 235L445 235L455 235L465 235L475 235M5 275L15 265L25 265L35 265M275 275L285 265M165 265L175 255L185 255L195 255L205 255L215 255M225 275L235 265L245 265L255 265L265 265L275 265L285 255M405 245L415 255L425 255L435 255L445 255L455 255L465 255M345 255L355 265L365 265L375 265L385 265L395 265L405 265M325 255L335 265L345 265M105 265L115 255L125 255L135 255L145 255L155 255M375 255L385 255L395 255M75 265L85 255M305 265L315 275L325 275L335 275M-5 275L5 275L15 275L25 275L35 275L45 275L55 275L65 275L75 265L85 265L95 265L105 265L115 265L125 265L135 265L145 265L155 265L165 265L175 265L185 265L195 265L205 275L215 275L225 275L235 275L245 275L255 275L265 275L275 275L285 275L295 265L305 265L315 265L325 255L335 255L345 255L355 255L365 255L375 255L385 245L395 245L405 245L415 245L425 245L435 235L445 225L455 225L465 225L475 225L485 225L495 225" stroke="rgba(218, 224, 227, 0.05)" stroke-width="1.67"></path>
            <path d="M492.5 225 a2.5 2.5 0 1 0 5 0 a2.5 2.5 0 1 0 -5 0zM472.5 235 a2.5 2.5 0 1 0 5 0 a2.5 2.5 0 1 0 -5 0zM32.5 265 a2.5 2.5 0 1 0 5 0 a2.5 2.5 0 1 0 -5 0zM282.5 265 a2.5 2.5 0 1 0 5 0 a2.5 2.5 0 1 0 -5 0zM212.5 255 a2.5 2.5 0 1 0 5 0 a2.5 2.5 0 1 0 -5 0zM282.5 255 a2.5 2.5 0 1 0 5 0 a2.5 2.5 0 1 0 -5 0zM462.5 255 a2.5 2.5 0 1 0 5 0 a2.5 2.5 0 1 0 -5 0zM402.5 265 a2.5 2.5 0 1 0 5 0 a2.5 2.5 0 1 0 -5 0zM342.5 265 a2.5 2.5 0 1 0 5 0 a2.5 2.5 0 1 0 -5 0zM152.5 255 a2.5 2.5 0 1 0 5 0 a2.5 2.5 0 1 0 -5 0zM392.5 255 a2.5 2.5 0 1 0 5 0 a2.5 2.5 0 1 0 -5 0zM82.5 255 a2.5 2.5 0 1 0 5 0 a2.5 2.5 0 1 0 -5 0zM332.5 275 a2.5 2.5 0 1 0 5 0 a2.5 2.5 0 1 0 -5 0z" fill="rgba(218, 224, 227, 0.05)"></path>
            <path d="M395 325L405 325L415 325L425 325L435 335M385 325L395 335L405 335L415 335L425 335M335 325L345 315L355 315L365 315M95 305L105 315L115 315L125 315L135 315L145 315L155 315M185 305L195 315M165 305L175 315L185 315M215 315L225 325L235 325M255 315L265 325L275 325M285 325L295 315L305 315L315 315L325 315L335 315L345 305L355 305L365 305M275 315L285 315L295 305L305 305L315 305L325 305L335 305M195 305L205 305M-5 295L5 295L15 295L25 295L35 295L45 305L55 305L65 305L75 305L85 305L95 305L105 305L115 305L125 305L135 305L145 305L155 305L165 305L175 305L185 305L195 305L205 315L215 315L225 315L235 315L245 315L255 315L265 315L275 315L285 325L295 325L305 325L315 325L325 325L335 325L345 325L355 325L365 325L375 325L385 325L395 325L405 315L415 315L425 315" stroke="rgba(218, 224, 227, 0.05)" stroke-width="1.67"></path>
            <path d="M422.5 315 a2.5 2.5 0 1 0 5 0 a2.5 2.5 0 1 0 -5 0zM432.5 335 a2.5 2.5 0 1 0 5 0 a2.5 2.5 0 1 0 -5 0zM422.5 335 a2.5 2.5 0 1 0 5 0 a2.5 2.5 0 1 0 -5 0zM362.5 315 a2.5 2.5 0 1 0 5 0 a2.5 2.5 0 1 0 -5 0zM152.5 315 a2.5 2.5 0 1 0 5 0 a2.5 2.5 0 1 0 -5 0zM192.5 315 a2.5 2.5 0 1 0 5 0 a2.5 2.5 0 1 0 -5 0zM182.5 315 a2.5 2.5 0 1 0 5 0 a2.5 2.5 0 1 0 -5 0zM232.5 325 a2.5 2.5 0 1 0 5 0 a2.5 2.5 0 1 0 -5 0zM272.5 325 a2.5 2.5 0 1 0 5 0 a2.5 2.5 0 1 0 -5 0zM362.5 305 a2.5 2.5 0 1 0 5 0 a2.5 2.5 0 1 0 -5 0zM332.5 305 a2.5 2.5 0 1 0 5 0 a2.5 2.5 0 1 0 -5 0zM202.5 305 a2.5 2.5 0 1 0 5 0 a2.5 2.5 0 1 0 -5 0z" fill="rgba(218, 224, 227, 0.05)"></path>
            <path d="M-5 265L5 255L15 255L25 255L35 255L45 255L55 255" stroke="rgba(255, 255, 255, 0.1)" stroke-width="1.67"></path>
            <path d="M52.5 255 a2.5 2.5 0 1 0 5 0 a2.5 2.5 0 1 0 -5 0z" fill="rgba(255, 255, 255, 0.1)"></path>
            <path d="M325 335L335 345L345 345L355 345M275 335L285 345L295 345L305 345L315 345L325 345M75 315L85 315L95 315M265 335L275 345M245 335L255 325M205 325L215 325M-5 305L5 305L15 305L25 305L35 305L45 315L55 315L65 315L75 315L85 325L95 325L105 325L115 325L125 325L135 325L145 325L155 325L165 325L175 325L185 325L195 325L205 325L215 335L225 335L235 335L245 335L255 335L265 335L275 335L285 335L295 335L305 335L315 335L325 335L335 335L345 335" stroke="rgba(255, 255, 255, 0.1)" stroke-width="1.67"></path>
            <path d="M342.5 335 a2.5 2.5 0 1 0 5 0 a2.5 2.5 0 1 0 -5 0zM352.5 345 a2.5 2.5 0 1 0 5 0 a2.5 2.5 0 1 0 -5 0zM322.5 345 a2.5 2.5 0 1 0 5 0 a2.5 2.5 0 1 0 -5 0zM92.5 315 a2.5 2.5 0 1 0 5 0 a2.5 2.5 0 1 0 -5 0zM272.5 345 a2.5 2.5 0 1 0 5 0 a2.5 2.5 0 1 0 -5 0zM252.5 325 a2.5 2.5 0 1 0 5 0 a2.5 2.5 0 1 0 -5 0zM212.5 325 a2.5 2.5 0 1 0 5 0 a2.5 2.5 0 1 0 -5 0z" fill="rgba(255, 255, 255, 0.1)"></path>
            <path d="M195 245L205 235L215 235L225 235L235 225L245 225L255 225L265 225L275 225L285 225L295 225L305 225M295 255L305 245L315 245M155 245L165 235L175 235L185 225M265 245L275 255M75 245L85 235M285 245L295 245L305 235L315 235L325 235M95 245L105 235L115 235L125 235M385 235L395 225M405 235L415 225L425 225M245 245L255 255L265 255M365 245L375 235L385 225M-5 255L5 245L15 245L25 245L35 245L45 245L55 245L65 245L75 245L85 245L95 245L105 245L115 245L125 245L135 245L145 245L155 245L165 245L175 245L185 245L195 245L205 245L215 245L225 245L235 245L245 245L255 245L265 245L275 245L285 245L295 255L305 255L315 255L325 245L335 245L345 245L355 245L365 245L375 245L385 235L395 235L405 235L415 235L425 235L435 225" stroke="rgba(255, 255, 255, 0.1)" stroke-width="1.67"></path>
            <path d="M432.5 225 a2.5 2.5 0 1 0 5 0 a2.5 2.5 0 1 0 -5 0zM302.5 225 a2.5 2.5 0 1 0 5 0 a2.5 2.5 0 1 0 -5 0zM312.5 245 a2.5 2.5 0 1 0 5 0 a2.5 2.5 0 1 0 -5 0zM182.5 225 a2.5 2.5 0 1 0 5 0 a2.5 2.5 0 1 0 -5 0zM272.5 255 a2.5 2.5 0 1 0 5 0 a2.5 2.5 0 1 0 -5 0zM82.5 235 a2.5 2.5 0 1 0 5 0 a2.5 2.5 0 1 0 -5 0zM322.5 235 a2.5 2.5 0 1 0 5 0 a2.5 2.5 0 1 0 -5 0zM122.5 235 a2.5 2.5 0 1 0 5 0 a2.5 2.5 0 1 0 -5 0zM392.5 225 a2.5 2.5 0 1 0 5 0 a2.5 2.5 0 1 0 -5 0zM422.5 225 a2.5 2.5 0 1 0 5 0 a2.5 2.5 0 1 0 -5 0zM262.5 255 a2.5 2.5 0 1 0 5 0 a2.5 2.5 0 1 0 -5 0zM382.5 225 a2.5 2.5 0 1 0 5 0 a2.5 2.5 0 1 0 -5 0z" fill="rgba(255, 255, 255, 0.1)"></path>
            <path d="M105 335L115 345L125 345L135 345M25 315L35 315M95 335L105 345M-5 315L5 315L15 315L25 315L35 325L45 325L55 325L65 325L75 325L85 335L95 335L105 335L115 335L125 335L135 335L145 335L155 335L165 335L175 335L185 335L195 335L205 335L215 345L225 345L235 345L245 345" stroke="rgba(255, 255, 255, 0.1)" stroke-width="1.67"></path>
            <path d="M242.5 345 a2.5 2.5 0 1 0 5 0 a2.5 2.5 0 1 0 -5 0zM132.5 345 a2.5 2.5 0 1 0 5 0 a2.5 2.5 0 1 0 -5 0zM32.5 315 a2.5 2.5 0 1 0 5 0 a2.5 2.5 0 1 0 -5 0zM102.5 345 a2.5 2.5 0 1 0 5 0 a2.5 2.5 0 1 0 -5 0z" fill="rgba(255, 255, 255, 0.1)"></path>
            <path d="M455 215L465 205L475 205L485 205L495 205L505 205L515 205L525 205L535 205L545 205L555 205L565 205L575 205M355 215L365 225L375 225M165 205L175 195L185 195M85 215L95 225L105 225L115 225M315 215L325 225L335 225L345 225L355 225L365 235M235 215L245 205L255 205L265 205L275 205L285 205M395 215L405 205L415 205L425 205L435 205M335 215L345 205M375 215L385 205M515 215L525 225L535 225M325 215L335 205L345 195L355 195L365 185L375 185L385 185M365 215L375 205L385 195L395 195L405 195M105 205L115 215L125 215L135 215L145 215L155 225L165 225L175 215M155 205L165 195M-5 245L5 235L15 235L25 235L35 235L45 235L55 235L65 225L75 215L85 215L95 215L105 205L115 205L125 205L135 205L145 205L155 205L165 205L175 205L185 215L195 215L205 215L215 215L225 215L235 215L245 215L255 215L265 215L275 215L285 215L295 215L305 215L315 215L325 215L335 215L345 215L355 215L365 215L375 215L385 215L395 215L405 215L415 215L425 215L435 215L445 215L455 215L465 215L475 215L485 215L495 215L505 215L515 215L525 215L535 215L545 215" stroke="rgba(255, 255, 255, 0.1)" stroke-width="1.67"></path>
            <path d="M542.5 215 a2.5 2.5 0 1 0 5 0 a2.5 2.5 0 1 0 -5 0zM572.5 205 a2.5 2.5 0 1 0 5 0 a2.5 2.5 0 1 0 -5 0zM372.5 225 a2.5 2.5 0 1 0 5 0 a2.5 2.5 0 1 0 -5 0zM182.5 195 a2.5 2.5 0 1 0 5 0 a2.5 2.5 0 1 0 -5 0zM112.5 225 a2.5 2.5 0 1 0 5 0 a2.5 2.5 0 1 0 -5 0zM362.5 235 a2.5 2.5 0 1 0 5 0 a2.5 2.5 0 1 0 -5 0zM282.5 205 a2.5 2.5 0 1 0 5 0 a2.5 2.5 0 1 0 -5 0zM432.5 205 a2.5 2.5 0 1 0 5 0 a2.5 2.5 0 1 0 -5 0zM342.5 205 a2.5 2.5 0 1 0 5 0 a2.5 2.5 0 1 0 -5 0zM382.5 205 a2.5 2.5 0 1 0 5 0 a2.5 2.5 0 1 0 -5 0zM532.5 225 a2.5 2.5 0 1 0 5 0 a2.5 2.5 0 1 0 -5 0zM382.5 185 a2.5 2.5 0 1 0 5 0 a2.5 2.5 0 1 0 -5 0zM402.5 195 a2.5 2.5 0 1 0 5 0 a2.5 2.5 0 1 0 -5 0zM172.5 215 a2.5 2.5 0 1 0 5 0 a2.5 2.5 0 1 0 -5 0zM162.5 195 a2.5 2.5 0 1 0 5 0 a2.5 2.5 0 1 0 -5 0z" fill="rgba(255, 255, 255, 0.1)"></path>
            <path d="M55 335L65 345M45 335L55 345M-5 325L5 325L15 325L25 325L35 335L45 335L55 335L65 335L75 335L85 345" stroke="rgba(255, 255, 255, 0.1)" stroke-width="1.67"></path>
            <path d="M82.5 345 a2.5 2.5 0 1 0 5 0 a2.5 2.5 0 1 0 -5 0zM62.5 345 a2.5 2.5 0 1 0 5 0 a2.5 2.5 0 1 0 -5 0zM52.5 345 a2.5 2.5 0 1 0 5 0 a2.5 2.5 0 1 0 -5 0z" fill="rgba(255, 255, 255, 0.1)"></path>
            <path d="M-5 235L5 225L15 225L25 225" stroke="rgba(255, 255, 255, 0.1)" stroke-width="1.67"></path>
            <path d="M22.5 225 a2.5 2.5 0 1 0 5 0 a2.5 2.5 0 1 0 -5 0z" fill="rgba(255, 255, 255, 0.1)"></path>
            <path d="M35 345L45 345M-5 335L5 335L15 335L25 335L35 345L45 355L55 355L65 355L75 355L85 355L95 355" stroke="rgba(255, 255, 255, 0.1)" stroke-width="1.67"></path>
            <path d="M92.5 355 a2.5 2.5 0 1 0 5 0 a2.5 2.5 0 1 0 -5 0zM42.5 345 a2.5 2.5 0 1 0 5 0 a2.5 2.5 0 1 0 -5 0z" fill="rgba(255, 255, 255, 0.1)"></path>
            <path d="M145 185L155 195M135 185L145 195M45 215L55 225M115 195L125 195L135 195M-5 225L5 215L15 215L25 215L35 215L45 215L55 215L65 215L75 205L85 205L95 195L105 195L115 195L125 185L135 185L145 185L155 185L165 185" stroke="rgba(255, 255, 255, 0.1)" stroke-width="1.67"></path>
            <path d="M162.5 185 a2.5 2.5 0 1 0 5 0 a2.5 2.5 0 1 0 -5 0zM152.5 195 a2.5 2.5 0 1 0 5 0 a2.5 2.5 0 1 0 -5 0zM142.5 195 a2.5 2.5 0 1 0 5 0 a2.5 2.5 0 1 0 -5 0zM52.5 225 a2.5 2.5 0 1 0 5 0 a2.5 2.5 0 1 0 -5 0zM132.5 195 a2.5 2.5 0 1 0 5 0 a2.5 2.5 0 1 0 -5 0z" fill="rgba(255, 255, 255, 0.1)"></path>
            <path d="M475 395L485 385L495 385L505 385L515 385L525 385L535 385L545 385L555 385L565 385L575 385L585 385L595 385L605 385L615 385M115 355L125 365L135 365L145 365L155 365M465 395L475 385L485 375L495 375L505 375L515 375L525 375L535 375L545 375L555 375M425 395L435 385M105 355L115 365M375 395L385 385L395 385L405 385L415 385M295 355L305 355L315 355L325 355L335 355M175 345L185 355L195 355L205 355L215 365M335 375L345 365L355 365M325 365L335 365M455 395L465 385L475 375L485 365L495 365M15 345L25 355M-5 345L5 345L15 345L25 345L35 355L45 365L55 365L65 365L75 365L85 365L95 365L105 355L115 355L125 355L135 355L145 345L155 345L165 345L175 345L185 345L195 345L205 345L215 355L225 355L235 355L245 355L255 355L265 355L275 355L285 355L295 355L305 365L315 365L325 365L335 375L345 375L355 385L365 385L375 395L385 395L395 395L405 395L415 395L425 395L435 395L445 395L455 395L465 395L475 395L485 395" stroke="rgba(255, 255, 255, 0.1)" stroke-width="1.67"></path>
            <path d="M482.5 395 a2.5 2.5 0 1 0 5 0 a2.5 2.5 0 1 0 -5 0zM612.5 385 a2.5 2.5 0 1 0 5 0 a2.5 2.5 0 1 0 -5 0zM152.5 365 a2.5 2.5 0 1 0 5 0 a2.5 2.5 0 1 0 -5 0zM552.5 375 a2.5 2.5 0 1 0 5 0 a2.5 2.5 0 1 0 -5 0zM432.5 385 a2.5 2.5 0 1 0 5 0 a2.5 2.5 0 1 0 -5 0zM112.5 365 a2.5 2.5 0 1 0 5 0 a2.5 2.5 0 1 0 -5 0zM412.5 385 a2.5 2.5 0 1 0 5 0 a2.5 2.5 0 1 0 -5 0zM332.5 355 a2.5 2.5 0 1 0 5 0 a2.5 2.5 0 1 0 -5 0zM212.5 365 a2.5 2.5 0 1 0 5 0 a2.5 2.5 0 1 0 -5 0zM352.5 365 a2.5 2.5 0 1 0 5 0 a2.5 2.5 0 1 0 -5 0zM332.5 365 a2.5 2.5 0 1 0 5 0 a2.5 2.5 0 1 0 -5 0zM492.5 365 a2.5 2.5 0 1 0 5 0 a2.5 2.5 0 1 0 -5 0zM22.5 355 a2.5 2.5 0 1 0 5 0 a2.5 2.5 0 1 0 -5 0z" fill="rgba(255, 255, 255, 0.1)"></path>
            <path d="M45 205L55 195L65 195M-5 215L5 205L15 205L25 205L35 205L45 205L55 205L65 205L75 195L85 195L95 185L105 185" stroke="rgba(218, 224, 227, 0.05)" stroke-width="1.67"></path>
            <path d="M102.5 185 a2.5 2.5 0 1 0 5 0 a2.5 2.5 0 1 0 -5 0zM62.5 195 a2.5 2.5 0 1 0 5 0 a2.5 2.5 0 1 0 -5 0z" fill="rgba(218, 224, 227, 0.05)"></path>
            <path d="M85 375L95 385L105 385L115 385L125 385M255 365L265 375L275 375L285 375L295 375L305 385L315 385L325 385M165 375L175 365L185 365L195 365M5 355L15 355M245 365L255 375L265 385L275 385L285 385L295 385M505 405L515 395L525 395L535 395L545 395L555 395L565 395L575 395M225 365L235 375L245 375L255 385M45 375L55 385M515 405L525 415L535 415L545 415L555 415L565 415L575 415M485 405L495 415L505 415L515 415M495 405L505 395M75 375L85 385M-5 355L5 355L15 365L25 365L35 365L45 375L55 375L65 375L75 375L85 375L95 375L105 375L115 375L125 375L135 375L145 375L155 375L165 375L175 375L185 375L195 375L205 375L215 375L225 365L235 365L245 365L255 365L265 365L275 365L285 365L295 365L305 375L315 375L325 375L335 385L345 385L355 395L365 395L375 405L385 405L395 405L405 405L415 405L425 405L435 405L445 405L455 405L465 405L475 405L485 405L495 405L505 405L515 405L525 405" stroke="rgba(255, 255, 255, 0.1)" stroke-width="1.67"></path>
            <path d="M522.5 405 a2.5 2.5 0 1 0 5 0 a2.5 2.5 0 1 0 -5 0zM122.5 385 a2.5 2.5 0 1 0 5 0 a2.5 2.5 0 1 0 -5 0zM322.5 385 a2.5 2.5 0 1 0 5 0 a2.5 2.5 0 1 0 -5 0zM192.5 365 a2.5 2.5 0 1 0 5 0 a2.5 2.5 0 1 0 -5 0zM12.5 355 a2.5 2.5 0 1 0 5 0 a2.5 2.5 0 1 0 -5 0zM292.5 385 a2.5 2.5 0 1 0 5 0 a2.5 2.5 0 1 0 -5 0zM572.5 395 a2.5 2.5 0 1 0 5 0 a2.5 2.5 0 1 0 -5 0zM252.5 385 a2.5 2.5 0 1 0 5 0 a2.5 2.5 0 1 0 -5 0zM52.5 385 a2.5 2.5 0 1 0 5 0 a2.5 2.5 0 1 0 -5 0zM572.5 415 a2.5 2.5 0 1 0 5 0 a2.5 2.5 0 1 0 -5 0zM512.5 415 a2.5 2.5 0 1 0 5 0 a2.5 2.5 0 1 0 -5 0zM502.5 395 a2.5 2.5 0 1 0 5 0 a2.5 2.5 0 1 0 -5 0zM82.5 385 a2.5 2.5 0 1 0 5 0 a2.5 2.5 0 1 0 -5 0z" fill="rgba(255, 255, 255, 0.1)"></path>
            <path d="M-5 205L5 195L15 195L25 195L35 195" stroke="rgba(218, 224, 227, 0.05)" stroke-width="1.67"></path>
            <path d="M32.5 195 a2.5 2.5 0 1 0 5 0 a2.5 2.5 0 1 0 -5 0z" fill="rgba(218, 224, 227, 0.05)"></path>
            <path d="M-5 365L5 365L15 375L25 375" stroke="rgba(255, 255, 255, 0.1)" stroke-width="1.67"></path>
            <path d="M22.5 375 a2.5 2.5 0 1 0 5 0 a2.5 2.5 0 1 0 -5 0z" fill="rgba(255, 255, 255, 0.1)"></path>
            <path d="M75 185L85 185M235 165L245 165L255 165L265 165M155 165L165 175L175 175M265 155L275 145L285 135L295 135L305 135L315 135L325 135M255 155L265 145L275 135M215 165L225 175L235 175M145 165L155 175M185 165L195 175L205 175L215 185L225 185L235 185L245 185M-5 195L5 185L15 185L25 185L35 185L45 185L55 185L65 185L75 185L85 175L95 175L105 175L115 175L125 175L135 165L145 165L155 165L165 165L175 165L185 165L195 165L205 165L215 165L225 165L235 165L245 155L255 155L265 155L275 155L285 155L295 155L305 155" stroke="rgba(218, 224, 227, 0.05)" stroke-width="1.67"></path>
            <path d="M302.5 155 a2.5 2.5 0 1 0 5 0 a2.5 2.5 0 1 0 -5 0zM82.5 185 a2.5 2.5 0 1 0 5 0 a2.5 2.5 0 1 0 -5 0zM262.5 165 a2.5 2.5 0 1 0 5 0 a2.5 2.5 0 1 0 -5 0zM172.5 175 a2.5 2.5 0 1 0 5 0 a2.5 2.5 0 1 0 -5 0zM322.5 135 a2.5 2.5 0 1 0 5 0 a2.5 2.5 0 1 0 -5 0zM272.5 135 a2.5 2.5 0 1 0 5 0 a2.5 2.5 0 1 0 -5 0zM232.5 175 a2.5 2.5 0 1 0 5 0 a2.5 2.5 0 1 0 -5 0zM152.5 175 a2.5 2.5 0 1 0 5 0 a2.5 2.5 0 1 0 -5 0zM242.5 185 a2.5 2.5 0 1 0 5 0 a2.5 2.5 0 1 0 -5 0z" fill="rgba(218, 224, 227, 0.05)"></path>
            <path d="M265 395L275 405L285 405L295 405L305 405L315 405L325 405L335 405L345 405L355 415L365 415M415 415L425 425L435 425L445 425L455 425L465 425L475 425L485 435L495 435L505 445L515 445M115 395L125 405L135 405L145 405L155 405M475 415L485 415M245 405L255 395M175 385L185 395L195 395L205 395L215 405L225 405L235 415L245 415L255 415L265 415L275 425M215 395L225 385L235 385L245 385M25 395L35 385L45 385L55 395M155 385L165 395L175 395L185 405L195 405L205 405M255 405L265 405M395 415L405 425L415 425L425 435L435 435L445 435L455 435L465 435M15 385L25 385M65 395L75 385M-5 375L5 375L15 385L25 395L35 395L45 405L55 405L65 395L75 395L85 395L95 395L105 395L115 395L125 395L135 385L145 385L155 385L165 385L175 385L185 385L195 385L205 385L215 395L225 395L235 405L245 405L255 405L265 395L275 395L285 395L295 395L305 395L315 395L325 395L335 395L345 395L355 405L365 405L375 415L385 415L395 415L405 415L415 415L425 415L435 415L445 415L455 415L465 415L475 415L485 425L495 425L505 425L515 425L525 425" stroke="rgba(218, 224, 227, 0.05)" stroke-width="1.67"></path>
            <path d="M522.5 425 a2.5 2.5 0 1 0 5 0 a2.5 2.5 0 1 0 -5 0zM362.5 415 a2.5 2.5 0 1 0 5 0 a2.5 2.5 0 1 0 -5 0zM512.5 445 a2.5 2.5 0 1 0 5 0 a2.5 2.5 0 1 0 -5 0zM152.5 405 a2.5 2.5 0 1 0 5 0 a2.5 2.5 0 1 0 -5 0zM482.5 415 a2.5 2.5 0 1 0 5 0 a2.5 2.5 0 1 0 -5 0zM252.5 395 a2.5 2.5 0 1 0 5 0 a2.5 2.5 0 1 0 -5 0zM272.5 425 a2.5 2.5 0 1 0 5 0 a2.5 2.5 0 1 0 -5 0zM242.5 385 a2.5 2.5 0 1 0 5 0 a2.5 2.5 0 1 0 -5 0zM52.5 395 a2.5 2.5 0 1 0 5 0 a2.5 2.5 0 1 0 -5 0zM202.5 405 a2.5 2.5 0 1 0 5 0 a2.5 2.5 0 1 0 -5 0zM262.5 405 a2.5 2.5 0 1 0 5 0 a2.5 2.5 0 1 0 -5 0zM462.5 435 a2.5 2.5 0 1 0 5 0 a2.5 2.5 0 1 0 -5 0zM22.5 385 a2.5 2.5 0 1 0 5 0 a2.5 2.5 0 1 0 -5 0zM72.5 385 a2.5 2.5 0 1 0 5 0 a2.5 2.5 0 1 0 -5 0z" fill="rgba(218, 224, 227, 0.05)"></path>
            <path d="M195 155L205 145L215 145M225 155L235 145M-5 185L5 175L15 175L25 175L35 175L45 175L55 175L65 175L75 175L85 165L95 165L105 165L115 165L125 165L135 155L145 155L155 155L165 155L175 155L185 155L195 155L205 155L215 155L225 155L235 155L245 145" stroke="rgba(255, 255, 255, 0.1)" stroke-width="1.67"></path>
            <path d="M242.5 145 a2.5 2.5 0 1 0 5 0 a2.5 2.5 0 1 0 -5 0zM212.5 145 a2.5 2.5 0 1 0 5 0 a2.5 2.5 0 1 0 -5 0zM232.5 145 a2.5 2.5 0 1 0 5 0 a2.5 2.5 0 1 0 -5 0z" fill="rgba(255, 255, 255, 0.1)"></path>
            <path d="M115 415L125 425L135 425L145 415M95 415L105 405M75 415L85 405L95 405M-5 385L5 385L15 395L25 405L35 405L45 415L55 415L65 415L75 415L85 415L95 415L105 415L115 415L125 415" stroke="rgba(255, 255, 255, 0.1)" stroke-width="1.67"></path>
            <path d="M122.5 415 a2.5 2.5 0 1 0 5 0 a2.5 2.5 0 1 0 -5 0zM142.5 415 a2.5 2.5 0 1 0 5 0 a2.5 2.5 0 1 0 -5 0zM102.5 405 a2.5 2.5 0 1 0 5 0 a2.5 2.5 0 1 0 -5 0zM92.5 405 a2.5 2.5 0 1 0 5 0 a2.5 2.5 0 1 0 -5 0z" fill="rgba(255, 255, 255, 0.1)"></path>
            <path d="M435 115L445 125L455 125M425 115L435 125L445 135L455 135L465 135L475 135L485 135L495 135L505 135M355 125L365 115L375 115L385 115L395 115M255 125L265 135M395 125L405 135M235 135L245 135L255 135M245 125L255 115L265 115M315 125L325 115L335 115L345 105L355 105L365 105L375 105L385 105M415 125L425 125L435 135L445 145L455 145L465 145L475 145L485 145L495 145M275 125L285 115L295 115L305 115L315 115L325 105L335 105M185 145L195 145M-5 175L5 165L15 165L25 165L35 165L45 165L55 165L65 165L75 165L85 155L95 155L105 155L115 155L125 155L135 145L145 145L155 145L165 145L175 145L185 145L195 135L205 135L215 135L225 135L235 135L245 125L255 125L265 125L275 125L285 125L295 125L305 125L315 125L325 125L335 125L345 125L355 125L365 125L375 125L385 125L395 125L405 125L415 125L425 115L435 115L445 115" stroke="rgba(218, 224, 227, 0.05)" stroke-width="1.67"></path>
            <path d="M442.5 115 a2.5 2.5 0 1 0 5 0 a2.5 2.5 0 1 0 -5 0zM452.5 125 a2.5 2.5 0 1 0 5 0 a2.5 2.5 0 1 0 -5 0zM502.5 135 a2.5 2.5 0 1 0 5 0 a2.5 2.5 0 1 0 -5 0zM392.5 115 a2.5 2.5 0 1 0 5 0 a2.5 2.5 0 1 0 -5 0zM262.5 135 a2.5 2.5 0 1 0 5 0 a2.5 2.5 0 1 0 -5 0zM402.5 135 a2.5 2.5 0 1 0 5 0 a2.5 2.5 0 1 0 -5 0zM252.5 135 a2.5 2.5 0 1 0 5 0 a2.5 2.5 0 1 0 -5 0zM262.5 115 a2.5 2.5 0 1 0 5 0 a2.5 2.5 0 1 0 -5 0zM382.5 105 a2.5 2.5 0 1 0 5 0 a2.5 2.5 0 1 0 -5 0zM492.5 145 a2.5 2.5 0 1 0 5 0 a2.5 2.5 0 1 0 -5 0zM332.5 105 a2.5 2.5 0 1 0 5 0 a2.5 2.5 0 1 0 -5 0zM192.5 145 a2.5 2.5 0 1 0 5 0 a2.5 2.5 0 1 0 -5 0z" fill="rgba(218, 224, 227, 0.05)"></path>
            <path d="M105 435L115 425M275 435L285 445L295 445L305 445L315 455L325 455L335 455M145 435L155 425L165 425L175 425L185 425L195 425L205 425M135 435L145 445M315 445L325 435L335 435L345 435M215 435L225 445L235 445L245 445L255 455M305 435L315 435L325 425L335 425M225 435L235 425L245 425L255 425L265 425M-5 395L5 395L15 405L25 415L35 415L45 425L55 425L65 425L75 425L85 425L95 425L105 435L115 435L125 435L135 435L145 435L155 435L165 435L175 435L185 435L195 435L205 435L215 435L225 435L235 435L245 435L255 445L265 445L275 435L285 435L295 435L305 435L315 445L325 445L335 445" stroke="rgba(218, 224, 227, 0.05)" stroke-width="1.67"></path>
            <path d="M332.5 445 a2.5 2.5 0 1 0 5 0 a2.5 2.5 0 1 0 -5 0zM112.5 425 a2.5 2.5 0 1 0 5 0 a2.5 2.5 0 1 0 -5 0zM332.5 455 a2.5 2.5 0 1 0 5 0 a2.5 2.5 0 1 0 -5 0zM202.5 425 a2.5 2.5 0 1 0 5 0 a2.5 2.5 0 1 0 -5 0zM142.5 445 a2.5 2.5 0 1 0 5 0 a2.5 2.5 0 1 0 -5 0zM342.5 435 a2.5 2.5 0 1 0 5 0 a2.5 2.5 0 1 0 -5 0zM252.5 455 a2.5 2.5 0 1 0 5 0 a2.5 2.5 0 1 0 -5 0zM332.5 425 a2.5 2.5 0 1 0 5 0 a2.5 2.5 0 1 0 -5 0zM262.5 425 a2.5 2.5 0 1 0 5 0 a2.5 2.5 0 1 0 -5 0z" fill="rgba(218, 224, 227, 0.05)"></path>
            <path d="M215 125L225 115L235 115L245 115M175 135L185 135M155 135L165 125L175 125L185 115M205 125L215 115M195 125L205 115M-5 165L5 155L15 155L25 155L35 155L45 155L55 155L65 155L75 155L85 145L95 145L105 145L115 145L125 145L135 135L145 135L155 135L165 135L175 135L185 125L195 125L205 125L215 125L225 125L235 125" stroke="rgba(255, 255, 255, 0.1)" stroke-width="1.67"></path>
            <path d="M232.5 125 a2.5 2.5 0 1 0 5 0 a2.5 2.5 0 1 0 -5 0zM242.5 115 a2.5 2.5 0 1 0 5 0 a2.5 2.5 0 1 0 -5 0zM182.5 135 a2.5 2.5 0 1 0 5 0 a2.5 2.5 0 1 0 -5 0zM182.5 115 a2.5 2.5 0 1 0 5 0 a2.5 2.5 0 1 0 -5 0zM212.5 115 a2.5 2.5 0 1 0 5 0 a2.5 2.5 0 1 0 -5 0zM202.5 115 a2.5 2.5 0 1 0 5 0 a2.5 2.5 0 1 0 -5 0z" fill="rgba(255, 255, 255, 0.1)"></path>
            <path d="M115 455L125 445M75 435L85 445L95 445M105 445L115 445M-5 405L5 405L15 415L25 425L35 425L45 435L55 435L65 435L75 435L85 435L95 435L105 445L115 455L125 455" stroke="rgba(255, 255, 255, 0.1)" stroke-width="1.67"></path>
            <path d="M122.5 455 a2.5 2.5 0 1 0 5 0 a2.5 2.5 0 1 0 -5 0zM122.5 445 a2.5 2.5 0 1 0 5 0 a2.5 2.5 0 1 0 -5 0zM92.5 445 a2.5 2.5 0 1 0 5 0 a2.5 2.5 0 1 0 -5 0zM112.5 445 a2.5 2.5 0 1 0 5 0 a2.5 2.5 0 1 0 -5 0z" fill="rgba(255, 255, 255, 0.1)"></path>
            <path d="M295 105L305 105L315 105M225 105L235 95L245 95M425 105L435 95L445 95M405 115L415 105M205 105L215 95L225 95L235 85M365 95L375 85L385 85L395 85M135 125L145 125L155 125M385 95L395 95L405 95L415 95L425 95L435 85L445 85L455 85L465 85L475 75L485 75M45 145L55 135L65 135M315 95L325 85L335 85M285 105L295 95L305 85M-5 155L5 145L15 145L25 145L35 145L45 145L55 145L65 145L75 145L85 135L95 135L105 135L115 135L125 135L135 125L145 115L155 115L165 115L175 105L185 105L195 105L205 105L215 105L225 105L235 105L245 105L255 105L265 105L275 105L285 105L295 105L305 95L315 95L325 95L335 95L345 95L355 95L365 95L375 95L385 95L395 105L405 115L415 115L425 105L435 105L445 105L455 105" stroke="rgba(255, 255, 255, 0.1)" stroke-width="1.67"></path>
            <path d="M452.5 105 a2.5 2.5 0 1 0 5 0 a2.5 2.5 0 1 0 -5 0zM312.5 105 a2.5 2.5 0 1 0 5 0 a2.5 2.5 0 1 0 -5 0zM242.5 95 a2.5 2.5 0 1 0 5 0 a2.5 2.5 0 1 0 -5 0zM442.5 95 a2.5 2.5 0 1 0 5 0 a2.5 2.5 0 1 0 -5 0zM412.5 105 a2.5 2.5 0 1 0 5 0 a2.5 2.5 0 1 0 -5 0zM232.5 85 a2.5 2.5 0 1 0 5 0 a2.5 2.5 0 1 0 -5 0zM392.5 85 a2.5 2.5 0 1 0 5 0 a2.5 2.5 0 1 0 -5 0zM152.5 125 a2.5 2.5 0 1 0 5 0 a2.5 2.5 0 1 0 -5 0zM482.5 75 a2.5 2.5 0 1 0 5 0 a2.5 2.5 0 1 0 -5 0zM62.5 135 a2.5 2.5 0 1 0 5 0 a2.5 2.5 0 1 0 -5 0zM332.5 85 a2.5 2.5 0 1 0 5 0 a2.5 2.5 0 1 0 -5 0zM302.5 85 a2.5 2.5 0 1 0 5 0 a2.5 2.5 0 1 0 -5 0z" fill="rgba(255, 255, 255, 0.1)"></path>
            <path d="M175 485L185 485L195 485L205 485M95 455L105 465L115 475L125 475L135 475L145 475L155 485L165 495M55 445L65 455L75 465L85 465L95 465L105 475L115 485L125 485M185 495L195 505M165 485L175 475L185 475L195 475L205 475M-5 415L5 415L15 425L25 435L35 435L45 445L55 445L65 445L75 455L85 455L95 455L105 455L115 465L125 465L135 465L145 465L155 475L165 485L175 485L185 495L195 495L205 495" stroke="rgba(255, 255, 255, 0.1)" stroke-width="1.67"></path>
            <path d="M202.5 495 a2.5 2.5 0 1 0 5 0 a2.5 2.5 0 1 0 -5 0zM202.5 485 a2.5 2.5 0 1 0 5 0 a2.5 2.5 0 1 0 -5 0zM162.5 495 a2.5 2.5 0 1 0 5 0 a2.5 2.5 0 1 0 -5 0zM122.5 485 a2.5 2.5 0 1 0 5 0 a2.5 2.5 0 1 0 -5 0zM192.5 505 a2.5 2.5 0 1 0 5 0 a2.5 2.5 0 1 0 -5 0zM202.5 475 a2.5 2.5 0 1 0 5 0 a2.5 2.5 0 1 0 -5 0z" fill="rgba(255, 255, 255, 0.1)"></path>
            <path d="M115 125L125 115L135 105L145 95L155 95M45 125L55 115L65 115M25 135L35 125L45 115M105 125L115 115M75 125L85 115L95 115L105 115L115 105L125 105L135 95M-5 145L5 135L15 135L25 135L35 135L45 125L55 125L65 125L75 125L85 125L95 125L105 125L115 125L125 125L135 115L145 105L155 105L165 105L175 95L185 95" stroke="rgba(255, 255, 255, 0.1)" stroke-width="1.67"></path>
            <path d="M182.5 95 a2.5 2.5 0 1 0 5 0 a2.5 2.5 0 1 0 -5 0zM152.5 95 a2.5 2.5 0 1 0 5 0 a2.5 2.5 0 1 0 -5 0zM62.5 115 a2.5 2.5 0 1 0 5 0 a2.5 2.5 0 1 0 -5 0zM42.5 115 a2.5 2.5 0 1 0 5 0 a2.5 2.5 0 1 0 -5 0zM112.5 115 a2.5 2.5 0 1 0 5 0 a2.5 2.5 0 1 0 -5 0zM132.5 95 a2.5 2.5 0 1 0 5 0 a2.5 2.5 0 1 0 -5 0z" fill="rgba(255, 255, 255, 0.1)"></path>
        </g>
    </g>
    <defs>
        <mask id="SvgjsMask1346">
            <rect width="1440" height="560" fill="#ffffff"></rect>
        </mask>
        <mask id="SvgjsMask1347">
            <rect width="1440" height="560" fill="white"></rect>
            <path d="M273.75 305 a1.25 1.25 0 1 0 2.5 0 a1.25 1.25 0 1 0 -2.5 0zM143.75 285 a1.25 1.25 0 1 0 2.5 0 a1.25 1.25 0 1 0 -2.5 0zM253.75 285 a1.25 1.25 0 1 0 2.5 0 a1.25 1.25 0 1 0 -2.5 0zM223.75 295 a1.25 1.25 0 1 0 2.5 0 a1.25 1.25 0 1 0 -2.5 0zM213.75 295 a1.25 1.25 0 1 0 2.5 0 a1.25 1.25 0 1 0 -2.5 0zM163.75 275 a1.25 1.25 0 1 0 2.5 0 a1.25 1.25 0 1 0 -2.5 0zM63.75 285 a1.25 1.25 0 1 0 2.5 0 a1.25 1.25 0 1 0 -2.5 0zM193.75 275 a1.25 1.25 0 1 0 2.5 0 a1.25 1.25 0 1 0 -2.5 0z" fill="black"></path>
            <path d="M493.75 225 a1.25 1.25 0 1 0 2.5 0 a1.25 1.25 0 1 0 -2.5 0zM473.75 235 a1.25 1.25 0 1 0 2.5 0 a1.25 1.25 0 1 0 -2.5 0zM33.75 265 a1.25 1.25 0 1 0 2.5 0 a1.25 1.25 0 1 0 -2.5 0zM283.75 265 a1.25 1.25 0 1 0 2.5 0 a1.25 1.25 0 1 0 -2.5 0zM213.75 255 a1.25 1.25 0 1 0 2.5 0 a1.25 1.25 0 1 0 -2.5 0zM283.75 255 a1.25 1.25 0 1 0 2.5 0 a1.25 1.25 0 1 0 -2.5 0zM463.75 255 a1.25 1.25 0 1 0 2.5 0 a1.25 1.25 0 1 0 -2.5 0zM403.75 265 a1.25 1.25 0 1 0 2.5 0 a1.25 1.25 0 1 0 -2.5 0zM343.75 265 a1.25 1.25 0 1 0 2.5 0 a1.25 1.25 0 1 0 -2.5 0zM153.75 255 a1.25 1.25 0 1 0 2.5 0 a1.25 1.25 0 1 0 -2.5 0zM393.75 255 a1.25 1.25 0 1 0 2.5 0 a1.25 1.25 0 1 0 -2.5 0zM83.75 255 a1.25 1.25 0 1 0 2.5 0 a1.25 1.25 0 1 0 -2.5 0zM333.75 275 a1.25 1.25 0 1 0 2.5 0 a1.25 1.25 0 1 0 -2.5 0z" fill="black"></path>
            <path d="M423.75 315 a1.25 1.25 0 1 0 2.5 0 a1.25 1.25 0 1 0 -2.5 0zM433.75 335 a1.25 1.25 0 1 0 2.5 0 a1.25 1.25 0 1 0 -2.5 0zM423.75 335 a1.25 1.25 0 1 0 2.5 0 a1.25 1.25 0 1 0 -2.5 0zM363.75 315 a1.25 1.25 0 1 0 2.5 0 a1.25 1.25 0 1 0 -2.5 0zM153.75 315 a1.25 1.25 0 1 0 2.5 0 a1.25 1.25 0 1 0 -2.5 0zM193.75 315 a1.25 1.25 0 1 0 2.5 0 a1.25 1.25 0 1 0 -2.5 0zM183.75 315 a1.25 1.25 0 1 0 2.5 0 a1.25 1.25 0 1 0 -2.5 0zM233.75 325 a1.25 1.25 0 1 0 2.5 0 a1.25 1.25 0 1 0 -2.5 0zM273.75 325 a1.25 1.25 0 1 0 2.5 0 a1.25 1.25 0 1 0 -2.5 0zM363.75 305 a1.25 1.25 0 1 0 2.5 0 a1.25 1.25 0 1 0 -2.5 0zM333.75 305 a1.25 1.25 0 1 0 2.5 0 a1.25 1.25 0 1 0 -2.5 0zM203.75 305 a1.25 1.25 0 1 0 2.5 0 a1.25 1.25 0 1 0 -2.5 0z" fill="black"></path>
            <path d="M53.75 255 a1.25 1.25 0 1 0 2.5 0 a1.25 1.25 0 1 0 -2.5 0z" fill="black"></path>
            <path d="M343.75 335 a1.25 1.25 0 1 0 2.5 0 a1.25 1.25 0 1 0 -2.5 0zM353.75 345 a1.25 1.25 0 1 0 2.5 0 a1.25 1.25 0 1 0 -2.5 0zM323.75 345 a1.25 1.25 0 1 0 2.5 0 a1.25 1.25 0 1 0 -2.5 0zM93.75 315 a1.25 1.25 0 1 0 2.5 0 a1.25 1.25 0 1 0 -2.5 0zM273.75 345 a1.25 1.25 0 1 0 2.5 0 a1.25 1.25 0 1 0 -2.5 0zM253.75 325 a1.25 1.25 0 1 0 2.5 0 a1.25 1.25 0 1 0 -2.5 0zM213.75 325 a1.25 1.25 0 1 0 2.5 0 a1.25 1.25 0 1 0 -2.5 0z" fill="black"></path>
            <path d="M433.75 225 a1.25 1.25 0 1 0 2.5 0 a1.25 1.25 0 1 0 -2.5 0zM303.75 225 a1.25 1.25 0 1 0 2.5 0 a1.25 1.25 0 1 0 -2.5 0zM313.75 245 a1.25 1.25 0 1 0 2.5 0 a1.25 1.25 0 1 0 -2.5 0zM183.75 225 a1.25 1.25 0 1 0 2.5 0 a1.25 1.25 0 1 0 -2.5 0zM273.75 255 a1.25 1.25 0 1 0 2.5 0 a1.25 1.25 0 1 0 -2.5 0zM83.75 235 a1.25 1.25 0 1 0 2.5 0 a1.25 1.25 0 1 0 -2.5 0zM323.75 235 a1.25 1.25 0 1 0 2.5 0 a1.25 1.25 0 1 0 -2.5 0zM123.75 235 a1.25 1.25 0 1 0 2.5 0 a1.25 1.25 0 1 0 -2.5 0zM393.75 225 a1.25 1.25 0 1 0 2.5 0 a1.25 1.25 0 1 0 -2.5 0zM423.75 225 a1.25 1.25 0 1 0 2.5 0 a1.25 1.25 0 1 0 -2.5 0zM263.75 255 a1.25 1.25 0 1 0 2.5 0 a1.25 1.25 0 1 0 -2.5 0zM383.75 225 a1.25 1.25 0 1 0 2.5 0 a1.25 1.25 0 1 0 -2.5 0z" fill="black"></path>
            <path d="M243.75 345 a1.25 1.25 0 1 0 2.5 0 a1.25 1.25 0 1 0 -2.5 0zM133.75 345 a1.25 1.25 0 1 0 2.5 0 a1.25 1.25 0 1 0 -2.5 0zM33.75 315 a1.25 1.25 0 1 0 2.5 0 a1.25 1.25 0 1 0 -2.5 0zM103.75 345 a1.25 1.25 0 1 0 2.5 0 a1.25 1.25 0 1 0 -2.5 0z" fill="black"></path>
            <path d="M543.75 215 a1.25 1.25 0 1 0 2.5 0 a1.25 1.25 0 1 0 -2.5 0zM573.75 205 a1.25 1.25 0 1 0 2.5 0 a1.25 1.25 0 1 0 -2.5 0zM373.75 225 a1.25 1.25 0 1 0 2.5 0 a1.25 1.25 0 1 0 -2.5 0zM183.75 195 a1.25 1.25 0 1 0 2.5 0 a1.25 1.25 0 1 0 -2.5 0zM113.75 225 a1.25 1.25 0 1 0 2.5 0 a1.25 1.25 0 1 0 -2.5 0zM363.75 235 a1.25 1.25 0 1 0 2.5 0 a1.25 1.25 0 1 0 -2.5 0zM283.75 205 a1.25 1.25 0 1 0 2.5 0 a1.25 1.25 0 1 0 -2.5 0zM433.75 205 a1.25 1.25 0 1 0 2.5 0 a1.25 1.25 0 1 0 -2.5 0zM343.75 205 a1.25 1.25 0 1 0 2.5 0 a1.25 1.25 0 1 0 -2.5 0zM383.75 205 a1.25 1.25 0 1 0 2.5 0 a1.25 1.25 0 1 0 -2.5 0zM533.75 225 a1.25 1.25 0 1 0 2.5 0 a1.25 1.25 0 1 0 -2.5 0zM383.75 185 a1.25 1.25 0 1 0 2.5 0 a1.25 1.25 0 1 0 -2.5 0zM403.75 195 a1.25 1.25 0 1 0 2.5 0 a1.25 1.25 0 1 0 -2.5 0zM173.75 215 a1.25 1.25 0 1 0 2.5 0 a1.25 1.25 0 1 0 -2.5 0zM163.75 195 a1.25 1.25 0 1 0 2.5 0 a1.25 1.25 0 1 0 -2.5 0z" fill="black"></path>
            <path d="M83.75 345 a1.25 1.25 0 1 0 2.5 0 a1.25 1.25 0 1 0 -2.5 0zM63.75 345 a1.25 1.25 0 1 0 2.5 0 a1.25 1.25 0 1 0 -2.5 0zM53.75 345 a1.25 1.25 0 1 0 2.5 0 a1.25 1.25 0 1 0 -2.5 0z" fill="black"></path>
            <path d="M23.75 225 a1.25 1.25 0 1 0 2.5 0 a1.25 1.25 0 1 0 -2.5 0z" fill="black"></path>
            <path d="M93.75 355 a1.25 1.25 0 1 0 2.5 0 a1.25 1.25 0 1 0 -2.5 0zM43.75 345 a1.25 1.25 0 1 0 2.5 0 a1.25 1.25 0 1 0 -2.5 0z" fill="black"></path>
            <path d="M163.75 185 a1.25 1.25 0 1 0 2.5 0 a1.25 1.25 0 1 0 -2.5 0zM153.75 195 a1.25 1.25 0 1 0 2.5 0 a1.25 1.25 0 1 0 -2.5 0zM143.75 195 a1.25 1.25 0 1 0 2.5 0 a1.25 1.25 0 1 0 -2.5 0zM53.75 225 a1.25 1.25 0 1 0 2.5 0 a1.25 1.25 0 1 0 -2.5 0zM133.75 195 a1.25 1.25 0 1 0 2.5 0 a1.25 1.25 0 1 0 -2.5 0z" fill="black"></path>
            <path d="M483.75 395 a1.25 1.25 0 1 0 2.5 0 a1.25 1.25 0 1 0 -2.5 0zM613.75 385 a1.25 1.25 0 1 0 2.5 0 a1.25 1.25 0 1 0 -2.5 0zM153.75 365 a1.25 1.25 0 1 0 2.5 0 a1.25 1.25 0 1 0 -2.5 0zM553.75 375 a1.25 1.25 0 1 0 2.5 0 a1.25 1.25 0 1 0 -2.5 0zM433.75 385 a1.25 1.25 0 1 0 2.5 0 a1.25 1.25 0 1 0 -2.5 0zM113.75 365 a1.25 1.25 0 1 0 2.5 0 a1.25 1.25 0 1 0 -2.5 0zM413.75 385 a1.25 1.25 0 1 0 2.5 0 a1.25 1.25 0 1 0 -2.5 0zM333.75 355 a1.25 1.25 0 1 0 2.5 0 a1.25 1.25 0 1 0 -2.5 0zM213.75 365 a1.25 1.25 0 1 0 2.5 0 a1.25 1.25 0 1 0 -2.5 0zM353.75 365 a1.25 1.25 0 1 0 2.5 0 a1.25 1.25 0 1 0 -2.5 0zM333.75 365 a1.25 1.25 0 1 0 2.5 0 a1.25 1.25 0 1 0 -2.5 0zM493.75 365 a1.25 1.25 0 1 0 2.5 0 a1.25 1.25 0 1 0 -2.5 0zM23.75 355 a1.25 1.25 0 1 0 2.5 0 a1.25 1.25 0 1 0 -2.5 0z" fill="black"></path>
            <path d="M103.75 185 a1.25 1.25 0 1 0 2.5 0 a1.25 1.25 0 1 0 -2.5 0zM63.75 195 a1.25 1.25 0 1 0 2.5 0 a1.25 1.25 0 1 0 -2.5 0z" fill="black"></path>
            <path d="M523.75 405 a1.25 1.25 0 1 0 2.5 0 a1.25 1.25 0 1 0 -2.5 0zM123.75 385 a1.25 1.25 0 1 0 2.5 0 a1.25 1.25 0 1 0 -2.5 0zM323.75 385 a1.25 1.25 0 1 0 2.5 0 a1.25 1.25 0 1 0 -2.5 0zM193.75 365 a1.25 1.25 0 1 0 2.5 0 a1.25 1.25 0 1 0 -2.5 0zM13.75 355 a1.25 1.25 0 1 0 2.5 0 a1.25 1.25 0 1 0 -2.5 0zM293.75 385 a1.25 1.25 0 1 0 2.5 0 a1.25 1.25 0 1 0 -2.5 0zM573.75 395 a1.25 1.25 0 1 0 2.5 0 a1.25 1.25 0 1 0 -2.5 0zM253.75 385 a1.25 1.25 0 1 0 2.5 0 a1.25 1.25 0 1 0 -2.5 0zM53.75 385 a1.25 1.25 0 1 0 2.5 0 a1.25 1.25 0 1 0 -2.5 0zM573.75 415 a1.25 1.25 0 1 0 2.5 0 a1.25 1.25 0 1 0 -2.5 0zM513.75 415 a1.25 1.25 0 1 0 2.5 0 a1.25 1.25 0 1 0 -2.5 0zM503.75 395 a1.25 1.25 0 1 0 2.5 0 a1.25 1.25 0 1 0 -2.5 0zM83.75 385 a1.25 1.25 0 1 0 2.5 0 a1.25 1.25 0 1 0 -2.5 0z" fill="black"></path>
            <path d="M33.75 195 a1.25 1.25 0 1 0 2.5 0 a1.25 1.25 0 1 0 -2.5 0z" fill="black"></path>
            <path d="M23.75 375 a1.25 1.25 0 1 0 2.5 0 a1.25 1.25 0 1 0 -2.5 0z" fill="black"></path>
            <path d="M303.75 155 a1.25 1.25 0 1 0 2.5 0 a1.25 1.25 0 1 0 -2.5 0zM83.75 185 a1.25 1.25 0 1 0 2.5 0 a1.25 1.25 0 1 0 -2.5 0zM263.75 165 a1.25 1.25 0 1 0 2.5 0 a1.25 1.25 0 1 0 -2.5 0zM173.75 175 a1.25 1.25 0 1 0 2.5 0 a1.25 1.25 0 1 0 -2.5 0zM323.75 135 a1.25 1.25 0 1 0 2.5 0 a1.25 1.25 0 1 0 -2.5 0zM273.75 135 a1.25 1.25 0 1 0 2.5 0 a1.25 1.25 0 1 0 -2.5 0zM233.75 175 a1.25 1.25 0 1 0 2.5 0 a1.25 1.25 0 1 0 -2.5 0zM153.75 175 a1.25 1.25 0 1 0 2.5 0 a1.25 1.25 0 1 0 -2.5 0zM243.75 185 a1.25 1.25 0 1 0 2.5 0 a1.25 1.25 0 1 0 -2.5 0z" fill="black"></path>
            <path d="M523.75 425 a1.25 1.25 0 1 0 2.5 0 a1.25 1.25 0 1 0 -2.5 0zM363.75 415 a1.25 1.25 0 1 0 2.5 0 a1.25 1.25 0 1 0 -2.5 0zM513.75 445 a1.25 1.25 0 1 0 2.5 0 a1.25 1.25 0 1 0 -2.5 0zM153.75 405 a1.25 1.25 0 1 0 2.5 0 a1.25 1.25 0 1 0 -2.5 0zM483.75 415 a1.25 1.25 0 1 0 2.5 0 a1.25 1.25 0 1 0 -2.5 0zM253.75 395 a1.25 1.25 0 1 0 2.5 0 a1.25 1.25 0 1 0 -2.5 0zM273.75 425 a1.25 1.25 0 1 0 2.5 0 a1.25 1.25 0 1 0 -2.5 0zM243.75 385 a1.25 1.25 0 1 0 2.5 0 a1.25 1.25 0 1 0 -2.5 0zM53.75 395 a1.25 1.25 0 1 0 2.5 0 a1.25 1.25 0 1 0 -2.5 0zM203.75 405 a1.25 1.25 0 1 0 2.5 0 a1.25 1.25 0 1 0 -2.5 0zM263.75 405 a1.25 1.25 0 1 0 2.5 0 a1.25 1.25 0 1 0 -2.5 0zM463.75 435 a1.25 1.25 0 1 0 2.5 0 a1.25 1.25 0 1 0 -2.5 0zM23.75 385 a1.25 1.25 0 1 0 2.5 0 a1.25 1.25 0 1 0 -2.5 0zM73.75 385 a1.25 1.25 0 1 0 2.5 0 a1.25 1.25 0 1 0 -2.5 0z" fill="black"></path>
            <path d="M243.75 145 a1.25 1.25 0 1 0 2.5 0 a1.25 1.25 0 1 0 -2.5 0zM213.75 145 a1.25 1.25 0 1 0 2.5 0 a1.25 1.25 0 1 0 -2.5 0zM233.75 145 a1.25 1.25 0 1 0 2.5 0 a1.25 1.25 0 1 0 -2.5 0z" fill="black"></path>
            <path d="M123.75 415 a1.25 1.25 0 1 0 2.5 0 a1.25 1.25 0 1 0 -2.5 0zM143.75 415 a1.25 1.25 0 1 0 2.5 0 a1.25 1.25 0 1 0 -2.5 0zM103.75 405 a1.25 1.25 0 1 0 2.5 0 a1.25 1.25 0 1 0 -2.5 0zM93.75 405 a1.25 1.25 0 1 0 2.5 0 a1.25 1.25 0 1 0 -2.5 0z" fill="black"></path>
            <path d="M443.75 115 a1.25 1.25 0 1 0 2.5 0 a1.25 1.25 0 1 0 -2.5 0zM453.75 125 a1.25 1.25 0 1 0 2.5 0 a1.25 1.25 0 1 0 -2.5 0zM503.75 135 a1.25 1.25 0 1 0 2.5 0 a1.25 1.25 0 1 0 -2.5 0zM393.75 115 a1.25 1.25 0 1 0 2.5 0 a1.25 1.25 0 1 0 -2.5 0zM263.75 135 a1.25 1.25 0 1 0 2.5 0 a1.25 1.25 0 1 0 -2.5 0zM403.75 135 a1.25 1.25 0 1 0 2.5 0 a1.25 1.25 0 1 0 -2.5 0zM253.75 135 a1.25 1.25 0 1 0 2.5 0 a1.25 1.25 0 1 0 -2.5 0zM263.75 115 a1.25 1.25 0 1 0 2.5 0 a1.25 1.25 0 1 0 -2.5 0zM383.75 105 a1.25 1.25 0 1 0 2.5 0 a1.25 1.25 0 1 0 -2.5 0zM493.75 145 a1.25 1.25 0 1 0 2.5 0 a1.25 1.25 0 1 0 -2.5 0zM333.75 105 a1.25 1.25 0 1 0 2.5 0 a1.25 1.25 0 1 0 -2.5 0zM193.75 145 a1.25 1.25 0 1 0 2.5 0 a1.25 1.25 0 1 0 -2.5 0z" fill="black"></path>
            <path d="M333.75 445 a1.25 1.25 0 1 0 2.5 0 a1.25 1.25 0 1 0 -2.5 0zM113.75 425 a1.25 1.25 0 1 0 2.5 0 a1.25 1.25 0 1 0 -2.5 0zM333.75 455 a1.25 1.25 0 1 0 2.5 0 a1.25 1.25 0 1 0 -2.5 0zM203.75 425 a1.25 1.25 0 1 0 2.5 0 a1.25 1.25 0 1 0 -2.5 0zM143.75 445 a1.25 1.25 0 1 0 2.5 0 a1.25 1.25 0 1 0 -2.5 0zM343.75 435 a1.25 1.25 0 1 0 2.5 0 a1.25 1.25 0 1 0 -2.5 0zM253.75 455 a1.25 1.25 0 1 0 2.5 0 a1.25 1.25 0 1 0 -2.5 0zM333.75 425 a1.25 1.25 0 1 0 2.5 0 a1.25 1.25 0 1 0 -2.5 0zM263.75 425 a1.25 1.25 0 1 0 2.5 0 a1.25 1.25 0 1 0 -2.5 0z" fill="black"></path>
            <path d="M233.75 125 a1.25 1.25 0 1 0 2.5 0 a1.25 1.25 0 1 0 -2.5 0zM243.75 115 a1.25 1.25 0 1 0 2.5 0 a1.25 1.25 0 1 0 -2.5 0zM183.75 135 a1.25 1.25 0 1 0 2.5 0 a1.25 1.25 0 1 0 -2.5 0zM183.75 115 a1.25 1.25 0 1 0 2.5 0 a1.25 1.25 0 1 0 -2.5 0zM213.75 115 a1.25 1.25 0 1 0 2.5 0 a1.25 1.25 0 1 0 -2.5 0zM203.75 115 a1.25 1.25 0 1 0 2.5 0 a1.25 1.25 0 1 0 -2.5 0z" fill="black"></path>
            <path d="M123.75 455 a1.25 1.25 0 1 0 2.5 0 a1.25 1.25 0 1 0 -2.5 0zM123.75 445 a1.25 1.25 0 1 0 2.5 0 a1.25 1.25 0 1 0 -2.5 0zM93.75 445 a1.25 1.25 0 1 0 2.5 0 a1.25 1.25 0 1 0 -2.5 0zM113.75 445 a1.25 1.25 0 1 0 2.5 0 a1.25 1.25 0 1 0 -2.5 0z" fill="black"></path>
            <path d="M453.75 105 a1.25 1.25 0 1 0 2.5 0 a1.25 1.25 0 1 0 -2.5 0zM313.75 105 a1.25 1.25 0 1 0 2.5 0 a1.25 1.25 0 1 0 -2.5 0zM243.75 95 a1.25 1.25 0 1 0 2.5 0 a1.25 1.25 0 1 0 -2.5 0zM443.75 95 a1.25 1.25 0 1 0 2.5 0 a1.25 1.25 0 1 0 -2.5 0zM413.75 105 a1.25 1.25 0 1 0 2.5 0 a1.25 1.25 0 1 0 -2.5 0zM233.75 85 a1.25 1.25 0 1 0 2.5 0 a1.25 1.25 0 1 0 -2.5 0zM393.75 85 a1.25 1.25 0 1 0 2.5 0 a1.25 1.25 0 1 0 -2.5 0zM153.75 125 a1.25 1.25 0 1 0 2.5 0 a1.25 1.25 0 1 0 -2.5 0zM483.75 75 a1.25 1.25 0 1 0 2.5 0 a1.25 1.25 0 1 0 -2.5 0zM63.75 135 a1.25 1.25 0 1 0 2.5 0 a1.25 1.25 0 1 0 -2.5 0zM333.75 85 a1.25 1.25 0 1 0 2.5 0 a1.25 1.25 0 1 0 -2.5 0zM303.75 85 a1.25 1.25 0 1 0 2.5 0 a1.25 1.25 0 1 0 -2.5 0z" fill="black"></path>
            <path d="M203.75 495 a1.25 1.25 0 1 0 2.5 0 a1.25 1.25 0 1 0 -2.5 0zM203.75 485 a1.25 1.25 0 1 0 2.5 0 a1.25 1.25 0 1 0 -2.5 0zM163.75 495 a1.25 1.25 0 1 0 2.5 0 a1.25 1.25 0 1 0 -2.5 0zM123.75 485 a1.25 1.25 0 1 0 2.5 0 a1.25 1.25 0 1 0 -2.5 0zM193.75 505 a1.25 1.25 0 1 0 2.5 0 a1.25 1.25 0 1 0 -2.5 0zM203.75 475 a1.25 1.25 0 1 0 2.5 0 a1.25 1.25 0 1 0 -2.5 0z" fill="black"></path>
            <path d="M183.75 95 a1.25 1.25 0 1 0 2.5 0 a1.25 1.25 0 1 0 -2.5 0zM153.75 95 a1.25 1.25 0 1 0 2.5 0 a1.25 1.25 0 1 0 -2.5 0zM63.75 115 a1.25 1.25 0 1 0 2.5 0 a1.25 1.25 0 1 0 -2.5 0zM43.75 115 a1.25 1.25 0 1 0 2.5 0 a1.25 1.25 0 1 0 -2.5 0zM113.75 115 a1.25 1.25 0 1 0 2.5 0 a1.25 1.25 0 1 0 -2.5 0zM133.75 95 a1.25 1.25 0 1 0 2.5 0 a1.25 1.25 0 1 0 -2.5 0z" fill="black"></path>
        </mask>
    </defs>
</svg>